<svg width="62.000000" height="61.998962" viewBox="0 0 62 61.999" fill="none" xmlns="http://www.w3.org/2000/svg" xmlns:xlink="http://www.w3.org/1999/xlink">
	<desc>
			Created with Pixso.
	</desc>
	<defs/>
	<path id="Vector" d="M61.98 23.7C61.98 23.63 61.96 23.56 61.94 23.49C61.93 23.43 61.91 23.37 61.88 23.31C61.85 23.25 61.82 23.2 61.78 23.15C61.74 23.09 61.69 23.04 61.64 22.99C61.62 22.98 61.62 22.96 61.6 22.94L51.66 15.22L51.66 7.22C51.66 5.51 50.27 4.12 48.56 4.12L37.36 4.12L32.88 0.64C31.77 -0.22 30.22 -0.22 29.11 0.64L24.62 4.12L13.43 4.12C11.71 4.12 10.33 5.51 10.33 7.22L10.33 15.22L0.39 22.94C0.37 22.96 0.37 22.98 0.35 22.99C0.3 23.04 0.25 23.09 0.21 23.15C0.17 23.2 0.14 23.25 0.11 23.31C0.08 23.37 0.06 23.43 0.05 23.49C0.03 23.55 0.01 23.62 0.01 23.69C0.01 23.72 0 23.73 0 23.76L0 58.89C0 59.55 0.21 60.19 0.6 60.72C0.61 60.73 0.61 60.74 0.62 60.75C0.62 60.75 0.64 60.76 0.65 60.78C1.23 61.54 2.13 61.99 3.09 61.99L58.89 61.99C59.86 61.99 60.76 61.54 61.35 60.77C61.35 60.76 61.37 60.76 61.37 60.75C61.38 60.74 61.38 60.73 61.39 60.72C61.78 60.19 61.99 59.55 62 58.89L62 23.76C62 23.74 61.98 23.72 61.98 23.7ZM30.37 2.27C30.73 1.99 31.25 1.99 31.61 2.27L33.99 4.12L28 4.12L30.37 2.27ZM3.35 59.93L30.37 38.94C30.73 38.65 31.25 38.65 31.61 38.94L58.63 59.93L3.35 59.93ZM59.93 58.32L32.88 37.31C31.77 36.44 30.22 36.44 29.11 37.31L2.06 58.32L2.06 25.33L18.99 38.48C19.44 38.83 20.09 38.75 20.44 38.3C20.79 37.85 20.71 37.2 20.26 36.85L3.06 23.49L10.33 17.84L10.33 25.83C10.33 26.4 10.79 26.86 11.36 26.86C11.93 26.86 12.39 26.4 12.39 25.83L12.39 7.22C12.39 6.65 12.86 6.19 13.43 6.19L48.56 6.19C49.13 6.19 49.59 6.65 49.59 7.22L49.59 25.83C49.59 26.4 50.06 26.86 50.63 26.86C51.2 26.86 51.66 26.4 51.66 25.83L51.66 17.84L58.93 23.49L41.7 36.87C41.4 37.1 41.25 37.46 41.3 37.83C41.35 38.2 41.59 38.52 41.93 38.65C42.28 38.79 42.67 38.74 42.96 38.51L59.93 25.33L59.93 58.32L59.93 58.32Z" fill="#CB8734" fill-opacity="1.000000" fill-rule="nonzero"/>
	<path id="Vector" d="M43.39 24.79L43.39 20.66C43.39 13.81 37.84 8.26 30.99 8.26C24.14 8.26 18.59 13.81 18.59 20.66C18.59 27.51 24.14 33.06 30.99 33.06C31.56 33.06 32.03 32.6 32.03 32.03C32.03 31.46 31.56 30.99 30.99 30.99C25.29 30.99 20.66 26.37 20.66 20.66C20.66 14.95 25.29 10.32 30.99 10.32C36.7 10.32 41.33 14.95 41.33 20.66L41.33 24.79C41.33 25.93 40.4 26.86 39.26 26.86C38.12 26.86 37.19 25.93 37.19 24.79L37.19 20.66C37.19 20.09 36.73 19.63 36.16 19.63C35.59 19.63 35.13 20.09 35.13 20.66C35.13 22.94 33.28 24.79 30.99 24.79C28.71 24.79 26.86 22.94 26.86 20.66C26.86 18.38 28.71 16.53 30.99 16.53C31.56 16.53 32.03 16.06 32.03 15.49C32.03 14.92 31.56 14.46 30.99 14.46C28.22 14.45 25.78 16.29 25.02 18.96C24.26 21.63 25.36 24.48 27.72 25.94C30.08 27.39 33.13 27.1 35.17 25.23C35.4 27.41 37.3 29.04 39.49 28.92C41.68 28.81 43.4 26.99 43.39 24.79Z" fill="#CB8734" fill-opacity="1.000000" fill-rule="nonzero"/>
</svg>
