<svg width="62.000000" height="62.000000" viewBox="0 0 62 62" fill="none" xmlns="http://www.w3.org/2000/svg" xmlns:xlink="http://www.w3.org/1999/xlink">
	<desc>
			Created with Pixso.
	</desc>
	<defs/>
	<path id="Vector" d="M61.09 22.06L59.99 22.06L59.99 20.96C59.99 20.46 59.58 20.06 59.08 20.06C58.58 20.06 58.17 20.46 58.17 20.96L58.17 22.06L57.08 22.06C56.57 22.06 56.17 22.47 56.17 22.97L56.17 25.98C56.17 26.03 56.12 26.07 56.07 26.07L49.05 26.07C48.55 26.07 48.14 26.48 48.14 26.98L48.14 28.08L47.04 28.08C46.54 28.08 46.14 28.49 46.14 28.99C46.14 29.49 46.54 29.9 47.04 29.9L48.14 29.9L48.14 31C48.14 31.5 48.55 31.9 49.05 31.9L56.07 31.9C56.12 31.9 56.17 31.95 56.17 32L56.17 48.05C56.17 48.1 56.12 48.14 56.07 48.14L38.02 48.14C37.96 48.14 37.92 48.1 37.92 48.05L37.92 43.03C37.92 42.53 37.52 42.12 37.01 42.12L35.92 42.12L35.92 41.03C35.92 40.52 35.51 40.12 35.01 40.12C34.51 40.12 34.1 40.52 34.1 41.03L34.1 42.12L33 42.12C32.5 42.12 32.09 42.53 32.09 43.03L32.09 48.05C32.09 48.1 32.05 48.14 32 48.14L13.94 48.14C13.89 48.14 13.85 48.1 13.85 48.05L13.85 32C13.85 31.95 13.89 31.9 13.94 31.9L32 31.9C32.05 31.9 32.09 31.95 32.09 32L32.09 35.01C32.09 35.51 32.5 35.92 33 35.92L34.1 35.92L34.1 37.01C34.1 37.52 34.51 37.92 35.01 37.92C35.51 37.92 35.92 37.52 35.92 37.01L35.92 35.92L37.01 35.92C37.52 35.92 37.92 35.51 37.92 35.01L37.92 32C37.92 31.95 37.96 31.9 38.02 31.9L41.03 31.9C41.53 31.9 41.93 31.5 41.93 31L41.93 29.9L43.03 29.9C43.53 29.9 43.94 29.49 43.94 28.99C43.94 28.49 43.53 28.08 43.03 28.08L41.93 28.08L41.93 26.98C41.93 26.48 41.53 26.07 41.03 26.07L38.02 26.07C37.96 26.07 37.92 26.03 37.92 25.98L37.92 22.97C37.92 22.47 37.52 22.06 37.01 22.06L35.92 22.06L35.92 20.96C35.92 20.46 35.51 20.06 35.01 20.06C34.51 20.06 34.1 20.46 34.1 20.96L34.1 22.06L33 22.06C32.5 22.06 32.09 22.47 32.09 22.97L32.09 25.98C32.09 26.03 32.05 26.07 32 26.07L23.04 26.07C22.54 26.07 22.13 26.48 22.13 26.98C22.13 27.48 22.54 27.89 23.04 27.89L32 27.89C33.05 27.89 33.91 27.03 33.91 25.98L33.91 23.88L36.11 23.88L36.11 25.98C36.11 27.03 36.96 27.89 38.02 27.89L40.12 27.89L40.12 30.09L38.02 30.09C36.96 30.09 36.11 30.94 36.11 32L36.11 34.1L33.91 34.1L33.91 32C33.91 30.94 33.05 30.09 32 30.09L13.94 30.09C12.89 30.09 12.03 30.94 12.03 32L12.03 48.05C12.03 49.1 12.89 49.96 13.94 49.96L32 49.96C33.05 49.96 33.91 49.1 33.91 48.05L33.91 43.94L36.11 43.94L36.11 48.05C36.11 49.1 36.96 49.96 38.02 49.96L56.07 49.96C57.13 49.96 57.98 49.1 57.98 48.05L57.98 32C57.98 30.94 57.13 30.09 56.07 30.09L49.96 30.09L49.96 27.89L56.07 27.89C57.13 27.89 57.98 27.03 57.98 25.98L57.98 23.88L60.18 23.88L60.18 52.06C60.18 52.11 60.14 52.15 60.08 52.15L9.93 52.15C9.88 52.15 9.84 52.11 9.84 52.06L9.84 1.91C9.84 1.85 9.88 1.81 9.93 1.81L49.24 1.81C49.74 1.81 50.15 1.4 50.15 0.9C50.15 0.4 49.74 0 49.24 0L9.93 0C9.72 0 9.52 0.03 9.33 0.09C9.21 0.03 9.07 0 8.93 0L6.92 0C6.42 0 6.01 0.4 6.01 0.9C6.01 1.4 6.42 1.81 6.92 1.81L8.02 1.81C8.02 1.84 8.02 1.87 8.02 1.91L8.02 52.06C8.02 52.09 8.02 52.12 8.02 52.15L6.92 52.15C6.42 52.15 6.01 52.56 6.01 53.06C6.01 53.56 6.42 53.97 6.92 53.97L8.02 53.97L8.02 55.07C8.02 55.57 8.43 55.98 8.93 55.98C9.43 55.98 9.84 55.57 9.84 55.07L9.84 53.97C9.87 53.97 9.9 53.97 9.93 53.97L60.08 53.97C60.12 53.97 60.15 53.97 60.18 53.97L60.18 55.07C60.18 55.57 60.59 55.98 61.09 55.98C61.59 55.98 62 55.57 62 55.07L62 53.06C62 52.92 61.96 52.78 61.9 52.66C61.96 52.47 62 52.27 62 52.06L62 22.97C62 22.47 61.59 22.06 61.09 22.06Z" fill="#CB8734" fill-opacity="1.000000" fill-rule="nonzero"/>
	<path id="Vector" d="M59.99 21.86L59.99 20.96C59.99 20.46 59.58 20.06 59.08 20.06C58.58 20.06 58.17 20.46 58.17 20.96L58.17 22.06L57.08 22.06C56.57 22.06 56.17 22.47 56.17 22.97L56.17 25.98C56.17 26.03 56.12 26.07 56.07 26.07L49.05 26.07C48.55 26.07 48.14 26.48 48.14 26.98L48.14 28.08L47.04 28.08C46.54 28.08 46.14 28.49 46.14 28.99C46.14 29.49 46.54 29.9 47.04 29.9L48.14 29.9L48.14 31C48.14 31.5 48.55 31.9 49.05 31.9L56.07 31.9C56.12 31.9 56.17 31.95 56.17 32L56.17 48.05C56.17 48.1 56.12 48.14 56.07 48.14L38.02 48.14C37.96 48.14 37.92 48.1 37.92 48.05L37.92 43.03C37.92 42.53 37.52 42.12 37.01 42.12L35.92 42.12L35.92 41.03C35.92 40.52 35.51 40.12 35.01 40.12C34.51 40.12 34.1 40.52 34.1 41.03L34.1 42.12L33 42.12C32.5 42.12 32.09 42.53 32.09 43.03L32.09 48.05C32.09 48.1 32.05 48.14 32 48.14L13.94 48.14C13.89 48.14 13.85 48.1 13.85 48.05L13.85 32C13.85 31.95 13.89 31.9 13.94 31.9L32 31.9C32.05 31.9 32.09 31.95 32.09 32L32.09 35.01C32.09 35.51 32.5 35.92 33 35.92L34.1 35.92L34.1 37.01C34.1 37.52 34.51 37.92 35.01 37.92C35.51 37.92 35.92 37.52 35.92 37.01L35.92 35.92L37.01 35.92C37.52 35.92 37.92 35.51 37.92 35.01L37.92 32C37.92 31.95 37.96 31.9 38.02 31.9L41.03 31.9C41.53 31.9 41.93 31.5 41.93 31L41.93 29.9L43.03 29.9C43.53 29.9 43.94 29.49 43.94 28.99C43.94 28.49 43.53 28.08 43.03 28.08L41.93 28.08L41.93 26.98C41.93 26.48 41.53 26.07 41.03 26.07L38.02 26.07C37.96 26.07 37.92 26.03 37.92 25.98L37.92 22.97C37.92 22.47 37.52 22.06 37.01 22.06L35.92 22.06L35.92 20.96C35.92 20.46 35.51 20.06 35.01 20.06C34.51 20.06 34.1 20.46 34.1 20.96L34.1 22.06L33 22.06C32.5 22.06 32.09 22.47 32.09 22.97L32.09 25.98C32.09 26.03 32.05 26.07 32 26.07L23.04 26.07C22.54 26.07 22.13 26.48 22.13 26.98C22.13 27.48 22.54 27.89 23.04 27.89L32 27.89C33.05 27.89 33.91 27.03 33.91 25.98L33.91 23.88L36.11 23.88L36.11 25.98C36.11 27.03 36.96 27.89 38.02 27.89L40.12 27.89L40.12 30.09L38.02 30.09C36.96 30.09 36.11 30.94 36.11 32L36.11 34.1L33.91 34.1L33.91 32C33.91 30.94 33.05 30.09 32 30.09L13.94 30.09C12.89 30.09 12.03 30.94 12.03 32L12.03 48.05C12.03 49.1 12.89 49.96 13.94 49.96L32 49.96C33.05 49.96 33.91 49.1 33.91 48.05L33.91 43.94L36.11 43.94L36.11 48.05C36.11 49.1 36.96 49.96 38.02 49.96L56.07 49.96C57.13 49.96 57.98 49.1 57.98 48.05L57.98 32C57.98 30.94 57.13 30.09 56.07 30.09L49.96 30.09L49.96 27.89L56.07 27.89C57.13 27.89 57.98 27.03 57.98 25.98L57.98 23.88L60.18 23.88L60.18 52.06C60.18 52.11 60.14 52.15 60.08 52.15L9.93 52.15C9.88 52.15 9.84 52.11 9.84 52.06L9.84 1.91C9.84 1.85 9.88 1.81 9.93 1.81L49.24 1.81C49.74 1.81 50.15 1.4 50.15 0.9C50.15 0.4 49.74 0 49.24 0L9.93 0C9.72 0 9.52 0.03 9.33 0.09C9.21 0.03 9.07 0 8.93 0L6.92 0C6.42 0 6.01 0.4 6.01 0.9C6.01 1.4 6.42 1.81 6.92 1.81L8.02 1.81C8.02 1.84 8.02 1.87 8.02 1.91L8.02 52.06C8.02 52.09 8.02 52.12 8.02 52.15L6.92 52.15C6.42 52.15 6.01 52.56 6.01 53.06C6.01 53.56 6.42 53.97 6.92 53.97L8.02 53.97L8.02 55.07C8.02 55.57 8.43 55.98 8.93 55.98C9.43 55.98 9.84 55.57 9.84 55.07L9.84 53.97C9.87 53.97 9.9 53.97 9.93 53.97L60.08 53.97C60.12 53.97 60.15 53.97 60.18 53.97L60.18 55.07C60.18 55.57 60.59 55.98 61.09 55.98C61.59 55.98 62 55.57 62 55.07L62 53.06C62 52.92 61.96 52.78 61.9 52.66C61.96 52.47 62 52.27 62 52.06L62 22.97C62 22.47 61.59 22.06 61.09 22.06L59.99 22.06L59.99 21.86ZM59.79 20.96L59.79 22.26L61.09 22.26Q61.23 22.26 61.36 22.32Q61.48 22.37 61.59 22.47Q61.69 22.57 61.74 22.7Q61.8 22.83 61.8 22.97L61.8 52.06Q61.8 52.14 61.79 52.22Q61.77 52.41 61.71 52.59L61.68 52.67L61.72 52.75Q61.76 52.83 61.78 52.92Q61.8 52.99 61.8 53.06L61.8 55.07Q61.8 55.22 61.74 55.34Q61.69 55.47 61.59 55.57Q61.48 55.67 61.36 55.72Q61.23 55.78 61.09 55.78Q60.94 55.78 60.81 55.72Q60.69 55.67 60.59 55.57Q60.48 55.47 60.43 55.34Q60.38 55.22 60.38 55.07L60.38 53.76L60.17 53.77Q60.16 53.77 60.13 53.77Q60.1 53.77 60.08 53.77L9.93 53.77Q9.92 53.77 9.88 53.77Q9.86 53.77 9.85 53.77L9.64 53.76L9.64 55.07Q9.64 55.22 9.58 55.34Q9.53 55.47 9.43 55.57Q9.33 55.67 9.2 55.72Q9.07 55.78 8.93 55.78Q8.78 55.78 8.66 55.72Q8.53 55.67 8.43 55.57Q8.32 55.47 8.27 55.34Q8.22 55.22 8.22 55.07L8.22 53.77L6.92 53.77Q6.77 53.77 6.65 53.72Q6.52 53.67 6.42 53.56Q6.32 53.46 6.27 53.33Q6.21 53.21 6.21 53.06Q6.21 52.92 6.27 52.79Q6.32 52.66 6.42 52.56Q6.52 52.46 6.65 52.41Q6.77 52.35 6.92 52.35L8.23 52.35L8.22 52.14Q8.22 52.13 8.22 52.11Q8.22 52.07 8.22 52.06L8.22 1.91Q8.22 1.89 8.22 1.86Q8.22 1.83 8.22 1.82L8.23 1.61L6.92 1.61Q6.77 1.61 6.65 1.56Q6.52 1.51 6.42 1.4Q6.32 1.3 6.27 1.18Q6.21 1.05 6.21 0.9Q6.21 0.76 6.27 0.63Q6.32 0.51 6.42 0.4Q6.52 0.3 6.65 0.25Q6.77 0.19 6.92 0.19L8.93 0.19Q9 0.19 9.07 0.21Q9.16 0.23 9.24 0.27L9.32 0.31L9.4 0.28Q9.58 0.22 9.77 0.2Q9.85 0.19 9.93 0.19L49.24 0.19Q49.39 0.19 49.51 0.25Q49.64 0.3 49.74 0.4Q49.84 0.51 49.9 0.63Q49.95 0.76 49.95 0.9Q49.95 1.05 49.9 1.18Q49.84 1.3 49.74 1.4Q49.64 1.51 49.51 1.56Q49.39 1.61 49.24 1.61L9.93 1.61Q9.87 1.61 9.82 1.63Q9.77 1.65 9.72 1.7Q9.68 1.74 9.66 1.79Q9.64 1.85 9.64 1.91L9.64 52.06Q9.64 52.12 9.66 52.17Q9.68 52.22 9.72 52.27Q9.77 52.31 9.82 52.33Q9.87 52.35 9.93 52.35L60.08 52.35Q60.14 52.35 60.2 52.33Q60.25 52.31 60.29 52.27Q60.34 52.22 60.36 52.17Q60.38 52.12 60.38 52.06L60.38 23.68L57.78 23.68L57.78 25.98Q57.78 26.17 57.74 26.35Q57.71 26.5 57.65 26.64Q57.59 26.79 57.51 26.91Q57.41 27.06 57.28 27.19Q57.15 27.32 57 27.41Q56.88 27.5 56.74 27.56Q56.59 27.62 56.44 27.65Q56.26 27.69 56.07 27.69L49.76 27.69L49.76 30.29L56.07 30.29Q56.26 30.29 56.44 30.33Q56.59 30.36 56.74 30.42Q56.88 30.48 57 30.56Q57.15 30.66 57.28 30.79Q57.41 30.92 57.51 31.07Q57.59 31.19 57.65 31.33Q57.71 31.48 57.74 31.63Q57.78 31.81 57.78 32L57.78 48.05Q57.78 48.24 57.74 48.42Q57.71 48.57 57.65 48.71Q57.59 48.85 57.51 48.98Q57.41 49.13 57.28 49.26Q57.15 49.38 57 49.48Q56.88 49.56 56.74 49.62Q56.59 49.68 56.44 49.72Q56.26 49.76 56.07 49.76L38.02 49.76Q37.83 49.76 37.65 49.72Q37.5 49.68 37.35 49.62Q37.21 49.56 37.08 49.48Q36.94 49.38 36.81 49.26Q36.68 49.13 36.58 48.98Q36.5 48.85 36.44 48.71Q36.38 48.57 36.35 48.42Q36.31 48.24 36.31 48.05L36.31 43.74L33.71 43.74L33.71 48.05Q33.71 48.24 33.67 48.42Q33.64 48.57 33.58 48.71Q33.52 48.85 33.43 48.98Q33.34 49.13 33.21 49.26Q33.08 49.38 32.93 49.48Q32.8 49.56 32.66 49.62Q32.52 49.68 32.37 49.72Q32.19 49.76 32 49.76L13.94 49.76Q13.75 49.76 13.57 49.72Q13.42 49.68 13.28 49.62Q13.14 49.56 13.01 49.48Q12.86 49.38 12.73 49.26Q12.61 49.13 12.51 48.98Q12.43 48.85 12.37 48.71Q12.31 48.57 12.27 48.42Q12.23 48.24 12.23 48.05L12.23 32Q12.23 31.81 12.27 31.63Q12.31 31.48 12.37 31.33Q12.43 31.19 12.51 31.07Q12.61 30.92 12.73 30.79Q12.86 30.66 13.01 30.56Q13.14 30.48 13.28 30.42Q13.42 30.36 13.57 30.33Q13.75 30.29 13.94 30.29L32 30.29Q32.19 30.29 32.37 30.33Q32.52 30.36 32.66 30.42Q32.8 30.48 32.93 30.56Q33.08 30.66 33.21 30.79Q33.34 30.92 33.43 31.07Q33.52 31.19 33.58 31.33Q33.64 31.48 33.67 31.63Q33.71 31.81 33.71 32L33.71 34.3L36.31 34.3L36.31 32Q36.31 31.81 36.35 31.63Q36.38 31.48 36.44 31.33Q36.5 31.19 36.58 31.07Q36.68 30.92 36.81 30.79Q36.94 30.66 37.08 30.56Q37.21 30.48 37.35 30.42Q37.5 30.36 37.65 30.33Q37.83 30.29 38.02 30.29L40.32 30.29L40.32 27.69L38.02 27.69Q37.83 27.69 37.65 27.65Q37.5 27.62 37.35 27.56Q37.21 27.5 37.08 27.41Q36.94 27.32 36.81 27.19Q36.68 27.06 36.58 26.91Q36.5 26.79 36.44 26.64Q36.38 26.5 36.35 26.35Q36.31 26.17 36.31 25.98L36.31 23.68L33.71 23.68L33.71 25.98Q33.71 26.17 33.67 26.35Q33.64 26.5 33.58 26.64Q33.52 26.79 33.43 26.91Q33.34 27.06 33.21 27.19Q33.08 27.32 32.93 27.41Q32.8 27.5 32.66 27.56Q32.52 27.62 32.37 27.65Q32.19 27.69 32 27.69L23.04 27.69Q22.89 27.69 22.77 27.64Q22.64 27.59 22.54 27.48Q22.43 27.38 22.38 27.26Q22.33 27.13 22.33 26.98Q22.33 26.84 22.38 26.71Q22.43 26.59 22.54 26.48Q22.64 26.38 22.77 26.33Q22.89 26.27 23.04 26.27L32 26.27Q32.06 26.27 32.11 26.25Q32.16 26.23 32.21 26.19Q32.25 26.15 32.27 26.09Q32.29 26.04 32.29 25.98L32.29 22.97Q32.29 22.82 32.35 22.7Q32.4 22.57 32.5 22.47Q32.6 22.37 32.73 22.31Q32.85 22.26 33 22.26L34.3 22.26L34.3 20.96Q34.3 20.82 34.35 20.69Q34.4 20.57 34.51 20.46Q34.61 20.36 34.74 20.31Q34.86 20.26 35.01 20.26Q35.15 20.26 35.28 20.31Q35.4 20.36 35.51 20.46Q35.61 20.57 35.66 20.69Q35.72 20.82 35.72 20.96L35.72 22.26L37.01 22.26Q37.16 22.26 37.29 22.31Q37.41 22.37 37.51 22.47Q37.62 22.57 37.67 22.7Q37.72 22.82 37.72 22.97L37.72 25.98Q37.72 26.04 37.74 26.09Q37.76 26.14 37.81 26.19Q37.85 26.23 37.9 26.25Q37.96 26.27 38.02 26.27L41.03 26.27Q41.17 26.27 41.3 26.33Q41.42 26.38 41.53 26.48Q41.63 26.59 41.68 26.71Q41.73 26.84 41.73 26.98L41.73 28.28L43.03 28.28Q43.18 28.28 43.3 28.33Q43.43 28.38 43.53 28.49Q43.64 28.59 43.69 28.72Q43.74 28.84 43.74 28.99Q43.74 29.14 43.69 29.26Q43.64 29.39 43.53 29.49Q43.43 29.59 43.3 29.65Q43.18 29.7 43.03 29.7L41.73 29.7L41.73 31Q41.73 31.14 41.68 31.27Q41.63 31.39 41.53 31.5Q41.42 31.6 41.3 31.65Q41.17 31.7 41.03 31.7L38.02 31.7Q37.96 31.7 37.9 31.72Q37.85 31.75 37.81 31.79Q37.77 31.83 37.74 31.89Q37.72 31.94 37.72 32L37.72 35.01Q37.72 35.15 37.67 35.28Q37.62 35.4 37.51 35.51Q37.41 35.61 37.29 35.66Q37.16 35.72 37.01 35.72L35.72 35.72L35.72 37.01Q35.72 37.16 35.66 37.29Q35.61 37.41 35.51 37.51Q35.4 37.62 35.28 37.67Q35.15 37.72 35.01 37.72Q34.86 37.72 34.74 37.67Q34.61 37.62 34.51 37.51Q34.4 37.41 34.35 37.29Q34.3 37.16 34.3 37.01L34.3 35.72L33 35.72Q32.85 35.72 32.73 35.66Q32.6 35.61 32.5 35.51Q32.4 35.4 32.35 35.28Q32.29 35.15 32.29 35.01L32.29 32Q32.29 31.94 32.27 31.89Q32.25 31.83 32.21 31.79Q32.16 31.75 32.11 31.72Q32.06 31.7 32 31.7L13.94 31.7Q13.88 31.7 13.83 31.72Q13.78 31.75 13.73 31.79Q13.69 31.83 13.67 31.89Q13.65 31.94 13.65 32L13.65 48.05Q13.65 48.11 13.67 48.16Q13.69 48.21 13.73 48.26Q13.78 48.3 13.83 48.32Q13.88 48.34 13.94 48.34L32 48.34Q32.06 48.34 32.11 48.32Q32.16 48.3 32.21 48.26Q32.25 48.21 32.27 48.16Q32.29 48.11 32.29 48.05L32.29 43.03Q32.29 42.88 32.35 42.76Q32.4 42.63 32.5 42.53Q32.6 42.43 32.73 42.38Q32.85 42.32 33 42.32L34.3 42.32L34.3 41.03Q34.3 40.88 34.35 40.75Q34.4 40.63 34.51 40.52Q34.61 40.42 34.74 40.37Q34.86 40.32 35.01 40.32Q35.15 40.32 35.28 40.37Q35.4 40.42 35.51 40.52Q35.61 40.63 35.66 40.75Q35.72 40.88 35.72 41.03L35.72 42.32L37.01 42.32Q37.16 42.32 37.29 42.38Q37.41 42.43 37.51 42.53Q37.62 42.63 37.67 42.76Q37.72 42.88 37.72 43.03L37.72 48.05Q37.72 48.11 37.74 48.16Q37.76 48.21 37.81 48.26Q37.85 48.3 37.9 48.32Q37.96 48.34 38.02 48.34L56.07 48.34Q56.13 48.34 56.18 48.32Q56.24 48.3 56.28 48.26Q56.32 48.21 56.35 48.16Q56.37 48.11 56.37 48.05L56.37 32Q56.37 31.94 56.35 31.89Q56.32 31.83 56.28 31.79Q56.24 31.75 56.18 31.72Q56.13 31.7 56.07 31.7L49.05 31.7Q48.9 31.7 48.78 31.65Q48.65 31.6 48.55 31.5Q48.45 31.39 48.39 31.27Q48.34 31.14 48.34 31L48.34 29.7L47.04 29.7Q46.9 29.7 46.77 29.65Q46.65 29.59 46.54 29.49Q46.44 29.39 46.39 29.26Q46.34 29.14 46.34 28.99Q46.34 28.84 46.39 28.72Q46.44 28.59 46.54 28.49Q46.65 28.38 46.77 28.33Q46.9 28.28 47.04 28.28L48.34 28.28L48.34 26.98Q48.34 26.84 48.39 26.71Q48.45 26.59 48.55 26.48Q48.65 26.38 48.78 26.33Q48.9 26.27 49.05 26.27L56.07 26.27Q56.13 26.27 56.18 26.25Q56.24 26.23 56.28 26.19Q56.32 26.14 56.35 26.09Q56.37 26.04 56.37 25.98L56.37 22.97Q56.37 22.82 56.42 22.7Q56.47 22.57 56.57 22.47Q56.68 22.37 56.8 22.32Q56.93 22.26 57.08 22.26L58.37 22.26L58.37 20.96Q58.37 20.82 58.42 20.69Q58.48 20.57 58.58 20.46Q58.68 20.36 58.81 20.31Q58.93 20.26 59.08 20.26Q59.23 20.26 59.35 20.31Q59.48 20.36 59.58 20.46Q59.69 20.57 59.74 20.69Q59.79 20.82 59.79 20.96Z" fill="#FFFFFF" fill-opacity="1.000000" fill-rule="evenodd"/>
	<path id="Vector" d="M60.08 0L52.87 0C52.37 0 51.96 0.4 51.96 0.9C51.96 1.4 52.37 1.81 52.87 1.81L60.08 1.81C60.14 1.81 60.18 1.85 60.18 1.91L60.18 14.04L59.12 14.04C59.11 14.04 59.09 14.04 59.08 14.04C59.07 14.04 59.06 14.04 59.04 14.04L57.98 14.04L57.98 5.92C57.98 4.86 57.13 4.01 56.07 4.01L38.02 4.01C36.96 4.01 36.1 4.86 36.1 5.92L36.1 14.04L33.91 14.04L33.91 5.92C33.91 4.86 33.05 4.01 32 4.01L13.94 4.01C12.89 4.01 12.03 4.86 12.03 5.92L12.03 25.98C12.03 27.03 12.89 27.89 13.94 27.89L19.41 27.89C19.91 27.89 20.31 27.48 20.31 26.98C20.31 26.48 19.91 26.07 19.41 26.07L13.94 26.07C13.89 26.07 13.85 26.03 13.85 25.98L13.85 5.92C13.85 5.87 13.89 5.82 13.94 5.82L32 5.82C32.05 5.82 32.09 5.87 32.09 5.92L32.09 14.95C32.09 15.45 32.5 15.85 33 15.85L34.1 15.85L34.1 16.95C34.1 17.45 34.51 17.86 35.01 17.86C35.51 17.86 35.92 17.45 35.92 16.95L35.92 15.85L37.01 15.85C37.52 15.85 37.92 15.45 37.92 14.95L37.92 5.92C37.92 5.87 37.96 5.82 38.02 5.82L56.07 5.82C56.12 5.82 56.17 5.87 56.17 5.92L56.17 14.95C56.17 15.19 56.26 15.42 56.43 15.59C56.6 15.76 56.83 15.86 57.07 15.86L58.17 15.86L58.17 16.95C58.17 17.45 58.58 17.86 59.08 17.86C59.58 17.86 59.99 17.45 59.99 16.95L59.99 15.86L61.09 15.86C61.59 15.86 62 15.45 62 14.95L62 1.91C62 0.85 61.14 0 60.08 0L60.08 0Z" fill="#CB8734" fill-opacity="1.000000" fill-rule="nonzero"/>
	<path id="Vector" d="M60.19 15.86L61.09 15.86C61.59 15.86 62 15.45 62 14.95L62 1.91C62 0.85 61.14 0 60.08 0L52.87 0C52.37 0 51.96 0.4 51.96 0.9C51.96 1.4 52.37 1.81 52.87 1.81L60.08 1.81C60.14 1.81 60.18 1.85 60.18 1.91L60.18 14.04L59.98 14.04L59.12 14.04C59.11 14.04 59.09 14.04 59.08 14.04C59.07 14.04 59.06 14.04 59.04 14.04L58.18 14.04L57.98 14.04L57.98 5.92C57.98 4.86 57.13 4.01 56.07 4.01L38.02 4.01C36.96 4.01 36.1 4.86 36.1 5.92L36.1 14.04L33.91 14.04L33.91 5.92C33.91 4.86 33.05 4.01 32 4.01L13.94 4.01C12.89 4.01 12.03 4.86 12.03 5.92L12.03 25.98C12.03 27.03 12.89 27.89 13.94 27.89L19.41 27.89C19.91 27.89 20.31 27.48 20.31 26.98C20.31 26.48 19.91 26.07 19.41 26.07L13.94 26.07C13.89 26.07 13.85 26.03 13.85 25.98L13.85 5.92C13.85 5.87 13.89 5.82 13.94 5.82L32 5.82C32.05 5.82 32.09 5.87 32.09 5.92L32.09 14.95C32.09 15.45 32.5 15.85 33 15.85L33.9 15.85L34.1 15.85L34.1 16.95C34.1 17.45 34.51 17.86 35.01 17.86C35.51 17.86 35.92 17.45 35.92 16.95L35.92 15.85L36.12 15.85L37.01 15.85C37.52 15.85 37.92 15.45 37.92 14.95L37.92 5.92C37.92 5.87 37.96 5.82 38.02 5.82L56.07 5.82C56.12 5.82 56.17 5.87 56.17 5.92L56.17 14.95C56.17 15.19 56.26 15.42 56.43 15.59C56.6 15.76 56.83 15.86 57.07 15.86L57.97 15.86L58.17 15.86L58.17 16.95C58.17 17.45 58.58 17.86 59.08 17.86C59.58 17.86 59.99 17.45 59.99 16.95L59.99 15.86L60.19 15.86ZM52.6 0.25Q52.73 0.19 52.87 0.19L60.08 0.19Q60.27 0.19 60.46 0.24Q60.6 0.27 60.75 0.33Q60.89 0.39 61.02 0.47Q61.16 0.57 61.29 0.7Q61.42 0.83 61.52 0.97Q61.6 1.1 61.66 1.24Q61.72 1.38 61.75 1.53Q61.79 1.72 61.79 1.91L61.79 14.95Q61.79 15.09 61.74 15.22Q61.69 15.35 61.59 15.45Q61.48 15.55 61.36 15.6Q61.23 15.66 61.09 15.66L59.79 15.66L59.79 16.95Q59.79 17.1 59.74 17.22Q59.68 17.35 59.58 17.45Q59.48 17.56 59.35 17.61Q59.23 17.66 59.08 17.66Q58.93 17.66 58.81 17.61Q58.68 17.56 58.58 17.45Q58.48 17.35 58.42 17.22Q58.37 17.1 58.37 16.95L58.37 15.66L57.07 15.66Q56.93 15.66 56.8 15.6Q56.68 15.55 56.57 15.45Q56.47 15.34 56.42 15.22Q56.37 15.09 56.37 14.95L56.37 5.92Q56.37 5.86 56.34 5.81Q56.32 5.75 56.28 5.71Q56.24 5.67 56.18 5.65Q56.13 5.62 56.07 5.62L38.02 5.62Q37.96 5.62 37.9 5.64Q37.85 5.67 37.81 5.71Q37.76 5.75 37.74 5.81Q37.72 5.86 37.72 5.92L37.72 14.95Q37.72 15.09 37.67 15.22Q37.62 15.34 37.51 15.45Q37.41 15.55 37.29 15.6Q37.16 15.65 37.01 15.65L35.72 15.65L35.72 16.95Q35.72 17.1 35.66 17.22Q35.61 17.35 35.51 17.45Q35.4 17.56 35.28 17.61Q35.15 17.66 35.01 17.66Q34.86 17.66 34.73 17.61Q34.61 17.56 34.51 17.45Q34.4 17.35 34.35 17.22Q34.3 17.1 34.3 16.95L34.3 15.65L33 15.65Q32.85 15.65 32.73 15.6Q32.6 15.55 32.5 15.45Q32.4 15.34 32.35 15.22Q32.29 15.09 32.29 14.95L32.29 5.92Q32.29 5.86 32.27 5.81Q32.25 5.75 32.21 5.71Q32.16 5.67 32.11 5.65Q32.06 5.62 32 5.62L13.94 5.62Q13.88 5.62 13.83 5.64Q13.78 5.67 13.73 5.71Q13.69 5.75 13.67 5.81Q13.65 5.86 13.65 5.92L13.65 25.98Q13.65 26.04 13.67 26.09Q13.69 26.14 13.73 26.19Q13.78 26.23 13.83 26.25Q13.88 26.27 13.94 26.27L19.41 26.27Q19.55 26.27 19.68 26.33Q19.8 26.38 19.91 26.48Q20.01 26.59 20.06 26.71Q20.11 26.84 20.11 26.98Q20.11 27.13 20.06 27.26Q20.01 27.38 19.91 27.48Q19.8 27.59 19.68 27.64Q19.55 27.69 19.41 27.69L13.94 27.69Q13.75 27.69 13.57 27.65Q13.42 27.62 13.28 27.56Q13.14 27.5 13.01 27.41Q12.86 27.32 12.73 27.19Q12.61 27.06 12.51 26.91Q12.43 26.79 12.37 26.64Q12.31 26.5 12.27 26.35Q12.23 26.17 12.23 25.98L12.23 5.92Q12.23 5.73 12.27 5.55Q12.31 5.4 12.37 5.25Q12.43 5.11 12.51 4.99Q12.61 4.84 12.73 4.71Q12.86 4.58 13.01 4.48Q13.14 4.4 13.28 4.34Q13.42 4.28 13.57 4.25Q13.75 4.21 13.94 4.21L32 4.21Q32.19 4.21 32.37 4.25Q32.52 4.28 32.66 4.34Q32.8 4.4 32.93 4.48Q33.08 4.58 33.21 4.71Q33.34 4.84 33.43 4.99Q33.52 5.11 33.57 5.25Q33.64 5.4 33.67 5.55Q33.71 5.73 33.71 5.92L33.71 14.24L36.31 14.24L36.31 5.92Q36.31 5.73 36.35 5.55Q36.38 5.4 36.44 5.25Q36.5 5.11 36.58 4.99Q36.68 4.84 36.81 4.71Q36.94 4.58 37.08 4.48Q37.21 4.4 37.35 4.34Q37.5 4.28 37.65 4.25Q37.83 4.21 38.02 4.21L56.07 4.21Q56.26 4.21 56.44 4.25Q56.59 4.28 56.74 4.34Q56.88 4.4 57 4.48Q57.15 4.58 57.28 4.71Q57.41 4.84 57.51 4.99Q57.59 5.11 57.65 5.25Q57.71 5.4 57.74 5.55Q57.78 5.73 57.78 5.92L57.78 14.24L59.05 14.24L59.05 14.24Q59.06 14.24 59.07 14.24Q59.08 14.24 59.08 14.24L59.09 14.24Q59.1 14.24 59.11 14.24L59.12 14.24L60.38 14.24L60.38 1.91Q60.38 1.85 60.36 1.79Q60.34 1.74 60.29 1.7Q60.25 1.65 60.2 1.63Q60.14 1.61 60.08 1.61L52.87 1.61Q52.73 1.61 52.6 1.56Q52.48 1.51 52.37 1.4Q52.27 1.3 52.22 1.18Q52.16 1.05 52.16 0.9Q52.16 0.76 52.22 0.63Q52.27 0.51 52.37 0.4Q52.48 0.3 52.6 0.25Z" fill="#FFFFFF" fill-opacity="1.000000" fill-rule="evenodd"/>
	<path id="Vector" d="M57.08 56.17C56.57 56.17 56.17 56.57 56.17 57.07L56.17 58.17L13.85 58.17L13.85 57.07C13.85 56.57 13.44 56.17 12.94 56.17C12.44 56.17 12.03 56.57 12.03 57.07L12.03 61.09C12.03 61.59 12.44 62 12.94 62C13.44 62 13.85 61.59 13.85 61.09L13.85 59.99L56.17 59.99L56.17 61.09C56.17 61.59 56.57 62 57.08 62C57.58 62 57.98 61.59 57.98 61.09L57.98 57.07C57.98 56.57 57.58 56.17 57.08 56.17Z" fill="#CB8734" fill-opacity="1.000000" fill-rule="nonzero"/>
	<path id="Vector" d="M56.17 60.19L56.17 61.09C56.17 61.59 56.57 62 57.08 62C57.58 62 57.98 61.59 57.98 61.09L57.98 57.07C57.98 56.57 57.58 56.17 57.08 56.17C56.57 56.17 56.17 56.57 56.17 57.07L56.17 58.17L13.85 58.17L13.85 57.07C13.85 56.57 13.44 56.17 12.94 56.17C12.44 56.17 12.03 56.57 12.03 57.07L12.03 61.09C12.03 61.59 12.44 62 12.94 62C13.44 62 13.85 61.59 13.85 61.09L13.85 59.99L56.17 59.99L56.17 60.19ZM56.37 58.37L56.37 57.07Q56.37 56.93 56.42 56.8Q56.47 56.68 56.57 56.57Q56.68 56.47 56.8 56.42Q56.93 56.37 57.08 56.37Q57.22 56.37 57.35 56.42Q57.47 56.47 57.58 56.57Q57.68 56.68 57.73 56.8Q57.78 56.93 57.78 57.07L57.78 61.09Q57.78 61.23 57.73 61.36Q57.68 61.48 57.58 61.59Q57.47 61.69 57.35 61.74Q57.22 61.8 57.08 61.8Q56.93 61.8 56.8 61.74Q56.68 61.69 56.57 61.59Q56.47 61.48 56.42 61.36Q56.37 61.23 56.37 61.09L56.37 59.79L13.65 59.79L13.65 61.09Q13.65 61.23 13.6 61.36Q13.54 61.48 13.44 61.59Q13.34 61.69 13.21 61.74Q13.09 61.8 12.94 61.8Q12.79 61.8 12.67 61.74Q12.54 61.69 12.44 61.59Q12.34 61.48 12.28 61.36Q12.23 61.23 12.23 61.09L12.23 57.07Q12.23 56.93 12.28 56.8Q12.34 56.68 12.44 56.57Q12.54 56.47 12.67 56.42Q12.79 56.37 12.94 56.37Q13.09 56.37 13.21 56.42Q13.34 56.47 13.44 56.57Q13.54 56.68 13.6 56.8Q13.65 56.93 13.65 57.07L13.65 58.37L56.37 58.37Z" fill="#FFFFFF" fill-opacity="1.000000" fill-rule="evenodd"/>
	<path id="Vector" d="M0.9 48.14C0.4 48.14 0 48.55 0 49.05C0 49.55 0.4 49.96 0.9 49.96L4.92 49.96C5.42 49.96 5.82 49.55 5.82 49.05C5.82 48.55 5.42 48.14 4.92 48.14L3.82 48.14L3.82 5.82L4.92 5.82C5.42 5.82 5.82 5.42 5.82 4.92C5.82 4.41 5.42 4.01 4.92 4.01L0.9 4.01C0.4 4.01 0 4.41 0 4.92C0 5.42 0.4 5.82 0.9 5.82L2 5.82L2 48.14L0.9 48.14Z" fill="#CB8734" fill-opacity="1.000000" fill-rule="nonzero"/>
	<path id="Vector" d="M1.8 48.14L0.9 48.14C0.4 48.14 0 48.55 0 49.05C0 49.55 0.4 49.96 0.9 49.96L4.92 49.96C5.42 49.96 5.82 49.55 5.82 49.05C5.82 48.55 5.42 48.14 4.92 48.14L3.82 48.14L3.82 47.94L3.82 6.02L3.82 5.82L4.92 5.82C5.42 5.82 5.82 5.42 5.82 4.92C5.82 4.41 5.42 4.01 4.92 4.01L0.9 4.01C0.4 4.01 0 4.41 0 4.92C0 5.42 0.4 5.82 0.9 5.82L2 5.82L2 48.14L1.8 48.14ZM0.25 49.32Q0.2 49.2 0.2 49.05Q0.2 48.9 0.25 48.78Q0.3 48.65 0.4 48.55Q0.51 48.45 0.63 48.39Q0.76 48.34 0.9 48.34L2.2 48.34L2.2 5.62L0.9 5.62Q0.76 5.62 0.63 5.57Q0.51 5.52 0.4 5.42Q0.3 5.31 0.25 5.19Q0.2 5.06 0.2 4.92Q0.2 4.77 0.25 4.64Q0.3 4.52 0.4 4.41Q0.51 4.31 0.63 4.26Q0.76 4.21 0.9 4.21L4.92 4.21Q5.06 4.21 5.19 4.26Q5.31 4.31 5.42 4.41Q5.52 4.52 5.57 4.64Q5.62 4.77 5.62 4.92Q5.62 5.06 5.57 5.19Q5.52 5.31 5.42 5.42Q5.31 5.52 5.19 5.57Q5.06 5.62 4.92 5.62L3.62 5.62L3.62 48.34L4.92 48.34Q5.06 48.34 5.19 48.39Q5.31 48.45 5.42 48.55Q5.52 48.65 5.57 48.78Q5.62 48.9 5.62 49.05Q5.62 49.2 5.57 49.32Q5.52 49.45 5.42 49.55Q5.31 49.65 5.19 49.71Q5.06 49.76 4.92 49.76L0.9 49.76Q0.76 49.76 0.63 49.71Q0.51 49.65 0.4 49.55Q0.3 49.45 0.25 49.32Z" fill="#FFFFFF" fill-opacity="1.000000" fill-rule="evenodd"/>
</svg>
