<svg width="22.000000" height="22.000000" viewBox="0 0 22 22" fill="none" xmlns="http://www.w3.org/2000/svg" xmlns:xlink="http://www.w3.org/1999/xlink">
	<desc>
			Created with Pixso.
	</desc>
	<defs/>
	<path id="Vector" d="M11.3 14.06C11.41 14.11 11.52 14.13 11.64 14.13C11.76 14.12 11.87 14.08 11.97 14.01L14.12 12.58C14.22 12.51 14.33 12.47 14.44 12.46C14.56 12.45 14.67 12.47 14.77 12.52L18.8 14.24C18.94 14.3 19.05 14.4 19.13 14.53C19.2 14.66 19.23 14.81 19.21 14.95C19.09 15.95 18.6 16.87 17.85 17.53C17.09 18.19 16.12 18.56 15.12 18.56C12.02 18.56 9.05 17.33 6.86 15.13C4.66 12.94 3.43 9.97 3.43 6.87C3.43 5.87 3.8 4.9 4.46 4.14C5.12 3.39 6.04 2.9 7.04 2.78C7.18 2.76 7.33 2.79 7.46 2.86C7.59 2.94 7.69 3.05 7.75 3.19L9.47 7.22C9.52 7.32 9.54 7.44 9.53 7.55C9.52 7.66 9.48 7.77 9.42 7.87L7.99 10.05C7.92 10.15 7.88 10.26 7.88 10.38C7.87 10.5 7.89 10.62 7.94 10.72C8.66 12.18 9.84 13.36 11.3 14.06Z" stroke="#CB8734" stroke-opacity="1.000000" stroke-width="1.000000" stroke-linejoin="round"/>
</svg>
