<svg width="54.000000" height="55.231445" viewBox="0 0 54 55.2314" fill="none" xmlns="http://www.w3.org/2000/svg" xmlns:xlink="http://www.w3.org/1999/xlink">
	<desc>
			Created with Pixso.
	</desc>
	<defs/>
	<path id="Vector" d="M53.53 22.05C52.21 14.97 48.21 8.82 42.26 4.74C36.32 0.66 29.14 -0.86 22.05 0.46C14.96 1.78 8.81 5.78 4.74 11.73C0.66 17.67 -0.86 24.85 0.46 31.94C1.07 35.25 2.28 38.36 4.03 41.2C3.63 45.15 2.79 48.75 0.14 53.29C-0.03 53.6 -0.05 53.97 0.1 54.29C0.24 54.61 0.54 54.83 0.89 54.9C2.12 55.12 3.47 55.23 4.86 55.23C9.2 55.23 14.06 54.2 17.83 52.39C22.34 54.02 27.2 54.42 31.94 53.54C39.03 52.22 45.18 48.21 49.25 42.27C53.33 36.32 54.85 29.14 53.53 22.05ZM31.54 51.41C27.04 52.25 22.41 51.84 18.16 50.21C17.88 50.1 17.56 50.12 17.29 50.26C13.19 52.33 7.35 53.39 2.78 52.98C5.23 48.31 5.89 44.49 6.22 41.04C6.24 40.8 6.18 40.56 6.05 40.36C4.34 37.67 3.17 34.7 2.58 31.55C0.07 18.08 8.99 5.09 22.45 2.58C28.97 1.37 35.57 2.76 41.04 6.52C46.51 10.27 50.2 15.93 51.41 22.45C53.92 35.91 45 48.91 31.54 51.41Z" fill="#CB8734" fill-opacity="1.000000" fill-rule="nonzero"/>
	<path id="Vector" d="M20.94 37.26L24.39 37.26C24.99 37.26 25.47 36.77 25.47 36.18L25.47 31.5C25.47 30.91 24.99 30.42 24.39 30.42L20.94 30.42C20.56 30.42 20.25 30.11 20.25 29.74L20.25 27.71L22.77 27.71C24.26 27.71 25.47 26.51 25.47 25.02L25.47 19.43C25.47 17.95 24.26 16.74 22.77 16.74L16.11 16.74C14.63 16.74 13.42 17.95 13.42 19.43L13.42 29.74C13.42 33.88 16.79 37.26 20.94 37.26ZM15.58 19.43C15.58 19.14 15.82 18.9 16.11 18.9L22.77 18.9C23.07 18.9 23.31 19.14 23.31 19.43L23.31 25.02C23.31 25.31 23.07 25.56 22.77 25.56L19.17 25.56C18.58 25.56 18.09 26.04 18.09 26.64L18.09 29.74C18.09 31.3 19.37 32.58 20.94 32.58L23.31 32.58L23.31 35.1L20.94 35.1C17.98 35.1 15.58 32.69 15.58 29.74L15.58 19.43L15.58 19.43Z" fill="#CB8734" fill-opacity="1.000000" fill-rule="nonzero"/>
	<path id="Vector" d="M37.88 27.71C39.36 27.71 40.57 26.51 40.57 25.02L40.57 19.43C40.57 17.95 39.36 16.74 37.88 16.74L31.22 16.74C29.73 16.74 28.52 17.95 28.52 19.43L28.52 29.74C28.52 33.88 31.89 37.26 36.04 37.26L39.49 37.26C40.09 37.26 40.57 36.77 40.57 36.18L40.57 31.5C40.57 30.91 40.09 30.42 39.49 30.42L36.04 30.42C35.67 30.42 35.35 30.11 35.35 29.74L35.35 27.71L37.88 27.71ZM36.04 32.58L38.41 32.58L38.41 35.1L36.04 35.1C33.08 35.1 30.67 32.69 30.67 29.74L30.67 19.43C30.67 19.14 30.92 18.9 31.22 18.9L37.88 18.9C38.17 18.9 38.41 19.14 38.41 19.43L38.41 25.02C38.41 25.31 38.17 25.56 37.88 25.56L34.27 25.56C33.68 25.56 33.19 26.04 33.19 26.64L33.19 29.74C33.19 31.3 34.47 32.58 36.04 32.58Z" fill="#CB8734" fill-opacity="1.000000" fill-rule="nonzero"/>
	<path id="Vector" d="M12.3 13.38C12.58 13.38 12.86 13.28 13.07 13.07L13.07 13.06C13.49 12.64 13.49 11.96 13.07 11.54C12.65 11.12 11.96 11.12 11.54 11.54C11.12 11.96 11.12 12.65 11.54 13.07C11.75 13.28 12.03 13.38 12.3 13.38Z" fill="#CB8734" fill-opacity="1.000000" fill-rule="nonzero"/>
	<path id="Vector" d="M29.43 5.28C24.6 4.74 19.68 5.84 15.57 8.36C15.06 8.68 14.9 9.34 15.21 9.85C15.53 10.36 16.19 10.51 16.7 10.2C24.48 5.41 34.45 6.59 40.92 13.07C48.6 20.75 48.6 33.25 40.92 40.93C33.24 48.61 20.75 48.61 13.07 40.93C6.59 34.45 5.41 24.49 10.2 16.7C10.51 16.19 10.35 15.53 9.84 15.21C9.34 14.9 8.67 15.06 8.36 15.57C5.83 19.68 4.74 24.61 5.28 29.43C5.83 34.41 8 38.91 11.54 42.45C15.8 46.71 21.4 48.84 26.99 48.84C32.59 48.84 38.19 46.71 42.45 42.45C46.58 38.32 48.85 32.84 48.85 27C48.85 21.16 46.58 15.67 42.45 11.54C38.95 8.05 34.33 5.82 29.43 5.28Z" fill="#CB8734" fill-opacity="1.000000" fill-rule="nonzero"/>
</svg>
