<svg width="12.000000" height="12.648109" viewBox="0 0 12 12.6481" fill="none" xmlns="http://www.w3.org/2000/svg" xmlns:xlink="http://www.w3.org/1999/xlink">
	<desc>
			Created with Pixso.
	</desc>
	<defs/>
	<path id="Vector" d="M10.64 1.23C10.33 0.94 9.06 0.02 6.22 0C6.22 0 2.89 -0.2 1.26 1.29C0.35 2.2 0.04 3.52 0 5.17C-0.03 6.81 -0.07 9.89 2.89 10.73L2.9 10.73L2.89 12C2.89 12 2.88 12.52 3.22 12.62C3.63 12.75 3.87 12.35 4.26 11.93C4.48 11.7 4.77 11.36 5 11.1C7.03 11.27 8.59 10.88 8.77 10.82C9.18 10.69 11.5 10.39 11.87 7.31C12.26 4.14 11.68 2.13 10.64 1.23ZM10.98 7.09C10.67 9.66 8.79 9.82 8.44 9.93C8.29 9.98 6.92 10.32 5.19 10.21C5.19 10.21 3.91 11.76 3.51 12.16C3.45 12.22 3.37 12.25 3.32 12.24C3.26 12.22 3.24 12.14 3.24 12.02C3.24 11.85 3.25 9.9 3.25 9.9C0.74 9.21 0.88 6.58 0.91 5.21C0.94 3.84 1.2 2.71 1.96 1.96C3.34 0.71 6.17 0.9 6.17 0.9C8.57 0.91 9.71 1.63 9.98 1.87C10.86 2.63 11.31 4.44 10.98 7.09Z" fill="#FFFFFF" fill-opacity="1.000000" fill-rule="nonzero"/>
	<path id="Vector" d="M7.39 5.26C7.31 5.26 7.24 5.19 7.23 5.11C7.2 4.56 6.95 4.3 6.43 4.27C6.34 4.27 6.27 4.19 6.28 4.1C6.28 4.01 6.36 3.94 6.45 3.95C7.13 3.99 7.52 4.38 7.55 5.09C7.56 5.18 7.49 5.26 7.4 5.26C7.4 5.26 7.39 5.26 7.39 5.26Z" fill="#FFFFFF" fill-opacity="1.000000" fill-rule="nonzero"/>
	<path id="Vector" d="M8.21 5.53L8.21 5.53C8.12 5.53 8.05 5.46 8.05 5.37C8.06 4.82 7.91 4.38 7.57 4.02C7.24 3.65 6.78 3.45 6.18 3.41C6.09 3.4 6.02 3.33 6.03 3.24C6.04 3.15 6.12 3.08 6.2 3.09C6.89 3.14 7.43 3.38 7.81 3.8C8.2 4.22 8.39 4.75 8.37 5.38C8.37 5.47 8.3 5.53 8.21 5.53Z" fill="#FFFFFF" fill-opacity="1.000000" fill-rule="nonzero"/>
	<path id="Vector" d="M9.05 5.86C8.96 5.86 8.89 5.79 8.89 5.7C8.88 4.72 8.6 3.98 8.03 3.42C7.47 2.87 6.75 2.59 5.91 2.58C5.82 2.58 5.75 2.5 5.75 2.42C5.75 2.33 5.82 2.26 5.91 2.26C6.84 2.26 7.63 2.58 8.25 3.19C8.88 3.8 9.2 4.65 9.21 5.7C9.21 5.79 9.14 5.86 9.05 5.86Z" fill="#FFFFFF" fill-opacity="1.000000" fill-rule="nonzero"/>
	<path id="Vector" d="M6.47 7.24C6.47 7.24 6.69 7.26 6.81 7.11L7.05 6.82C7.16 6.67 7.44 6.58 7.71 6.73C7.85 6.81 8.13 6.98 8.29 7.1C8.47 7.23 8.84 7.54 8.84 7.54C9.01 7.68 9.05 7.9 8.94 8.13C8.94 8.13 8.94 8.13 8.94 8.13C8.81 8.35 8.65 8.55 8.44 8.74C8.44 8.74 8.44 8.74 8.44 8.74C8.27 8.88 8.1 8.96 7.94 8.98C7.92 8.99 7.9 8.99 7.87 8.99C7.8 8.99 7.73 8.98 7.65 8.95L7.65 8.95C7.4 8.88 6.98 8.7 6.28 8.31C5.82 8.06 5.45 7.81 5.12 7.55C4.95 7.42 4.78 7.27 4.61 7.09C4.6 7.08 4.59 7.08 4.59 7.07C4.58 7.07 4.58 7.06 4.57 7.05C4.56 7.05 4.56 7.04 4.55 7.04C4.55 7.03 4.54 7.02 4.53 7.02C4.36 6.84 4.21 6.67 4.07 6.5C3.82 6.18 3.56 5.8 3.31 5.35C2.93 4.65 2.75 4.23 2.68 3.97L2.67 3.97C2.65 3.9 2.64 3.83 2.64 3.76C2.64 3.73 2.64 3.7 2.64 3.68C2.66 3.52 2.74 3.35 2.88 3.19C2.88 3.18 2.88 3.18 2.88 3.18C3.07 2.97 3.27 2.81 3.49 2.69C3.49 2.69 3.49 2.69 3.49 2.69C3.72 2.57 3.94 2.61 4.09 2.79C4.09 2.79 4.39 3.15 4.52 3.33C4.65 3.5 4.82 3.77 4.9 3.92C5.05 4.19 4.95 4.46 4.81 4.58L4.51 4.81C4.36 4.93 4.38 5.16 4.38 5.16C4.38 5.16 4.82 6.82 6.47 7.24Z" fill="#FFFFFF" fill-opacity="1.000000" fill-rule="nonzero"/>
</svg>
