<svg width="49.824585" height="49.196289" viewBox="0 0 49.8246 49.1963" fill="none" xmlns="http://www.w3.org/2000/svg" xmlns:xlink="http://www.w3.org/1999/xlink">
	<desc>
			Created with Pixso.
	</desc>
	<defs/>
	<path id="Vector" d="M47.46 16.55L34.37 24.35C33.41 24.93 33.02 26.12 33.41 27.13C32.83 27.38 32.17 27.39 31.57 27.16L29.88 26.49C29.2 26.23 28.48 26.18 27.77 26.36L25.18 27.02C25.08 27.04 24.98 27.07 24.88 27.11C23.3 26.2 22.35 25.93 20.68 26.58L19.18 27.16C18.47 27.43 17.68 27.37 17.03 26.98L16.53 26.68C16.67 25.78 16.27 24.85 15.44 24.35L2.35 16.55C1.31 15.93 0 16.68 0 17.89L0 32.5C0 33.51 0.53 34.46 1.4 34.98L7.12 38.38C8.18 39.02 9.55 38.69 10.21 37.66L10.45 37.8L9.71 38.83C8.88 39.99 9.15 41.59 10.3 42.42C10.87 42.83 11.56 42.98 12.25 42.86C12.35 43.55 12.72 44.15 13.29 44.56C13.85 44.97 14.55 45.12 15.23 45C15.33 45.66 15.69 46.28 16.27 46.7C17.06 47.27 18.04 47.32 18.83 46.96C19.01 47.44 19.32 47.86 19.75 48.17C20.86 48.96 22.39 48.75 23.24 47.7L25.16 48.83C25.57 49.08 26.02 49.19 26.47 49.19C27.35 49.19 28.2 48.74 28.68 47.93C28.89 47.59 29 47.22 29.03 46.85L29.11 46.89C29.7 47.24 30.39 47.34 31.05 47.17C31.72 47 32.28 46.58 32.63 45.99C32.84 45.63 32.96 45.23 32.98 44.81C33.41 44.93 33.86 44.94 34.31 44.83C34.97 44.66 35.53 44.24 35.88 43.65C36.08 43.3 36.2 42.93 36.23 42.54C37.4 43.03 38.78 42.6 39.44 41.48C40.02 40.5 39.87 39.29 39.16 38.47L39.91 38.03C40.62 38.75 41.77 38.94 42.7 38.38L44.08 37.56C44.43 37.35 44.54 36.91 44.33 36.56C44.13 36.21 43.68 36.1 43.33 36.31L41.95 37.13C41.63 37.32 41.23 37.27 40.97 37.03C40.97 36.99 34.83 26.74 34.83 26.74C34.6 26.35 34.73 25.84 35.12 25.61L48.21 17.81C48.28 17.77 48.36 17.81 48.36 17.89L48.36 32.5C48.36 33 48.09 33.47 47.67 33.72L46.29 34.55C45.94 34.75 45.83 35.2 46.03 35.55C46.24 35.89 46.69 36 47.03 35.8L48.41 34.98C49.28 34.46 49.82 33.51 49.82 32.5L49.82 17.89C49.82 16.68 48.5 15.93 47.46 16.55ZM28.13 27.78C28.54 27.67 28.96 27.7 29.35 27.85L31.04 28.52C32.06 28.91 33.16 28.87 34.13 28.41L39.1 36.81L38.3 37.28C38.15 37.37 38.01 37.47 37.88 37.57L27.23 31.27C27.01 31.13 26.73 31.13 26.5 31.26C26.27 31.39 26.13 31.63 26.13 31.9L26.13 32.04C26.13 32.56 25.93 33.05 25.56 33.42C25.2 33.78 24.71 33.99 24.19 33.99C24.11 33.98 24.03 33.91 24.03 33.83L24.03 30.36C24.03 29.61 24.45 28.93 25.1 28.6C25.13 28.58 25.16 28.57 25.19 28.55C25.3 28.5 25.42 28.46 25.53 28.43L28.13 27.78ZM8.49 37.22C8.28 37.27 8.05 37.24 7.86 37.13L2.15 33.72C1.72 33.47 1.45 33 1.45 32.5L1.45 17.89C1.45 17.87 1.45 17.83 1.5 17.8C1.52 17.79 1.54 17.79 1.55 17.79C1.58 17.79 1.59 17.8 1.6 17.81L14.69 25.61C15.08 25.84 15.21 26.35 14.98 26.74L9 36.84C8.88 37.03 8.7 37.17 8.49 37.22ZM11.98 41.42C11.68 41.47 11.39 41.4 11.15 41.23C10.91 41.06 10.75 40.8 10.7 40.51C10.66 40.22 10.72 39.92 10.9 39.68L11.94 38.23C11.96 38.2 11.99 38.16 12.02 38.13C12.04 38.11 12.06 38.09 12.08 38.07C12.46 37.72 13.05 37.67 13.49 37.98C13.98 38.34 14.1 39.03 13.74 39.53C13.74 39.53 13.74 39.53 13.74 39.53L12.7 40.98C12.53 41.22 12.27 41.38 11.98 41.42ZM14.14 43.37C13.9 43.2 13.74 42.95 13.69 42.65C13.64 42.36 13.71 42.07 13.88 41.83L14.92 40.38C14.92 40.38 14.92 40.38 14.92 40.38L16.07 38.78C16.25 38.54 16.5 38.38 16.79 38.33C16.86 38.32 16.92 38.31 16.98 38.31C17.21 38.31 17.43 38.39 17.62 38.52C18.12 38.88 18.23 39.57 17.87 40.07L15.68 43.12C15.33 43.62 14.63 43.73 14.14 43.37ZM17.95 45.71C17.66 45.76 17.36 45.69 17.12 45.52C16.63 45.16 16.51 44.47 16.87 43.97C16.87 43.97 16.87 43.97 16.87 43.97L19.06 40.92C19.42 40.42 20.11 40.31 20.61 40.67C20.85 40.84 21.01 41.1 21.06 41.39C21.1 41.68 21.03 41.97 20.86 42.21L18.67 45.26C18.5 45.51 18.24 45.66 17.95 45.71ZM20.6 46.98C20.36 46.81 20.2 46.55 20.15 46.26C20.1 45.97 20.17 45.68 20.35 45.43C20.35 45.43 20.35 45.43 20.35 45.43L21.07 44.42C21.43 43.92 22.12 43.81 22.62 44.17C23.12 44.52 23.23 45.22 22.87 45.71L22.46 46.29C22.45 46.3 22.45 46.31 22.45 46.31L22.15 46.73C21.79 47.22 21.1 47.34 20.6 46.98ZM38.18 40.74C37.87 41.26 37.19 41.44 36.67 41.13L34.98 40.13C34.98 40.13 34.98 40.13 34.98 40.13L29.75 37.03C29.4 36.82 28.96 36.94 28.75 37.29C28.54 37.63 28.66 38.08 29.01 38.29L34.23 41.38C34.23 41.38 34.23 41.38 34.23 41.38L34.23 41.38C34.76 41.7 34.93 42.38 34.62 42.9C34.47 43.16 34.23 43.34 33.94 43.41C33.66 43.48 33.36 43.44 33.1 43.29L31.73 42.48C31.73 42.48 31.73 42.47 31.72 42.47C31.72 42.47 31.72 42.47 31.72 42.47L27.87 40.19C27.53 39.99 27.08 40.1 26.87 40.45C26.67 40.79 26.78 41.24 27.13 41.45L30.98 43.73C30.98 43.73 30.98 43.73 30.98 43.73C31.24 43.88 31.42 44.12 31.49 44.41C31.56 44.7 31.52 44.99 31.37 45.25C31.22 45.5 30.98 45.68 30.69 45.76C30.4 45.83 30.11 45.79 29.85 45.64L27.79 44.42C27.78 44.41 27.78 44.41 27.78 44.41L26.27 43.52C25.93 43.31 25.48 43.43 25.27 43.77C25.07 44.12 25.18 44.57 25.53 44.77L27.04 45.67L27.04 45.67C27.56 45.98 27.74 46.66 27.43 47.19C27.12 47.71 26.43 47.89 25.91 47.58L24.1 46.51C24.88 45.36 24.6 43.79 23.47 42.98C23.13 42.73 22.74 42.58 22.35 42.53C22.52 42.09 22.57 41.62 22.5 41.15C22.38 40.47 22.02 39.88 21.46 39.48C20.87 39.06 20.17 38.92 19.51 39.04C19.41 38.38 19.06 37.76 18.47 37.34C17.92 36.94 17.24 36.78 16.56 36.89C15.99 36.98 15.49 37.25 15.1 37.67C14.92 37.33 14.67 37.03 14.34 36.79C13.46 36.17 12.33 36.17 11.47 36.71L10.95 36.4L15.92 28.02L16.29 28.23C16.9 28.6 17.59 28.79 18.28 28.79C18.76 28.79 19.24 28.7 19.7 28.52L21.21 27.94C22.1 27.59 22.59 27.58 23.49 28.02C22.92 28.64 22.57 29.47 22.57 30.36L22.57 33.83C22.57 34.72 23.3 35.44 24.19 35.45L24.19 35.45C25.1 35.45 25.95 35.09 26.6 34.45C26.99 34.06 27.27 33.59 27.43 33.08L37.6 39.1C37.63 39.12 37.67 39.14 37.7 39.15C37.73 39.18 37.76 39.2 37.8 39.22C38.32 39.53 38.5 40.21 38.18 40.74Z" fill="#CB8734" fill-opacity="1.000000" fill-rule="nonzero"/>
	<path id="Vector" d="M16.54 19.01L33.27 19.01C34.79 19.01 36.02 17.78 36.02 16.27L36.02 6.31C36.02 4.79 34.79 3.56 33.27 3.56L29.25 3.56L29.25 2.41C29.25 1.08 28.16 0 26.84 0L22.98 0C21.65 0 20.57 1.08 20.57 2.41L20.57 3.56L16.54 3.56C15.03 3.56 13.79 4.79 13.79 6.31L13.79 11.79C13.79 12.2 14.12 12.52 14.52 12.52C14.93 12.52 15.25 12.2 15.25 11.79L15.25 10.44C16.03 11.13 17.06 11.56 18.18 11.56L18.75 11.56L18.75 12.36C18.75 12.77 19.08 13.09 19.48 13.09C19.88 13.09 20.21 12.77 20.21 12.36L20.21 11.56L29.6 11.56L29.6 12.36C29.6 12.77 29.93 13.09 30.33 13.09C30.74 13.09 31.06 12.77 31.06 12.36L31.06 11.56L31.63 11.56C32.76 11.56 33.78 11.13 34.56 10.44L34.56 16.27C34.56 16.98 33.98 17.55 33.27 17.55L16.54 17.55C15.83 17.55 15.25 16.98 15.25 16.27L15.25 15.21C15.25 14.8 14.93 14.48 14.52 14.48C14.12 14.48 13.79 14.8 13.79 15.21L13.79 16.27C13.79 17.78 15.03 19.01 16.54 19.01ZM22.03 2.41C22.03 1.88 22.46 1.45 22.98 1.45L26.84 1.45C27.36 1.45 27.79 1.88 27.79 2.41L27.79 3.56L22.03 3.56L22.03 2.41L22.03 2.41ZM31.64 10.1L31.06 10.1L31.06 9.3C31.06 8.89 30.74 8.57 30.33 8.57C29.93 8.57 29.6 8.89 29.6 9.3L29.6 10.1L20.21 10.1L20.21 9.3C20.21 8.89 19.88 8.57 19.48 8.57C19.08 8.57 18.75 8.89 18.75 9.3L18.75 10.1L18.18 10.1C16.57 10.1 15.25 8.79 15.25 7.17L15.25 6.31C15.25 5.6 15.83 5.02 16.54 5.02L33.27 5.02C33.98 5.02 34.56 5.6 34.56 6.31L34.56 7.17C34.56 8.79 33.25 10.1 31.64 10.1Z" fill="#CB8734" fill-opacity="1.000000" fill-rule="nonzero"/>
</svg>
