<svg width="53.450684" height="53.449951" viewBox="0 0 53.4507 53.45" fill="none" xmlns="http://www.w3.org/2000/svg" xmlns:xlink="http://www.w3.org/1999/xlink">
	<desc>
			Created with Pixso.
	</desc>
	<defs/>
	<path id="Vector" d="M52.58 31.62C52.38 31.62 52.19 31.54 52.05 31.4C51.9 31.25 51.82 31.06 51.82 30.86L51.82 28.6C51.82 28.4 51.9 28.2 52.05 28.06C52.19 27.92 52.38 27.84 52.58 27.84C52.79 27.84 52.98 27.92 53.12 28.06C53.27 28.2 53.35 28.4 53.35 28.6L53.35 30.86C53.35 31.06 53.27 31.25 53.12 31.4C52.98 31.54 52.79 31.62 52.58 31.62Z" fill="#CB8734" fill-opacity="1.000000" fill-rule="nonzero"/>
	<path id="Vector" d="M51.87 31.34Q51.92 31.41 51.98 31.47Q52.04 31.53 52.11 31.57Q52.18 31.62 52.26 31.65Q52.33 31.69 52.42 31.7Q52.5 31.72 52.58 31.72Q52.67 31.72 52.75 31.7Q52.84 31.69 52.91 31.65Q52.99 31.62 53.06 31.57Q53.13 31.53 53.19 31.47Q53.25 31.41 53.3 31.34Q53.35 31.27 53.38 31.19Q53.41 31.11 53.43 31.03Q53.45 30.94 53.45 30.86L53.45 28.6Q53.45 28.51 53.43 28.43Q53.41 28.35 53.38 28.27Q53.35 28.19 53.3 28.12Q53.25 28.05 53.19 27.99Q53.13 27.93 53.06 27.88Q52.99 27.84 52.91 27.8Q52.84 27.77 52.75 27.75Q52.67 27.74 52.58 27.74Q52.5 27.74 52.42 27.75Q52.33 27.77 52.26 27.8Q52.18 27.84 52.11 27.88Q52.04 27.93 51.98 27.99Q51.92 28.05 51.87 28.12Q51.82 28.19 51.79 28.27Q51.76 28.35 51.74 28.43Q51.72 28.51 51.72 28.6L51.72 30.86Q51.72 30.94 51.74 31.03Q51.76 31.11 51.79 31.19Q51.82 31.27 51.87 31.34ZM52.58 31.62C52.38 31.62 52.19 31.54 52.05 31.4C51.9 31.25 51.82 31.06 51.82 30.86L51.82 28.6C51.82 28.4 51.9 28.2 52.05 28.06C52.19 27.92 52.38 27.84 52.58 27.84C52.79 27.84 52.98 27.92 53.12 28.06C53.27 28.2 53.35 28.4 53.35 28.6L53.35 30.86C53.35 31.06 53.27 31.25 53.12 31.4C52.98 31.54 52.79 31.62 52.58 31.62Z" fill="#CB8734" fill-opacity="1.000000" fill-rule="evenodd"/>
	<path id="Vector" d="M50.3 53.35L3.14 53.35C2.33 53.35 1.56 53.02 0.99 52.45C0.42 51.88 0.1 51.11 0.1 50.3L0.1 3.14C0.1 2.33 0.42 1.56 0.99 0.99C1.56 0.42 2.33 0.09 3.14 0.09L50.3 0.09C51.11 0.09 51.88 0.42 52.45 0.99C53.02 1.56 53.35 2.33 53.35 3.14L53.35 15.74C53.35 15.94 53.27 16.13 53.12 16.27C52.98 16.42 52.79 16.5 52.58 16.5C52.38 16.5 52.19 16.42 52.05 16.27C51.9 16.13 51.82 15.94 51.82 15.74L51.82 3.14C51.82 2.73 51.66 2.35 51.38 2.06C51.09 1.78 50.71 1.62 50.3 1.62L3.14 1.62C2.73 1.62 2.35 1.78 2.06 2.06C1.78 2.35 1.62 2.73 1.62 3.14L1.62 50.3C1.62 50.71 1.78 51.09 2.06 51.38C2.35 51.66 2.73 51.82 3.14 51.82L50.3 51.82C50.71 51.82 51.09 51.66 51.38 51.38C51.66 51.09 51.82 50.71 51.82 50.3L51.82 36.18C51.82 35.98 51.9 35.79 52.05 35.65C52.19 35.5 52.38 35.42 52.58 35.42C52.79 35.42 52.98 35.5 53.12 35.65C53.27 35.79 53.35 35.98 53.35 36.18L53.35 50.3C53.35 51.11 53.02 51.88 52.45 52.45C51.88 53.02 51.11 53.35 50.3 53.35Z" fill="#CB8734" fill-opacity="1.000000" fill-rule="nonzero"/>
	<path id="Vector" d="M2.52 53.39Q2.83 53.45 3.14 53.45L50.3 53.45Q50.62 53.45 50.92 53.39Q51.22 53.33 51.5 53.21Q51.79 53.09 52.05 52.92Q52.3 52.75 52.52 52.52Q52.75 52.3 52.92 52.05Q53.09 51.79 53.21 51.5Q53.33 51.22 53.39 50.92Q53.45 50.62 53.45 50.3L53.45 36.18Q53.45 36.1 53.43 36.02Q53.41 35.93 53.38 35.85Q53.35 35.77 53.3 35.71Q53.25 35.64 53.19 35.57Q53.13 35.51 53.06 35.47Q52.99 35.42 52.91 35.39Q52.83 35.36 52.75 35.34Q52.67 35.32 52.58 35.32Q52.5 35.32 52.42 35.34Q52.33 35.36 52.25 35.39Q52.18 35.42 52.11 35.47Q52.04 35.51 51.98 35.57Q51.91 35.64 51.87 35.71Q51.82 35.77 51.79 35.85Q51.76 35.93 51.74 36.01Q51.72 36.1 51.72 36.18L51.72 50.3Q51.72 50.44 51.7 50.58Q51.67 50.72 51.62 50.85Q51.56 50.98 51.48 51.09Q51.41 51.21 51.31 51.31Q51.21 51.41 51.09 51.48Q50.98 51.56 50.85 51.62Q50.72 51.67 50.58 51.7Q50.44 51.72 50.3 51.72L3.14 51.72Q3 51.72 2.86 51.7Q2.72 51.67 2.59 51.62Q2.46 51.56 2.35 51.48Q2.23 51.41 2.13 51.31Q2.03 51.21 1.96 51.09Q1.88 50.98 1.82 50.85Q1.77 50.72 1.74 50.58Q1.72 50.44 1.72 50.3L1.72 3.14Q1.72 3 1.74 2.86Q1.77 2.72 1.82 2.59Q1.88 2.46 1.96 2.35Q2.03 2.23 2.13 2.13Q2.23 2.03 2.35 1.96Q2.46 1.88 2.59 1.82Q2.72 1.77 2.86 1.74Q3 1.72 3.14 1.72L50.3 1.72Q50.44 1.72 50.58 1.74Q50.72 1.77 50.85 1.82Q50.98 1.88 51.09 1.96Q51.21 2.03 51.31 2.13Q51.41 2.23 51.48 2.35Q51.56 2.46 51.62 2.59Q51.67 2.72 51.7 2.86Q51.72 3 51.72 3.14L51.72 15.74Q51.72 15.82 51.74 15.9Q51.76 15.99 51.79 16.06Q51.82 16.14 51.87 16.21Q51.92 16.28 51.98 16.34Q52.04 16.4 52.11 16.45Q52.18 16.5 52.25 16.53Q52.33 16.56 52.42 16.58Q52.5 16.6 52.58 16.6Q52.67 16.6 52.75 16.58Q52.83 16.56 52.91 16.53Q52.99 16.5 53.06 16.45Q53.13 16.4 53.19 16.34Q53.25 16.28 53.3 16.21Q53.35 16.14 53.38 16.06Q53.41 15.99 53.43 15.9Q53.45 15.82 53.45 15.74L53.45 3.14Q53.45 2.82 53.39 2.52Q53.33 2.22 53.21 1.94Q53.09 1.65 52.92 1.39Q52.75 1.14 52.52 0.92Q52.3 0.69 52.05 0.52Q51.79 0.35 51.5 0.23Q51.22 0.11 50.92 0.05Q50.62 0 50.3 0L3.14 0Q2.83 0 2.52 0.05Q2.22 0.11 1.94 0.23Q1.65 0.35 1.39 0.52Q1.14 0.69 0.92 0.92Q0.69 1.14 0.52 1.39Q0.35 1.65 0.23 1.94Q0.11 2.22 0.06 2.52Q0 2.83 0 3.14L0 50.3Q0 50.61 0.05 50.91Q0.11 51.22 0.23 51.5Q0.35 51.79 0.52 52.05Q0.69 52.3 0.92 52.52Q1.14 52.75 1.39 52.92Q1.65 53.09 1.94 53.21Q2.22 53.33 2.52 53.39ZM50.3 53.35L3.14 53.35C2.33 53.35 1.56 53.02 0.99 52.45C0.42 51.88 0.1 51.11 0.1 50.3L0.1 3.14C0.1 2.33 0.42 1.56 0.99 0.99C1.56 0.42 2.33 0.09 3.14 0.09L50.3 0.09C51.11 0.09 51.88 0.42 52.45 0.99C53.02 1.56 53.35 2.33 53.35 3.14L53.35 15.74C53.35 15.94 53.27 16.13 53.12 16.27C52.98 16.42 52.79 16.5 52.58 16.5C52.38 16.5 52.19 16.42 52.05 16.27C51.9 16.13 51.82 15.94 51.82 15.74L51.82 3.14C51.82 2.73 51.66 2.35 51.38 2.06C51.09 1.78 50.71 1.62 50.3 1.62L3.14 1.62C2.73 1.62 2.35 1.78 2.06 2.06C1.78 2.35 1.62 2.73 1.62 3.14L1.62 50.3C1.62 50.71 1.78 51.09 2.06 51.38C2.35 51.66 2.73 51.82 3.14 51.82L50.3 51.82C50.71 51.82 51.09 51.66 51.38 51.38C51.66 51.09 51.82 50.71 51.82 50.3L51.82 36.18C51.82 35.98 51.9 35.79 52.05 35.65C52.19 35.5 52.38 35.42 52.58 35.42C52.79 35.42 52.98 35.5 53.12 35.65C53.27 35.79 53.35 35.98 53.35 36.18L53.35 50.3C53.35 51.11 53.02 51.88 52.45 52.45C51.88 53.02 51.11 53.35 50.3 53.35Z" fill="#CB8734" fill-opacity="1.000000" fill-rule="evenodd"/>
	<path id="Vector" d="M52.58 24.03C52.38 24.03 52.19 23.95 52.05 23.81C51.9 23.67 51.82 23.48 51.82 23.27L51.82 21.06C51.82 20.86 51.9 20.67 52.05 20.52C52.19 20.38 52.38 20.3 52.58 20.3C52.79 20.3 52.98 20.38 53.12 20.52C53.27 20.67 53.35 20.86 53.35 21.06L53.35 23.27C53.35 23.48 53.27 23.67 53.12 23.81C52.98 23.95 52.79 24.03 52.58 24.03Z" fill="#CB8734" fill-opacity="1.000000" fill-rule="nonzero"/>
	<path id="Vector" d="M51.87 23.75Q51.92 23.82 51.98 23.88Q52.04 23.94 52.11 23.99Q52.18 24.04 52.26 24.07Q52.33 24.1 52.42 24.12Q52.5 24.13 52.58 24.13Q52.67 24.13 52.75 24.12Q52.84 24.1 52.91 24.07Q52.99 24.04 53.06 23.99Q53.13 23.94 53.19 23.88Q53.25 23.82 53.3 23.75Q53.35 23.68 53.38 23.6Q53.41 23.52 53.43 23.44Q53.45 23.36 53.45 23.27L53.45 21.06Q53.45 20.97 53.43 20.89Q53.41 20.81 53.38 20.73Q53.35 20.65 53.3 20.58Q53.25 20.51 53.19 20.45Q53.13 20.39 53.06 20.34Q52.99 20.3 52.91 20.27Q52.84 20.23 52.75 20.22Q52.67 20.2 52.58 20.2Q52.5 20.2 52.42 20.22Q52.33 20.23 52.26 20.27Q52.18 20.3 52.11 20.34Q52.04 20.39 51.98 20.45Q51.92 20.51 51.87 20.58Q51.82 20.65 51.79 20.73Q51.76 20.81 51.74 20.89Q51.72 20.97 51.72 21.06L51.72 23.27Q51.72 23.36 51.74 23.44Q51.76 23.52 51.79 23.6Q51.82 23.68 51.87 23.75ZM52.58 24.03C52.38 24.03 52.19 23.95 52.05 23.81C51.9 23.67 51.82 23.48 51.82 23.27L51.82 21.06C51.82 20.86 51.9 20.67 52.05 20.52C52.19 20.38 52.38 20.3 52.58 20.3C52.79 20.3 52.98 20.38 53.12 20.52C53.27 20.67 53.35 20.86 53.35 21.06L53.35 23.27C53.35 23.48 53.27 23.67 53.12 23.81C52.98 23.95 52.79 24.03 52.58 24.03Z" fill="#CB8734" fill-opacity="1.000000" fill-rule="evenodd"/>
	<mask id="mask_162_2888" fill="white">
		<path id="Union" d="M44.4688 15.7939C44.6709 15.7939 44.8643 15.7137 45.0068 15.5712C45.1494 15.4285 45.2295 15.235 45.2295 15.0332C45.2295 14.8314 45.1494 14.6379 45.0068 14.4954L40.0244 9.5127C39.8813 9.37 39.688 9.28992 39.4863 9.28992C39.2847 9.28992 39.0908 9.37 38.9482 9.5127L33.9658 14.4954C33.8232 14.6379 33.7432 14.8314 33.7432 15.0332C33.7432 15.235 33.8232 15.4285 33.9658 15.5712C34.1084 15.7137 34.3018 15.7939 34.5034 15.7939C34.7056 15.7939 34.8989 15.7137 35.0415 15.5712L38.7261 11.8868L38.7261 28.9852C38.7261 29.1357 38.7705 29.2827 38.854 29.4078C38.9375 29.5328 39.0566 29.6304 39.1953 29.688C39.3345 29.7455 39.4873 29.7606 39.6348 29.7313C39.7827 29.7019 39.918 29.6295 40.0244 29.5232C40.167 29.3805 40.2471 29.187 40.2471 28.9852L40.2471 11.8872L43.9312 15.5712C44.0737 15.7137 44.2671 15.7939 44.4688 15.7939Z" clip-rule="evenodd" fill="" fill-opacity="1.000000" fill-rule="evenodd"/>
	</mask>
	<path id="Union" d="M44.4688 15.7939C44.6709 15.7939 44.8643 15.7137 45.0068 15.5712C45.1494 15.4285 45.2295 15.235 45.2295 15.0332C45.2295 14.8314 45.1494 14.6379 45.0068 14.4954L40.0244 9.5127C39.8813 9.37 39.688 9.28992 39.4863 9.28992C39.2847 9.28992 39.0908 9.37 38.9482 9.5127L33.9658 14.4954C33.8232 14.6379 33.7432 14.8314 33.7432 15.0332C33.7432 15.235 33.8232 15.4285 33.9658 15.5712C34.1084 15.7137 34.3018 15.7939 34.5034 15.7939C34.7056 15.7939 34.8989 15.7137 35.0415 15.5712L38.7261 11.8868L38.7261 28.9852C38.7261 29.1357 38.7705 29.2827 38.854 29.4078C38.9375 29.5328 39.0566 29.6304 39.1953 29.688C39.3345 29.7455 39.4873 29.7606 39.6348 29.7313C39.7827 29.7019 39.918 29.6295 40.0244 29.5232C40.167 29.3805 40.2471 29.187 40.2471 28.9852L40.2471 11.8872L43.9312 15.5712C44.0737 15.7137 44.2671 15.7939 44.4688 15.7939Z" clip-rule="evenodd" fill="#CB8734" fill-opacity="1.000000" fill-rule="evenodd" mask="url(#mask_162_2888)"/>
	<path id="Union" d="M44.3054 15.8784Q44.3856 15.8939 44.4688 15.8939Q44.5554 15.8939 44.6386 15.8772Q44.7201 15.8608 44.7983 15.8284Q44.8771 15.7958 44.9467 15.7494Q45.0168 15.7026 45.0776 15.6418Q45.1384 15.5811 45.1852 15.5109Q45.2316 15.4413 45.2642 15.3625Q45.2964 15.2846 45.3128 15.2034Q45.3296 15.12 45.3296 15.0332Q45.3296 14.948 45.3134 14.866Q45.297 14.7833 45.2642 14.7039Q45.2316 14.6251 45.1852 14.5555Q45.1384 14.4854 45.0776 14.4246L40.0947 9.44202Q40.0341 9.38144 39.9643 9.33476Q39.8945 9.28813 39.8154 9.25537Q39.7401 9.22407 39.6617 9.20772Q39.5759 9.18982 39.4863 9.18982Q39.3997 9.18982 39.3165 9.20656Q39.235 9.22295 39.1567 9.25537Q39.0777 9.28813 39.0079 9.33476Q38.938 9.38144 38.8774 9.44202L33.895 14.4246Q33.8342 14.4854 33.7875 14.5555Q33.7411 14.6251 33.7085 14.7039Q33.6756 14.7833 33.6593 14.866Q33.6431 14.948 33.6431 15.0332Q33.6431 15.12 33.6599 15.2034Q33.6762 15.2846 33.7085 15.3625Q33.7411 15.4413 33.7875 15.5109Q33.8342 15.5811 33.895 15.6418Q33.9558 15.7026 34.026 15.7494Q34.0955 15.7958 34.1743 15.8284Q34.2526 15.8608 34.334 15.8772Q34.4173 15.8939 34.5039 15.8939Q34.5871 15.8939 34.6672 15.8784Q34.7518 15.862 34.833 15.8284Q34.9118 15.7958 34.9814 15.7494Q35.0515 15.7026 35.1123 15.6418L38.626 12.1279L38.626 28.9852Q38.626 29.116 38.6624 29.2357Q38.6986 29.355 38.771 29.4634Q38.8435 29.5718 38.9399 29.651Q39.0365 29.7303 39.1572 29.7803Q39.2785 29.8305 39.4034 29.8427Q39.5271 29.8547 39.6543 29.8293Q39.7834 29.8037 39.8944 29.7441Q40.0036 29.6855 40.0952 29.5939Q40.156 29.5331 40.2028 29.4629Q40.2492 29.3934 40.2817 29.3146Q40.314 29.2366 40.3304 29.1554Q40.3472 29.072 40.3472 28.9852L40.3472 12.1288L43.8604 15.6418Q43.9211 15.7026 43.9913 15.7494Q44.0609 15.7958 44.1396 15.8284Q44.2209 15.862 44.3054 15.8784ZM40.2471 12.0287L40.2471 11.8872L40.3472 11.9873L43.9312 15.5712C44.0737 15.7137 44.2671 15.7939 44.4688 15.7939C44.6709 15.7939 44.8643 15.7137 45.0068 15.5712C45.1494 15.4285 45.2295 15.235 45.2295 15.0332C45.2295 14.8314 45.1494 14.6379 45.0068 14.4954L40.0244 9.5127C39.8813 9.37 39.688 9.28992 39.4863 9.28992C39.2847 9.28992 39.0908 9.37 38.9482 9.5127L33.9658 14.4954C33.8232 14.6379 33.7432 14.8314 33.7432 15.0332C33.7432 15.235 33.8232 15.4285 33.9658 15.5712C34.1084 15.7137 34.3018 15.7939 34.5034 15.7939C34.7056 15.7939 34.8989 15.7137 35.0415 15.5712L38.626 11.9869L38.7261 11.8868L38.7261 28.9852C38.7261 29.1357 38.7705 29.2827 38.854 29.4078C38.9375 29.5328 39.0566 29.6304 39.1953 29.688C39.3345 29.7455 39.4873 29.7606 39.6348 29.7313C39.7827 29.7019 39.918 29.6295 40.0244 29.5232C40.167 29.3805 40.2471 29.187 40.2471 28.9852L40.2471 12.0287Z" clip-rule="evenodd" fill="#CB8734" fill-opacity="1.000000" fill-rule="evenodd"/>
	<mask id="mask_162_2891" fill="white">
		<path id="Union" d="M8.89941 40.0178C8.79297 39.9115 8.7207 39.7759 8.69141 39.6284C8.66211 39.4808 8.67725 39.3279 8.73438 39.189C8.77393 39.0941 8.83154 39.0087 8.9043 38.9374L13.8823 33.9595C13.9526 33.8888 14.0366 33.8328 14.1289 33.7946C14.2212 33.7563 14.3203 33.7367 14.4199 33.7367C14.52 33.7367 14.6191 33.7563 14.7114 33.7946C14.8037 33.8328 14.8872 33.8888 14.958 33.9595C15.0288 34.0302 15.085 34.114 15.123 34.2063C15.1611 34.2986 15.1807 34.3975 15.1807 34.4974C15.1807 34.5973 15.1611 34.6962 15.123 34.7885C15.085 34.8807 15.0288 34.9646 14.958 35.0353L11.2739 38.7194L28.3716 38.7194C28.5708 38.7228 28.7612 38.8044 28.9009 38.9468C29.0405 39.089 29.1191 39.2805 29.1191 39.48C29.1191 39.6794 29.0405 39.871 28.9009 40.0132C28.7612 40.1554 28.5708 40.2371 28.3716 40.2406L11.2739 40.2406L14.958 43.9247C15.1006 44.0674 15.1807 44.2609 15.1807 44.4626C15.1807 44.6644 15.1006 44.8579 14.958 45.0005C14.8154 45.1432 14.6221 45.2234 14.4199 45.2234C14.2183 45.2234 14.0249 45.1432 13.8823 45.0005L8.90918 40.0275C8.90576 40.0243 8.90283 40.0211 8.89941 40.0178Z" clip-rule="evenodd" fill="" fill-opacity="1.000000" fill-rule="evenodd"/>
	</mask>
	<path id="Union" d="M8.89941 40.0178C8.79297 39.9115 8.7207 39.7759 8.69141 39.6284C8.66211 39.4808 8.67725 39.3279 8.73438 39.189C8.77393 39.0941 8.83154 39.0087 8.9043 38.9374L13.8823 33.9595C13.9526 33.8888 14.0366 33.8328 14.1289 33.7946C14.2212 33.7563 14.3203 33.7367 14.4199 33.7367C14.52 33.7367 14.6191 33.7563 14.7114 33.7946C14.8037 33.8328 14.8872 33.8888 14.958 33.9595C15.0288 34.0302 15.085 34.114 15.123 34.2063C15.1611 34.2986 15.1807 34.3975 15.1807 34.4974C15.1807 34.5973 15.1611 34.6962 15.123 34.7885C15.085 34.8807 15.0288 34.9646 14.958 35.0353L11.2739 38.7194L28.3716 38.7194C28.5708 38.7228 28.7612 38.8044 28.9009 38.9468C29.0405 39.089 29.1191 39.2805 29.1191 39.48C29.1191 39.6794 29.0405 39.871 28.9009 40.0132C28.7612 40.1554 28.5708 40.2371 28.3716 40.2406L11.2739 40.2406L14.958 43.9247C15.1006 44.0674 15.1807 44.2609 15.1807 44.4626C15.1807 44.6644 15.1006 44.8579 14.958 45.0005C14.8154 45.1432 14.6221 45.2234 14.4199 45.2234C14.2183 45.2234 14.0249 45.1432 13.8823 45.0005L8.90918 40.0275C8.90576 40.0243 8.90283 40.0211 8.89941 40.0178Z" clip-rule="evenodd" fill="#CB8734" fill-opacity="1.000000" fill-rule="evenodd" mask="url(#mask_162_2891)"/>
	<path id="Union" d="M8.67712 39.8854Q8.73604 39.996 8.82861 40.0886L8.8291 40.0892L8.83838 40.0981L13.8115 45.0713Q13.8717 45.1314 13.941 45.1778Q14.0112 45.2248 14.0908 45.2578Q14.172 45.2915 14.2566 45.3078Q14.3368 45.3234 14.4199 45.3234Q14.5065 45.3234 14.5898 45.3066Q14.6713 45.2902 14.7495 45.2578Q14.8291 45.2248 14.8993 45.1778Q14.9686 45.1314 15.0288 45.0713Q15.0896 45.0105 15.1364 44.9404Q15.1827 44.8708 15.2153 44.792Q15.2482 44.7125 15.2645 44.6298Q15.2808 44.5478 15.2808 44.4626Q15.2808 44.3758 15.264 44.2924Q15.2476 44.2113 15.2153 44.1333Q15.1827 44.0545 15.1364 43.9849Q15.0896 43.9148 15.0288 43.854L11.5155 40.3406L28.3735 40.3406Q28.4543 40.3392 28.5321 40.3231Q28.617 40.3057 28.6982 40.2708Q28.7743 40.238 28.8416 40.1924Q28.9117 40.1448 28.9722 40.0833Q29.032 40.0224 29.0779 39.9525Q29.1231 39.8836 29.1548 39.8059Q29.1877 39.7258 29.2038 39.6424Q29.2192 39.5627 29.2192 39.48Q29.2192 39.3956 29.2032 39.3145Q29.1871 39.2327 29.1548 39.1541Q29.1231 39.0764 29.0779 39.0075Q29.032 38.9375 28.9722 38.8767Q28.9119 38.8154 28.8421 38.7679Q28.7746 38.722 28.6982 38.6891Q28.6293 38.6595 28.5574 38.6425Q28.4668 38.621 28.3716 38.6194L11.5154 38.6194L15.0288 35.106Q15.0892 35.0456 15.1357 34.976Q15.1825 34.9061 15.2153 34.8268Q15.2482 34.7473 15.2645 34.6646Q15.2808 34.5826 15.2808 34.4974Q15.2808 34.4114 15.2642 34.3286Q15.2479 34.2467 15.2153 34.168Q15.183 34.0899 15.1372 34.0209Q15.0901 33.9501 15.0288 33.8888Q14.9682 33.8282 14.8984 33.7815Q14.8286 33.7349 14.7495 33.7021Q14.6715 33.6699 14.5904 33.6535Q14.5068 33.6367 14.4199 33.6367Q14.3365 33.6367 14.256 33.6523Q14.1718 33.6687 14.0908 33.7021Q14.0118 33.7349 13.942 33.7815Q13.8721 33.8282 13.8115 33.8888L8.83398 38.8661Q8.77326 38.926 8.72612 38.9951Q8.67661 39.0678 8.64209 39.1506Q8.59242 39.2709 8.58015 39.3949Q8.5678 39.5195 8.59326 39.6479Q8.61857 39.7755 8.67712 39.8854ZM11.4154 38.7194L11.2739 38.7194L14.958 35.0353C15.0288 34.9646 15.085 34.8807 15.123 34.7885C15.1611 34.6962 15.1807 34.5973 15.1807 34.4974C15.1807 34.3975 15.1611 34.2986 15.123 34.2063C15.085 34.114 15.0288 34.0302 14.958 33.9595C14.8872 33.8888 14.8037 33.8328 14.7114 33.7946C14.6191 33.7563 14.52 33.7367 14.4199 33.7367C14.3203 33.7367 14.2212 33.7563 14.1289 33.7946C14.0366 33.8328 13.9526 33.8888 13.8823 33.9595L8.9043 38.9374C8.83154 39.0087 8.77393 39.0941 8.73438 39.189C8.67725 39.3279 8.66211 39.4808 8.69141 39.6284C8.7207 39.7759 8.79297 39.9115 8.89941 40.0178C8.90283 40.0211 8.90576 40.0243 8.90918 40.0275L13.8823 45.0005C14.0249 45.1432 14.2183 45.2234 14.4199 45.2234C14.6221 45.2234 14.8154 45.1432 14.958 45.0005C15.1006 44.8579 15.1807 44.6644 15.1807 44.4626C15.1807 44.2609 15.1006 44.0674 14.958 43.9247L11.2739 40.2406L28.3716 40.2406C28.5708 40.2371 28.7612 40.1554 28.9009 40.0132C29.0405 39.871 29.1191 39.6794 29.1191 39.48C29.1191 39.2805 29.0405 39.089 28.9009 38.9468C28.7612 38.8044 28.5708 38.7228 28.3716 38.7194L11.4154 38.7194Z" clip-rule="evenodd" fill="#CB8734" fill-opacity="1.000000" fill-rule="evenodd"/>
</svg>
