<svg width="12.458252" height="12.458336" viewBox="0 0 12.4583 12.4583" fill="none" xmlns="http://www.w3.org/2000/svg" xmlns:xlink="http://www.w3.org/1999/xlink">
	<desc>
			Created with Pixso.
	</desc>
	<defs/>
	<path id="Vector" d="M10.65 1.81C9.5 0.63 7.9 0 6.28 0C2.81 0 0.03 2.79 0.06 6.19C0.06 7.27 0.37 8.31 0.88 9.25L0 12.45L3.29 11.61C4.2 12.12 5.22 12.35 6.24 12.35C9.67 12.35 12.45 9.56 12.45 6.16C12.45 4.51 11.81 2.96 10.65 1.81ZM6.28 11.31C5.36 11.31 4.44 11.07 3.66 10.6L3.46 10.5L1.49 11.01L2 9.09L1.86 8.88C0.37 6.49 1.08 3.33 3.53 1.85C5.97 0.37 9.13 1.07 10.62 3.5C12.11 5.92 11.4 9.05 8.96 10.53C8.18 11.04 7.23 11.31 6.28 11.31ZM9.26 7.57L8.89 7.4C8.89 7.4 8.35 7.17 8.01 7C7.97 7 7.94 6.96 7.9 6.96C7.8 6.96 7.73 7 7.67 7.03C7.67 7.03 7.63 7.07 7.16 7.6C7.12 7.67 7.06 7.71 6.99 7.71L6.95 7.71C6.92 7.71 6.85 7.67 6.82 7.64L6.65 7.57C6.28 7.4 5.94 7.2 5.66 6.93C5.6 6.86 5.49 6.8 5.43 6.73C5.19 6.49 4.95 6.22 4.78 5.92L4.75 5.85C4.71 5.82 4.71 5.79 4.68 5.72C4.68 5.65 4.68 5.58 4.71 5.55C4.71 5.55 4.85 5.38 4.95 5.28C5.02 5.21 5.05 5.11 5.12 5.05C5.19 4.94 5.22 4.81 5.19 4.71C5.15 4.54 4.75 3.63 4.65 3.43C4.58 3.33 4.51 3.29 4.41 3.26L4.31 3.26C4.24 3.26 4.14 3.26 4.03 3.26C3.97 3.26 3.9 3.29 3.83 3.29L3.8 3.33C3.73 3.36 3.66 3.43 3.59 3.46C3.53 3.53 3.49 3.6 3.42 3.67C3.19 3.97 3.05 4.34 3.05 4.71C3.05 4.98 3.12 5.25 3.22 5.48L3.25 5.58C3.56 6.22 3.97 6.8 4.51 7.3L4.65 7.44C4.75 7.54 4.85 7.6 4.92 7.71C5.63 8.31 6.44 8.75 7.36 8.99C7.46 9.02 7.6 9.02 7.7 9.05C7.8 9.05 7.94 9.05 8.04 9.05C8.21 9.05 8.41 8.99 8.55 8.92C8.65 8.85 8.72 8.85 8.79 8.78L8.86 8.72C8.92 8.65 8.99 8.61 9.06 8.55C9.13 8.48 9.19 8.41 9.23 8.35C9.3 8.21 9.33 8.04 9.36 7.87C9.36 7.81 9.36 7.71 9.36 7.64C9.36 7.64 9.33 7.6 9.26 7.57Z" fill="#FFFFFF" fill-opacity="1.000000" fill-rule="nonzero"/>
</svg>
