<svg width="62.000000" height="62.000916" viewBox="0 0 62 62.0009" fill="none" xmlns="http://www.w3.org/2000/svg" xmlns:xlink="http://www.w3.org/1999/xlink">
	<desc>
			Created with Pixso.
	</desc>
	<defs/>
	<path id="Vector" d="M54.25 11.26C54.91 11.26 55.46 10.71 55.46 10.05L55.46 3.63C55.46 1.62 53.83 0 51.82 0L3.63 0C1.62 0 0 1.62 0 3.63L0 58.36C0 60.37 1.62 62 3.63 62L51.82 62C53.83 62 55.46 60.37 55.46 58.36L55.46 54.97C55.46 54.3 54.91 53.76 54.25 53.76C53.58 53.76 53.03 54.3 53.03 54.97L53.03 58.36C53.03 59.03 52.49 59.57 51.82 59.57L3.63 59.57C2.96 59.57 2.42 59.03 2.42 58.36L2.42 3.63C2.42 2.96 2.96 2.42 3.63 2.42L51.82 2.42C52.49 2.42 53.03 2.96 53.03 3.63L53.03 10.05C53.03 10.71 53.58 11.26 54.25 11.26Z" fill="#CB8734" fill-opacity="1.000000" fill-rule="nonzero"/>
	<path id="Vector" d="M54.25 11.26C54.91 11.26 55.46 10.71 55.46 10.05L55.46 3.63C55.46 1.62 53.83 0 51.82 0L3.63 0C1.62 0 0 1.62 0 3.63L0 58.36C0 60.37 1.62 62 3.63 62L51.82 62C53.83 62 55.46 60.37 55.46 58.36L55.46 54.97C55.46 54.3 54.91 53.76 54.25 53.76C53.58 53.76 53.03 54.3 53.03 54.97L53.03 58.36C53.03 59.03 52.49 59.57 51.82 59.57L3.63 59.57C2.96 59.57 2.42 59.03 2.42 58.36L2.42 3.63C2.42 2.96 2.96 2.42 3.63 2.42L51.82 2.42C52.49 2.42 53.03 2.96 53.03 3.63L53.03 10.05C53.03 10.71 53.58 11.26 54.25 11.26ZM55.31 3.63L55.31 10.05Q55.31 10.17 55.28 10.28Q55.26 10.37 55.22 10.46Q55.19 10.55 55.13 10.63Q55.07 10.72 55 10.8Q54.92 10.87 54.83 10.93Q54.75 10.99 54.66 11.02Q54.57 11.06 54.48 11.08Q54.37 11.11 54.25 11.11Q54.12 11.11 54.01 11.08Q53.92 11.06 53.83 11.02Q53.74 10.99 53.67 10.93Q53.57 10.87 53.5 10.8Q53.42 10.72 53.36 10.63Q53.31 10.55 53.27 10.46Q53.23 10.37 53.21 10.28Q53.18 10.17 53.18 10.05L53.18 3.63Q53.18 3.48 53.15 3.34Q53.13 3.22 53.08 3.1Q53.03 2.98 52.96 2.88Q52.89 2.77 52.79 2.67Q52.69 2.57 52.57 2.49Q52.47 2.42 52.35 2.37Q52.24 2.32 52.11 2.3Q51.97 2.27 51.82 2.27L3.63 2.27Q3.48 2.27 3.34 2.3Q3.22 2.32 3.1 2.37Q2.98 2.42 2.88 2.49Q2.77 2.57 2.67 2.67Q2.57 2.77 2.49 2.88Q2.42 2.98 2.37 3.1Q2.32 3.22 2.3 3.34Q2.27 3.48 2.27 3.63L2.27 58.36Q2.27 58.51 2.3 58.65Q2.32 58.78 2.37 58.89Q2.42 59.01 2.49 59.11Q2.57 59.22 2.67 59.33Q2.77 59.43 2.88 59.5Q2.98 59.57 3.1 59.62Q3.22 59.67 3.34 59.69Q3.48 59.72 3.63 59.72L51.82 59.72Q51.97 59.72 52.11 59.69Q52.24 59.67 52.35 59.62Q52.47 59.57 52.57 59.5Q52.69 59.43 52.79 59.33Q52.89 59.22 52.96 59.11Q53.03 59.01 53.08 58.89Q53.13 58.78 53.15 58.65Q53.18 58.51 53.18 58.36L53.18 54.97Q53.18 54.85 53.21 54.74Q53.23 54.65 53.27 54.56Q53.31 54.47 53.36 54.39Q53.42 54.3 53.5 54.22Q53.57 54.14 53.67 54.08Q53.74 54.03 53.83 53.99Q53.92 53.96 54.01 53.94Q54.12 53.91 54.25 53.91Q54.37 53.91 54.48 53.94Q54.57 53.96 54.66 53.99Q54.75 54.03 54.83 54.08Q54.92 54.14 55 54.22Q55.07 54.3 55.13 54.39Q55.19 54.47 55.22 54.56Q55.26 54.65 55.28 54.74Q55.31 54.85 55.31 54.97L55.31 58.36Q55.31 58.75 55.23 59.11Q55.16 59.42 55.03 59.72Q54.91 60.01 54.74 60.26Q54.55 60.56 54.29 60.82Q54.03 61.08 53.72 61.28Q53.47 61.45 53.18 61.57Q52.88 61.7 52.58 61.77Q52.21 61.85 51.82 61.85L3.63 61.85Q3.24 61.85 2.88 61.77Q2.57 61.7 2.27 61.57Q1.98 61.45 1.73 61.28Q1.43 61.08 1.17 60.82Q0.91 60.56 0.71 60.26Q0.54 60.01 0.42 59.72Q0.29 59.42 0.23 59.11Q0.15 58.75 0.15 58.36L0.15 3.63Q0.15 3.24 0.23 2.88Q0.29 2.57 0.42 2.27Q0.54 1.99 0.71 1.73Q0.91 1.43 1.17 1.17Q1.43 0.91 1.73 0.71Q1.99 0.54 2.27 0.42Q2.57 0.29 2.88 0.23Q3.24 0.15 3.63 0.15L51.82 0.15Q52.21 0.15 52.58 0.23Q52.88 0.29 53.18 0.42Q53.47 0.54 53.72 0.71Q54.03 0.91 54.29 1.17Q54.55 1.43 54.74 1.73Q54.91 1.98 55.03 2.27Q55.16 2.57 55.23 2.88Q55.31 3.24 55.31 3.63Z" fill="#FFFFFF" fill-opacity="1.000000" fill-rule="evenodd"/>
	<path id="Vector" d="M48.43 5.81L7.02 5.81C6.35 5.81 5.81 6.35 5.81 7.02L5.81 32.33C5.81 33 6.35 33.54 7.02 33.54C7.69 33.54 8.23 33 8.23 32.33L8.23 8.23L47.22 8.23L47.22 10.17C47.22 10.84 47.77 11.38 48.43 11.38C49.1 11.38 49.64 10.84 49.64 10.17L49.64 7.02C49.64 6.35 49.1 5.81 48.43 5.81Z" fill="#CB8734" fill-opacity="1.000000" fill-rule="nonzero"/>
	<path id="Vector" d="M47.22 8.38L47.22 10.17C47.22 10.84 47.77 11.38 48.43 11.38C49.1 11.38 49.64 10.84 49.64 10.17L49.64 7.02C49.64 6.35 49.1 5.81 48.43 5.81L7.02 5.81C6.35 5.81 5.81 6.35 5.81 7.02L5.81 32.33C5.81 33 6.35 33.54 7.02 33.54C7.69 33.54 8.23 33 8.23 32.33L8.23 8.23L47.22 8.23L47.22 8.38ZM6.78 5.98Q6.9 5.96 7.02 5.96L48.43 5.96Q48.56 5.96 48.67 5.98Q48.76 6 48.85 6.04Q48.94 6.08 49.01 6.13Q49.11 6.19 49.18 6.27Q49.26 6.35 49.32 6.44Q49.37 6.52 49.41 6.61Q49.45 6.69 49.47 6.78Q49.49 6.9 49.49 7.02L49.49 10.17Q49.49 10.29 49.47 10.4Q49.45 10.49 49.41 10.58Q49.37 10.67 49.32 10.75Q49.26 10.84 49.18 10.92Q49.11 11 49.01 11.06Q48.94 11.11 48.85 11.14Q48.76 11.18 48.67 11.2Q48.56 11.23 48.43 11.23Q48.31 11.23 48.2 11.2Q48.11 11.18 48.02 11.14Q47.93 11.11 47.85 11.06Q47.76 11 47.68 10.92Q47.61 10.84 47.55 10.75Q47.49 10.67 47.46 10.58Q47.42 10.49 47.4 10.4Q47.37 10.29 47.37 10.17L47.37 8.08L8.08 8.08L8.08 32.33Q8.08 32.45 8.05 32.56Q8.03 32.65 8 32.74Q7.96 32.83 7.91 32.91Q7.85 33 7.77 33.08Q7.69 33.16 7.6 33.22Q7.52 33.27 7.43 33.31Q7.34 33.34 7.25 33.36Q7.14 33.39 7.02 33.39Q6.9 33.39 6.78 33.36Q6.69 33.34 6.6 33.31Q6.52 33.27 6.44 33.22Q6.35 33.16 6.27 33.08Q6.19 33 6.13 32.91Q6.08 32.83 6.04 32.74Q6 32.65 5.98 32.56Q5.96 32.45 5.96 32.33L5.96 7.02Q5.96 6.9 5.98 6.78Q6 6.69 6.04 6.61Q6.08 6.52 6.13 6.44Q6.19 6.35 6.27 6.27Q6.35 6.19 6.44 6.13Q6.52 6.08 6.6 6.04Q6.69 6 6.78 5.98Z" fill="#FFFFFF" fill-opacity="1.000000" fill-rule="evenodd"/>
	<path id="Vector" d="M48.43 51.1C47.77 51.1 47.22 51.64 47.22 52.31L47.22 53.76L8.23 53.76L8.23 41.47C8.23 40.8 7.69 40.26 7.02 40.26C6.35 40.26 5.81 40.8 5.81 41.47L5.81 54.97C5.81 55.64 6.35 56.18 7.02 56.18L48.43 56.18C49.1 56.18 49.64 55.64 49.64 54.97L49.64 52.31C49.64 51.64 49.1 51.1 48.43 51.1Z" fill="#CB8734" fill-opacity="1.000000" fill-rule="nonzero"/>
	<path id="Vector" d="M8.23 53.61L8.23 41.47C8.23 40.8 7.69 40.26 7.02 40.26C6.35 40.26 5.81 40.8 5.81 41.47L5.81 54.97C5.81 55.64 6.35 56.18 7.02 56.18L48.43 56.18C49.1 56.18 49.64 55.64 49.64 54.97L49.64 52.31C49.64 51.64 49.1 51.1 48.43 51.1C47.77 51.1 47.22 51.64 47.22 52.31L47.22 53.76L8.23 53.76L8.23 53.61ZM47.37 53.91L47.37 52.31Q47.37 52.19 47.4 52.07Q47.42 51.98 47.46 51.9Q47.49 51.81 47.55 51.73Q47.61 51.64 47.68 51.56Q47.76 51.48 47.85 51.42Q47.93 51.37 48.02 51.33Q48.11 51.29 48.2 51.27Q48.31 51.25 48.43 51.25Q48.56 51.25 48.67 51.27Q48.76 51.29 48.85 51.33Q48.94 51.37 49.01 51.42Q49.11 51.48 49.18 51.56Q49.26 51.64 49.32 51.73Q49.37 51.81 49.41 51.9Q49.45 51.98 49.47 52.07Q49.49 52.19 49.49 52.31L49.49 54.97Q49.49 55.09 49.47 55.21Q49.45 55.3 49.41 55.39Q49.37 55.47 49.32 55.55Q49.26 55.64 49.18 55.72Q49.11 55.8 49.01 55.86Q48.94 55.91 48.85 55.95Q48.76 55.99 48.67 56.01Q48.56 56.03 48.43 56.03L7.02 56.03Q6.9 56.03 6.78 56.01Q6.69 55.99 6.6 55.95Q6.52 55.91 6.44 55.86Q6.35 55.8 6.27 55.72Q6.19 55.64 6.13 55.55Q6.08 55.47 6.04 55.39Q6 55.3 5.98 55.21Q5.96 55.09 5.96 54.97L5.96 41.47Q5.96 41.35 5.98 41.23Q6 41.14 6.04 41.06Q6.08 40.97 6.13 40.89Q6.19 40.8 6.27 40.72Q6.35 40.64 6.44 40.58Q6.52 40.53 6.6 40.49Q6.69 40.46 6.78 40.44Q6.9 40.41 7.02 40.41Q7.14 40.41 7.25 40.44Q7.34 40.46 7.43 40.49Q7.52 40.53 7.6 40.58Q7.69 40.64 7.77 40.72Q7.85 40.8 7.91 40.89Q7.96 40.97 8 41.06Q8.03 41.14 8.05 41.23Q8.08 41.35 8.08 41.47L8.08 53.91L47.37 53.91Z" fill="#FFFFFF" fill-opacity="1.000000" fill-rule="evenodd"/>
	<path id="Vector" d="M37.52 42.78C37.05 42.31 36.28 42.31 35.81 42.78L33.42 45.18L31.93 43.69C30.99 42.75 29.46 42.75 28.52 43.69L27.55 44.66C27.08 45.13 27.08 45.9 27.55 46.37C28.03 46.84 28.79 46.84 29.27 46.37L30.23 45.41L31.71 46.9C32.18 47.37 32.8 47.6 33.42 47.6C34.03 47.6 34.65 47.37 35.12 46.9L37.52 44.5C38 44.02 38 43.26 37.52 42.78Z" fill="#CB8734" fill-opacity="1.000000" fill-rule="nonzero"/>
	<path id="Vector" d="M30.33 45.52L31.71 46.9C32.18 47.37 32.8 47.6 33.42 47.6C34.03 47.6 34.65 47.37 35.12 46.9L37.52 44.5C38 44.02 38 43.26 37.52 42.78C37.05 42.31 36.28 42.31 35.81 42.78L33.52 45.07L33.42 45.18L33.42 45.17L33.31 45.07L31.93 43.69C30.99 42.75 29.46 42.75 28.52 43.69L27.55 44.66C27.08 45.13 27.08 45.9 27.55 46.37C28.03 46.84 28.79 46.84 29.27 46.37L30.12 45.52L30.23 45.41L30.33 45.52ZM35.92 42.89L35.92 42.89Q36 42.8 36.1 42.74Q36.18 42.69 36.27 42.66Q36.36 42.62 36.45 42.6Q36.56 42.58 36.67 42.58Q36.78 42.58 36.88 42.6Q36.98 42.62 37.07 42.66Q37.15 42.69 37.23 42.74Q37.33 42.8 37.42 42.89Q37.5 42.97 37.57 43.07Q37.61 43.15 37.65 43.24Q37.69 43.33 37.71 43.42Q37.73 43.53 37.73 43.64Q37.73 43.75 37.71 43.86Q37.69 43.95 37.65 44.04Q37.61 44.13 37.57 44.2Q37.5 44.3 37.42 44.39L35.01 46.79Q34.84 46.97 34.63 47.1Q34.46 47.21 34.27 47.29Q34.08 47.36 33.88 47.4Q33.66 47.45 33.42 47.45Q33.18 47.45 32.95 47.4Q32.75 47.36 32.57 47.29Q32.37 47.21 32.2 47.1Q32 46.97 31.82 46.79L30.23 45.2L29.16 46.26Q29.08 46.35 28.98 46.41Q28.9 46.46 28.81 46.5Q28.72 46.53 28.63 46.55Q28.52 46.57 28.41 46.57Q28.3 46.57 28.19 46.55Q28.1 46.53 28.01 46.5Q27.92 46.46 27.85 46.41Q27.75 46.35 27.66 46.26Q27.58 46.18 27.51 46.08Q27.46 46 27.43 45.91Q27.39 45.82 27.37 45.73Q27.35 45.62 27.35 45.51Q27.35 45.4 27.37 45.29Q27.39 45.2 27.43 45.11Q27.46 45.03 27.51 44.95Q27.58 44.85 27.66 44.76L28.63 43.79Q28.81 43.62 29.01 43.49Q29.18 43.38 29.38 43.3Q29.56 43.22 29.76 43.18Q29.99 43.13 30.23 43.13Q30.46 43.13 30.69 43.18Q30.89 43.22 31.08 43.3Q31.27 43.38 31.44 43.49Q31.65 43.62 31.82 43.79L33.42 45.39L35.92 42.89Z" fill="#FFFFFF" fill-opacity="1.000000" fill-rule="evenodd"/>
	<path id="Vector" d="M61.44 25.4C61.97 24.57 62.13 23.54 61.88 22.59C61.62 21.63 60.97 20.82 60.09 20.37C59.71 20.17 59.48 19.77 59.5 19.34C59.54 18.35 59.17 17.38 58.47 16.68C57.77 15.98 56.8 15.61 55.81 15.66C55.38 15.68 54.98 15.44 54.78 15.06C54.33 14.18 53.52 13.53 52.57 13.28C51.61 13.02 50.59 13.18 49.75 13.71C49.39 13.95 48.93 13.95 48.57 13.71C47.73 13.18 46.71 13.02 45.75 13.28C44.8 13.53 43.99 14.18 43.53 15.06C43.34 15.44 42.93 15.68 42.51 15.66C41.52 15.61 40.55 15.98 39.85 16.68C39.15 17.38 38.78 18.35 38.82 19.34C38.84 19.77 38.61 20.17 38.23 20.37C37.35 20.82 36.7 21.63 36.44 22.59C36.32 23.04 36.29 23.51 36.36 23.97L15.23 23.97C14.56 23.97 14.02 24.51 14.02 25.18C14.02 25.85 14.56 26.39 15.23 26.39L36.98 26.39C36.95 26.46 36.92 26.53 36.88 26.59C36.35 27.42 36.19 28.45 36.44 29.4C36.48 29.53 36.52 29.66 36.57 29.78L15.23 29.78C14.56 29.78 14.01 30.33 14.01 31C14.01 31.66 14.56 32.21 15.23 32.21L38.75 32.21C38.8 32.34 38.83 32.49 38.82 32.65C38.78 33.64 39.15 34.6 39.85 35.3C40.55 36 41.52 36.38 42.51 36.33C42.93 36.31 43.34 36.54 43.53 36.92C43.68 37.21 43.86 37.46 44.07 37.69L44.07 49C44.07 49.49 44.37 49.93 44.82 50.12C45.27 50.31 45.79 50.21 46.14 49.86L49.16 46.85L52.18 49.86C52.41 50.09 52.72 50.21 53.03 50.21C53.19 50.21 53.35 50.18 53.5 50.12C53.95 49.93 54.25 49.49 54.25 49L54.25 37.69C54.46 37.46 54.64 37.21 54.78 36.92C54.98 36.54 55.39 36.31 55.81 36.33C56.8 36.38 57.77 36 58.47 35.3C59.17 34.6 59.54 33.63 59.5 32.65C59.48 32.22 59.71 31.81 60.09 31.62C60.97 31.16 61.62 30.36 61.88 29.4C62.13 28.44 61.97 27.42 61.44 26.59C61.21 26.23 61.21 25.76 61.44 25.4ZM51.82 46.09L50.01 44.29C49.54 43.82 48.78 43.82 48.31 44.29L46.5 46.09L46.5 38.82C47.22 38.86 47.95 38.67 48.57 38.27C48.93 38.04 49.39 38.04 49.75 38.27C50.33 38.64 50.99 38.83 51.66 38.83C51.71 38.83 51.77 38.83 51.82 38.82L51.82 46.09ZM59.54 28.77C59.45 29.08 59.26 29.32 58.98 29.47C57.76 30.1 57.01 31.39 57.08 32.76C57.09 33.07 56.98 33.37 56.76 33.59C56.53 33.81 56.24 33.93 55.93 33.91C54.55 33.85 53.26 34.59 52.63 35.81C52.49 36.09 52.24 36.29 51.94 36.37C51.64 36.45 51.32 36.4 51.06 36.23C50.48 35.86 49.82 35.68 49.16 35.68C48.5 35.68 47.84 35.86 47.26 36.23C46.99 36.4 46.68 36.45 46.38 36.37C46.08 36.29 45.83 36.09 45.69 35.81C45.06 34.59 43.76 33.85 42.39 33.91C42.08 33.93 41.78 33.81 41.56 33.59C41.34 33.37 41.23 33.07 41.24 32.76C41.29 31.79 40.93 30.86 40.28 30.18C40.26 30.16 40.24 30.14 40.22 30.12C39.97 29.86 39.67 29.64 39.34 29.47C39.06 29.32 38.86 29.08 38.78 28.77C38.7 28.47 38.75 28.16 38.92 27.89C39.66 26.74 39.66 25.25 38.92 24.09C38.75 23.83 38.7 23.52 38.78 23.21C38.86 22.91 39.06 22.66 39.34 22.52C40.56 21.89 41.31 20.6 41.24 19.23C41.23 18.91 41.34 18.62 41.56 18.4C41.78 18.17 42.08 18.06 42.39 18.08C43.76 18.14 45.06 17.39 45.69 16.17C45.83 15.9 46.08 15.7 46.38 15.62C46.68 15.53 46.99 15.58 47.26 15.75C48.41 16.49 49.91 16.49 51.06 15.75C51.32 15.58 51.64 15.53 51.94 15.62C52.24 15.7 52.49 15.9 52.63 16.17C53.26 17.39 54.56 18.14 55.93 18.08C56.24 18.06 56.53 18.17 56.76 18.4C56.98 18.62 57.09 18.91 57.08 19.23C57.01 20.6 57.76 21.89 58.98 22.52C59.26 22.66 59.45 22.91 59.54 23.21C59.62 23.52 59.57 23.83 59.4 24.09C58.66 25.25 58.66 26.74 59.4 27.89C59.57 28.16 59.62 28.47 59.54 28.77Z" fill="#CB8734" fill-opacity="1.000000" fill-rule="nonzero"/>
	<path id="Vector" d="M54.25 37.69C54.46 37.46 54.64 37.21 54.78 36.92C54.98 36.54 55.39 36.31 55.81 36.33C56.8 36.38 57.77 36 58.47 35.3C59.17 34.6 59.54 33.63 59.5 32.65C59.48 32.22 59.71 31.81 60.09 31.62C60.97 31.16 61.62 30.36 61.88 29.4C62.13 28.44 61.97 27.42 61.44 26.59C61.21 26.23 61.21 25.76 61.44 25.4C61.97 24.57 62.13 23.54 61.88 22.59C61.62 21.63 60.97 20.82 60.09 20.37C59.71 20.17 59.48 19.77 59.5 19.34C59.54 18.35 59.17 17.38 58.47 16.68C57.77 15.98 56.8 15.61 55.81 15.66C55.38 15.68 54.98 15.44 54.78 15.06C54.33 14.18 53.52 13.53 52.57 13.28C51.61 13.02 50.59 13.18 49.75 13.71C49.39 13.95 48.93 13.95 48.57 13.71C47.73 13.18 46.71 13.02 45.75 13.28C44.8 13.53 43.99 14.18 43.53 15.06C43.34 15.44 42.93 15.68 42.51 15.66C41.52 15.61 40.55 15.98 39.85 16.68C39.15 17.38 38.78 18.35 38.82 19.34C38.84 19.77 38.61 20.17 38.23 20.37C37.35 20.82 36.7 21.63 36.44 22.59C36.33 22.99 36.3 23.41 36.34 23.82C36.34 23.87 36.35 23.92 36.36 23.97L15.23 23.97C14.56 23.97 14.02 24.51 14.02 25.18C14.02 25.85 14.56 26.39 15.23 26.39L36.98 26.39C36.96 26.44 36.93 26.5 36.91 26.54C36.9 26.56 36.89 26.57 36.88 26.59C36.35 27.42 36.19 28.45 36.44 29.4C36.46 29.48 36.49 29.56 36.52 29.63C36.53 29.68 36.55 29.74 36.57 29.78L15.23 29.78C14.56 29.78 14.01 30.33 14.01 31C14.01 31.66 14.56 32.21 15.23 32.21L38.75 32.21C38.8 32.34 38.83 32.49 38.82 32.65C38.78 33.64 39.15 34.6 39.85 35.3C40.55 36 41.52 36.38 42.51 36.33C42.93 36.31 43.34 36.54 43.53 36.92C43.68 37.21 43.86 37.46 44.07 37.69L44.07 49C44.07 49.49 44.37 49.93 44.82 50.12C45.27 50.31 45.79 50.21 46.14 49.86L49.16 46.85L52.18 49.86C52.41 50.09 52.72 50.21 53.03 50.21C53.19 50.21 53.35 50.18 53.5 50.12C53.95 49.93 54.25 49.49 54.25 49L54.25 37.69ZM61.5 22Q61.64 22.3 61.73 22.62Q61.82 22.95 61.84 23.28Q61.86 23.64 61.8 24.02Q61.75 24.39 61.61 24.73Q61.49 25.04 61.31 25.32Q61.22 25.47 61.17 25.63Q61.11 25.8 61.11 25.99Q61.11 26.18 61.17 26.36Q61.22 26.52 61.31 26.67Q61.49 26.95 61.61 27.26Q61.75 27.6 61.8 27.97Q61.86 28.34 61.84 28.71Q61.82 29.04 61.73 29.36Q61.64 29.69 61.5 29.98Q61.33 30.31 61.1 30.6Q60.86 30.9 60.58 31.12Q60.32 31.33 60.02 31.48Q59.86 31.57 59.74 31.68Q59.61 31.81 59.51 31.97Q59.42 32.14 59.38 32.31Q59.34 32.48 59.35 32.65Q59.36 32.99 59.31 33.32Q59.26 33.68 59.12 34.03Q58.99 34.38 58.78 34.68Q58.6 34.96 58.36 35.2Q58.12 35.44 57.84 35.62Q57.54 35.82 57.2 35.96Q56.85 36.09 56.49 36.15Q56.16 36.2 55.82 36.18Q55.64 36.17 55.48 36.21Q55.3 36.25 55.14 36.35Q54.97 36.44 54.85 36.58Q54.73 36.7 54.65 36.86Q54.58 36.98 54.51 37.11Q54.34 37.36 54.14 37.59L54.1 37.63L54.1 49Q54.1 49.16 54.05 49.31Q54.01 49.46 53.92 49.59Q53.83 49.72 53.71 49.82Q53.59 49.92 53.44 49.98Q53.34 50.02 53.23 50.04Q53.14 50.06 53.03 50.06Q52.93 50.06 52.83 50.04Q52.73 50.02 52.63 49.98Q52.54 49.95 52.45 49.89Q52.36 49.83 52.29 49.75L49.16 46.64L46.03 49.75Q45.92 49.87 45.78 49.94Q45.65 50.01 45.49 50.04Q45.33 50.07 45.18 50.06Q45.02 50.04 44.88 49.98Q44.73 49.92 44.61 49.82Q44.49 49.72 44.4 49.59Q44.31 49.46 44.27 49.31Q44.22 49.16 44.22 49L44.22 37.63L44.18 37.59Q43.97 37.35 43.8 37.09Q43.73 36.97 43.67 36.86Q43.59 36.7 43.47 36.57Q43.35 36.44 43.18 36.35Q43.01 36.25 42.83 36.21Q42.67 36.17 42.5 36.18Q42.16 36.2 41.84 36.15Q41.48 36.09 41.12 35.96Q40.78 35.82 40.47 35.62Q40.2 35.44 39.96 35.2Q39.72 34.96 39.54 34.68Q39.33 34.38 39.2 34.03Q39.06 33.68 39.01 33.32Q38.96 32.99 38.97 32.65Q38.98 32.57 38.97 32.49Q38.95 32.32 38.89 32.15L38.85 32.06L15.23 32.06Q15.1 32.06 14.99 32.03Q14.9 32.01 14.81 31.97Q14.72 31.94 14.65 31.88Q14.55 31.82 14.48 31.75Q14.4 31.67 14.34 31.58Q14.29 31.5 14.25 31.41Q14.21 31.32 14.19 31.23Q14.16 31.12 14.16 31Q14.16 30.87 14.19 30.76Q14.21 30.67 14.25 30.58Q14.29 30.49 14.34 30.41Q14.4 30.32 14.48 30.25Q14.55 30.17 14.65 30.11Q14.72 30.06 14.81 30.02Q14.9 29.98 14.99 29.96Q15.1 29.93 15.23 29.93L36.79 29.93L36.71 29.73Q36.64 29.54 36.59 29.36Q36.5 29.04 36.48 28.71Q36.46 28.34 36.51 27.97Q36.57 27.6 36.71 27.26Q36.83 26.95 37.01 26.67Q37.07 26.58 37.12 26.45L37.2 26.24L15.23 26.24Q15.1 26.24 14.99 26.22Q14.9 26.2 14.81 26.16Q14.72 26.12 14.65 26.07Q14.55 26.01 14.48 25.93Q14.4 25.85 14.34 25.76Q14.29 25.68 14.25 25.6Q14.21 25.51 14.19 25.42Q14.17 25.3 14.17 25.18Q14.17 25.06 14.19 24.95Q14.21 24.86 14.25 24.77Q14.29 24.68 14.34 24.6Q14.4 24.51 14.48 24.43Q14.55 24.35 14.65 24.29Q14.72 24.24 14.81 24.21Q14.9 24.17 14.99 24.15Q15.1 24.12 15.23 24.12L36.53 24.12L36.51 23.95Q36.45 23.56 36.49 23.18Q36.51 22.9 36.59 22.62Q36.68 22.3 36.82 22Q36.98 21.68 37.22 21.38Q37.45 21.09 37.74 20.86Q38 20.66 38.3 20.5Q38.45 20.42 38.58 20.3Q38.71 20.18 38.81 20.02Q38.9 19.85 38.94 19.67Q38.98 19.51 38.97 19.33Q38.96 19 39.01 18.67Q39.06 18.31 39.2 17.96Q39.33 17.61 39.54 17.3Q39.72 17.03 39.96 16.79Q40.2 16.55 40.47 16.37Q40.78 16.17 41.12 16.03Q41.47 15.9 41.83 15.84Q42.16 15.79 42.5 15.81Q42.67 15.81 42.84 15.78Q43.02 15.73 43.18 15.64Q43.35 15.54 43.47 15.41Q43.59 15.29 43.67 15.13Q43.82 14.83 44.03 14.58Q44.26 14.29 44.55 14.05Q44.84 13.82 45.17 13.65Q45.47 13.51 45.79 13.42Q46.12 13.33 46.45 13.31Q46.81 13.29 47.18 13.35Q47.55 13.4 47.89 13.54Q48.2 13.66 48.48 13.84Q48.63 13.94 48.8 13.98Q48.97 14.04 49.16 14.04Q49.35 14.04 49.52 13.98Q49.69 13.94 49.83 13.84Q50.12 13.66 50.43 13.54Q50.77 13.4 51.14 13.35Q51.51 13.29 51.87 13.31Q52.2 13.33 52.53 13.42Q52.85 13.51 53.15 13.65Q53.48 13.82 53.77 14.05Q54.06 14.29 54.29 14.58Q54.5 14.83 54.65 15.13Q54.73 15.29 54.86 15.42Q54.98 15.55 55.14 15.64Q55.3 15.73 55.47 15.77Q55.64 15.81 55.82 15.81Q56.15 15.79 56.48 15.84Q56.84 15.89 57.2 16.03Q57.54 16.16 57.85 16.37Q58.12 16.55 58.36 16.79Q58.6 17.03 58.78 17.3Q58.99 17.61 59.12 17.96Q59.26 18.31 59.31 18.67Q59.36 19 59.35 19.33Q59.34 19.51 59.38 19.67Q59.42 19.85 59.51 20.02Q59.61 20.18 59.74 20.3Q59.86 20.42 60.02 20.5Q60.32 20.66 60.58 20.86Q60.86 21.09 61.1 21.38Q61.33 21.68 61.5 22ZM58.65 29.84Q58.84 29.71 59.05 29.6Q59.19 29.52 59.31 29.42Q59.39 29.35 59.45 29.27Q59.51 29.2 59.56 29.11Q59.64 28.97 59.68 28.81Q59.72 28.65 59.72 28.49Q59.73 28.39 59.71 28.3Q59.69 28.2 59.66 28.11Q59.62 27.95 59.53 27.81Q59.4 27.62 59.3 27.41Q59.2 27.18 59.13 26.93Q59.07 26.72 59.03 26.5Q58.99 26.25 58.99 25.99Q58.99 25.73 59.03 25.48Q59.07 25.27 59.13 25.05Q59.2 24.81 59.3 24.58Q59.4 24.37 59.53 24.17Q59.61 24.03 59.66 23.88Q59.69 23.79 59.71 23.69Q59.72 23.59 59.72 23.5Q59.72 23.33 59.68 23.17Q59.64 23.01 59.56 22.87Q59.51 22.79 59.45 22.71Q59.39 22.64 59.31 22.57Q59.19 22.46 59.05 22.39Q58.84 22.28 58.65 22.15Q58.45 22 58.26 21.82Q58.1 21.67 57.97 21.5Q57.81 21.3 57.68 21.08Q57.55 20.85 57.45 20.61Q57.37 20.41 57.32 20.19Q57.26 19.95 57.24 19.7Q57.22 19.47 57.23 19.23Q57.23 19.07 57.2 18.91Q57.18 18.81 57.14 18.72Q57.11 18.63 57.06 18.55Q56.98 18.41 56.86 18.29Q56.74 18.17 56.61 18.09Q56.52 18.04 56.43 18.01Q56.34 17.97 56.25 17.95Q56.09 17.92 55.92 17.93Q55.69 17.94 55.46 17.92Q55.2 17.89 54.96 17.83Q54.74 17.78 54.54 17.7Q54.3 17.61 54.08 17.48Q53.85 17.35 53.65 17.19Q53.48 17.05 53.33 16.89Q53.15 16.71 53.01 16.5Q52.87 16.31 52.77 16.1Q52.69 15.96 52.58 15.84Q52.52 15.77 52.44 15.7Q52.36 15.64 52.28 15.59Q52.14 15.51 51.98 15.47Q51.82 15.43 51.66 15.43Q51.56 15.43 51.46 15.44Q51.37 15.46 51.27 15.49Q51.12 15.54 50.98 15.63Q50.78 15.75 50.57 15.85Q50.35 15.95 50.1 16.03Q49.89 16.09 49.67 16.12Q49.42 16.16 49.16 16.16Q48.9 16.16 48.65 16.12Q48.43 16.09 48.22 16.03Q47.97 15.95 47.74 15.85Q47.53 15.75 47.34 15.63Q47.2 15.54 47.05 15.49Q46.96 15.46 46.86 15.44Q46.76 15.43 46.66 15.43Q46.5 15.43 46.34 15.47Q46.18 15.51 46.04 15.59Q45.96 15.64 45.88 15.7Q45.8 15.77 45.74 15.84Q45.63 15.96 45.55 16.1Q45.44 16.31 45.31 16.5Q45.17 16.71 44.99 16.89Q44.84 17.05 44.66 17.19Q44.47 17.35 44.24 17.48Q44.02 17.6 43.78 17.7Q43.58 17.78 43.36 17.83Q43.12 17.89 42.87 17.91Q42.64 17.94 42.4 17.93Q42.23 17.92 42.08 17.95Q41.98 17.97 41.89 18.01Q41.79 18.04 41.71 18.1Q41.57 18.18 41.46 18.29Q41.34 18.41 41.26 18.55Q41.21 18.63 41.17 18.72Q41.14 18.82 41.12 18.91Q41.08 19.07 41.09 19.23Q41.1 19.47 41.08 19.7Q41.06 19.95 41 20.19Q40.94 20.41 40.86 20.61Q40.77 20.85 40.64 21.08Q40.51 21.3 40.35 21.5Q40.22 21.67 40.06 21.82Q39.87 22 39.67 22.15Q39.48 22.28 39.27 22.39Q39.12 22.46 39.01 22.57Q38.93 22.64 38.87 22.71Q38.81 22.79 38.76 22.87Q38.68 23.01 38.64 23.17Q38.59 23.33 38.59 23.49Q38.59 23.59 38.61 23.69Q38.62 23.79 38.65 23.88Q38.7 24.03 38.79 24.17Q38.92 24.37 39.01 24.58Q39.12 24.81 39.19 25.05Q39.25 25.26 39.29 25.48Q39.32 25.73 39.32 25.99Q39.32 26.25 39.29 26.5Q39.25 26.72 39.19 26.93Q39.12 27.18 39.01 27.41Q38.92 27.62 38.79 27.81Q38.7 27.95 38.65 28.1Q38.62 28.2 38.61 28.3Q38.59 28.39 38.59 28.49Q38.59 28.65 38.64 28.81Q38.68 28.97 38.76 29.11Q38.81 29.2 38.87 29.27Q38.93 29.35 39 29.42Q39.12 29.52 39.27 29.6Q39.38 29.66 39.49 29.72Q39.83 29.93 40.12 30.23L40.12 30.23L40.12 30.23Q40.14 30.25 40.17 30.28Q40.41 30.53 40.59 30.82Q40.76 31.1 40.88 31.42Q41.01 31.76 41.06 32.12Q41.11 32.43 41.09 32.75Q41.08 32.92 41.12 33.08Q41.14 33.17 41.17 33.26Q41.21 33.35 41.26 33.44Q41.34 33.58 41.46 33.7Q41.57 33.81 41.71 33.89Q41.79 33.94 41.89 33.98Q41.98 34.01 42.08 34.04Q42.24 34.07 42.4 34.06Q42.64 34.05 42.87 34.07Q43.12 34.09 43.36 34.16Q43.58 34.21 43.78 34.29Q44.02 34.38 44.24 34.51Q44.46 34.64 44.66 34.8Q44.84 34.93 44.99 35.1Q45.16 35.28 45.31 35.48Q45.44 35.67 45.55 35.88Q45.63 36.03 45.74 36.15Q45.8 36.22 45.88 36.28Q45.96 36.34 46.04 36.39Q46.18 36.47 46.34 36.51Q46.5 36.56 46.66 36.56Q46.76 36.56 46.86 36.54Q46.95 36.53 47.05 36.5Q47.2 36.45 47.34 36.36Q47.53 36.23 47.74 36.14Q47.97 36.03 48.22 35.96Q48.43 35.9 48.65 35.87Q48.9 35.83 49.16 35.83Q49.42 35.83 49.68 35.87Q49.89 35.9 50.1 35.96Q50.34 36.03 50.57 36.14Q50.78 36.23 50.98 36.36Q51.12 36.45 51.27 36.5Q51.36 36.53 51.46 36.54Q51.56 36.56 51.66 36.56Q51.82 36.56 51.98 36.51Q52.14 36.47 52.28 36.39Q52.36 36.34 52.44 36.28Q52.52 36.22 52.58 36.15Q52.69 36.03 52.77 35.88Q52.87 35.67 53.01 35.48Q53.15 35.28 53.33 35.1Q53.48 34.94 53.65 34.8Q53.85 34.64 54.08 34.51Q54.3 34.38 54.53 34.29Q54.74 34.21 54.96 34.16Q55.2 34.09 55.45 34.07Q55.68 34.05 55.92 34.06Q56.09 34.07 56.24 34.03Q56.34 34.01 56.43 33.98Q56.52 33.94 56.61 33.89Q56.74 33.81 56.86 33.7Q56.98 33.58 57.06 33.44Q57.11 33.35 57.14 33.26Q57.18 33.17 57.2 33.07Q57.23 32.92 57.23 32.75Q57.22 32.52 57.24 32.29Q57.26 32.04 57.32 31.79Q57.37 31.58 57.45 31.37Q57.55 31.13 57.68 30.91Q57.81 30.69 57.97 30.49Q58.1 30.32 58.26 30.16Q58.45 29.99 58.65 29.84ZM59.54 28.77C59.45 29.08 59.26 29.32 58.98 29.47C57.76 30.1 57.01 31.39 57.08 32.76C57.09 33.07 56.98 33.37 56.76 33.59C56.53 33.81 56.24 33.93 55.93 33.91C54.55 33.85 53.26 34.59 52.63 35.81C52.49 36.09 52.24 36.29 51.94 36.37C51.64 36.45 51.32 36.4 51.06 36.23C50.48 35.86 49.82 35.68 49.16 35.68C48.5 35.68 47.84 35.86 47.26 36.23C46.99 36.4 46.68 36.45 46.38 36.37C46.08 36.29 45.83 36.09 45.69 35.81C45.06 34.59 43.76 33.85 42.39 33.91C42.08 33.93 41.78 33.81 41.56 33.59C41.34 33.37 41.23 33.07 41.24 32.76C41.29 31.79 40.93 30.86 40.28 30.18C40.26 30.16 40.24 30.14 40.22 30.12C39.97 29.86 39.67 29.64 39.34 29.47C39.06 29.32 38.86 29.08 38.78 28.77C38.7 28.47 38.75 28.16 38.92 27.89C39.66 26.74 39.66 25.25 38.92 24.09C38.75 23.83 38.7 23.52 38.78 23.21C38.86 22.91 39.06 22.66 39.34 22.52C40.56 21.89 41.31 20.6 41.24 19.23C41.23 18.91 41.34 18.62 41.56 18.4C41.78 18.17 42.08 18.06 42.39 18.08C43.76 18.14 45.06 17.39 45.69 16.17C45.83 15.9 46.08 15.7 46.38 15.62C46.68 15.53 46.99 15.58 47.26 15.75C48.41 16.49 49.91 16.49 51.06 15.75C51.32 15.58 51.64 15.53 51.94 15.62C52.24 15.7 52.49 15.9 52.63 16.17C53.26 17.39 54.56 18.14 55.93 18.08C56.24 18.06 56.53 18.17 56.76 18.4C56.98 18.62 57.09 18.91 57.08 19.23C57.01 20.6 57.76 21.89 58.98 22.52C59.26 22.66 59.45 22.91 59.54 23.21C59.62 23.52 59.57 23.83 59.4 24.09C58.66 25.25 58.66 26.74 59.4 27.89C59.57 28.16 59.62 28.47 59.54 28.77ZM49.72 44.25Q49.82 44.31 49.91 44.39L51.97 46.45L51.97 38.67L51.82 38.67L51.81 38.67L51.81 38.67L51.81 38.67L51.81 38.67Q51.71 38.68 51.66 38.68Q51.42 38.68 51.18 38.65Q50.94 38.61 50.71 38.54Q50.46 38.47 50.22 38.36Q50.02 38.27 49.83 38.15Q49.69 38.05 49.52 38Q49.35 37.95 49.16 37.95Q48.97 37.95 48.8 38Q48.63 38.05 48.48 38.15Q48.28 38.27 48.07 38.37Q47.81 38.49 47.53 38.56Q47.28 38.63 47.02 38.66Q46.76 38.69 46.5 38.67L46.35 38.67L46.35 46.45L48.41 44.39Q48.5 44.31 48.6 44.25Q48.67 44.2 48.76 44.16Q48.85 44.13 48.94 44.11Q49.05 44.09 49.16 44.09Q49.27 44.09 49.38 44.11Q49.47 44.13 49.56 44.16Q49.64 44.2 49.72 44.25ZM51.67 45.94L50.01 44.29C49.54 43.82 48.78 43.82 48.31 44.29L46.65 45.94L46.5 46.09L46.5 38.82C46.55 38.83 46.6 38.83 46.65 38.83C47.32 38.83 47.99 38.64 48.57 38.27C48.93 38.04 49.39 38.04 49.75 38.27C50.33 38.64 50.99 38.83 51.66 38.83L51.67 38.83C51.72 38.83 51.77 38.83 51.82 38.82L51.82 46.09L51.67 45.94Z" fill="#FFFFFF" fill-opacity="1.000000" fill-rule="evenodd"/>
	<path id="Vector" d="M54.92 22.7C54.45 22.23 53.68 22.23 53.21 22.7L49.19 26.72L47.59 25.12C47.11 24.65 46.35 24.65 45.87 25.12C45.4 25.59 45.4 26.36 45.87 26.83L48.33 29.29C48.57 29.52 48.88 29.64 49.19 29.64C49.5 29.64 49.81 29.52 50.04 29.29L54.92 24.41C55.39 23.94 55.39 23.17 54.92 22.7Z" fill="#CB8734" fill-opacity="1.000000" fill-rule="nonzero"/>
	<path id="Vector" d="M49.08 26.61L47.59 25.12C47.11 24.65 46.35 24.65 45.87 25.12C45.4 25.59 45.4 26.36 45.87 26.83L48.33 29.29C48.57 29.52 48.88 29.64 49.19 29.64C49.5 29.64 49.81 29.52 50.04 29.29L54.92 24.41C55.39 23.94 55.39 23.17 54.92 22.7C54.45 22.23 53.68 22.23 53.21 22.7L49.29 26.61L49.19 26.72L49.08 26.61ZM49.19 26.93L53.31 22.8Q53.4 22.72 53.5 22.66Q53.58 22.61 53.66 22.57Q53.75 22.54 53.84 22.52Q53.95 22.49 54.06 22.49Q54.17 22.49 54.28 22.52Q54.37 22.54 54.46 22.57Q54.55 22.61 54.63 22.66Q54.73 22.72 54.81 22.8Q54.9 22.89 54.96 22.99Q55.01 23.07 55.05 23.16Q55.08 23.24 55.1 23.34Q55.12 23.44 55.12 23.56Q55.12 23.67 55.1 23.77Q55.08 23.87 55.05 23.95Q55.01 24.04 54.96 24.12Q54.9 24.22 54.81 24.31L49.94 29.18Q49.85 29.27 49.75 29.33Q49.67 29.38 49.59 29.41Q49.5 29.45 49.4 29.47Q49.3 29.49 49.19 29.49Q49.07 29.49 48.97 29.47Q48.88 29.45 48.79 29.41Q48.7 29.38 48.62 29.33Q48.52 29.27 48.44 29.18L45.98 26.72Q45.89 26.64 45.83 26.54Q45.78 26.46 45.75 26.37Q45.71 26.28 45.69 26.19Q45.67 26.09 45.67 25.97Q45.67 25.86 45.69 25.76Q45.71 25.66 45.75 25.58Q45.78 25.49 45.83 25.41Q45.89 25.31 45.98 25.22Q46.07 25.14 46.17 25.08Q46.24 25.03 46.33 24.99Q46.42 24.96 46.51 24.94Q46.62 24.91 46.73 24.91Q46.84 24.91 46.95 24.94Q47.04 24.96 47.13 24.99Q47.22 25.03 47.29 25.08Q47.39 25.14 47.48 25.22L49.19 26.93Z" fill="#FFFFFF" fill-opacity="1.000000" fill-rule="evenodd"/>
	<path id="Vector" d="M36.67 35.6L22.82 35.6C22.15 35.6 21.61 36.14 21.61 36.81C21.61 37.48 22.15 38.02 22.82 38.02L36.67 38.02C37.34 38.02 37.88 37.48 37.88 36.81C37.88 36.14 37.34 35.6 36.67 35.6Z" fill="#CB8734" fill-opacity="1.000000" fill-rule="nonzero"/>
	<path id="Vector" d="M22.82 35.6L36.67 35.6C37.34 35.6 37.88 36.14 37.88 36.81C37.88 37.48 37.34 38.02 36.67 38.02L22.82 38.02C22.15 38.02 21.61 37.48 21.61 36.81C21.61 36.14 22.15 35.6 22.82 35.6ZM22.59 35.77Q22.7 35.75 22.82 35.75L36.67 35.75Q36.79 35.75 36.9 35.77Q36.99 35.79 37.08 35.83Q37.17 35.87 37.25 35.92Q37.34 35.98 37.42 36.06Q37.5 36.14 37.56 36.23Q37.61 36.31 37.64 36.4Q37.68 36.48 37.7 36.57Q37.73 36.69 37.73 36.81Q37.73 36.93 37.7 37.04Q37.68 37.13 37.64 37.22Q37.61 37.31 37.56 37.39Q37.5 37.48 37.42 37.56Q37.34 37.64 37.25 37.7Q37.17 37.75 37.08 37.79Q36.99 37.82 36.9 37.84Q36.79 37.87 36.67 37.87L22.82 37.87Q22.7 37.87 22.59 37.84Q22.5 37.82 22.41 37.79Q22.32 37.75 22.24 37.7Q22.15 37.64 22.07 37.56Q21.99 37.48 21.93 37.39Q21.88 37.31 21.85 37.22Q21.81 37.13 21.79 37.04Q21.76 36.93 21.76 36.81Q21.76 36.69 21.79 36.57Q21.81 36.48 21.85 36.4Q21.88 36.31 21.93 36.23Q21.99 36.14 22.07 36.06Q22.15 35.98 22.24 35.92Q22.32 35.87 22.41 35.83Q22.5 35.79 22.59 35.77Z" fill="#FFFFFF" fill-opacity="1.000000" fill-rule="evenodd"/>
</svg>
