<svg width="62.000000" height="62.093079" viewBox="0 0 62 62.0931" fill="none" xmlns="http://www.w3.org/2000/svg" xmlns:xlink="http://www.w3.org/1999/xlink">
	<desc>
			Created with Pixso.
	</desc>
	<defs/>
	<path id="Vector" d="M39.67 62.09C42.99 62.1 46.27 61.44 49.32 60.14C52.37 58.85 55.13 56.95 57.42 54.56C57.75 54.23 57.99 53.81 58.11 53.35C58.23 52.89 58.22 52.41 58.1 51.96C57.98 51.51 57.75 51.1 57.42 50.77C57.1 50.44 56.7 50.2 56.25 50.07C54.09 49.45 52.2 48.14 50.86 46.33C49.53 44.53 48.83 42.33 48.88 40.09C48.99 34.57 53.54 30.12 59.05 30.12L59.12 30.12L59.22 30.12C59.69 30.13 60.16 30.02 60.57 29.79C60.99 29.57 61.33 29.24 61.58 28.84C61.83 28.45 61.97 28 61.99 27.54C62.01 27.07 61.91 26.61 61.7 26.2C59.63 22.13 56.48 18.71 52.59 16.33C48.71 13.94 44.23 12.68 39.67 12.68C33.12 12.68 26.84 15.29 22.2 19.92C17.57 24.55 14.97 30.83 14.97 37.39C14.97 43.94 17.57 50.22 22.2 54.85C26.84 59.49 33.12 62.09 39.67 62.09ZM23.56 21.27C26.11 18.73 29.22 16.83 32.64 15.72C36.06 14.61 39.7 14.33 43.25 14.9C46.8 15.46 50.16 16.86 53.07 18.98C55.98 21.09 58.34 23.87 59.97 27.08C60.03 27.19 60.06 27.32 60.05 27.45C60.05 27.58 60.01 27.71 59.94 27.81C59.87 27.93 59.77 28.03 59.65 28.09C59.53 28.16 59.39 28.19 59.26 28.18L59.14 28.18L59.05 28.18C52.49 28.18 47.07 33.49 46.94 40.05C46.89 42.72 47.72 45.33 49.31 47.48C50.89 49.64 53.15 51.2 55.72 51.94C55.84 51.97 55.95 52.04 56.04 52.13C56.13 52.22 56.2 52.33 56.23 52.46C56.26 52.59 56.26 52.73 56.23 52.86C56.19 53 56.13 53.12 56.03 53.22C53.94 55.37 51.44 57.09 48.68 58.27C45.92 59.45 42.95 60.08 39.95 60.11C36.95 60.15 33.97 59.59 31.19 58.46C28.4 57.34 25.87 55.68 23.73 53.57C21.59 51.47 19.88 48.96 18.72 46.19C17.55 43.43 16.94 40.46 16.92 37.45C16.91 34.45 17.49 31.48 18.63 28.7C19.77 25.92 21.44 23.4 23.56 21.27Z" fill="#CB8734" fill-opacity="1.000000" fill-rule="nonzero"/>
	<path id="Vector" d="M2.9 16.21L2.9 21.31C2.9 21.38 2.91 21.46 2.93 21.53C0.9 32.89 0.27 40.28 1.82 53.39C2.13 55.99 2.53 58.62 3 61.2C3.04 61.42 3.16 61.62 3.33 61.77C3.51 61.91 3.73 61.99 3.95 61.99L9.48 61.99C9.71 61.99 9.93 61.91 10.1 61.77C10.28 61.62 10.39 61.42 10.43 61.2C10.91 58.62 11.31 55.99 11.61 53.39C13.24 39.67 12.6 32.07 10.65 21.22L10.65 16.21C11.55 15.59 12.28 14.76 12.79 13.79C13.29 12.82 13.56 11.74 13.56 10.65C13.56 10.52 13.53 7.32 11.34 5.12C9.86 3.64 10.6 1.29 10.6 1.27C10.65 1.12 10.66 0.95 10.64 0.79C10.61 0.63 10.54 0.48 10.44 0.35C10.33 0.23 10.2 0.13 10.05 0.07C9.9 0.01 9.74 -0.02 9.58 0C4.64 0.55 2.29 3.43 1.19 5.76C0.46 7.29 0.06 8.96 0 10.65C0 11.74 0.26 12.82 0.77 13.79C1.27 14.76 2 15.59 2.9 16.21ZM9.69 53.16C9.42 55.45 9.08 57.77 8.67 60.06L4.76 60.06C4.36 57.77 4.02 55.45 3.75 53.16C2.24 40.45 2.83 33.21 4.76 22.28L8.87 22.28C10.69 32.56 11.25 39.99 9.69 53.16ZM8.71 20.34L4.84 20.34L4.84 17.15C6.1 17.53 7.45 17.53 8.71 17.15L8.71 20.34ZM2.94 6.59C4.05 4.24 5.92 2.75 8.49 2.15C8.4 3.37 8.58 5.11 9.97 6.49C11.57 8.1 11.62 10.59 11.62 10.65C11.62 11.87 11.16 13.04 10.34 13.93C9.52 14.82 8.39 15.37 7.18 15.48C6.26 14.44 5.84 13.47 5.94 12.59C6.08 11.3 7.29 10.51 7.3 10.5L6.26 8.86C6.18 8.91 4.27 10.14 4.01 12.35C3.92 13.23 4.08 14.12 4.47 14.91C3.71 14.5 3.06 13.88 2.62 13.13C2.17 12.38 1.93 11.53 1.93 10.65C2 9.24 2.34 7.86 2.94 6.59Z" fill="#CB8734" fill-opacity="1.000000" fill-rule="nonzero"/>
	<path id="Vector" d="M45.53 27.21C46.29 27.21 47.04 26.99 47.68 26.56C48.32 26.13 48.81 25.53 49.11 24.82C49.4 24.11 49.48 23.33 49.33 22.58C49.18 21.83 48.81 21.14 48.27 20.6C47.72 20.06 47.03 19.69 46.28 19.54C45.53 19.39 44.75 19.47 44.04 19.76C43.33 20.05 42.73 20.55 42.3 21.19C41.88 21.82 41.65 22.57 41.65 23.34C41.65 24.37 42.06 25.35 42.79 26.08C43.51 26.8 44.5 27.21 45.53 27.21ZM45.53 21.4C45.91 21.4 46.28 21.51 46.6 21.73C46.92 21.94 47.17 22.24 47.32 22.6C47.46 22.95 47.5 23.34 47.43 23.72C47.35 24.09 47.17 24.44 46.9 24.71C46.62 24.98 46.28 25.16 45.9 25.24C45.53 25.31 45.14 25.28 44.78 25.13C44.43 24.98 44.13 24.73 43.91 24.41C43.7 24.1 43.59 23.72 43.59 23.34C43.59 22.82 43.79 22.33 44.16 21.97C44.52 21.61 45.01 21.4 45.53 21.4Z" fill="#CB8734" fill-opacity="1.000000" fill-rule="nonzero"/>
	<path id="Vector" d="M32.93 28.18C33.7 28.18 34.45 27.96 35.08 27.53C35.72 27.1 36.22 26.5 36.51 25.79C36.81 25.08 36.88 24.3 36.73 23.55C36.58 22.8 36.21 22.11 35.67 21.57C35.13 21.03 34.44 20.66 33.69 20.51C32.94 20.36 32.16 20.43 31.45 20.73C30.74 21.02 30.14 21.52 29.71 22.15C29.28 22.79 29.06 23.54 29.06 24.31C29.06 25.33 29.47 26.32 30.19 27.05C30.92 27.77 31.9 28.18 32.93 28.18ZM32.93 22.37C33.32 22.37 33.69 22.48 34.01 22.7C34.33 22.91 34.58 23.21 34.72 23.57C34.87 23.92 34.91 24.31 34.83 24.69C34.76 25.06 34.57 25.41 34.3 25.68C34.03 25.95 33.69 26.13 33.31 26.21C32.93 26.28 32.54 26.24 32.19 26.1C31.84 25.95 31.53 25.7 31.32 25.38C31.11 25.07 30.99 24.69 30.99 24.31C31 23.79 31.2 23.3 31.56 22.94C31.93 22.57 32.42 22.37 32.93 22.37Z" fill="#CB8734" fill-opacity="1.000000" fill-rule="nonzero"/>
	<path id="Vector" d="M29.06 33.03C29.06 32.26 28.83 31.51 28.4 30.87C27.98 30.24 27.37 29.74 26.67 29.45C25.96 29.15 25.18 29.08 24.43 29.23C23.67 29.37 22.98 29.74 22.44 30.29C21.9 30.83 21.53 31.52 21.38 32.27C21.23 33.02 21.31 33.8 21.6 34.51C21.9 35.22 22.39 35.82 23.03 36.25C23.67 36.67 24.42 36.9 25.18 36.9C26.21 36.9 27.19 36.49 27.92 35.76C28.65 35.04 29.06 34.05 29.06 33.03ZM23.24 33.03C23.24 32.64 23.36 32.27 23.57 31.95C23.78 31.63 24.09 31.38 24.44 31.24C24.79 31.09 25.18 31.05 25.56 31.13C25.94 31.2 26.28 31.38 26.55 31.66C26.82 31.93 27.01 32.27 27.08 32.65C27.16 33.02 27.12 33.41 26.97 33.77C26.83 34.12 26.58 34.42 26.26 34.64C25.94 34.85 25.57 34.96 25.18 34.96C24.67 34.96 24.18 34.76 23.81 34.4C23.45 34.03 23.25 33.54 23.24 33.03Z" fill="#CB8734" fill-opacity="1.000000" fill-rule="nonzero"/>
	<path id="Vector" d="M27.12 47.56C27.89 47.56 28.64 47.33 29.27 46.9C29.91 46.48 30.41 45.87 30.7 45.16C30.99 44.46 31.07 43.68 30.92 42.93C30.77 42.17 30.4 41.48 29.86 40.94C29.32 40.4 28.63 40.03 27.88 39.88C27.12 39.73 26.34 39.81 25.64 40.1C24.93 40.4 24.32 40.89 23.9 41.53C23.47 42.17 23.24 42.92 23.24 43.68C23.25 44.71 23.65 45.69 24.38 46.42C25.11 47.15 26.09 47.56 27.12 47.56ZM27.12 41.74C27.5 41.74 27.88 41.86 28.2 42.07C28.51 42.28 28.76 42.59 28.91 42.94C29.06 43.29 29.09 43.68 29.02 44.06C28.95 44.44 28.76 44.78 28.49 45.05C28.22 45.32 27.87 45.51 27.5 45.58C27.12 45.66 26.73 45.62 26.38 45.47C26.02 45.33 25.72 45.08 25.51 44.76C25.3 44.44 25.18 44.07 25.18 43.68C25.18 43.17 25.39 42.68 25.75 42.31C26.11 41.95 26.61 41.75 27.12 41.74Z" fill="#CB8734" fill-opacity="1.000000" fill-rule="nonzero"/>
	<path id="Vector" d="M34.87 47.56C34.1 47.56 33.35 47.78 32.72 48.21C32.08 48.64 31.58 49.24 31.29 49.95C31 50.66 30.92 51.44 31.07 52.19C31.22 52.94 31.59 53.63 32.13 54.17C32.67 54.71 33.36 55.08 34.11 55.23C34.87 55.38 35.64 55.31 36.35 55.01C37.06 54.72 37.67 54.22 38.09 53.58C38.52 52.95 38.74 52.2 38.74 51.43C38.74 50.4 38.33 49.42 37.61 48.69C36.88 47.97 35.9 47.56 34.87 47.56ZM34.87 53.37C34.49 53.37 34.11 53.26 33.79 53.04C33.47 52.83 33.23 52.53 33.08 52.17C32.93 51.82 32.89 51.43 32.97 51.05C33.04 50.68 33.23 50.33 33.5 50.06C33.77 49.79 34.12 49.61 34.49 49.53C34.87 49.46 35.26 49.5 35.61 49.64C35.97 49.79 36.27 50.04 36.48 50.36C36.69 50.67 36.81 51.05 36.81 51.43C36.81 51.95 36.6 52.44 36.24 52.8C35.88 53.16 35.38 53.37 34.87 53.37Z" fill="#CB8734" fill-opacity="1.000000" fill-rule="nonzero"/>
	<path id="Vector" d="M41.65 53.37C41.65 54.14 41.88 54.88 42.3 55.52C42.73 56.16 43.33 56.66 44.04 56.95C44.75 57.24 45.53 57.32 46.28 57.17C47.03 57.02 47.72 56.65 48.27 56.11C48.81 55.57 49.18 54.88 49.33 54.13C49.48 53.37 49.4 52.59 49.11 51.89C48.81 51.18 48.32 50.57 47.68 50.15C47.04 49.72 46.29 49.49 45.53 49.49C44.5 49.5 43.51 49.9 42.79 50.63C42.06 51.36 41.65 52.34 41.65 53.37ZM47.46 53.37C47.46 53.75 47.35 54.13 47.14 54.45C46.92 54.76 46.62 55.01 46.27 55.16C45.91 55.31 45.52 55.34 45.15 55.27C44.77 55.19 44.43 55.01 44.16 54.74C43.88 54.47 43.7 54.12 43.63 53.75C43.55 53.37 43.59 52.98 43.74 52.63C43.88 52.27 44.13 51.97 44.45 51.76C44.77 51.55 45.14 51.43 45.53 51.43C46.04 51.43 46.53 51.64 46.89 52C47.26 52.36 47.46 52.86 47.46 53.37Z" fill="#CB8734" fill-opacity="1.000000" fill-rule="nonzero"/>
	<path id="Vector" d="M33.9 35.93C33.9 37.08 34.24 38.21 34.88 39.16C35.52 40.12 36.43 40.86 37.49 41.3C38.55 41.74 39.72 41.86 40.85 41.63C41.97 41.41 43.01 40.85 43.82 40.04C44.64 39.23 45.19 38.19 45.41 37.07C45.64 35.94 45.52 34.77 45.08 33.71C44.64 32.65 43.9 31.74 42.94 31.1C41.99 30.46 40.86 30.12 39.71 30.12C38.17 30.12 36.69 30.73 35.61 31.82C34.52 32.91 33.9 34.39 33.9 35.93ZM39.71 32.06C40.48 32.06 41.23 32.28 41.87 32.71C42.5 33.14 43 33.74 43.29 34.45C43.59 35.16 43.66 35.94 43.51 36.69C43.36 37.44 43 38.13 42.45 38.67C41.91 39.21 41.22 39.58 40.47 39.73C39.72 39.88 38.94 39.81 38.23 39.51C37.52 39.22 36.92 38.72 36.49 38.08C36.07 37.45 35.84 36.7 35.84 35.93C35.84 34.9 36.25 33.92 36.97 33.19C37.7 32.47 38.69 32.06 39.71 32.06Z" fill="#CB8734" fill-opacity="1.000000" fill-rule="nonzero"/>
	<path id="Vector" d="M16.32 8.44L19.1 9.96L20.62 12.74C20.7 12.89 20.82 13.02 20.97 13.1C21.12 13.19 21.29 13.24 21.47 13.24C21.64 13.24 21.81 13.19 21.96 13.1C22.11 13.02 22.23 12.89 22.32 12.74L23.84 9.96L26.62 8.44C26.77 8.35 26.9 8.23 26.98 8.08C27.07 7.93 27.12 7.76 27.12 7.59C27.12 7.41 27.07 7.24 26.98 7.09C26.9 6.94 26.77 6.82 26.62 6.74L23.84 5.22L22.32 2.44C22.23 2.28 22.11 2.16 21.96 2.07C21.81 1.98 21.64 1.93 21.47 1.93C21.29 1.93 21.12 1.98 20.97 2.07C20.82 2.16 20.7 2.28 20.62 2.44L19.1 5.22L16.32 6.74C16.16 6.82 16.04 6.94 15.95 7.09C15.86 7.24 15.81 7.41 15.81 7.59C15.81 7.76 15.86 7.93 15.95 8.08C16.04 8.23 16.16 8.35 16.32 8.44L16.32 8.44ZM20.27 6.78C20.44 6.69 20.57 6.56 20.66 6.39L21.47 4.92L22.27 6.39C22.36 6.56 22.5 6.69 22.66 6.78L24.13 7.59L22.66 8.39C22.5 8.48 22.36 8.61 22.27 8.78L21.47 10.25L20.66 8.78C20.57 8.61 20.44 8.48 20.27 8.39L18.8 7.59L20.27 6.78Z" fill="#CB8734" fill-opacity="1.000000" fill-rule="nonzero"/>
</svg>
