<svg width="62.000000" height="62.000000" viewBox="0 0 62 62" fill="none" xmlns="http://www.w3.org/2000/svg" xmlns:xlink="http://www.w3.org/1999/xlink">
	<desc>
			Created with Pixso.
	</desc>
	<defs/>
	<path id="Vector" d="M57.86 8.26L57.86 10.33C59 10.33 59.93 11.25 59.93 12.4L59.93 43.4L2.06 43.4L2.06 12.4C2.06 11.25 2.99 10.33 4.13 10.33L4.13 8.26C1.85 8.26 0 10.11 0 12.4L0 47.53C0 49.81 1.85 51.66 4.13 51.66L24.44 51.66L21.96 59.93L19.63 59.93L19.63 62L42.36 62L42.36 59.93L40.03 59.93L37.55 51.66L57.86 51.66C60.14 51.66 62 49.81 62 47.53L62 12.4C62 10.11 60.14 8.26 57.86 8.26ZM37.87 59.93L24.12 59.93L26.6 51.66L35.39 51.66L37.87 59.93ZM59.93 47.53C59.93 48.67 59 49.6 57.86 49.6L4.13 49.6C2.99 49.6 2.06 48.67 2.06 47.53L2.06 45.46L59.93 45.46L59.93 47.53Z" fill="#CB8734" fill-opacity="1.000000" fill-rule="nonzero"/>
	<path id="Vector" d="M8.26 4.13C8.26 2.99 9.19 2.06 10.33 2.06L51.66 2.06C52.8 2.06 53.73 2.99 53.73 4.13L53.73 41.33L55.8 41.33L55.8 4.13C55.8 1.85 53.94 0 51.66 0L10.33 0C8.05 0 6.2 1.85 6.2 4.13L6.2 41.33L8.26 41.33L8.26 4.13Z" fill="#CB8734" fill-opacity="1.000000" fill-rule="nonzero"/>
	<path id="Vector" d="M16.17 34.03L32.7 40.23C32.71 40.23 32.72 40.23 32.74 40.24C32.84 40.27 32.95 40.29 33.06 40.3C33.2 40.29 33.35 40.26 33.47 40.2C33.49 40.19 33.51 40.2 33.53 40.19L45.93 33.99C46.28 33.81 46.5 33.45 46.5 33.06L46.5 20.66C46.49 20.59 46.48 20.52 46.47 20.45C46.47 20.44 46.47 20.43 46.47 20.42C46.43 20.29 46.37 20.16 46.29 20.05C46.28 20.04 46.28 20.03 46.27 20.02L38.01 9.68C37.7 9.3 37.17 9.19 36.74 9.41L16.07 19.74C15.72 19.91 15.5 20.27 15.5 20.66L15.5 33.06C15.49 33.49 15.76 33.88 16.17 34.03ZM22.77 34.24L22.77 28.18L24.84 28.96L24.84 35.02L22.77 34.24ZM44.43 32.42L34.09 37.59L34.09 27.5L44.43 22.33L44.43 32.42ZM36.91 11.63L43.86 20.31L33.35 25.56L26.4 16.88L36.91 11.63ZM17.56 21.3L24.51 17.83L32.03 27.22L32.03 37.77L26.91 35.85L26.91 28.24C26.91 27.81 26.64 27.42 26.23 27.27L22.1 25.72C21.78 25.6 21.43 25.65 21.15 25.84C20.87 26.03 20.71 26.35 20.71 26.69L20.71 33.52L17.56 32.35L17.56 21.3Z" fill="#CB8734" fill-opacity="1.000000" fill-rule="nonzero"/>
	<path id="Vector" d="M10.33 37.2L10.33 40.3C10.33 40.87 10.79 41.33 11.36 41.33L14.46 41.33L14.46 39.26L12.4 39.26L12.4 37.2L10.33 37.2Z" fill="#CB8734" fill-opacity="1.000000" fill-rule="nonzero"/>
	<path id="Vector" d="M14.46 8.26L11.36 8.26C10.79 8.26 10.33 8.72 10.33 9.29L10.33 12.4L12.4 12.4L12.4 10.33L14.46 10.33L14.46 8.26Z" fill="#CB8734" fill-opacity="1.000000" fill-rule="nonzero"/>
	<path id="Vector" d="M49.6 39.26L47.53 39.26L47.53 41.33L50.63 41.33C51.2 41.33 51.66 40.87 51.66 40.3L51.66 37.2L49.6 37.2L49.6 39.26Z" fill="#CB8734" fill-opacity="1.000000" fill-rule="nonzero"/>
	<path id="Vector" d="M51.66 9.29C51.66 8.72 51.2 8.26 50.63 8.26L47.53 8.26L47.53 10.33L49.6 10.33L49.6 12.4L51.66 12.4L51.66 9.29Z" fill="#CB8734" fill-opacity="1.000000" fill-rule="nonzero"/>
</svg>
