<svg width="50.000000" height="50.000000" viewBox="0 0 50 50" fill="none" xmlns="http://www.w3.org/2000/svg" xmlns:xlink="http://www.w3.org/1999/xlink">
	<desc>
			Created with Pixso.
	</desc>
	<defs/>
	<path id="Vector" d="M33.87 28.49L31.15 32.11L28.04 31.08L29.13 38.7L38.6 38.7L39.69 31.08L36.58 32.11L33.87 28.49ZM37.2 37.09L30.53 37.09L30.01 33.43L31.74 34.01L33.87 31.18L35.99 34.01L37.72 33.43L37.2 37.09Z" fill="#CB8734" fill-opacity="1.000000" fill-rule="nonzero"/>
	<path id="Vector" d="M31.15 32.11L28.15 31.11L28.04 31.08L28.06 31.19L29.13 38.7L38.6 38.7L39.67 31.19L39.69 31.08L39.58 31.11L36.58 32.11L33.93 28.57L33.87 28.49L33.8 28.57L31.15 32.11ZM33.87 28.66L31.19 32.23L31.12 32.21L28.17 31.22L29.22 38.6L38.51 38.6L39.57 31.22L36.54 32.23L33.87 28.66ZM29.89 33.28L30.43 37.11L30.45 37.19L37.29 37.19L37.84 33.28L36.03 33.89L33.87 31.01L31.71 33.89L29.89 33.28ZM31.74 34.01L30.12 33.47L30.01 33.43L30.03 33.54L30.53 37.09L37.2 37.09L37.71 33.54L37.72 33.43L37.62 33.47L35.99 34.01L33.93 31.26L33.87 31.18L33.8 31.26L31.74 34.01Z" fill="#FFFFFF" fill-opacity="1.000000" fill-rule="evenodd"/>
	<path id="Vector" d="M33.87 24.19C28.53 24.19 24.19 28.53 24.19 33.87C24.19 39.2 28.53 43.54 33.87 43.54C39.2 43.54 43.54 39.2 43.54 33.87C43.54 28.53 39.2 24.19 33.87 24.19ZM33.87 41.93C29.42 41.93 25.8 38.31 25.8 33.87C25.8 29.42 29.42 25.8 33.87 25.8C38.31 25.8 41.93 29.42 41.93 33.87C41.93 38.31 38.31 41.93 33.87 41.93Z" fill="#CB8734" fill-opacity="1.000000" fill-rule="nonzero"/>
	<path id="Vector" d="M33.87 24.19C28.53 24.19 24.19 28.53 24.19 33.87C24.19 39.2 28.53 43.54 33.87 43.54C39.2 43.54 43.54 39.2 43.54 33.87C43.54 28.53 39.2 24.19 33.87 24.19ZM24.51 35.93Q24.29 34.92 24.29 33.87Q24.29 32.81 24.51 31.8Q24.7 30.96 25.04 30.14Q25.38 29.35 25.85 28.63Q26.38 27.81 27.1 27.1Q27.81 26.38 28.63 25.84Q29.35 25.38 30.14 25.04Q30.96 24.7 31.8 24.51Q32.81 24.29 33.87 24.29Q34.92 24.29 35.93 24.51Q36.78 24.7 37.59 25.04Q38.39 25.38 39.1 25.84Q39.92 26.38 40.64 27.1Q41.35 27.81 41.89 28.63Q42.35 29.35 42.69 30.14Q43.03 30.96 43.22 31.8Q43.44 32.81 43.44 33.87Q43.44 34.92 43.22 35.93Q43.03 36.78 42.69 37.59Q42.35 38.39 41.89 39.1Q41.35 39.92 40.64 40.63Q39.92 41.35 39.1 41.89Q38.39 42.35 37.59 42.69Q36.78 43.03 35.93 43.22Q34.92 43.44 33.87 43.44Q32.81 43.44 31.8 43.22Q30.96 43.03 30.14 42.69Q29.35 42.35 28.63 41.89Q27.81 41.35 27.1 40.63Q26.38 39.92 25.84 39.1Q25.38 38.39 25.04 37.59Q24.7 36.78 24.51 35.93ZM25.89 32.11Q25.7 32.97 25.7 33.87Q25.7 34.76 25.89 35.62Q26.05 36.35 26.34 37.04Q26.63 37.72 27.03 38.33Q27.49 39.03 28.1 39.64Q28.7 40.24 29.4 40.7Q30.01 41.1 30.69 41.39Q31.39 41.68 32.11 41.84Q32.97 42.03 33.87 42.03Q34.76 42.03 35.62 41.84Q36.34 41.68 37.04 41.39Q37.72 41.1 38.33 40.7Q39.03 40.24 39.64 39.64Q40.24 39.03 40.7 38.33Q41.1 37.72 41.39 37.04Q41.68 36.35 41.84 35.62Q42.03 34.76 42.03 33.87Q42.03 32.97 41.84 32.11Q41.68 31.39 41.39 30.69Q41.1 30.01 40.7 29.4Q40.24 28.7 39.64 28.1Q39.03 27.49 38.33 27.03Q37.72 26.63 37.04 26.34Q36.35 26.05 35.62 25.89Q34.76 25.7 33.87 25.7Q32.97 25.7 32.11 25.89Q31.39 26.05 30.69 26.34Q30.01 26.63 29.4 27.03Q28.7 27.49 28.1 28.1Q27.49 28.7 27.03 29.4Q26.63 30.01 26.34 30.69Q26.05 31.39 25.89 32.11ZM33.87 41.93C29.42 41.93 25.8 38.31 25.8 33.87C25.8 29.42 29.42 25.8 33.87 25.8C38.31 25.8 41.93 29.42 41.93 33.87C41.93 38.31 38.31 41.93 33.87 41.93Z" fill="#FFFFFF" fill-opacity="1.000000" fill-rule="evenodd"/>
	<path id="Vector" d="M44.28 27.07C44.08 26.19 43.63 25.38 42.99 24.74C42.35 24.1 41.54 23.65 40.66 23.46C39.16 23.11 37.73 22.52 36.42 21.7C34.89 20.74 32.84 20.74 31.31 21.7C30 22.52 28.57 23.11 27.07 23.46C26.19 23.65 25.38 24.1 24.74 24.74C24.1 25.38 23.65 26.19 23.45 27.07C23.11 28.57 22.52 30 21.7 31.31C21.22 32.07 20.96 32.96 20.96 33.87C20.96 34.77 21.22 35.66 21.7 36.42C22.52 37.73 23.12 39.16 23.46 40.66C23.65 41.54 24.1 42.35 24.74 42.99C25.38 43.63 26.19 44.08 27.07 44.28C28.58 44.62 30 45.21 31.31 46.03C32.07 46.51 32.96 46.77 33.87 46.77C34.77 46.77 35.66 46.51 36.42 46.03C37.73 45.21 39.16 44.62 40.66 44.28C41.54 44.08 42.35 43.63 42.99 42.99C43.63 42.35 44.08 41.54 44.28 40.66C44.62 39.16 45.21 37.73 46.03 36.42C46.51 35.66 46.77 34.77 46.77 33.87C46.77 32.96 46.51 32.07 46.03 31.31C45.21 30 44.62 28.57 44.28 27.07ZM44.67 35.56C43.74 37.03 43.08 38.62 42.7 40.31C42.57 40.89 42.28 41.42 41.85 41.85C41.42 42.28 40.89 42.57 40.31 42.7C38.62 43.08 37.02 43.75 35.56 44.67C34.55 45.31 33.18 45.31 32.17 44.67C30.71 43.75 29.11 43.08 27.42 42.7C26.84 42.57 26.31 42.28 25.88 41.85C25.46 41.42 25.16 40.89 25.03 40.31C24.65 38.62 23.99 37.03 23.06 35.56C22.74 35.06 22.58 34.47 22.58 33.87C22.58 33.26 22.74 32.68 23.06 32.17C23.99 30.71 24.65 29.11 25.03 27.42C25.16 26.84 25.46 26.31 25.88 25.88C26.31 25.46 26.84 25.16 27.43 25.03C29.11 24.65 30.71 23.99 32.17 23.06C32.68 22.74 33.26 22.58 33.87 22.58C34.47 22.58 35.06 22.74 35.56 23.06C37.02 23.99 38.62 24.65 40.31 25.03C40.89 25.16 41.42 25.46 41.85 25.88C42.28 26.31 42.57 26.84 42.7 27.43C43.08 29.11 43.75 30.71 44.67 32.17C44.99 32.68 45.16 33.26 45.16 33.87C45.16 34.47 44.99 35.06 44.67 35.56Z" fill="#CB8734" fill-opacity="1.000000" fill-rule="nonzero"/>
	<path id="Vector" d="M44.28 27.07C44.08 26.19 43.63 25.38 42.99 24.74C42.35 24.1 41.54 23.65 40.66 23.46C39.16 23.11 37.73 22.52 36.42 21.7C34.89 20.74 32.84 20.74 31.31 21.7C30 22.52 28.57 23.11 27.07 23.46C26.19 23.65 25.38 24.1 24.74 24.74C24.1 25.38 23.65 26.19 23.45 27.07C23.11 28.57 22.52 30 21.7 31.31C21.22 32.07 20.96 32.96 20.96 33.87C20.96 34.77 21.22 35.66 21.7 36.42C22.52 37.73 23.12 39.16 23.46 40.66C23.65 41.54 24.1 42.35 24.74 42.99C25.38 43.63 26.19 44.08 27.07 44.28C28.58 44.62 30 45.21 31.31 46.03C32.07 46.51 32.96 46.77 33.87 46.77C34.77 46.77 35.66 46.51 36.42 46.03C37.73 45.21 39.16 44.62 40.66 44.28C41.54 44.08 42.35 43.63 42.99 42.99C43.63 42.35 44.08 41.54 44.28 40.66C44.62 39.16 45.21 37.73 46.03 36.42C46.51 35.66 46.77 34.77 46.77 33.87C46.77 32.96 46.51 32.07 46.03 31.31C45.21 30 44.62 28.57 44.28 27.07ZM42.32 24.3Q42.64 24.53 42.92 24.81Q43.19 25.09 43.42 25.4Q43.58 25.62 43.71 25.87Q43.88 26.17 44 26.48Q44.11 26.78 44.18 27.09Q44.42 28.16 44.82 29.16Q45.28 30.3 45.95 31.36Q46.12 31.63 46.25 31.92Q46.39 32.23 46.49 32.56Q46.56 32.82 46.61 33.09Q46.67 33.47 46.67 33.87Q46.67 34.25 46.61 34.63Q46.56 34.9 46.49 35.17Q46.39 35.5 46.25 35.81Q46.12 36.1 45.95 36.37Q45.32 37.36 44.88 38.43Q44.44 39.5 44.18 40.64Q44.11 40.95 44 41.25Q43.88 41.56 43.71 41.87Q43.58 42.1 43.43 42.32Q43.2 42.64 42.92 42.92Q42.66 43.18 42.37 43.39Q42.13 43.57 41.87 43.71Q41.59 43.86 41.3 43.98Q40.98 44.1 40.64 44.18Q39.52 44.43 38.48 44.86Q37.38 45.31 36.37 45.95Q36.1 46.12 35.81 46.25Q35.5 46.39 35.17 46.49Q34.91 46.56 34.64 46.61Q34.26 46.67 33.87 46.67Q33.48 46.67 33.1 46.61Q32.83 46.56 32.56 46.49Q32.23 46.39 31.92 46.25Q31.63 46.12 31.36 45.95Q30.41 45.35 29.38 44.91Q28.28 44.45 27.09 44.18Q26.75 44.1 26.43 43.98Q26.14 43.86 25.86 43.71Q25.61 43.57 25.37 43.4Q25.07 43.18 24.81 42.92Q24.53 42.64 24.3 42.32Q24.15 42.1 24.02 41.87Q23.86 41.57 23.74 41.26Q23.63 40.96 23.55 40.64Q23.31 39.57 22.91 38.57Q22.45 37.43 21.78 36.37Q21.62 36.1 21.48 35.81Q21.34 35.5 21.25 35.17Q21.17 34.91 21.13 34.64Q21.06 34.26 21.06 33.87Q21.06 33.48 21.12 33.11Q21.17 32.83 21.25 32.56Q21.34 32.24 21.48 31.93Q21.61 31.64 21.78 31.36Q22.41 30.37 22.85 29.3Q23.29 28.23 23.55 27.09Q23.62 26.78 23.73 26.49Q23.85 26.17 24.02 25.87Q24.15 25.62 24.32 25.4Q24.54 25.09 24.81 24.81Q25.09 24.53 25.41 24.3Q25.63 24.15 25.86 24.02Q26.16 23.86 26.47 23.74Q26.77 23.62 27.09 23.55Q28.14 23.31 29.13 22.92Q30.29 22.46 31.36 21.78Q31.46 21.72 31.56 21.67Q32.03 21.4 32.56 21.25Q32.77 21.2 32.98 21.16Q33.41 21.08 33.87 21.08Q34.31 21.08 34.75 21.16Q34.96 21.19 35.17 21.25Q35.7 21.4 36.17 21.67Q36.27 21.72 36.37 21.78Q37.37 22.42 38.46 22.87Q39.51 23.3 40.64 23.55Q40.95 23.62 41.25 23.73Q41.57 23.85 41.87 24.02Q42.1 24.15 42.32 24.3ZM42.8 40.33L42.8 40.33Q43.08 39.07 43.57 37.9Q44.06 36.71 44.75 35.61Q44.99 35.24 45.11 34.83Q45.26 34.37 45.26 33.87Q45.26 33.59 45.21 33.32Q45.18 33.13 45.13 32.95Q45.06 32.71 44.95 32.48Q44.86 32.29 44.75 32.12Q44.03 30.97 43.53 29.74Q43.07 28.61 42.8 27.4Q42.71 26.99 42.52 26.62Q42.29 26.18 41.92 25.81Q41.57 25.46 41.15 25.23Q40.77 25.03 40.33 24.93Q39.07 24.65 37.89 24.16Q36.71 23.67 35.61 22.98Q35.24 22.74 34.83 22.62Q34.37 22.48 33.87 22.48Q33.59 22.48 33.32 22.52Q33.13 22.55 32.95 22.6Q32.71 22.67 32.48 22.78Q32.29 22.87 32.12 22.98Q30.98 23.7 29.75 24.2Q28.61 24.66 27.4 24.93Q26.99 25.03 26.62 25.22Q26.18 25.44 25.81 25.81Q25.46 26.16 25.23 26.58Q25.03 26.97 24.93 27.4Q24.65 28.66 24.16 29.84Q23.67 31.02 22.98 32.12Q22.74 32.49 22.62 32.9Q22.48 33.36 22.48 33.87Q22.48 34.14 22.52 34.41Q22.55 34.6 22.6 34.78Q22.67 35.02 22.78 35.24Q22.87 35.43 22.98 35.61Q23.7 36.76 24.2 37.99Q24.66 39.12 24.93 40.33Q25.03 40.76 25.23 41.13Q25.45 41.56 25.81 41.92Q26.16 42.27 26.57 42.49Q26.95 42.7 27.4 42.8Q28.76 43.11 30.02 43.65Q31.11 44.12 32.12 44.75Q32.19 44.8 32.26 44.84Q32.59 45.02 32.96 45.12Q33.1 45.17 33.25 45.19Q33.55 45.25 33.87 45.25Q34.18 45.25 34.49 45.19Q34.63 45.16 34.77 45.12Q35.15 45.02 35.48 44.83Q35.55 44.8 35.61 44.75Q36.67 44.09 37.8 43.61Q39.02 43.1 40.33 42.8Q40.77 42.7 41.15 42.5Q41.57 42.27 41.92 41.92Q42.27 41.57 42.5 41.15Q42.7 40.77 42.8 40.33ZM44.67 35.56C43.74 37.03 43.08 38.62 42.7 40.31C42.57 40.89 42.28 41.42 41.85 41.85C41.42 42.28 40.89 42.57 40.31 42.7C38.62 43.08 37.02 43.75 35.56 44.67C34.55 45.31 33.18 45.31 32.17 44.67C30.71 43.75 29.11 43.08 27.42 42.7C26.84 42.57 26.31 42.28 25.88 41.85C25.46 41.42 25.16 40.89 25.03 40.31C24.65 38.62 23.99 37.03 23.06 35.56C22.74 35.06 22.58 34.47 22.58 33.87C22.58 33.26 22.74 32.68 23.06 32.17C23.99 30.71 24.65 29.11 25.03 27.42C25.16 26.84 25.46 26.31 25.88 25.88C26.31 25.46 26.84 25.16 27.43 25.03C29.11 24.65 30.71 23.99 32.17 23.06C32.68 22.74 33.26 22.58 33.87 22.58C34.47 22.58 35.06 22.74 35.56 23.06C37.02 23.99 38.62 24.65 40.31 25.03C40.89 25.16 41.42 25.46 41.85 25.88C42.28 26.31 42.57 26.84 42.7 27.43C43.08 29.11 43.75 30.71 44.67 32.17C44.99 32.68 45.16 33.26 45.16 33.87C45.16 34.47 44.99 35.06 44.67 35.56Z" fill="#FFFFFF" fill-opacity="1.000000" fill-rule="evenodd"/>
	<path id="Vector" d="M39.84 0L12.9 0C12.01 0 11.29 0.72 11.29 1.61L11.29 12.9L6.07 12.9L1.46 18.43L3.25 22.02L4.83 31.51L4.83 34.17L4.77 34.21C3.81 34.69 3.22 35.64 3.22 36.71C3.22 37.07 3.29 37.42 3.42 37.75L4.45 40.32L3.22 40.32C1.44 40.32 0 41.76 0 43.54L0 48.38C0 49.27 0.72 50 1.61 50L48.38 50C49.27 50 50 49.27 50 48.38L50 10.14L39.84 0ZM41.93 11.29L41.93 12.9L19.35 12.9L19.35 6.45L38.7 6.45L38.7 11.29L41.93 11.29ZM40.32 9.67L40.32 2.75L47.24 9.67L40.32 9.67ZM13.6 17.74L9.67 17.74L9.67 14.51L10.91 14.51L13.6 17.74ZM11.41 30.64L6.32 30.64L4.98 22.58L12.75 22.58L11.41 30.64ZM11.29 32.25L11.29 33.87L6.45 33.87L6.45 32.25L11.29 32.25ZM4.53 20.96L3.72 19.35L8.06 19.35L8.06 20.96L4.53 20.96ZM13.21 20.96L9.67 20.96L9.67 19.35L14.01 19.35L13.21 20.96ZM6.82 14.51L8.06 14.51L8.06 17.74L4.14 17.74L6.82 14.51ZM4.92 37.15C4.86 37.01 4.83 36.86 4.83 36.71C4.83 36.26 5.08 35.85 5.49 35.65L5.83 35.48L11.9 35.48L12.24 35.65C12.65 35.85 12.9 36.26 12.9 36.71C12.9 36.86 12.87 37.01 12.81 37.15L11.55 40.32L6.19 40.32L4.92 37.15ZM3.22 41.93L14.51 41.93C15.4 41.93 16.12 42.65 16.12 43.54L16.12 45.16L1.61 45.16L1.61 43.54C1.61 42.65 2.33 41.93 3.22 41.93ZM1.61 48.38L1.61 46.77L16.12 46.77L16.13 48.38L1.61 48.38ZM17.74 48.38L17.74 43.54C17.74 41.76 16.29 40.32 14.51 40.32L13.28 40.32L14.31 37.75C14.44 37.42 14.51 37.07 14.51 36.71C14.51 35.64 13.92 34.68 12.97 34.21L12.9 34.17L12.9 31.51L14.48 22.02L16.27 18.43L12.9 14.38L12.9 1.61L38.7 1.61L38.7 4.83L17.74 4.83L17.74 14.51L43.54 14.51L43.54 11.29L48.38 11.29L48.38 48.38L17.74 48.38Z" fill="#CB8734" fill-opacity="1.000000" fill-rule="nonzero"/>
	<path id="Vector" d="M4.34 40.32L3.22 40.32C1.44 40.32 0 41.76 0 43.54L0 48.38C0 49.27 0.72 50 1.61 50L48.38 50C49.27 50 50 49.27 50 48.38L50 10.14L39.84 0L12.9 0C12.01 0 11.29 0.72 11.29 1.61L11.29 12.9L6.07 12.9L1.46 18.43L3.25 22.02L4.83 31.51L4.83 34.17L4.77 34.21C3.81 34.69 3.22 35.64 3.22 36.71C3.22 37.07 3.29 37.42 3.42 37.75L4.41 40.22L4.45 40.32L4.34 40.32ZM1.58 18.45L3.35 21.99L4.93 31.5L4.93 34.24L4.81 34.3Q4.43 34.49 4.14 34.77Q3.9 35 3.72 35.29Q3.54 35.59 3.44 35.91Q3.32 36.29 3.32 36.71Q3.32 36.97 3.37 37.22Q3.42 37.47 3.51 37.71L4.6 40.42L3.22 40.42Q2.88 40.42 2.55 40.49Q2.27 40.55 2.01 40.66Q1.75 40.77 1.51 40.93Q1.24 41.1 1.01 41.33Q0.78 41.57 0.6 41.84Q0.45 42.07 0.34 42.33Q0.23 42.59 0.17 42.87Q0.09 43.2 0.09 43.54L0.09 48.38Q0.09 48.55 0.13 48.71Q0.16 48.84 0.21 48.97Q0.27 49.1 0.34 49.21Q0.43 49.34 0.54 49.45Q0.65 49.56 0.78 49.65Q0.89 49.72 1.02 49.78Q1.15 49.83 1.28 49.86Q1.44 49.89 1.61 49.89L48.38 49.89Q48.55 49.89 48.71 49.86Q48.84 49.83 48.97 49.78Q49.1 49.72 49.21 49.65Q49.34 49.56 49.45 49.45Q49.56 49.34 49.65 49.21Q49.72 49.1 49.78 48.97Q49.83 48.84 49.86 48.71Q49.9 48.55 49.9 48.38L49.9 10.19L39.8 0.1L12.9 0.1Q12.73 0.1 12.57 0.13Q12.44 0.16 12.31 0.21Q12.18 0.27 12.07 0.34Q11.94 0.43 11.83 0.54Q11.72 0.65 11.63 0.78Q11.56 0.89 11.5 1.02Q11.45 1.15 11.42 1.28Q11.39 1.44 11.39 1.61L11.39 13L6.12 13L1.58 18.45ZM17.56 42.87Q17.64 43.2 17.64 43.54L17.64 48.48L48.48 48.48L48.48 11.19L43.44 11.19L43.44 14.41L17.84 14.41L17.84 4.93L38.8 4.93L38.8 1.51L12.8 1.51L12.8 14.42L16.16 18.45L14.38 21.99L12.8 31.5L12.8 34.24L12.92 34.3Q13.3 34.48 13.58 34.76Q13.83 34.99 14.01 35.29Q14.2 35.59 14.29 35.91Q14.41 36.29 14.41 36.71Q14.41 36.97 14.36 37.22Q14.31 37.47 14.22 37.71L13.14 40.42L14.51 40.42Q14.86 40.42 15.19 40.49Q15.46 40.55 15.73 40.66Q15.99 40.77 16.22 40.93Q16.49 41.1 16.72 41.33Q16.95 41.57 17.13 41.84Q17.28 42.07 17.39 42.33Q17.5 42.59 17.56 42.87ZM16.27 18.43L14.48 22.02L12.9 31.51L12.9 34.17L12.97 34.21C13.92 34.68 14.51 35.64 14.51 36.71C14.51 37.07 14.44 37.42 14.31 37.75L13.32 40.22L13.28 40.32L14.51 40.32C16.29 40.32 17.74 41.76 17.74 43.54L17.74 48.38L48.38 48.38L48.38 11.29L43.54 11.29L43.54 14.51L17.74 14.51L17.74 4.83L38.7 4.83L38.7 1.61L12.9 1.61L12.9 14.38L16.27 18.43ZM47.48 9.77L40.39 2.68L40.22 2.51L40.22 9.77L47.48 9.77ZM40.32 2.89L40.32 9.67L47.24 9.67L47.14 9.57L40.32 2.75L40.32 2.89ZM19.25 13L42.03 13L42.03 11.19L38.8 11.19L38.8 6.35L19.25 6.35L19.25 13ZM38.8 11.29L38.7 11.29L38.7 6.45L19.35 6.45L19.35 12.9L41.93 12.9L41.93 11.29L38.8 11.29ZM8.16 17.84L8.16 14.41L6.78 14.41L3.92 17.84L8.16 17.84ZM9.57 14.41L9.57 17.84L13.81 17.84L10.95 14.41L9.57 14.41ZM8.06 14.51L6.82 14.51L4.22 17.64L4.14 17.74L8.06 17.74L8.06 14.51ZM9.67 17.64L9.67 14.51L10.91 14.51L13.51 17.64L13.6 17.74L9.67 17.74L9.67 17.64ZM8.16 19.25L3.56 19.25L4.46 21.06L8.16 21.06L8.16 19.25ZM9.57 19.25L9.57 21.06L13.27 21.06L14.17 19.25L9.57 19.25ZM3.77 19.45L4.53 20.96L8.06 20.96L8.06 19.35L3.72 19.35L3.77 19.45ZM9.67 20.86L9.67 19.35L14.01 19.35L13.96 19.45L13.21 20.96L9.67 20.96L9.67 20.86ZM4.86 22.48L6.22 30.66L6.24 30.74L11.49 30.74L12.87 22.48L4.86 22.48ZM6.32 30.64L5 22.68L4.98 22.58L12.75 22.58L12.74 22.68L11.41 30.64L6.32 30.64ZM6.35 33.97L11.39 33.97L11.39 32.15L6.35 32.15L6.35 33.97ZM11.29 33.87L11.29 32.25L6.45 32.25L6.45 33.87L11.29 33.87ZM4.79 36.33Q4.73 36.51 4.73 36.71Q4.73 36.85 4.76 36.99Q4.79 37.09 4.82 37.18L6.12 40.42L11.61 40.42L12.91 37.19Q12.95 37.07 12.97 36.96Q13 36.84 13 36.71Q13 36.51 12.94 36.34Q12.9 36.18 12.81 36.03Q12.72 35.89 12.6 35.78Q12.46 35.65 12.29 35.56L11.92 35.38L5.81 35.38L5.44 35.56Q5.27 35.65 5.13 35.78Q5.01 35.89 4.92 36.03Q4.84 36.18 4.79 36.33ZM4.92 37.15C4.86 37.01 4.83 36.86 4.83 36.71C4.83 36.26 5.08 35.85 5.49 35.65L5.83 35.48L11.9 35.48L12.24 35.65C12.65 35.85 12.9 36.26 12.9 36.71C12.9 36.86 12.87 37.01 12.81 37.15L11.55 40.32L6.19 40.32L4.92 37.15ZM14.88 41.87Q14.7 41.83 14.51 41.83L3.22 41.83Q3.03 41.83 2.85 41.87Q2.7 41.9 2.55 41.97Q2.41 42.03 2.28 42.11Q2.14 42.21 2.01 42.33Q1.88 42.46 1.79 42.61Q1.7 42.73 1.64 42.88Q1.58 43.02 1.55 43.18Q1.51 43.36 1.51 43.54L1.51 45.26L16.22 45.26L16.22 43.54Q16.22 43.36 16.18 43.18Q16.15 43.02 16.09 42.88Q16.03 42.73 15.94 42.61Q15.85 42.46 15.72 42.33Q15.6 42.21 15.45 42.11Q15.32 42.03 15.18 41.97Q15.03 41.9 14.88 41.87ZM3.22 41.93L14.51 41.93C15.4 41.93 16.12 42.65 16.12 43.54L16.12 45.06L16.12 45.16L1.61 45.16L1.61 43.54C1.61 42.65 2.33 41.93 3.22 41.93ZM16.22 46.67L1.51 46.67L1.51 48.48L16.23 48.48L16.22 46.67ZM1.71 46.77L1.61 46.77L1.61 48.38L16.13 48.38L16.13 48.28L16.12 46.87L16.12 46.77L1.71 46.77Z" fill="#FFFFFF" fill-opacity="1.000000" fill-rule="evenodd"/>
</svg>
