<svg width="22.041748" height="22.041626" viewBox="0 0 22.0417 22.0416" fill="none" xmlns="http://www.w3.org/2000/svg" xmlns:xlink="http://www.w3.org/1999/xlink">
	<desc>
			Created with Pixso.
	</desc>
	<defs/>
	<path id="Vector" d="M18.85 3.21C16.81 1.13 13.99 0 11.11 0C4.98 0 0.06 4.94 0.12 10.96C0.12 12.86 0.66 14.71 1.56 16.38L0 22.04L5.82 20.55C7.44 21.44 9.24 21.86 11.05 21.86C17.11 21.86 22.04 16.91 22.04 10.9C22.04 7.98 20.9 5.24 18.85 3.21ZM11.11 20.01C9.48 20.01 7.86 19.59 6.48 18.76L6.12 18.58L2.64 19.48L3.54 16.08L3.3 15.72C0.66 11.49 1.92 5.89 6.24 3.27C10.57 0.65 16.15 1.9 18.79 6.19C21.44 10.48 20.17 16.02 15.85 18.64C14.47 19.53 12.79 20.01 11.11 20.01ZM16.39 13.4L15.73 13.1C15.73 13.1 14.77 12.68 14.17 12.39C14.11 12.39 14.05 12.33 13.99 12.33C13.81 12.33 13.69 12.39 13.57 12.45C13.57 12.45 13.51 12.51 12.67 13.46C12.61 13.58 12.49 13.64 12.37 13.64L12.31 13.64C12.25 13.64 12.13 13.58 12.07 13.52L11.77 13.4C11.11 13.1 10.51 12.74 10.02 12.27C9.9 12.15 9.72 12.03 9.6 11.91C9.18 11.49 8.76 11.02 8.46 10.48L8.4 10.36C8.34 10.3 8.34 10.24 8.28 10.12C8.28 10 8.28 9.88 8.34 9.82C8.34 9.82 8.58 9.53 8.76 9.35C8.88 9.23 8.94 9.05 9.06 8.93C9.18 8.75 9.24 8.51 9.18 8.34C9.12 8.04 8.4 6.43 8.22 6.07C8.1 5.89 7.98 5.83 7.8 5.77L7.62 5.77C7.5 5.77 7.32 5.77 7.14 5.77C7.02 5.77 6.9 5.83 6.78 5.83L6.72 5.89C6.6 5.95 6.48 6.07 6.36 6.13C6.24 6.25 6.18 6.37 6.06 6.49C5.64 7.02 5.4 7.68 5.4 8.34C5.4 8.81 5.52 9.29 5.7 9.71L5.76 9.88C6.3 11.02 7.02 12.03 7.98 12.92L8.22 13.16C8.4 13.34 8.58 13.46 8.7 13.64C9.96 14.71 11.41 15.48 13.03 15.9C13.21 15.96 13.45 15.96 13.63 16.02C13.81 16.02 14.05 16.02 14.23 16.02C14.53 16.02 14.89 15.9 15.13 15.78C15.31 15.66 15.43 15.66 15.55 15.54L15.67 15.42C15.79 15.31 15.91 15.25 16.03 15.13C16.15 15.01 16.27 14.89 16.33 14.77C16.45 14.53 16.51 14.23 16.57 13.93C16.57 13.82 16.57 13.64 16.57 13.52C16.57 13.52 16.51 13.46 16.39 13.4Z" fill="#FFFFFF" fill-opacity="1.000000" fill-rule="nonzero"/>
</svg>
