<svg width="61.876343" height="62.000000" viewBox="0 0 61.8763 62" fill="none" xmlns="http://www.w3.org/2000/svg" xmlns:xlink="http://www.w3.org/1999/xlink">
	<desc>
			Created with Pixso.
	</desc>
	<defs/>
	<path id="Vector" d="M51.56 34C51.46 33.91 51.35 33.83 51.22 33.78C51.09 33.72 50.96 33.7 50.82 33.7C50.68 33.7 50.55 33.72 50.42 33.78C50.3 33.83 50.18 33.91 50.08 34L48.86 35.22L47.82 34.18L47.82 29.96C47.82 27.33 46.78 24.8 44.91 22.94C43.05 21.08 40.52 20.03 37.89 20.03L37.84 20.03L35.88 18.07C33.91 16.09 31.26 14.93 28.47 14.83L26.77 13.13L27.99 11.91C28.08 11.81 28.16 11.69 28.21 11.57C28.26 11.44 28.29 11.31 28.29 11.17C28.29 11.03 28.26 10.9 28.21 10.77C28.16 10.64 28.08 10.53 27.99 10.43L17.67 0.12L16.2 1.59L25.78 11.17L11.04 25.9L1.47 16.32L0 17.8L10.31 28.11C10.4 28.21 10.52 28.28 10.65 28.34C10.77 28.39 10.91 28.42 11.04 28.42C11.18 28.42 11.32 28.39 11.44 28.34C11.57 28.28 11.68 28.21 11.78 28.11L12.79 27.1L14.49 28.79L14.49 33.57C14.49 34.07 14.61 34.56 14.84 35.01C15.07 35.45 15.4 35.83 15.81 36.12C16.22 36.41 16.69 36.6 17.18 36.67C17.68 36.74 18.18 36.68 18.65 36.52L18.65 37.74C18.65 38.24 18.77 38.73 19 39.18C19.23 39.62 19.57 40 19.97 40.29C20.38 40.58 20.85 40.77 21.35 40.83C21.85 40.9 22.35 40.85 22.82 40.68L22.82 41.91C22.82 42.41 22.94 42.9 23.17 43.34C23.4 43.79 23.73 44.17 24.14 44.46C24.55 44.75 25.02 44.93 25.52 45C26.01 45.07 26.52 45.02 26.99 44.85L26.99 46.07C26.99 46.71 27.18 47.32 27.54 47.84C27.9 48.37 28.41 48.77 29 48.99C29.59 49.22 30.23 49.26 30.85 49.11C31.46 48.96 32.02 48.63 32.44 48.16L33.85 48.16L34.89 49.2L33.88 50.21C33.78 50.31 33.71 50.42 33.65 50.55C33.6 50.67 33.57 50.81 33.57 50.95C33.57 51.08 33.6 51.22 33.65 51.34C33.71 51.47 33.78 51.59 33.88 51.68L44.19 61.99L45.67 60.52L36.09 50.94L50.82 36.21L60.4 45.79L61.87 44.32L51.56 34ZM30.11 47.11C29.84 47.11 29.57 47 29.38 46.81C29.18 46.61 29.07 46.35 29.07 46.07L29.07 37.74L26.99 37.74L26.99 41.9C26.99 42.18 26.88 42.45 26.68 42.64C26.49 42.84 26.22 42.95 25.95 42.95C25.67 42.95 25.41 42.84 25.21 42.64C25.01 42.45 24.9 42.18 24.9 41.9L24.9 33.57L22.82 33.57L22.82 37.74C22.82 38.01 22.71 38.28 22.52 38.47C22.32 38.67 22.06 38.78 21.78 38.78C21.5 38.78 21.24 38.67 21.04 38.47C20.85 38.28 20.74 38.01 20.74 37.74L20.74 30.45L18.65 30.45L18.65 33.57C18.65 33.85 18.54 34.11 18.35 34.31C18.15 34.5 17.89 34.61 17.61 34.61C17.34 34.61 17.07 34.5 16.88 34.31C16.68 34.11 16.57 33.85 16.57 33.57L16.57 28.36C16.57 28.23 16.54 28.09 16.49 27.96C16.44 27.84 16.36 27.72 16.27 27.63L14.27 25.63L25.29 14.6L27.29 16.6C27.39 16.69 27.5 16.77 27.63 16.82C27.76 16.88 27.89 16.9 28.03 16.9C29.21 16.9 30.39 17.13 31.48 17.58C32.58 18.04 33.57 18.7 34.41 19.54L34.89 20.03L24.9 20.03C24.63 20.03 24.36 20.14 24.17 20.33C23.97 20.53 23.86 20.79 23.86 21.07C23.87 22.79 24.43 24.47 25.48 25.84C26.53 27.21 27.99 28.2 29.66 28.65L31.16 29.06L31.16 46.07C31.15 46.35 31.04 46.61 30.85 46.81C30.65 47 30.39 47.11 30.11 47.11ZM35.02 46.38C34.92 46.28 34.81 46.2 34.68 46.15C34.55 46.1 34.42 46.07 34.28 46.07L33.24 46.07L33.24 29.63L35.32 30.2L35.32 30.45C35.32 31.83 35.87 33.15 36.85 34.13C37.83 35.1 39.15 35.65 40.53 35.65C40.81 35.65 41.07 35.54 41.27 35.35C41.46 35.15 41.57 34.89 41.57 34.61C41.57 34.34 41.46 34.07 41.27 33.88C41.07 33.68 40.81 33.57 40.53 33.57C39.7 33.57 38.91 33.24 38.32 32.65C37.74 32.07 37.41 31.27 37.41 30.45L37.41 29.4C37.41 29.18 37.33 28.95 37.19 28.77C37.05 28.59 36.86 28.46 36.64 28.4L30.2 26.64C29.15 26.36 28.21 25.78 27.47 24.98C26.74 24.17 26.24 23.18 26.04 22.11L37.89 22.11C38.92 22.11 39.94 22.31 40.89 22.71C41.85 23.1 42.71 23.68 43.44 24.41C44.17 25.14 44.75 26.01 45.14 26.96C45.54 27.91 45.74 28.93 45.74 29.96L45.74 34.61C45.74 34.89 45.85 35.15 46.04 35.35L47.39 36.7L36.36 47.72L35.02 46.38Z" fill="#CB8734" fill-opacity="1.000000" fill-rule="nonzero"/>
	<path id="Vector" d="M7.43 27.08L5.35 27.08L5.35 59.37C5.35 59.65 5.46 59.92 5.66 60.11C5.85 60.31 6.12 60.42 6.39 60.42L37.64 60.42L37.64 58.33L7.43 58.33L7.43 27.08Z" fill="#CB8734" fill-opacity="1.000000" fill-rule="nonzero"/>
	<path id="Vector" d="M55.35 35.41L57.44 35.41L57.44 1.04C57.44 0.76 57.33 0.5 57.13 0.3C56.94 0.1 56.67 0 56.4 0L22.02 0L22.02 2.08L55.35 2.08L55.35 35.41Z" fill="#CB8734" fill-opacity="1.000000" fill-rule="nonzero"/>
	<path id="Vector" d="M47.02 5.2C45.99 5.2 44.98 5.51 44.13 6.08C43.27 6.65 42.6 7.47 42.21 8.42C41.81 9.37 41.71 10.42 41.91 11.43C42.11 12.44 42.61 13.37 43.34 14.1C44.07 14.82 44.99 15.32 46 15.52C47.01 15.72 48.06 15.62 49.01 15.22C49.96 14.83 50.78 14.16 51.35 13.31C51.92 12.45 52.23 11.44 52.23 10.41C52.23 9.03 51.68 7.71 50.7 6.73C49.72 5.75 48.4 5.21 47.02 5.2ZM47.02 13.54C46.4 13.54 45.8 13.35 45.28 13.01C44.77 12.67 44.37 12.18 44.13 11.61C43.9 11.04 43.83 10.41 43.95 9.8C44.08 9.2 44.37 8.64 44.81 8.2C45.25 7.77 45.8 7.47 46.41 7.35C47.02 7.23 47.64 7.29 48.22 7.53C48.79 7.76 49.27 8.16 49.62 8.68C49.96 9.19 50.14 9.79 50.14 10.41C50.14 11.24 49.81 12.04 49.23 12.62C48.64 13.21 47.85 13.54 47.02 13.54Z" fill="#CB8734" fill-opacity="1.000000" fill-rule="nonzero"/>
	<path id="Vector" d="M1.18 32.29L3.27 32.29L3.27 53.12L1.18 53.12L1.18 32.29Z" fill="#CB8734" fill-opacity="1.000000" fill-rule="nonzero"/>
	<path id="Vector" d="M59.52 5.2L61.6 5.2L61.6 28.12L59.52 28.12L59.52 5.2Z" fill="#CB8734" fill-opacity="1.000000" fill-rule="nonzero"/>
</svg>
