<svg width="62.000000" height="57.578430" viewBox="0 0 62 57.5784" fill="none" xmlns="http://www.w3.org/2000/svg" xmlns:xlink="http://www.w3.org/1999/xlink">
	<desc>
			Created with Pixso.
	</desc>
	<defs/>
	<path id="Vector" d="M57.69 0L35.39 0C34.89 0 34.49 0.4 34.49 0.9C34.49 1.4 34.89 1.81 35.39 1.81L57.69 1.81C59.06 1.81 60.18 2.93 60.18 4.3L60.18 27.69C60.18 29.06 59.06 30.17 57.69 30.17L54.13 30.17C53.94 30.17 53.75 30.23 53.6 30.35L47.4 34.83L47.4 31.08C47.4 30.58 47 30.17 46.5 30.17L26.78 30.17C25.41 30.17 24.3 29.06 24.3 27.69L24.3 4.3C24.3 2.93 25.41 1.81 26.78 1.81L31.44 1.81C31.94 1.81 32.35 1.4 32.35 0.9C32.35 0.4 31.94 0 31.44 0L26.78 0C24.41 0 22.48 1.93 22.48 4.3L22.48 27.69C22.48 30.06 24.41 31.99 26.78 31.99L45.59 31.99L45.59 36.61C45.59 36.95 45.78 37.26 46.08 37.42C46.41 37.57 46.72 37.55 47.03 37.35L54.42 31.99L57.69 31.99C60.06 31.99 62 30.06 62 27.69L62 4.3C62 1.93 60.06 0 57.69 0Z" fill="#CB8734" fill-opacity="1.000000" fill-rule="nonzero"/>
	<path id="Vector" d="M52.74 48C52.55 46.64 51.75 45.49 50.55 44.84L46.51 42.64C46.07 42.4 45.52 42.56 45.28 43C45.04 43.44 45.2 43.99 45.65 44.23L49.68 46.43C50.37 46.81 50.83 47.47 50.94 48.25C50.94 48.25 50.94 48.26 50.94 48.26C51.05 49.05 50.78 49.81 50.21 50.36L49.62 50.93L34.71 42.55L36.46 41C37.21 40.35 38.29 40.22 39.17 40.7L41.69 42.08C42.13 42.31 42.68 42.15 42.92 41.71C43.16 41.27 43 40.72 42.56 40.48L40.04 39.11C38.5 38.27 36.58 38.48 35.26 39.64L31.18 43.23C30.34 43.97 29.12 44.04 28.21 43.4C22.06 39.09 17.59 34.35 14.55 28.91C14.04 27.99 14.18 26.85 14.91 26.09L18.14 22.67C19.35 21.39 19.63 19.48 18.84 17.91L13.41 7.03C12.8 5.82 11.69 4.98 10.35 4.74C9.02 4.5 7.68 4.88 6.68 5.8L4.62 7.71C2.33 9.82 0.82 12.55 0.25 15.6C-0.33 18.66 0.09 21.74 1.46 24.52C1.47 24.53 1.47 24.54 1.48 24.55C2.34 26.31 3.28 28.02 4.26 29.65C4.43 29.93 4.61 30.22 4.79 30.51C5.05 30.94 5.61 31.07 6.04 30.8C6.47 30.54 6.6 29.98 6.33 29.55C6.15 29.27 5.98 28.98 5.82 28.72C4.87 27.13 3.95 25.46 3.11 23.75C3.1 23.74 3.1 23.73 3.09 23.72C0.7 18.89 1.77 12.97 5.67 9.22L13.86 24.55L13.59 24.84C12.32 26.19 12.07 28.18 12.97 29.79C16.14 35.48 20.79 40.42 27.16 44.89C27.9 45.4 28.74 45.65 29.59 45.65C30.58 45.65 31.58 45.3 32.37 44.6L33.26 43.82L48.25 52.25L48.23 52.26C44.37 55.97 38.58 56.82 33.83 54.36C23.54 49.04 15.17 42.01 8.96 33.46C8.66 33.05 8.1 32.96 7.69 33.26C7.29 33.55 7.2 34.12 7.49 34.53C13.87 43.31 22.45 50.53 33 55.98C35.08 57.05 37.32 57.57 39.56 57.57C43.18 57.57 46.75 56.2 49.49 53.57L51.47 51.67C52.46 50.72 52.92 49.4 52.75 48.05C52.75 48.03 52.74 48.01 52.74 48ZM7.05 7.94L7.91 7.14C8.49 6.61 9.26 6.39 10.03 6.53C10.79 6.67 11.43 7.15 11.78 7.85L17.22 18.72C17.66 19.61 17.5 20.7 16.82 21.42L15.18 23.16L7.05 7.94Z" fill="#CB8734" fill-opacity="1.000000" fill-rule="nonzero"/>
	<path id="Vector" d="M54.67 16.85C54.67 15.1 53.25 13.68 51.5 13.68C49.75 13.68 48.33 15.1 48.33 16.85C48.33 18.6 49.75 20.03 51.5 20.03C53.25 20.03 54.67 18.6 54.67 16.85ZM50.15 16.85C50.15 16.11 50.75 15.5 51.5 15.5C52.25 15.5 52.86 16.11 52.86 16.85C52.86 17.6 52.25 18.21 51.5 18.21C50.75 18.21 50.15 17.6 50.15 16.85Z" fill="#CB8734" fill-opacity="1.000000" fill-rule="nonzero"/>
	<path id="Vector" d="M45.41 16.85C45.41 15.1 43.99 13.68 42.24 13.68C40.49 13.68 39.07 15.1 39.07 16.85C39.07 18.6 40.49 20.03 42.24 20.03C43.99 20.03 45.41 18.6 45.41 16.85ZM40.88 16.85C40.88 16.11 41.49 15.5 42.24 15.5C42.99 15.5 43.59 16.11 43.59 16.85C43.59 17.6 42.99 18.21 42.24 18.21C41.49 18.21 40.88 17.6 40.88 16.85Z" fill="#CB8734" fill-opacity="1.000000" fill-rule="nonzero"/>
	<path id="Vector" d="M29.8 16.85C29.8 18.6 31.22 20.03 32.97 20.03C34.72 20.03 36.15 18.6 36.15 16.85C36.15 15.1 34.72 13.68 32.97 13.68C31.22 13.68 29.8 15.1 29.8 16.85ZM32.97 15.5C33.72 15.5 34.33 16.11 34.33 16.85C34.33 17.6 33.72 18.21 32.97 18.21C32.23 18.21 31.62 17.6 31.62 16.85C31.62 16.11 32.23 15.5 32.97 15.5Z" fill="#CB8734" fill-opacity="1.000000" fill-rule="nonzero"/>
</svg>
