<svg width="62.000000" height="60.000000" viewBox="0 0 62 60" fill="none" xmlns="http://www.w3.org/2000/svg" xmlns:xlink="http://www.w3.org/1999/xlink">
	<desc>
			Created with Pixso.
	</desc>
	<defs/>
	<path id="Vector" d="M58.5 3L58 3L58 1C58 0.73 57.89 0.48 57.7 0.29C57.51 0.1 57.26 0 57 0L53 0C52.73 0 52.48 0.1 52.29 0.29C52.1 0.48 52 0.73 52 1L52 3L46 3L46 1C46 0.73 45.89 0.48 45.7 0.29C45.51 0.1 45.26 0 45 0L41 0C40.73 0 40.48 0.1 40.29 0.29C40.1 0.48 40 0.73 40 1L40 3L34 3L34 1C34 0.73 33.89 0.48 33.7 0.29C33.51 0.1 33.26 0 33 0L29 0C28.73 0 28.48 0.1 28.29 0.29C28.1 0.48 28 0.73 28 1L28 3L22 3L22 1C22 0.73 21.89 0.48 21.7 0.29C21.51 0.1 21.26 0 21 0L17 0C16.73 0 16.48 0.1 16.29 0.29C16.1 0.48 16 0.73 16 1L16 3L10 3L10 1C10 0.73 9.89 0.48 9.7 0.29C9.51 0.1 9.26 0 9 0L5 0C4.73 0 4.48 0.1 4.29 0.29C4.1 0.48 4 0.73 4 1L4 3L3.5 3C2.57 3 1.68 3.37 1.02 4.02C0.37 4.68 0 5.57 0 6.5L0 50.5C0 51.42 0.37 52.31 1.02 52.97C1.68 53.62 2.57 53.99 3.5 54L16.31 54C20.23 57.84 25.5 60 31 60C36.49 60 41.76 57.84 45.68 54L58.5 54C59.42 53.99 60.31 53.62 60.97 52.97C61.62 52.31 61.99 51.42 62 50.5L62 6.5C61.99 5.57 61.62 4.68 60.97 4.02C60.31 3.37 59.42 3 58.5 3ZM54 2L56 2L56 6L54 6L54 2ZM42 2L44 2L44 6L42 6L42 2ZM30 2L32 2L32 6L30 6L30 2ZM18 2L20 2L20 6L18 6L18 2ZM6 2L8 2L8 6L6 6L6 2ZM31 58C20.52 58 12 49.47 12 39C12 28.52 20.52 20 31 20C41.47 20 50 28.52 50 39C50 49.47 41.47 58 31 58ZM60 50.5C60 50.89 59.84 51.27 59.56 51.56C59.27 51.84 58.89 51.99 58.5 52L47.48 52C50.41 48.3 52 43.71 52 39C52 27.42 42.58 18 31 18C19.41 18 10 27.42 10 39C9.99 43.71 11.58 48.3 14.51 52L3.5 52C3.1 51.99 2.72 51.84 2.43 51.56C2.15 51.27 2 50.89 2 50.5L2 11L60 11L60 50.5ZM60 9L2 9L2 6.5C2 6.1 2.15 5.72 2.43 5.43C2.72 5.15 3.1 5 3.5 5L4 5L4 7C4 7.26 4.1 7.51 4.29 7.7C4.48 7.89 4.73 8 5 8L9 8C9.26 8 9.51 7.89 9.7 7.7C9.89 7.51 10 7.26 10 7L10 5L16 5L16 7C16 7.26 16.1 7.51 16.29 7.7C16.48 7.89 16.73 8 17 8L21 8C21.26 8 21.51 7.89 21.7 7.7C21.89 7.51 22 7.26 22 7L22 5L28 5L28 7C28 7.26 28.1 7.51 28.29 7.7C28.48 7.89 28.73 8 29 8L33 8C33.26 8 33.51 7.89 33.7 7.7C33.89 7.51 34 7.26 34 7L34 5L40 5L40 7C40 7.26 40.1 7.51 40.29 7.7C40.48 7.89 40.73 8 41 8L45 8C45.26 8 45.51 7.89 45.7 7.7C45.89 7.51 46 7.26 46 7L46 5L52 5L52 7C52 7.26 52.1 7.51 52.29 7.7C52.48 7.89 52.73 8 53 8L57 8C57.26 8 57.51 7.89 57.7 7.7C57.89 7.51 58 7.26 58 7L58 5L58.5 5C58.89 5 59.27 5.15 59.56 5.43C59.84 5.72 60 6.1 60 6.5L60 9Z" fill="#CB8734" fill-opacity="1.000000" fill-rule="nonzero"/>
	<path id="Vector" d="M31 22C21.62 22 14 29.62 14 39C14 48.37 21.62 56 31 56C40.37 56 48 48.37 48 39C48 29.62 40.37 22 31 22ZM31 54C28.03 54 25.13 53.12 22.66 51.47C20.2 49.82 18.27 47.48 17.14 44.74C16 41.99 15.7 38.98 16.28 36.07C16.86 33.16 18.29 30.49 20.39 28.39C22.49 26.29 25.16 24.86 28.07 24.28C30.98 23.7 33.99 24 36.74 25.14C39.48 26.27 41.82 28.19 43.47 30.66C45.12 33.13 46 36.03 46 39C45.99 42.97 44.41 46.78 41.6 49.6C38.79 52.41 34.97 53.99 31 54Z" fill="#CB8734" fill-opacity="1.000000" fill-rule="nonzero"/>
	<path id="Vector" d="M32 38.58L32 29C32 28.73 31.89 28.48 31.7 28.29C31.51 28.1 31.26 28 31 28C30.73 28 30.48 28.1 30.29 28.29C30.1 28.48 30 28.73 30 29L30 39C30 39.13 30.02 39.26 30.07 39.38C30.12 39.5 30.2 39.61 30.29 39.7L34.29 43.7C34.48 43.89 34.73 44 35 44C35.26 44 35.51 43.89 35.7 43.7C35.89 43.51 36 43.26 36 43C36 42.73 35.89 42.48 35.7 42.29L32 38.58Z" fill="#CB8734" fill-opacity="1.000000" fill-rule="nonzero"/>
</svg>
