<svg width="53.450684" height="53.449951" viewBox="0 0 53.4507 53.45" fill="none" xmlns="http://www.w3.org/2000/svg" xmlns:xlink="http://www.w3.org/1999/xlink">
	<desc>
			Created with Pixso.
	</desc>
	<defs/>
	<path id="Vector" d="M52.58 31.62C52.38 31.62 52.19 31.54 52.05 31.4C51.9 31.25 51.82 31.06 51.82 30.86L51.82 28.6C51.82 28.4 51.9 28.2 52.05 28.06C52.19 27.92 52.38 27.84 52.58 27.84C52.79 27.84 52.98 27.92 53.12 28.06C53.27 28.2 53.35 28.4 53.35 28.6L53.35 30.86C53.35 31.06 53.27 31.25 53.12 31.4C52.98 31.54 52.79 31.62 52.58 31.62Z" fill="#CB8734" fill-opacity="1.000000" fill-rule="nonzero"/>
	<path id="Vector" d="M51.87 31.34Q51.92 31.41 51.98 31.47Q52.04 31.53 52.11 31.57Q52.18 31.62 52.26 31.65Q52.33 31.69 52.42 31.7Q52.5 31.72 52.58 31.72Q52.67 31.72 52.75 31.7Q52.84 31.69 52.91 31.65Q52.99 31.62 53.06 31.57Q53.13 31.53 53.19 31.47Q53.25 31.41 53.3 31.34Q53.35 31.27 53.38 31.19Q53.41 31.11 53.43 31.03Q53.45 30.94 53.45 30.86L53.45 28.6Q53.45 28.51 53.43 28.43Q53.41 28.35 53.38 28.27Q53.35 28.19 53.3 28.12Q53.25 28.05 53.19 27.99Q53.13 27.93 53.06 27.88Q52.99 27.84 52.91 27.8Q52.84 27.77 52.75 27.75Q52.67 27.74 52.58 27.74Q52.5 27.74 52.42 27.75Q52.33 27.77 52.26 27.8Q52.18 27.84 52.11 27.88Q52.04 27.93 51.98 27.99Q51.92 28.05 51.87 28.12Q51.82 28.19 51.79 28.27Q51.76 28.35 51.74 28.43Q51.72 28.51 51.72 28.6L51.72 30.86Q51.72 30.94 51.74 31.03Q51.76 31.11 51.79 31.19Q51.82 31.27 51.87 31.34ZM52.58 31.62C52.38 31.62 52.19 31.54 52.05 31.4C51.9 31.25 51.82 31.06 51.82 30.86L51.82 28.6C51.82 28.4 51.9 28.2 52.05 28.06C52.19 27.92 52.38 27.84 52.58 27.84C52.79 27.84 52.98 27.92 53.12 28.06C53.27 28.2 53.35 28.4 53.35 28.6L53.35 30.86C53.35 31.06 53.27 31.25 53.12 31.4C52.98 31.54 52.79 31.62 52.58 31.62Z" fill="#CB8734" fill-opacity="1.000000" fill-rule="evenodd"/>
	<path id="Vector" d="M50.3 53.35L3.14 53.35C2.33 53.35 1.56 53.02 0.99 52.45C0.42 51.88 0.1 51.11 0.1 50.3L0.1 3.14C0.1 2.33 0.42 1.56 0.99 0.99C1.56 0.42 2.33 0.09 3.14 0.09L50.3 0.09C51.11 0.09 51.88 0.42 52.45 0.99C53.02 1.56 53.35 2.33 53.35 3.14L53.35 15.74C53.35 15.94 53.27 16.13 53.12 16.27C52.98 16.42 52.79 16.5 52.58 16.5C52.38 16.5 52.19 16.42 52.05 16.27C51.9 16.13 51.82 15.94 51.82 15.74L51.82 3.14C51.82 2.73 51.66 2.35 51.38 2.06C51.09 1.78 50.71 1.62 50.3 1.62L3.14 1.62C2.73 1.62 2.35 1.78 2.06 2.06C1.78 2.35 1.62 2.73 1.62 3.14L1.62 50.3C1.62 50.71 1.78 51.09 2.06 51.38C2.35 51.66 2.73 51.82 3.14 51.82L50.3 51.82C50.71 51.82 51.09 51.66 51.38 51.38C51.66 51.09 51.82 50.71 51.82 50.3L51.82 36.18C51.82 35.98 51.9 35.79 52.05 35.65C52.19 35.5 52.38 35.42 52.58 35.42C52.79 35.42 52.98 35.5 53.12 35.65C53.27 35.79 53.35 35.98 53.35 36.18L53.35 50.3C53.35 51.11 53.02 51.88 52.45 52.45C51.88 53.02 51.11 53.35 50.3 53.35Z" fill="#CB8734" fill-opacity="1.000000" fill-rule="nonzero"/>
	<path id="Vector" d="M2.52 53.39Q2.83 53.45 3.14 53.45L50.3 53.45Q50.62 53.45 50.92 53.39Q51.22 53.33 51.5 53.21Q51.79 53.09 52.05 52.92Q52.3 52.75 52.52 52.52Q52.75 52.3 52.92 52.05Q53.09 51.79 53.21 51.5Q53.33 51.22 53.39 50.92Q53.45 50.62 53.45 50.3L53.45 36.18Q53.45 36.1 53.43 36.02Q53.41 35.93 53.38 35.85Q53.35 35.77 53.3 35.71Q53.25 35.64 53.19 35.57Q53.13 35.51 53.06 35.47Q52.99 35.42 52.91 35.39Q52.83 35.36 52.75 35.34Q52.67 35.32 52.58 35.32Q52.5 35.32 52.42 35.34Q52.33 35.36 52.25 35.39Q52.18 35.42 52.11 35.47Q52.04 35.51 51.98 35.57Q51.91 35.64 51.87 35.71Q51.82 35.77 51.79 35.85Q51.76 35.93 51.74 36.01Q51.72 36.1 51.72 36.18L51.72 50.3Q51.72 50.44 51.7 50.58Q51.67 50.72 51.62 50.85Q51.56 50.98 51.48 51.09Q51.41 51.21 51.31 51.31Q51.21 51.41 51.09 51.48Q50.98 51.56 50.85 51.62Q50.72 51.67 50.58 51.7Q50.44 51.72 50.3 51.72L3.14 51.72Q3 51.72 2.86 51.7Q2.72 51.67 2.59 51.62Q2.46 51.56 2.35 51.48Q2.23 51.41 2.13 51.31Q2.03 51.21 1.96 51.09Q1.88 50.98 1.82 50.85Q1.77 50.72 1.74 50.58Q1.72 50.44 1.72 50.3L1.72 3.14Q1.72 3 1.74 2.86Q1.77 2.72 1.82 2.59Q1.88 2.46 1.96 2.35Q2.03 2.23 2.13 2.13Q2.23 2.03 2.35 1.96Q2.46 1.88 2.59 1.82Q2.72 1.77 2.86 1.74Q3 1.72 3.14 1.72L50.3 1.72Q50.44 1.72 50.58 1.74Q50.72 1.77 50.85 1.82Q50.98 1.88 51.09 1.96Q51.21 2.03 51.31 2.13Q51.41 2.23 51.48 2.35Q51.56 2.46 51.62 2.59Q51.67 2.72 51.7 2.86Q51.72 3 51.72 3.14L51.72 15.74Q51.72 15.82 51.74 15.9Q51.76 15.99 51.79 16.06Q51.82 16.14 51.87 16.21Q51.92 16.28 51.98 16.34Q52.04 16.4 52.11 16.45Q52.18 16.5 52.25 16.53Q52.33 16.56 52.42 16.58Q52.5 16.6 52.58 16.6Q52.67 16.6 52.75 16.58Q52.83 16.56 52.91 16.53Q52.99 16.5 53.06 16.45Q53.13 16.4 53.19 16.34Q53.25 16.28 53.3 16.21Q53.35 16.14 53.38 16.06Q53.41 15.99 53.43 15.9Q53.45 15.82 53.45 15.74L53.45 3.14Q53.45 2.82 53.39 2.52Q53.33 2.22 53.21 1.94Q53.09 1.65 52.92 1.39Q52.75 1.14 52.52 0.92Q52.3 0.69 52.05 0.52Q51.79 0.35 51.5 0.23Q51.22 0.11 50.92 0.05Q50.62 0 50.3 0L3.14 0Q2.83 0 2.52 0.05Q2.22 0.11 1.94 0.23Q1.65 0.35 1.39 0.52Q1.14 0.69 0.92 0.92Q0.69 1.14 0.52 1.39Q0.35 1.65 0.23 1.94Q0.11 2.22 0.06 2.52Q0 2.83 0 3.14L0 50.3Q0 50.61 0.05 50.91Q0.11 51.22 0.23 51.5Q0.35 51.79 0.52 52.05Q0.69 52.3 0.92 52.52Q1.14 52.75 1.39 52.92Q1.65 53.09 1.94 53.21Q2.22 53.33 2.52 53.39ZM50.3 53.35L3.14 53.35C2.33 53.35 1.56 53.02 0.99 52.45C0.42 51.88 0.1 51.11 0.1 50.3L0.1 3.14C0.1 2.33 0.42 1.56 0.99 0.99C1.56 0.42 2.33 0.09 3.14 0.09L50.3 0.09C51.11 0.09 51.88 0.42 52.45 0.99C53.02 1.56 53.35 2.33 53.35 3.14L53.35 15.74C53.35 15.94 53.27 16.13 53.12 16.27C52.98 16.42 52.79 16.5 52.58 16.5C52.38 16.5 52.19 16.42 52.05 16.27C51.9 16.13 51.82 15.94 51.82 15.74L51.82 3.14C51.82 2.73 51.66 2.35 51.38 2.06C51.09 1.78 50.71 1.62 50.3 1.62L3.14 1.62C2.73 1.62 2.35 1.78 2.06 2.06C1.78 2.35 1.62 2.73 1.62 3.14L1.62 50.3C1.62 50.71 1.78 51.09 2.06 51.38C2.35 51.66 2.73 51.82 3.14 51.82L50.3 51.82C50.71 51.82 51.09 51.66 51.38 51.38C51.66 51.09 51.82 50.71 51.82 50.3L51.82 36.18C51.82 35.98 51.9 35.79 52.05 35.65C52.19 35.5 52.38 35.42 52.58 35.42C52.79 35.42 52.98 35.5 53.12 35.65C53.27 35.79 53.35 35.98 53.35 36.18L53.35 50.3C53.35 51.11 53.02 51.88 52.45 52.45C51.88 53.02 51.11 53.35 50.3 53.35Z" fill="#CB8734" fill-opacity="1.000000" fill-rule="evenodd"/>
	<path id="Vector" d="M52.58 24.03C52.38 24.03 52.19 23.95 52.05 23.81C51.9 23.67 51.82 23.48 51.82 23.27L51.82 21.06C51.82 20.86 51.9 20.67 52.05 20.52C52.19 20.38 52.38 20.3 52.58 20.3C52.79 20.3 52.98 20.38 53.12 20.52C53.27 20.67 53.35 20.86 53.35 21.06L53.35 23.27C53.35 23.48 53.27 23.67 53.12 23.81C52.98 23.95 52.79 24.03 52.58 24.03Z" fill="#CB8734" fill-opacity="1.000000" fill-rule="nonzero"/>
	<path id="Vector" d="M51.87 23.75Q51.92 23.82 51.98 23.88Q52.04 23.94 52.11 23.99Q52.18 24.04 52.26 24.07Q52.33 24.1 52.42 24.12Q52.5 24.13 52.58 24.13Q52.67 24.13 52.75 24.12Q52.84 24.1 52.91 24.07Q52.99 24.04 53.06 23.99Q53.13 23.94 53.19 23.88Q53.25 23.82 53.3 23.75Q53.35 23.68 53.38 23.6Q53.41 23.52 53.43 23.44Q53.45 23.36 53.45 23.27L53.45 21.06Q53.45 20.97 53.43 20.89Q53.41 20.81 53.38 20.73Q53.35 20.65 53.3 20.58Q53.25 20.51 53.19 20.45Q53.13 20.39 53.06 20.34Q52.99 20.3 52.91 20.27Q52.84 20.23 52.75 20.22Q52.67 20.2 52.58 20.2Q52.5 20.2 52.42 20.22Q52.33 20.23 52.26 20.27Q52.18 20.3 52.11 20.34Q52.04 20.39 51.98 20.45Q51.92 20.51 51.87 20.58Q51.82 20.65 51.79 20.73Q51.76 20.81 51.74 20.89Q51.72 20.97 51.72 21.06L51.72 23.27Q51.72 23.36 51.74 23.44Q51.76 23.52 51.79 23.6Q51.82 23.68 51.87 23.75ZM52.58 24.03C52.38 24.03 52.19 23.95 52.05 23.81C51.9 23.67 51.82 23.48 51.82 23.27L51.82 21.06C51.82 20.86 51.9 20.67 52.05 20.52C52.19 20.38 52.38 20.3 52.58 20.3C52.79 20.3 52.98 20.38 53.12 20.52C53.27 20.67 53.35 20.86 53.35 21.06L53.35 23.27C53.35 23.48 53.27 23.67 53.12 23.81C52.98 23.95 52.79 24.03 52.58 24.03Z" fill="#CB8734" fill-opacity="1.000000" fill-rule="evenodd"/>
	<mask id="mask_162_2904" fill="white">
		<path id="Union" d="M44.4688 23.0442C44.6709 23.0442 44.8643 22.964 45.0068 22.8214C45.1494 22.6787 45.2295 22.4852 45.2295 22.2834C45.2295 22.0817 45.1494 21.8882 45.0068 21.7456L40.0244 16.7629C39.8813 16.6202 39.688 16.5402 39.4863 16.5402C39.2847 16.5402 39.0908 16.6202 38.9482 16.7629L33.9658 21.7456C33.8232 21.8882 33.7432 22.0817 33.7432 22.2834C33.7432 22.4852 33.8232 22.6787 33.9658 22.8214C34.1084 22.964 34.3018 23.0442 34.5039 23.0442C34.7056 23.0442 34.8989 22.964 35.0415 22.8214L38.7261 19.1371L38.7261 36.2355C38.7261 36.386 38.7705 36.533 38.854 36.6581C38.9375 36.7831 39.0566 36.8806 39.1953 36.9382C39.3345 36.9957 39.4873 37.0109 39.6348 36.9814C39.7827 36.9521 39.918 36.8798 40.0244 36.7734C40.167 36.6307 40.2471 36.4373 40.2471 36.2355L40.2471 19.1375L43.9312 22.8214C44.0737 22.964 44.2671 23.0442 44.4688 23.0442Z" clip-rule="evenodd" fill="" fill-opacity="1.000000" fill-rule="evenodd"/>
	</mask>
	<path id="Union" d="M44.4688 23.0442C44.6709 23.0442 44.8643 22.964 45.0068 22.8214C45.1494 22.6787 45.2295 22.4852 45.2295 22.2834C45.2295 22.0817 45.1494 21.8882 45.0068 21.7456L40.0244 16.7629C39.8813 16.6202 39.688 16.5402 39.4863 16.5402C39.2847 16.5402 39.0908 16.6202 38.9482 16.7629L33.9658 21.7456C33.8232 21.8882 33.7432 22.0817 33.7432 22.2834C33.7432 22.4852 33.8232 22.6787 33.9658 22.8214C34.1084 22.964 34.3018 23.0442 34.5039 23.0442C34.7056 23.0442 34.8989 22.964 35.0415 22.8214L38.7261 19.1371L38.7261 36.2355C38.7261 36.386 38.7705 36.533 38.854 36.6581C38.9375 36.7831 39.0566 36.8806 39.1953 36.9382C39.3345 36.9957 39.4873 37.0109 39.6348 36.9814C39.7827 36.9521 39.918 36.8798 40.0244 36.7734C40.167 36.6307 40.2471 36.4373 40.2471 36.2355L40.2471 19.1375L43.9312 22.8214C44.0737 22.964 44.2671 23.0442 44.4688 23.0442Z" clip-rule="evenodd" fill="#CB8734" fill-opacity="1.000000" fill-rule="evenodd" mask="url(#mask_162_2904)"/>
	<path id="Union" d="M44.3054 23.1286Q44.3856 23.1442 44.4688 23.1442Q44.5554 23.1442 44.6386 23.1274Q44.7201 23.111 44.7983 23.0786Q44.8771 23.046 44.9467 22.9996Q45.0168 22.9529 45.0776 22.8921Q45.1384 22.8313 45.1852 22.7612Q45.2316 22.6916 45.2642 22.6128Q45.2964 22.5348 45.3128 22.4537Q45.3296 22.3703 45.3296 22.2834Q45.3296 22.1983 45.3134 22.1163Q45.297 22.0336 45.2642 21.9541Q45.2316 21.8753 45.1852 21.8057Q45.1384 21.7356 45.0776 21.6748L40.0947 16.6923Q40.0341 16.6317 39.9643 16.585Q39.8945 16.5384 39.8154 16.5056Q39.7401 16.4743 39.6617 16.458Q39.5759 16.4401 39.4863 16.4401Q39.3997 16.4401 39.3165 16.4568Q39.235 16.4732 39.1567 16.5056Q39.0777 16.5384 39.0079 16.585Q38.938 16.6317 38.8774 16.6923L33.895 21.6748Q33.8342 21.7356 33.7875 21.8057Q33.7411 21.8753 33.7085 21.9541Q33.6756 22.0336 33.6593 22.1163Q33.6431 22.1983 33.6431 22.2834Q33.6431 22.3703 33.6599 22.4537Q33.6762 22.5348 33.7085 22.6128Q33.7411 22.6916 33.7875 22.7612Q33.8342 22.8313 33.895 22.8921Q33.9558 22.9529 34.026 22.9996Q34.0955 23.046 34.1743 23.0786Q34.2555 23.1123 34.3401 23.1286Q34.4202 23.1442 34.5034 23.1442Q34.59 23.1442 34.6733 23.1274Q34.7548 23.111 34.833 23.0786Q34.9118 23.046 34.9814 22.9996Q35.0515 22.9529 35.1123 22.8921L38.626 19.3782L38.626 36.2355Q38.626 36.3663 38.6624 36.486Q38.6986 36.6053 38.771 36.7136Q38.8435 36.8221 38.9399 36.9013Q39.0365 36.9806 39.1572 37.0305Q39.2785 37.0808 39.4034 37.0929Q39.5271 37.1049 39.6543 37.0796Q39.7834 37.0539 39.8944 36.9944Q40.0036 36.9357 40.0952 36.8441Q40.156 36.7833 40.2028 36.7132Q40.2492 36.6436 40.2817 36.5648Q40.314 36.4869 40.3304 36.4057Q40.3472 36.3223 40.3472 36.2355L40.3472 19.379L43.8604 22.8921Q43.9211 22.9529 43.9913 22.9996Q44.0609 23.046 44.1396 23.0786Q44.2209 23.1123 44.3054 23.1286ZM40.2471 19.2789L40.2471 19.1375L40.3472 19.2375L43.9312 22.8214C44.0737 22.964 44.2671 23.0442 44.4688 23.0442C44.6709 23.0442 44.8643 22.964 45.0068 22.8214C45.1494 22.6787 45.2295 22.4852 45.2295 22.2834C45.2295 22.0817 45.1494 21.8882 45.0068 21.7456L40.0244 16.7629C39.8813 16.6202 39.688 16.5402 39.4863 16.5402C39.2847 16.5402 39.0908 16.6202 38.9482 16.7629L33.9658 21.7456C33.8232 21.8882 33.7432 22.0817 33.7432 22.2834C33.7432 22.4852 33.8232 22.6787 33.9658 22.8214C34.1084 22.964 34.3018 23.0442 34.5039 23.0442C34.7056 23.0442 34.8989 22.964 35.0415 22.8214L38.626 19.2372L38.7261 19.1371L38.7261 36.2355C38.7261 36.386 38.7705 36.533 38.854 36.6581C38.9375 36.7831 39.0566 36.8806 39.1953 36.9382C39.3345 36.9957 39.4873 37.0109 39.6348 36.9814C39.7827 36.9521 39.918 36.8798 40.0244 36.7734C40.167 36.6307 40.2471 36.4373 40.2471 36.2355L40.2471 19.2789Z" clip-rule="evenodd" fill="#CB8734" fill-opacity="1.000000" fill-rule="evenodd"/>
</svg>
