<svg width="53.450684" height="53.449951" viewBox="0 0 53.4507 53.45" fill="none" xmlns="http://www.w3.org/2000/svg" xmlns:xlink="http://www.w3.org/1999/xlink">
	<desc>
			Created with Pixso.
	</desc>
	<defs/>
	<path id="Vector" d="M52.58 31.62C52.38 31.62 52.19 31.54 52.05 31.4C51.9 31.25 51.82 31.06 51.82 30.86L51.82 28.6C51.82 28.4 51.9 28.2 52.05 28.06C52.19 27.92 52.38 27.84 52.58 27.84C52.79 27.84 52.98 27.92 53.12 28.06C53.27 28.2 53.35 28.4 53.35 28.6L53.35 30.86C53.35 31.06 53.27 31.25 53.12 31.4C52.98 31.54 52.79 31.62 52.58 31.62Z" fill="#CB8734" fill-opacity="1.000000" fill-rule="nonzero"/>
	<path id="Vector" d="M51.87 31.34Q51.92 31.41 51.98 31.47Q52.04 31.53 52.11 31.57Q52.18 31.62 52.26 31.65Q52.33 31.69 52.42 31.7Q52.5 31.72 52.58 31.72Q52.67 31.72 52.75 31.7Q52.84 31.69 52.91 31.65Q52.99 31.62 53.06 31.57Q53.13 31.53 53.19 31.47Q53.25 31.41 53.3 31.34Q53.35 31.27 53.38 31.19Q53.41 31.11 53.43 31.03Q53.45 30.94 53.45 30.86L53.45 28.6Q53.45 28.51 53.43 28.43Q53.41 28.35 53.38 28.27Q53.35 28.19 53.3 28.12Q53.25 28.05 53.19 27.99Q53.13 27.93 53.06 27.88Q52.99 27.84 52.91 27.8Q52.84 27.77 52.75 27.75Q52.67 27.74 52.58 27.74Q52.5 27.74 52.42 27.75Q52.33 27.77 52.26 27.8Q52.18 27.84 52.11 27.88Q52.04 27.93 51.98 27.99Q51.92 28.05 51.87 28.12Q51.82 28.19 51.79 28.27Q51.76 28.35 51.74 28.43Q51.72 28.51 51.72 28.6L51.72 30.86Q51.72 30.94 51.74 31.03Q51.76 31.11 51.79 31.19Q51.82 31.27 51.87 31.34ZM52.58 31.62C52.38 31.62 52.19 31.54 52.05 31.4C51.9 31.25 51.82 31.06 51.82 30.86L51.82 28.6C51.82 28.4 51.9 28.2 52.05 28.06C52.19 27.92 52.38 27.84 52.58 27.84C52.79 27.84 52.98 27.92 53.12 28.06C53.27 28.2 53.35 28.4 53.35 28.6L53.35 30.86C53.35 31.06 53.27 31.25 53.12 31.4C52.98 31.54 52.79 31.62 52.58 31.62Z" fill="#CB8734" fill-opacity="1.000000" fill-rule="evenodd"/>
	<path id="Vector" d="M50.3 53.35L3.14 53.35C2.33 53.35 1.56 53.02 0.99 52.45C0.42 51.88 0.1 51.11 0.1 50.3L0.1 3.14C0.1 2.33 0.42 1.56 0.99 0.99C1.56 0.42 2.33 0.09 3.14 0.09L50.3 0.09C51.11 0.09 51.88 0.42 52.45 0.99C53.02 1.56 53.35 2.33 53.35 3.14L53.35 15.74C53.35 15.94 53.27 16.13 53.12 16.27C52.98 16.42 52.79 16.5 52.58 16.5C52.38 16.5 52.19 16.42 52.05 16.27C51.9 16.13 51.82 15.94 51.82 15.74L51.82 3.14C51.82 2.73 51.66 2.35 51.38 2.06C51.09 1.78 50.71 1.62 50.3 1.62L3.14 1.62C2.73 1.62 2.35 1.78 2.06 2.06C1.78 2.35 1.62 2.73 1.62 3.14L1.62 50.3C1.62 50.71 1.78 51.09 2.06 51.38C2.35 51.66 2.73 51.82 3.14 51.82L50.3 51.82C50.71 51.82 51.09 51.66 51.38 51.38C51.66 51.09 51.82 50.71 51.82 50.3L51.82 36.18C51.82 35.98 51.9 35.79 52.05 35.65C52.19 35.5 52.38 35.42 52.58 35.42C52.79 35.42 52.98 35.5 53.12 35.65C53.27 35.79 53.35 35.98 53.35 36.18L53.35 50.3C53.35 51.11 53.02 51.88 52.45 52.45C51.88 53.02 51.11 53.35 50.3 53.35Z" fill="#CB8734" fill-opacity="1.000000" fill-rule="nonzero"/>
	<path id="Vector" d="M2.52 53.39Q2.83 53.45 3.14 53.45L50.3 53.45Q50.62 53.45 50.92 53.39Q51.22 53.33 51.5 53.21Q51.79 53.09 52.05 52.92Q52.3 52.75 52.52 52.52Q52.75 52.3 52.92 52.05Q53.09 51.79 53.21 51.5Q53.33 51.22 53.39 50.92Q53.45 50.62 53.45 50.3L53.45 36.18Q53.45 36.1 53.43 36.02Q53.41 35.93 53.38 35.85Q53.35 35.77 53.3 35.71Q53.25 35.64 53.19 35.57Q53.13 35.51 53.06 35.47Q52.99 35.42 52.91 35.39Q52.83 35.36 52.75 35.34Q52.67 35.32 52.58 35.32Q52.5 35.32 52.42 35.34Q52.33 35.36 52.25 35.39Q52.18 35.42 52.11 35.47Q52.04 35.51 51.98 35.57Q51.91 35.64 51.87 35.71Q51.82 35.77 51.79 35.85Q51.76 35.93 51.74 36.01Q51.72 36.1 51.72 36.18L51.72 50.3Q51.72 50.44 51.7 50.58Q51.67 50.72 51.62 50.85Q51.56 50.98 51.48 51.09Q51.41 51.21 51.31 51.31Q51.21 51.41 51.09 51.48Q50.98 51.56 50.85 51.62Q50.72 51.67 50.58 51.7Q50.44 51.72 50.3 51.72L3.14 51.72Q3 51.72 2.86 51.7Q2.72 51.67 2.59 51.62Q2.46 51.56 2.35 51.48Q2.23 51.41 2.13 51.31Q2.03 51.21 1.96 51.09Q1.88 50.98 1.82 50.85Q1.77 50.72 1.74 50.58Q1.72 50.44 1.72 50.3L1.72 3.14Q1.72 3 1.74 2.86Q1.77 2.72 1.82 2.59Q1.88 2.46 1.96 2.35Q2.03 2.23 2.13 2.13Q2.23 2.03 2.35 1.96Q2.46 1.88 2.59 1.82Q2.72 1.77 2.86 1.74Q3 1.72 3.14 1.72L50.3 1.72Q50.44 1.72 50.58 1.74Q50.72 1.77 50.85 1.82Q50.98 1.88 51.09 1.96Q51.21 2.03 51.31 2.13Q51.41 2.23 51.48 2.35Q51.56 2.46 51.62 2.59Q51.67 2.72 51.7 2.86Q51.72 3 51.72 3.14L51.72 15.74Q51.72 15.82 51.74 15.9Q51.76 15.99 51.79 16.06Q51.82 16.14 51.87 16.21Q51.92 16.28 51.98 16.34Q52.04 16.4 52.11 16.45Q52.18 16.5 52.25 16.53Q52.33 16.56 52.42 16.58Q52.5 16.6 52.58 16.6Q52.67 16.6 52.75 16.58Q52.83 16.56 52.91 16.53Q52.99 16.5 53.06 16.45Q53.13 16.4 53.19 16.34Q53.25 16.28 53.3 16.21Q53.35 16.14 53.38 16.06Q53.41 15.99 53.43 15.9Q53.45 15.82 53.45 15.74L53.45 3.14Q53.45 2.82 53.39 2.52Q53.33 2.22 53.21 1.94Q53.09 1.65 52.92 1.39Q52.75 1.14 52.52 0.92Q52.3 0.69 52.05 0.52Q51.79 0.35 51.5 0.23Q51.22 0.11 50.92 0.05Q50.62 0 50.3 0L3.14 0Q2.83 0 2.52 0.05Q2.22 0.11 1.94 0.23Q1.65 0.35 1.39 0.52Q1.14 0.69 0.92 0.92Q0.69 1.14 0.52 1.39Q0.35 1.65 0.23 1.94Q0.11 2.22 0.06 2.52Q0 2.83 0 3.14L0 50.3Q0 50.61 0.05 50.91Q0.11 51.22 0.23 51.5Q0.35 51.79 0.52 52.05Q0.69 52.3 0.92 52.52Q1.14 52.75 1.39 52.92Q1.65 53.09 1.94 53.21Q2.22 53.33 2.52 53.39ZM50.3 53.35L3.14 53.35C2.33 53.35 1.56 53.02 0.99 52.45C0.42 51.88 0.1 51.11 0.1 50.3L0.1 3.14C0.1 2.33 0.42 1.56 0.99 0.99C1.56 0.42 2.33 0.09 3.14 0.09L50.3 0.09C51.11 0.09 51.88 0.42 52.45 0.99C53.02 1.56 53.35 2.33 53.35 3.14L53.35 15.74C53.35 15.94 53.27 16.13 53.12 16.27C52.98 16.42 52.79 16.5 52.58 16.5C52.38 16.5 52.19 16.42 52.05 16.27C51.9 16.13 51.82 15.94 51.82 15.74L51.82 3.14C51.82 2.73 51.66 2.35 51.38 2.06C51.09 1.78 50.71 1.62 50.3 1.62L3.14 1.62C2.73 1.62 2.35 1.78 2.06 2.06C1.78 2.35 1.62 2.73 1.62 3.14L1.62 50.3C1.62 50.71 1.78 51.09 2.06 51.38C2.35 51.66 2.73 51.82 3.14 51.82L50.3 51.82C50.71 51.82 51.09 51.66 51.38 51.38C51.66 51.09 51.82 50.71 51.82 50.3L51.82 36.18C51.82 35.98 51.9 35.79 52.05 35.65C52.19 35.5 52.38 35.42 52.58 35.42C52.79 35.42 52.98 35.5 53.12 35.65C53.27 35.79 53.35 35.98 53.35 36.18L53.35 50.3C53.35 51.11 53.02 51.88 52.45 52.45C51.88 53.02 51.11 53.35 50.3 53.35Z" fill="#CB8734" fill-opacity="1.000000" fill-rule="evenodd"/>
	<path id="Vector" d="M52.58 24.03C52.38 24.03 52.19 23.95 52.05 23.81C51.9 23.67 51.82 23.48 51.82 23.27L51.82 21.06C51.82 20.86 51.9 20.67 52.05 20.52C52.19 20.38 52.38 20.3 52.58 20.3C52.79 20.3 52.98 20.38 53.12 20.52C53.27 20.67 53.35 20.86 53.35 21.06L53.35 23.27C53.35 23.48 53.27 23.67 53.12 23.81C52.98 23.95 52.79 24.03 52.58 24.03Z" fill="#CB8734" fill-opacity="1.000000" fill-rule="nonzero"/>
	<path id="Vector" d="M51.87 23.75Q51.92 23.82 51.98 23.88Q52.04 23.94 52.11 23.99Q52.18 24.04 52.26 24.07Q52.33 24.1 52.42 24.12Q52.5 24.13 52.58 24.13Q52.67 24.13 52.75 24.12Q52.84 24.1 52.91 24.07Q52.99 24.04 53.06 23.99Q53.13 23.94 53.19 23.88Q53.25 23.82 53.3 23.75Q53.35 23.68 53.38 23.6Q53.41 23.52 53.43 23.44Q53.45 23.36 53.45 23.27L53.45 21.06Q53.45 20.97 53.43 20.89Q53.41 20.81 53.38 20.73Q53.35 20.65 53.3 20.58Q53.25 20.51 53.19 20.45Q53.13 20.39 53.06 20.34Q52.99 20.3 52.91 20.27Q52.84 20.23 52.75 20.22Q52.67 20.2 52.58 20.2Q52.5 20.2 52.42 20.22Q52.33 20.23 52.26 20.27Q52.18 20.3 52.11 20.34Q52.04 20.39 51.98 20.45Q51.92 20.51 51.87 20.58Q51.82 20.65 51.79 20.73Q51.76 20.81 51.74 20.89Q51.72 20.97 51.72 21.06L51.72 23.27Q51.72 23.36 51.74 23.44Q51.76 23.52 51.79 23.6Q51.82 23.68 51.87 23.75ZM52.58 24.03C52.38 24.03 52.19 23.95 52.05 23.81C51.9 23.67 51.82 23.48 51.82 23.27L51.82 21.06C51.82 20.86 51.9 20.67 52.05 20.52C52.19 20.38 52.38 20.3 52.58 20.3C52.79 20.3 52.98 20.38 53.12 20.52C53.27 20.67 53.35 20.86 53.35 21.06L53.35 23.27C53.35 23.48 53.27 23.67 53.12 23.81C52.98 23.95 52.79 24.03 52.58 24.03Z" fill="#CB8734" fill-opacity="1.000000" fill-rule="evenodd"/>
	<path id="Vector" d="M30.07 24.13C29.92 24.13 29.77 24.09 29.64 24.01C29.52 23.92 29.42 23.8 29.37 23.66C29.31 23.52 29.29 23.37 29.32 23.22C29.35 23.08 29.42 22.94 29.53 22.84L42.92 9.45C43.06 9.31 43.25 9.23 43.45 9.23C43.65 9.23 43.84 9.31 43.98 9.46C44.13 9.6 44.21 9.79 44.21 9.99C44.21 10.19 44.13 10.38 43.99 10.52L30.61 23.91C30.46 24.05 30.27 24.13 30.07 24.13Z" fill="#CB8734" fill-opacity="1.000000" fill-rule="nonzero"/>
	<path id="Vector" d="M29.4 23.92Q29.48 24.02 29.59 24.09Q29.7 24.16 29.82 24.2Q29.94 24.23 30.07 24.23Q30.15 24.23 30.24 24.22Q30.32 24.2 30.4 24.17Q30.48 24.14 30.55 24.09Q30.62 24.04 30.68 23.98L44.07 10.59Q44.12 10.53 44.17 10.46Q44.21 10.39 44.25 10.31Q44.28 10.23 44.29 10.15Q44.31 10.07 44.31 9.99Q44.31 9.9 44.29 9.82Q44.27 9.74 44.24 9.66Q44.21 9.58 44.16 9.51Q44.12 9.44 44.06 9.39Q44 9.33 43.93 9.28Q43.86 9.23 43.78 9.2Q43.7 9.17 43.62 9.15Q43.54 9.13 43.45 9.13Q43.37 9.13 43.29 9.15Q43.21 9.16 43.13 9.19Q43.06 9.22 43 9.26Q42.92 9.31 42.85 9.38L29.46 22.76Q29.37 22.86 29.31 22.97Q29.25 23.08 29.22 23.21Q29.2 23.33 29.21 23.46Q29.22 23.58 29.27 23.7Q29.32 23.82 29.4 23.92ZM30.07 24.13C29.92 24.13 29.77 24.09 29.64 24.01C29.52 23.92 29.42 23.8 29.37 23.66C29.31 23.52 29.29 23.37 29.32 23.22C29.35 23.08 29.42 22.94 29.53 22.84L42.92 9.45C43.06 9.31 43.25 9.23 43.45 9.23C43.65 9.23 43.84 9.31 43.98 9.46C44.13 9.6 44.21 9.79 44.21 9.99C44.21 10.19 44.13 10.38 43.99 10.52L30.61 23.91C30.46 24.05 30.27 24.13 30.07 24.13Z" fill="#CB8734" fill-opacity="1.000000" fill-rule="evenodd"/>
	<path id="Vector" d="M43.46 17.79C43.25 17.79 43.06 17.71 42.92 17.57C42.77 17.43 42.69 17.23 42.69 17.03L42.69 10.74L36.41 10.74C36.21 10.74 36.01 10.66 35.87 10.52C35.73 10.38 35.65 10.19 35.65 9.98C35.65 9.78 35.73 9.59 35.87 9.45C36.01 9.3 36.21 9.22 36.41 9.22L43.46 9.22C43.66 9.22 43.85 9.3 43.99 9.45C44.14 9.59 44.22 9.78 44.22 9.98L44.22 17.03C44.22 17.23 44.14 17.43 43.99 17.57C43.85 17.71 43.66 17.79 43.46 17.79Z" fill="#CB8734" fill-opacity="1.000000" fill-rule="nonzero"/>
	<path id="Vector" d="M42.74 17.51Q42.79 17.58 42.85 17.64Q42.91 17.7 42.98 17.75Q43.05 17.79 43.13 17.83Q43.21 17.86 43.29 17.87Q43.37 17.89 43.46 17.89Q43.54 17.89 43.62 17.87Q43.71 17.86 43.78 17.83Q43.86 17.79 43.93 17.75Q44 17.7 44.06 17.64Q44.12 17.58 44.17 17.51Q44.22 17.44 44.25 17.36Q44.28 17.28 44.3 17.2Q44.32 17.12 44.32 17.03L44.32 9.98Q44.32 9.9 44.3 9.82Q44.28 9.73 44.25 9.65Q44.22 9.58 44.17 9.51Q44.12 9.44 44.06 9.38Q44 9.31 43.93 9.27Q43.86 9.22 43.78 9.19Q43.71 9.16 43.62 9.14Q43.54 9.12 43.46 9.12L36.41 9.12Q36.32 9.12 36.24 9.14Q36.16 9.16 36.08 9.19Q36 9.22 35.93 9.27Q35.86 9.31 35.8 9.38Q35.74 9.44 35.69 9.51Q35.65 9.58 35.61 9.65Q35.58 9.73 35.56 9.82Q35.55 9.9 35.55 9.98Q35.55 10.07 35.56 10.15Q35.58 10.23 35.61 10.31Q35.65 10.39 35.69 10.46Q35.74 10.53 35.8 10.59Q35.86 10.65 35.93 10.7Q36 10.75 36.08 10.78Q36.16 10.81 36.24 10.83Q36.32 10.84 36.41 10.84L42.59 10.84L42.59 17.03Q42.59 17.12 42.61 17.2Q42.63 17.28 42.66 17.36Q42.69 17.44 42.74 17.51ZM42.69 10.84L42.69 17.03C42.69 17.23 42.77 17.43 42.92 17.57C43.06 17.71 43.25 17.79 43.46 17.79C43.66 17.79 43.85 17.71 43.99 17.57C44.14 17.43 44.22 17.23 44.22 17.03L44.22 9.98C44.22 9.78 44.14 9.59 43.99 9.45C43.85 9.3 43.66 9.22 43.46 9.22L36.41 9.22C36.21 9.22 36.01 9.3 35.87 9.45C35.73 9.59 35.65 9.78 35.65 9.98C35.65 10.19 35.73 10.38 35.87 10.52C36.01 10.66 36.21 10.74 36.41 10.74L42.69 10.74L42.69 10.84Z" fill="#CB8734" fill-opacity="1.000000" fill-rule="evenodd"/>
	<path id="Vector" d="M9.98 44.22C9.83 44.22 9.69 44.17 9.56 44.09C9.44 44 9.34 43.89 9.28 43.75C9.22 43.61 9.21 43.46 9.24 43.31C9.27 43.16 9.34 43.02 9.45 42.92L22.84 29.53C22.98 29.39 23.17 29.31 23.37 29.32C23.57 29.32 23.76 29.4 23.9 29.54C24.04 29.68 24.12 29.87 24.12 30.07C24.13 30.27 24.05 30.46 23.91 30.61L10.52 43.99C10.38 44.14 10.19 44.22 9.98 44.22Z" fill="#CB8734" fill-opacity="1.000000" fill-rule="nonzero"/>
	<path id="Vector" d="M9.32 44Q9.4 44.1 9.51 44.17Q9.61 44.24 9.73 44.28Q9.85 44.32 9.98 44.32Q10.07 44.32 10.15 44.3Q10.23 44.28 10.31 44.25Q10.39 44.22 10.46 44.17Q10.53 44.12 10.59 44.06L23.98 30.67Q24.04 30.61 24.09 30.54Q24.13 30.47 24.16 30.4Q24.19 30.32 24.21 30.24Q24.23 30.15 24.22 30.07Q24.22 29.98 24.21 29.9Q24.19 29.82 24.16 29.74Q24.12 29.67 24.08 29.6Q24.03 29.53 23.97 29.47Q23.91 29.41 23.84 29.36Q23.77 29.32 23.7 29.28Q23.62 29.25 23.54 29.23Q23.46 29.22 23.37 29.22Q23.29 29.22 23.21 29.23Q23.12 29.25 23.04 29.28Q22.98 29.3 22.92 29.34Q22.83 29.39 22.76 29.46L9.38 42.85Q9.28 42.94 9.22 43.05Q9.17 43.16 9.14 43.29Q9.12 43.42 9.13 43.54Q9.14 43.66 9.19 43.79Q9.24 43.91 9.32 44ZM9.98 44.22C9.83 44.22 9.69 44.17 9.56 44.09C9.44 44 9.34 43.89 9.28 43.75C9.22 43.61 9.21 43.46 9.24 43.31C9.27 43.16 9.34 43.02 9.45 42.92L22.84 29.53C22.98 29.39 23.17 29.31 23.37 29.32C23.57 29.32 23.76 29.4 23.9 29.54C24.04 29.68 24.12 29.87 24.12 30.07C24.13 30.27 24.05 30.46 23.91 30.61L10.52 43.99C10.38 44.14 10.19 44.22 9.98 44.22Z" fill="#CB8734" fill-opacity="1.000000" fill-rule="evenodd"/>
	<path id="Vector" d="M17.03 44.22L9.98 44.22C9.78 44.22 9.59 44.14 9.45 43.99C9.3 43.85 9.22 43.66 9.22 43.46L9.22 36.41C9.22 36.31 9.24 36.21 9.28 36.12C9.32 36.03 9.38 35.94 9.45 35.87C9.52 35.8 9.6 35.74 9.69 35.71C9.79 35.67 9.88 35.65 9.98 35.65C10.08 35.65 10.18 35.67 10.28 35.71C10.37 35.74 10.45 35.8 10.52 35.87C10.59 35.94 10.65 36.03 10.69 36.12C10.73 36.21 10.75 36.31 10.75 36.41L10.75 42.7L17.03 42.7C17.23 42.7 17.43 42.78 17.57 42.92C17.71 43.06 17.79 43.25 17.79 43.46C17.79 43.66 17.71 43.85 17.57 43.99C17.43 44.14 17.23 44.22 17.03 44.22Z" fill="#CB8734" fill-opacity="1.000000" fill-rule="nonzero"/>
	<path id="Vector" d="M9.82 44.3Q9.9 44.32 9.98 44.32L17.03 44.32Q17.12 44.32 17.2 44.3Q17.28 44.28 17.36 44.25Q17.44 44.22 17.51 44.17Q17.58 44.13 17.64 44.06Q17.7 44 17.75 43.93Q17.79 43.86 17.83 43.79Q17.86 43.71 17.88 43.62Q17.89 43.54 17.89 43.46Q17.89 43.37 17.88 43.29Q17.86 43.21 17.83 43.13Q17.79 43.05 17.75 42.98Q17.7 42.91 17.64 42.85Q17.58 42.79 17.51 42.74Q17.44 42.69 17.36 42.66Q17.28 42.63 17.2 42.61Q17.12 42.6 17.03 42.6L10.85 42.6L10.85 36.41Q10.85 36.32 10.83 36.24Q10.81 36.16 10.78 36.08Q10.75 36 10.7 35.93Q10.65 35.86 10.59 35.8Q10.53 35.74 10.46 35.69Q10.39 35.65 10.31 35.61Q10.23 35.58 10.15 35.57Q10.07 35.55 9.98 35.55Q9.9 35.55 9.82 35.57Q9.73 35.58 9.66 35.61Q9.58 35.65 9.51 35.69Q9.44 35.74 9.38 35.8Q9.32 35.86 9.27 35.93Q9.22 36 9.19 36.08Q9.16 36.16 9.14 36.24Q9.12 36.32 9.12 36.41L9.12 43.46Q9.12 43.54 9.14 43.62Q9.16 43.71 9.19 43.79Q9.22 43.86 9.27 43.93Q9.32 44 9.38 44.06Q9.44 44.13 9.51 44.17Q9.58 44.22 9.66 44.25Q9.73 44.28 9.82 44.3ZM10.85 42.7L10.75 42.7L10.75 36.41C10.75 36.31 10.73 36.21 10.69 36.12C10.65 36.03 10.59 35.94 10.52 35.87C10.45 35.8 10.37 35.74 10.28 35.71C10.18 35.67 10.08 35.65 9.98 35.65C9.88 35.65 9.79 35.67 9.69 35.71C9.6 35.74 9.52 35.8 9.45 35.87C9.38 35.94 9.32 36.03 9.28 36.12C9.24 36.21 9.22 36.31 9.22 36.41L9.22 43.46C9.22 43.66 9.3 43.85 9.45 43.99C9.59 44.14 9.78 44.22 9.98 44.22L17.03 44.22C17.23 44.22 17.43 44.14 17.57 43.99C17.71 43.85 17.79 43.66 17.79 43.46C17.79 43.25 17.71 43.06 17.57 42.92C17.43 42.78 17.23 42.7 17.03 42.7L10.85 42.7Z" fill="#CB8734" fill-opacity="1.000000" fill-rule="evenodd"/>
</svg>
