<svg width="150.969223" height="101.920410" viewBox="0 0 150.969 101.92" fill="none" xmlns="http://www.w3.org/2000/svg" xmlns:xlink="http://www.w3.org/1999/xlink">
	<desc>
			Created with Pixso.
	</desc>
	<defs/>
	<g opacity="0.100000">
		<path id="02" d="M39.9 101.92C52.4 101.92 62.16 97.3 69.16 88.06Q79.8 74.06 79.8 50.96C79.8 35.56 76.25 23.24 69.16 14Q64.81 8.21 59.06 4.81Q50.9 0 39.9 0C27.39 0 17.59 4.66 10.5 14Q3.81e-6 27.86 3.81e-6 50.96Q3.81e-6 74.06 10.5 88.06Q14.85 93.73 20.57 97.08Q28.82 101.92 39.9 101.92ZM84.32 83.72L84.32 99.96L150.96 99.96L150.96 78.4L118.06 78.4L134.3 62.02Q149.28 47.04 149.56 31.8Q149.56 31.51 149.56 31.22C149.56 21.7 146.3 14.14 139.76 8.54Q136.12 5.32 131.9 3.31Q124.93 0 116.38 0C109.29 0 102.76 1.82 96.78 5.46Q94.3 6.97 92.16 8.87Q86.58 13.83 83.34 21.42L102.24 32.48C105.32 25.38 110.13 21.84 116.66 21.84C119.93 21.84 122.5 22.82 124.36 24.78C126.23 26.64 127.16 29.12 127.16 32.2C127.16 36.96 123.85 42.74 117.22 49.56L84.32 83.72ZM39.9 80.08C28.23 80.08 22.4 70.37 22.4 50.96C22.4 31.54 28.23 21.84 39.9 21.84C51.56 21.84 57.4 31.54 57.4 50.96C57.4 70.37 51.56 80.08 39.9 80.08Z" fill="#CB8734" fill-opacity="1.000000" fill-rule="evenodd"/>
	</g>
</svg>
