<svg width="127.869217" height="101.919922" viewBox="0 0 127.869 101.92" fill="none" xmlns="http://www.w3.org/2000/svg" xmlns:xlink="http://www.w3.org/1999/xlink">
	<desc>
			Created with Pixso.
	</desc>
	<defs/>
	<g opacity="0.100000">
		<path id="01" d="M39.9 101.92C52.4 101.92 62.16 97.3 69.16 88.06Q79.8 74.06 79.8 50.96Q79.8 27.86 69.16 14Q64.81 8.21 59.06 4.81Q50.9 -1.53e-5 39.9 -1.53e-5C27.39 -1.53e-5 17.59 4.66 10.5 14Q3.81e-6 27.86 3.81e-6 50.96C3.81e-6 66.36 3.5 78.72 10.5 88.06Q14.85 93.73 20.57 97.08Q28.82 101.92 39.9 101.92ZM127.86 1.95L108.26 1.95L82.64 11.2L88.1 30.38L105.46 25.62L105.46 99.96L127.86 99.96L127.86 1.95ZM39.9 80.08C28.23 80.08 22.4 70.37 22.4 50.96C22.4 31.54 28.23 21.84 39.9 21.84C51.56 21.84 57.4 31.54 57.4 50.96C57.4 70.37 51.56 80.08 39.9 80.08Z" fill="#CB8734" fill-opacity="1.000000" fill-rule="evenodd"/>
	</g>
</svg>
