<svg width="163.783615" height="101.920410" viewBox="0 0 163.784 101.92" fill="none" xmlns="http://www.w3.org/2000/svg" xmlns:xlink="http://www.w3.org/1999/xlink">
	<desc>
			Created with Pixso.
	</desc>
	<defs/>
	<g opacity="0.100000">
		<path id="04" d="M39.9 101.92C52.4 101.92 62.16 97.3 69.16 88.06Q79.8 74.06 79.8 50.96C79.8 35.56 76.25 23.24 69.16 14Q64.81 8.21 59.06 4.81Q50.9 0 39.9 0C27.39 0 17.59 4.66 10.5 14Q3.81e-6 27.86 3.81e-6 50.96Q3.81e-6 74.06 10.5 88.06Q14.85 93.73 20.57 97.08Q28.82 101.92 39.9 101.92ZM163.78 84.28L163.78 63.56L153.98 63.56L153.98 42.56L131.3 42.56L131.3 63.56L110.86 63.56L142.08 1.96L118 1.96L86.78 63.56L86.78 84.28L131.3 84.28L131.3 99.96L153.98 99.96L153.98 84.28L163.78 84.28ZM39.9 80.08C28.23 80.08 22.4 70.37 22.4 50.96C22.4 31.54 28.23 21.84 39.9 21.84C51.56 21.84 57.4 31.54 57.4 50.96C57.4 70.37 51.56 80.08 39.9 80.08Z" fill="#CB8734" fill-opacity="1.000000" fill-rule="evenodd"/>
	</g>
</svg>
