<svg width="152.545319" height="101.920410" viewBox="0 0 152.545 101.92" fill="none" xmlns="http://www.w3.org/2000/svg" xmlns:xlink="http://www.w3.org/1999/xlink">
	<desc>
			Created with Pixso.
	</desc>
	<defs/>
	<g opacity="0.100000">
		<path id="03" d="M39.9 101.92C52.4 101.92 62.16 97.3 69.16 88.06Q79.8 74.06 79.8 50.96C79.8 35.56 76.25 23.24 69.16 14Q64.81 8.21 59.06 4.81Q50.9 0 39.9 0C27.39 0 17.59 4.66 10.5 14Q3.81e-6 27.86 3.81e-6 50.96Q3.81e-6 74.06 10.5 88.06Q14.85 93.73 20.57 97.08Q28.82 101.92 39.9 101.92ZM146.8 52.22C142.97 47.36 137.93 43.86 131.68 41.72L148.62 20.16L148.62 1.96L85.62 1.96L85.62 22.96L121.46 22.96L103.68 45.5L112.22 58.24L116.84 58.24C121.23 58.24 124.54 59.26 126.78 61.32Q128.24 62.65 129.06 64.3Q130.14 66.46 130.14 69.16Q130.14 71.85 129.06 74.01Q128.24 75.66 126.78 77C124.54 79.05 121.23 80.08 116.84 80.08C109.28 80.08 104.29 76.62 101.86 69.72L82.54 80.92C85.43 87.82 89.91 93.05 95.98 96.6Q97.7 97.58 99.5 98.39Q107.38 101.92 116.84 101.92C126.83 101.92 135.27 99.02 142.18 93.24C149.09 87.45 152.54 79.42 152.54 69.16C152.54 62.62 150.63 56.98 146.8 52.22ZM39.9 80.08C28.23 80.08 22.4 70.37 22.4 50.96C22.4 31.54 28.23 21.84 39.9 21.84C51.56 21.84 57.4 31.54 57.4 50.96C57.4 70.37 51.56 80.08 39.9 80.08Z" fill="#CB8734" fill-opacity="1.000000" fill-rule="evenodd"/>
	</g>
</svg>
