<svg width="50.000122" height="49.206543" viewBox="0 0 50.0001 49.2065" fill="none" xmlns="http://www.w3.org/2000/svg" xmlns:xlink="http://www.w3.org/1999/xlink">
	<desc>
			Created with Pixso.
	</desc>
	<defs/>
	<path id="Vector" d="M17.74 35.25C17.67 35.23 17.6 35.22 17.53 35.21C18.6 34.11 19.25 32.61 19.25 30.97L19.25 25.91C19.25 25.87 19.25 25.82 19.24 25.78C19.25 25.68 19.25 25.59 19.25 25.5L19.25 22.3C19.25 21.77 18.82 21.34 18.28 21.34L11.73 21.34C8.97 21.34 6.73 23.55 6.73 26.26L6.73 30.97C6.73 32.61 7.38 34.11 8.45 35.21C8.38 35.22 8.31 35.23 8.24 35.25C3.62 35.66 0 39.49 0 44.13L0 48.24C0 48.77 0.43 49.2 0.97 49.2L25.01 49.2C25.55 49.2 25.98 48.77 25.98 48.24L25.98 44.13C25.98 39.49 22.36 35.66 17.74 35.25ZM8.68 27.48L8.68 26.26C8.68 24.61 10.05 23.26 11.73 23.26L17.3 23.26L17.3 25.5C17.3 26.63 16.37 27.54 15.22 27.54L8.68 27.54L8.68 27.48ZM8.68 29.47L15.22 29.47C15.98 29.47 16.69 29.26 17.3 28.9L17.3 30.97C17.3 33.31 15.37 35.21 12.99 35.21C10.61 35.21 8.68 33.31 8.68 30.97L8.68 29.47ZM15.12 37.13L12.99 39.22L10.86 37.13L15.12 37.13ZM24.03 47.28L1.95 47.28L1.95 45.36L6 45.36C6.54 45.36 6.98 44.93 6.98 44.4C6.98 43.87 6.54 43.43 6 43.43L1.98 43.43C2.31 40.19 4.89 37.6 8.16 37.19L12.3 41.26C12.48 41.44 12.73 41.54 12.99 41.54C13.25 41.54 13.5 41.44 13.68 41.26L17.82 37.19C21.32 37.63 24.03 40.57 24.03 44.13L24.03 47.28Z" fill="#CB8734" fill-opacity="1.000000" fill-rule="nonzero"/>
	<path id="Vector" d="M17.89 35.26C22.43 35.74 25.98 39.54 25.98 44.13L25.98 48.24C25.98 48.77 25.55 49.2 25.01 49.2L0.97 49.2C0.43 49.2 0 48.77 0 48.24L0 44.13C0 39.54 3.55 35.74 8.09 35.26C8.14 35.26 8.19 35.25 8.24 35.25C8.31 35.23 8.38 35.22 8.45 35.21C8.37 35.13 8.29 35.04 8.21 34.95C7.28 33.87 6.73 32.48 6.73 30.97L6.73 26.26C6.73 23.55 8.97 21.34 11.73 21.34L18.28 21.34C18.82 21.34 19.25 21.77 19.25 22.3L19.25 25.5C19.25 25.59 19.25 25.68 19.24 25.78C19.25 25.82 19.25 25.87 19.25 25.91L19.25 30.97C19.25 32.48 18.69 33.87 17.77 34.95C17.69 35.04 17.61 35.13 17.53 35.21C17.6 35.22 17.67 35.23 17.74 35.25C17.79 35.25 17.84 35.26 17.89 35.26ZM18.11 33.98Q17.77 34.53 17.31 35L16.85 35.48L17.51 35.51Q17.59 35.52 17.66 35.54L17.69 35.54L17.71 35.55Q18.59 35.62 19.41 35.87Q20.15 36.08 20.84 36.43Q21.58 36.79 22.22 37.27Q22.84 37.74 23.37 38.31Q24.01 38.99 24.48 39.78Q24.82 40.34 25.07 40.96Q25.35 41.67 25.51 42.4Q25.68 43.25 25.68 44.13L25.68 48.24Q25.68 48.37 25.64 48.48Q25.59 48.61 25.49 48.71Q25.39 48.8 25.28 48.85Q25.15 48.9 25.01 48.9L0.97 48.9Q0.83 48.9 0.7 48.85Q0.59 48.8 0.49 48.71Q0.39 48.61 0.34 48.48Q0.3 48.37 0.3 48.24L0.3 44.13Q0.3 43.25 0.47 42.4Q0.62 41.67 0.91 40.96Q1.16 40.34 1.5 39.78Q1.96 38.99 2.61 38.31Q3.14 37.74 3.76 37.27Q4.4 36.79 5.14 36.43Q5.83 36.08 6.57 35.87Q7.39 35.62 8.26 35.55L8.29 35.54L8.32 35.54Q8.39 35.52 8.47 35.51L9.13 35.48L8.67 35Q8.21 34.53 7.87 33.98Q7.64 33.59 7.47 33.18Q7.26 32.68 7.15 32.16Q7.03 31.58 7.03 30.97L7.03 26.26Q7.03 25.77 7.13 25.3Q7.22 24.87 7.39 24.47Q7.54 24.12 7.75 23.8Q8.03 23.37 8.4 23Q8.73 22.68 9.1 22.43Q9.47 22.18 9.9 22Q10.28 21.84 10.68 21.75Q11.19 21.64 11.73 21.64L18.28 21.64Q18.42 21.64 18.55 21.69Q18.66 21.74 18.76 21.83Q18.86 21.94 18.91 22.06Q18.95 22.17 18.95 22.3L18.95 25.5Q18.95 25.61 18.94 25.75L18.94 25.79L18.95 25.82Q18.95 25.87 18.95 25.91L18.95 30.97Q18.95 31.57 18.83 32.16Q18.72 32.68 18.51 33.18Q18.34 33.59 18.11 33.98ZM8.45 25.58Q8.38 25.91 8.38 26.26L8.38 27.84L15.22 27.84Q15.49 27.84 15.74 27.79Q15.95 27.74 16.15 27.66Q16.36 27.57 16.55 27.44Q16.74 27.32 16.9 27.16Q17.09 26.97 17.23 26.76Q17.33 26.6 17.41 26.41Q17.5 26.2 17.55 25.99Q17.6 25.75 17.6 25.5L17.6 22.96L11.73 22.96Q11.35 22.96 10.99 23.04Q10.7 23.11 10.43 23.22Q10.13 23.35 9.86 23.52Q9.59 23.7 9.36 23.93Q9.1 24.19 8.9 24.49Q8.75 24.72 8.64 24.98Q8.52 25.27 8.45 25.58ZM8.68 27.24L8.68 26.26C8.68 24.61 10.05 23.26 11.73 23.26L17 23.26L17.3 23.26L17.3 25.5C17.3 26.63 16.37 27.54 15.22 27.54L8.68 27.54L8.68 27.24ZM16.27 29.02Q15.77 29.16 15.22 29.16L8.38 29.16L8.38 30.97Q8.38 31.45 8.48 31.91Q8.57 32.33 8.74 32.74Q8.89 33.09 9.1 33.4Q9.37 33.82 9.73 34.18Q10.05 34.49 10.42 34.74Q10.78 34.98 11.2 35.15Q11.58 35.31 11.98 35.4Q12.47 35.51 12.99 35.51Q13.51 35.51 14 35.4Q14.4 35.31 14.78 35.15Q15.2 34.98 15.56 34.74Q15.93 34.49 16.25 34.18Q16.61 33.82 16.88 33.4Q17.09 33.09 17.24 32.74Q17.41 32.33 17.5 31.91Q17.6 31.45 17.6 30.97L17.6 28.37L17.15 28.64Q16.73 28.89 16.27 29.02ZM8.98 29.47L15.22 29.47C15.86 29.47 16.46 29.32 17 29.06C17.1 29.01 17.2 28.95 17.3 28.9L17.3 30.97C17.3 33.31 15.37 35.21 12.99 35.21C10.61 35.21 8.68 33.31 8.68 30.97L8.68 29.47L8.98 29.47ZM10.13 36.83L12.78 39.44L12.99 39.65L15.85 36.83L10.13 36.83ZM1.65 45.06L1.65 47.58L24.33 47.58L24.33 44.13Q24.33 43.4 24.19 42.7Q24.06 42.09 23.83 41.5Q23.63 40.99 23.35 40.52Q22.98 39.86 22.46 39.29Q22.03 38.82 21.54 38.43Q21.01 38.01 20.4 37.69Q19.83 37.39 19.21 37.19Q18.55 36.98 17.86 36.89L17.71 36.88L13.47 41.05Q13.37 41.14 13.26 41.19Q13.14 41.25 12.99 41.25Q12.84 41.25 12.72 41.19Q12.6 41.14 12.51 41.05L8.27 36.88L8.12 36.89Q7.47 36.98 6.84 37.17Q6.27 37.35 5.73 37.61Q5.17 37.89 4.66 38.26Q4.18 38.61 3.76 39.04Q3.25 39.55 2.86 40.14Q2.58 40.56 2.36 41.02Q2.08 41.6 1.91 42.22Q1.75 42.8 1.69 43.4L1.65 43.73L6 43.73Q6.15 43.73 6.27 43.79Q6.39 43.84 6.48 43.93Q6.58 44.03 6.63 44.15Q6.68 44.27 6.68 44.4Q6.68 44.53 6.63 44.64Q6.58 44.76 6.48 44.86Q6.39 44.96 6.27 45Q6.15 45.06 6 45.06L1.65 45.06ZM12.99 39.22L11.17 37.43L10.86 37.13L15.12 37.13L14.81 37.43L12.99 39.22ZM2.25 47.28L1.95 47.28L1.95 45.36L2.25 45.36L6 45.36C6.54 45.36 6.98 44.93 6.98 44.4C6.98 43.87 6.54 43.43 6 43.43L1.98 43.43C1.99 43.33 2.01 43.23 2.02 43.14C2.47 40.04 5 37.59 8.16 37.19L12.3 41.26C12.48 41.44 12.73 41.54 12.99 41.54C13.25 41.54 13.5 41.44 13.68 41.26L17.82 37.19C21.32 37.63 24.03 40.57 24.03 44.13L24.03 47.28L2.25 47.28Z" fill="#FFFFFF" fill-opacity="1.000000" fill-rule="evenodd"/>
	<path id="Vector" d="M41.75 13.9C41.68 13.88 41.61 13.87 41.54 13.87C42.61 12.76 43.26 11.27 43.26 9.62L43.26 4.57C43.26 4.52 43.26 4.48 43.25 4.43C43.26 4.34 43.26 4.25 43.26 4.16L43.26 0.96C43.26 0.43 42.83 0 42.29 0L35.74 0C32.98 0 30.74 2.2 30.74 4.92L30.74 9.62C30.74 11.27 31.39 12.76 32.46 13.87C32.39 13.87 32.32 13.88 32.25 13.9C27.63 14.31 24.01 18.14 24.01 22.79L24.01 26.9C24.01 27.43 24.44 27.86 24.98 27.86L32.84 27.86C33.38 27.86 33.82 27.43 33.82 26.9C33.82 26.36 33.38 25.93 32.84 25.93L25.96 25.93L25.96 22.79C25.96 19.23 28.67 16.28 32.17 15.85L36.31 19.92C36.5 20.11 36.75 20.2 37 20.2C37.25 20.2 37.5 20.11 37.69 19.92L41.83 15.85C45.33 16.28 48.04 19.23 48.04 22.79L48.04 25.93L40.85 25.93C40.31 25.93 39.87 26.36 39.87 26.9C39.87 27.43 40.31 27.86 40.85 27.86L49.02 27.86C49.56 27.86 49.99 27.43 49.99 26.9L49.99 22.79C49.99 18.14 46.37 14.31 41.75 13.9ZM37 17.88L34.88 15.79L39.13 15.79L37 17.88ZM41.31 9.62C41.31 11.96 39.38 13.87 37 13.87C34.62 13.87 32.69 11.96 32.69 9.62L32.69 8.12L39.24 8.12C39.99 8.12 40.71 7.91 41.31 7.55L41.31 9.62ZM41.31 4.16C41.31 5.28 40.38 6.2 39.24 6.2L32.69 6.2L32.69 6.14L32.69 4.92C32.69 3.26 34.06 1.92 35.74 1.92L41.31 1.92L41.31 4.16Z" fill="#CB8734" fill-opacity="1.000000" fill-rule="nonzero"/>
	<path id="Vector" d="M41.9 13.92C46.44 14.4 49.99 18.19 49.99 22.79L49.99 26.9C49.99 27.43 49.56 27.86 49.02 27.86L40.85 27.86C40.31 27.86 39.87 27.43 39.87 26.9C39.87 26.36 40.31 25.93 40.85 25.93L48.04 25.93L48.04 22.79C48.04 19.23 45.33 16.28 41.83 15.85L37.69 19.92C37.5 20.11 37.25 20.2 37 20.2C36.75 20.2 36.5 20.11 36.31 19.92L32.17 15.85C28.67 16.28 25.96 19.23 25.96 22.79L25.96 25.93L32.84 25.93C33.38 25.93 33.82 26.36 33.82 26.9C33.82 27.43 33.38 27.86 32.84 27.86L24.98 27.86C24.44 27.86 24.01 27.43 24.01 26.9L24.01 22.79C24.01 18.19 27.56 14.4 32.1 13.92C32.15 13.91 32.2 13.91 32.25 13.9C32.32 13.88 32.39 13.87 32.46 13.87C32.38 13.78 32.3 13.69 32.22 13.6C31.3 12.53 30.74 11.14 30.74 9.62L30.74 4.92C30.74 2.2 32.98 0 35.74 0L42.29 0C42.83 0 43.26 0.43 43.26 0.96L43.26 4.16C43.26 4.25 43.26 4.34 43.25 4.43C43.26 4.48 43.26 4.52 43.26 4.57L43.26 9.62C43.26 11.14 42.71 12.53 41.78 13.6C41.7 13.69 41.62 13.78 41.54 13.87C41.61 13.87 41.68 13.88 41.75 13.9C41.8 13.91 41.85 13.91 41.9 13.92ZM42.12 12.63Q41.78 13.18 41.32 13.66L40.86 14.13L41.52 14.17Q41.6 14.17 41.67 14.19L41.7 14.2L41.73 14.2Q42.6 14.28 43.42 14.52Q44.16 14.74 44.85 15.08Q45.59 15.44 46.23 15.93Q46.85 16.39 47.38 16.96Q48.03 17.65 48.49 18.44Q48.83 19 49.08 19.61Q49.37 20.32 49.52 21.06Q49.7 21.91 49.7 22.79L49.7 26.9Q49.7 27.03 49.65 27.14Q49.6 27.26 49.5 27.36Q49.4 27.46 49.29 27.5Q49.16 27.56 49.02 27.56L40.85 27.56Q40.7 27.56 40.58 27.5Q40.46 27.46 40.37 27.36Q40.27 27.26 40.22 27.14Q40.17 27.03 40.17 26.9Q40.17 26.76 40.22 26.65Q40.27 26.53 40.37 26.43Q40.46 26.34 40.58 26.29Q40.7 26.23 40.85 26.23L48.34 26.23L48.34 22.79Q48.34 22.06 48.2 21.35Q48.07 20.74 47.84 20.15Q47.64 19.64 47.37 19.17Q46.99 18.52 46.47 17.95Q46.04 17.47 45.55 17.08Q45.02 16.67 44.42 16.35Q43.84 16.04 43.22 15.85Q42.56 15.64 41.87 15.55L41.72 15.53L37.48 19.7Q37.39 19.8 37.27 19.85Q37.15 19.9 37 19.9Q36.85 19.9 36.73 19.85Q36.62 19.8 36.52 19.7L32.28 15.53L32.13 15.55Q31.44 15.64 30.78 15.85Q30.16 16.04 29.59 16.35Q28.98 16.67 28.45 17.08Q27.96 17.47 27.53 17.95Q27.01 18.52 26.64 19.17Q26.36 19.64 26.16 20.15Q25.93 20.74 25.8 21.35Q25.66 22.06 25.66 22.79L25.66 26.23L32.84 26.23Q32.99 26.23 33.11 26.29Q33.22 26.34 33.32 26.43Q33.42 26.53 33.47 26.65Q33.52 26.76 33.52 26.9Q33.52 27.03 33.47 27.14Q33.42 27.26 33.32 27.36Q33.22 27.46 33.11 27.5Q32.99 27.56 32.84 27.56L24.98 27.56Q24.84 27.56 24.71 27.5Q24.6 27.46 24.5 27.36Q24.4 27.26 24.35 27.14Q24.31 27.03 24.31 26.9L24.31 22.79Q24.31 21.91 24.48 21.06Q24.64 20.32 24.92 19.61Q25.17 19 25.51 18.44Q25.98 17.65 26.62 16.96Q27.15 16.39 27.77 15.93Q28.41 15.44 29.15 15.08Q29.84 14.74 30.58 14.52Q31.4 14.28 32.28 14.2L32.3 14.2L32.33 14.19Q32.4 14.17 32.48 14.17L33.14 14.13L32.68 13.66Q32.22 13.18 31.88 12.63Q31.65 12.25 31.48 11.83Q31.27 11.33 31.16 10.81Q31.04 10.23 31.04 9.62L31.04 4.92Q31.04 4.42 31.14 3.95Q31.23 3.53 31.41 3.12Q31.56 2.77 31.76 2.46Q32.04 2.02 32.41 1.65Q32.74 1.33 33.11 1.08Q33.49 0.84 33.91 0.66Q34.29 0.5 34.69 0.41Q35.2 0.29 35.74 0.29L42.29 0.29Q42.43 0.29 42.56 0.35Q42.67 0.4 42.77 0.49Q42.87 0.59 42.92 0.71Q42.96 0.83 42.96 0.96L42.96 4.16Q42.96 4.27 42.95 4.41L42.95 4.44L42.96 4.47Q42.96 4.53 42.96 4.57L42.96 9.62Q42.96 10.23 42.84 10.81Q42.73 11.33 42.52 11.83Q42.35 12.25 42.12 12.63ZM32.39 6.5L39.24 6.5Q39.5 6.5 39.75 6.44Q39.96 6.4 40.16 6.31Q40.37 6.23 40.56 6.1Q40.75 5.97 40.91 5.81Q41.1 5.63 41.24 5.42Q41.35 5.25 41.42 5.07Q41.51 4.86 41.56 4.64Q41.61 4.4 41.61 4.16L41.61 1.62L35.74 1.62Q35.36 1.62 35 1.7Q34.72 1.76 34.44 1.88Q34.14 2 33.87 2.18Q33.6 2.36 33.37 2.58Q33.11 2.84 32.91 3.15Q32.76 3.38 32.65 3.63Q32.53 3.93 32.46 4.23Q32.39 4.57 32.39 4.92L32.39 6.5ZM41.31 2.22L41.31 4.16C41.31 5.28 40.38 6.2 39.24 6.2L32.69 6.2L32.69 4.92C32.69 3.26 34.06 1.92 35.74 1.92L41.31 1.92L41.31 2.22ZM35.99 14.06Q36.48 14.17 37 14.17Q37.52 14.17 38.01 14.06Q38.41 13.97 38.79 13.81Q39.21 13.64 39.57 13.39Q39.94 13.15 40.26 12.84Q40.62 12.48 40.89 12.06Q41.1 11.74 41.25 11.39Q41.42 10.99 41.51 10.57Q41.61 10.11 41.61 9.62L41.61 7.02L41.16 7.29Q40.74 7.54 40.28 7.68Q39.78 7.82 39.24 7.82L32.39 7.82L32.39 9.62Q32.39 10.11 32.49 10.57Q32.58 10.99 32.75 11.39Q32.9 11.74 33.11 12.06Q33.38 12.48 33.74 12.84Q34.06 13.15 34.43 13.39Q34.79 13.64 35.21 13.81Q35.59 13.97 35.99 14.06ZM41.31 7.9L41.31 9.62C41.31 11.96 39.38 13.87 37 13.87C34.62 13.87 32.69 11.96 32.69 9.62L32.69 8.12L39.24 8.12C39.87 8.12 40.48 7.97 41.01 7.71C41.11 7.66 41.21 7.61 41.31 7.55L41.31 7.9ZM39.86 15.49L34.14 15.49L37 18.3L39.86 15.49ZM35.18 16.09L37 17.88L38.82 16.09L39.13 15.79L34.88 15.79L35.18 16.09Z" fill="#FFFFFF" fill-opacity="1.000000" fill-rule="evenodd"/>
	<path id="Vector" d="M37.69 26.22C37.51 26.04 37.26 25.93 37 25.93C36.74 25.93 36.49 26.04 36.31 26.22C36.13 26.39 36.02 26.64 36.02 26.89C36.02 27.15 36.13 27.4 36.31 27.57C36.49 27.75 36.74 27.86 37 27.86C37.26 27.86 37.51 27.75 37.69 27.57C37.87 27.4 37.98 27.15 37.98 26.89C37.98 26.64 37.87 26.39 37.69 26.22Z" fill="#CB8734" fill-opacity="1.000000" fill-rule="nonzero"/>
	<path id="Vector" d="M37.69 26.22C37.51 26.04 37.26 25.93 37 25.93C36.74 25.93 36.49 26.04 36.31 26.22C36.13 26.39 36.02 26.64 36.02 26.89C36.02 27.15 36.13 27.4 36.31 27.57C36.49 27.75 36.74 27.86 37 27.86C37.26 27.86 37.51 27.75 37.69 27.57C37.87 27.4 37.98 27.15 37.98 26.89C37.98 26.64 37.87 26.39 37.69 26.22ZM36.89 26.24Q36.95 26.23 37 26.23Q37.05 26.23 37.1 26.24Q37.18 26.25 37.26 26.29Q37.35 26.32 37.42 26.38Q37.45 26.4 37.48 26.43Q37.52 26.47 37.55 26.51Q37.6 26.57 37.63 26.64Q37.66 26.73 37.67 26.81Q37.68 26.85 37.68 26.89Q37.68 26.94 37.67 26.99Q37.66 27.07 37.63 27.15Q37.6 27.21 37.56 27.27Q37.53 27.32 37.48 27.36Q37.45 27.39 37.42 27.41Q37.35 27.47 37.26 27.5Q37.19 27.54 37.11 27.55Q37.06 27.56 37 27.56Q36.94 27.56 36.88 27.55Q36.81 27.53 36.74 27.5Q36.67 27.47 36.6 27.43Q36.56 27.4 36.52 27.36Q36.42 27.26 36.37 27.14Q36.32 27.03 36.32 26.89Q36.32 26.85 36.33 26.8Q36.34 26.72 36.38 26.64Q36.4 26.58 36.45 26.52Q36.48 26.47 36.52 26.43Q36.55 26.4 36.59 26.37Q36.66 26.32 36.74 26.29Q36.82 26.25 36.89 26.24Z" fill="#FFFFFF" fill-opacity="1.000000" fill-rule="evenodd"/>
	<path id="Vector" d="M26.11 13.44L22.02 9.42L22.02 4.8C22.02 2.15 19.83 0 17.14 0L4.88 0C2.19 0 0 2.15 0 4.8L0 13.26C0 15.91 2.19 18.06 4.88 18.06L17.14 18.06C19.16 18.06 20.92 16.87 21.66 15.08L25.42 15.08C25.81 15.08 26.17 14.85 26.32 14.49C26.47 14.13 26.39 13.72 26.11 13.44ZM20.95 13.16C20.49 13.16 20.1 13.47 20 13.91C19.69 15.22 18.51 16.14 17.14 16.14L4.88 16.14C3.26 16.14 1.95 14.85 1.95 13.26L1.95 4.8C1.95 3.21 3.26 1.92 4.88 1.92L17.14 1.92C18.76 1.92 20.07 3.21 20.07 4.8L20.07 9.82C20.07 10.08 20.17 10.32 20.36 10.5L23.06 13.16L20.95 13.16Z" fill="#CB8734" fill-opacity="1.000000" fill-rule="nonzero"/>
	<path id="Vector" d="M22.02 9.42L22.02 4.8C22.02 2.15 19.83 0 17.14 0L4.88 0C2.19 0 0 2.15 0 4.8L0 13.26C0 15.91 2.19 18.06 4.88 18.06L17.14 18.06C19.16 18.06 20.92 16.87 21.66 15.08L25.42 15.08C25.81 15.08 26.17 14.85 26.32 14.49C26.47 14.13 26.39 13.72 26.11 13.44L22.02 9.42ZM21.72 4.8L21.72 9.55L25.9 13.66Q25.97 13.73 26.02 13.82Q26.06 13.9 26.08 13.99Q26.1 14.09 26.09 14.18Q26.08 14.28 26.04 14.37Q26.01 14.46 25.95 14.53Q25.89 14.61 25.8 14.67Q25.71 14.73 25.62 14.75Q25.53 14.78 25.42 14.78L21.46 14.78L21.38 14.97Q21.25 15.28 21.08 15.57Q20.91 15.85 20.7 16.11Q20.51 16.34 20.3 16.54Q20.03 16.79 19.71 16.99Q19.47 17.16 19.21 17.29Q18.87 17.45 18.51 17.56Q18.28 17.63 18.05 17.67Q17.61 17.76 17.14 17.76L4.88 17.76Q4.35 17.76 3.86 17.65Q3.47 17.56 3.09 17.41Q2.68 17.24 2.32 16.99Q1.95 16.75 1.64 16.44Q1.27 16.08 1 15.66Q0.8 15.35 0.65 15.01Q0.48 14.61 0.4 14.2Q0.3 13.74 0.3 13.26L0.3 4.8Q0.3 4.32 0.4 3.86Q0.48 3.45 0.65 3.05Q0.8 2.71 1 2.4Q1.27 1.98 1.64 1.62Q1.95 1.31 2.32 1.06Q2.68 0.82 3.09 0.65Q3.47 0.49 3.86 0.41Q4.35 0.29 4.88 0.29L17.14 0.29Q17.67 0.29 18.16 0.41Q18.55 0.49 18.93 0.65Q19.34 0.82 19.7 1.06Q20.07 1.31 20.38 1.62Q20.75 1.98 21.02 2.4Q21.22 2.71 21.36 3.05Q21.53 3.45 21.62 3.86Q21.72 4.32 21.72 4.8ZM20.09 14.56Q20.22 14.28 20.29 13.98Q20.31 13.87 20.37 13.78Q20.43 13.68 20.52 13.61Q20.61 13.54 20.71 13.5Q20.82 13.46 20.95 13.46L23.79 13.46L20.57 10.29Q20.47 10.19 20.42 10.07Q20.37 9.95 20.37 9.82L20.37 4.8Q20.37 4.46 20.3 4.14Q20.24 3.84 20.12 3.56Q20.01 3.31 19.87 3.09Q19.68 2.8 19.42 2.55Q19.2 2.33 18.94 2.16Q18.69 1.99 18.4 1.87Q18.13 1.76 17.85 1.69Q17.5 1.62 17.14 1.62L4.88 1.62Q4.52 1.62 4.17 1.69Q3.89 1.76 3.62 1.87Q3.33 1.99 3.08 2.16Q2.82 2.33 2.6 2.55Q2.34 2.8 2.15 3.09Q2.01 3.31 1.9 3.56Q1.78 3.84 1.72 4.14Q1.65 4.46 1.65 4.8L1.65 13.26Q1.65 13.6 1.72 13.92Q1.78 14.22 1.9 14.5Q2.01 14.74 2.15 14.97Q2.34 15.26 2.6 15.51Q2.82 15.73 3.08 15.9Q3.33 16.07 3.62 16.19Q3.89 16.3 4.17 16.36Q4.52 16.44 4.88 16.44L17.14 16.44Q17.49 16.44 17.82 16.37Q18.02 16.33 18.22 16.26Q18.5 16.16 18.75 16.02Q18.96 15.9 19.15 15.75Q19.38 15.57 19.57 15.36Q19.73 15.18 19.87 14.97Q20 14.77 20.09 14.56ZM20.95 13.16C20.49 13.16 20.1 13.47 20 13.91C19.69 15.22 18.51 16.14 17.14 16.14L4.88 16.14C3.26 16.14 1.95 14.85 1.95 13.26L1.95 4.8C1.95 3.21 3.26 1.92 4.88 1.92L17.14 1.92C18.76 1.92 20.07 3.21 20.07 4.8L20.07 9.82C20.07 10.08 20.17 10.32 20.36 10.5L22.76 12.86L23.06 13.16L20.95 13.16Z" fill="#FFFFFF" fill-opacity="1.000000" fill-rule="evenodd"/>
	<path id="Vector" d="M45.11 31.13L32.85 31.13C30.83 31.13 29.07 32.33 28.33 34.11L24.57 34.11C24.18 34.11 23.82 34.35 23.67 34.71C23.52 35.06 23.6 35.48 23.88 35.75L27.97 39.77L27.97 44.4C27.97 47.05 30.16 49.2 32.85 49.2L45.11 49.2C47.8 49.2 50 47.05 50 44.4L50 35.94C50 33.29 47.8 31.13 45.11 31.13ZM48.04 44.4C48.04 45.99 46.73 47.28 45.11 47.28L32.85 47.28C31.23 47.28 29.92 45.99 29.92 44.4L29.92 39.37C29.92 39.12 29.82 38.87 29.63 38.69L26.93 36.03L29.04 36.03C29.5 36.03 29.89 35.73 29.99 35.29C30.3 33.97 31.48 33.06 32.85 33.06L45.11 33.06C46.73 33.06 48.04 34.35 48.04 35.94L48.04 44.4Z" fill="#CB8734" fill-opacity="1.000000" fill-rule="nonzero"/>
	<path id="Vector" d="M27.97 39.77L27.97 44.4C27.97 47.05 30.16 49.2 32.85 49.2L45.11 49.2C47.8 49.2 50 47.05 50 44.4L50 35.94C50 33.29 47.8 31.13 45.11 31.13L32.85 31.13C30.83 31.13 29.07 32.33 28.33 34.11L24.57 34.11C24.18 34.11 23.82 34.35 23.67 34.71C23.52 35.06 23.6 35.48 23.88 35.75L27.97 39.77ZM31.94 31.52Q32.38 31.43 32.85 31.43L45.11 31.43Q45.64 31.43 46.13 31.55Q46.52 31.63 46.9 31.79Q47.31 31.96 47.67 32.2Q48.04 32.44 48.35 32.76Q48.72 33.12 48.99 33.54Q49.19 33.85 49.34 34.19Q49.51 34.58 49.6 35Q49.7 35.46 49.7 35.94L49.7 44.4Q49.7 44.88 49.6 45.34Q49.51 45.75 49.34 46.15Q49.19 46.49 48.99 46.79Q48.72 47.22 48.35 47.58Q48.04 47.89 47.67 48.13Q47.31 48.37 46.9 48.55Q46.52 48.7 46.13 48.79Q45.64 48.9 45.11 48.9L32.85 48.9Q32.32 48.9 31.83 48.79Q31.44 48.7 31.06 48.55Q30.65 48.37 30.29 48.13Q29.92 47.89 29.61 47.58Q29.24 47.22 28.97 46.79Q28.77 46.49 28.63 46.15Q28.46 45.75 28.37 45.34Q28.27 44.88 28.27 44.4L28.27 39.65L24.09 35.54Q24.02 35.46 23.97 35.37Q23.93 35.29 23.91 35.2Q23.89 35.1 23.9 35.01Q23.91 34.92 23.95 34.82Q23.98 34.74 24.04 34.67Q24.1 34.59 24.19 34.53Q24.28 34.47 24.37 34.44Q24.46 34.41 24.57 34.41L28.53 34.41L28.61 34.23Q28.74 33.91 28.91 33.63Q29.08 33.34 29.29 33.08Q29.48 32.86 29.69 32.66Q29.96 32.41 30.28 32.2Q30.52 32.04 30.78 31.91Q31.12 31.75 31.48 31.63Q31.71 31.57 31.94 31.52ZM32.85 47.58L45.11 47.58Q45.47 47.58 45.82 47.5Q46.1 47.44 46.37 47.33Q46.66 47.21 46.91 47.04Q47.17 46.87 47.39 46.65Q47.65 46.4 47.84 46.11Q47.98 45.88 48.09 45.64Q48.21 45.35 48.27 45.06Q48.34 44.73 48.34 44.4L48.34 35.94Q48.34 35.6 48.27 35.28Q48.21 34.98 48.09 34.7Q47.98 34.45 47.84 34.23Q47.65 33.94 47.39 33.69Q47.17 33.47 46.91 33.3Q46.66 33.13 46.37 33.01Q46.1 32.89 45.82 32.83Q45.47 32.76 45.11 32.76L32.85 32.76Q32.5 32.76 32.17 32.82Q31.97 32.87 31.77 32.94Q31.49 33.03 31.24 33.17Q31.03 33.29 30.84 33.44Q30.61 33.62 30.42 33.83Q30.26 34.02 30.12 34.22Q29.99 34.42 29.9 34.64Q29.77 34.92 29.7 35.22Q29.68 35.33 29.62 35.41Q29.56 35.51 29.47 35.59Q29.38 35.66 29.28 35.7Q29.17 35.73 29.04 35.73L26.2 35.73L29.42 38.91Q29.52 39.01 29.57 39.13Q29.62 39.24 29.62 39.37L29.62 44.4Q29.62 44.73 29.69 45.06Q29.75 45.35 29.87 45.64Q29.98 45.88 30.12 46.11Q30.31 46.4 30.57 46.65Q30.79 46.87 31.05 47.04Q31.3 47.21 31.59 47.33Q31.86 47.44 32.14 47.5Q32.49 47.58 32.85 47.58ZM48.04 44.4C48.04 45.99 46.73 47.28 45.11 47.28L32.85 47.28C31.23 47.28 29.92 45.99 29.92 44.4L29.92 39.37C29.92 39.12 29.82 38.87 29.63 38.69L27.23 36.33L26.93 36.03L29.04 36.03C29.5 36.03 29.89 35.73 29.99 35.29C30.3 33.97 31.48 33.06 32.85 33.06L45.11 33.06C46.73 33.06 48.04 34.35 48.04 35.94L48.04 44.4Z" fill="#FFFFFF" fill-opacity="1.000000" fill-rule="evenodd"/>
	<path id="Vector" d="M43.37 37.61C42.99 37.24 42.37 37.24 41.99 37.61L39.39 40.17L38.19 38.98C37.8 38.6 37.19 38.6 36.8 38.98C36.42 39.35 36.42 39.96 36.8 40.34L38.7 42.2C38.89 42.39 39.14 42.49 39.39 42.49C39.64 42.49 39.89 42.39 40.08 42.2L43.37 38.97C43.75 38.59 43.75 37.99 43.37 37.61Z" fill="#CB8734" fill-opacity="1.000000" fill-rule="nonzero"/>
	<path id="Vector" d="M39.39 40.17L38.19 38.98C37.8 38.6 37.19 38.6 36.8 38.98C36.42 39.35 36.42 39.96 36.8 40.34L38.7 42.2C38.89 42.39 39.14 42.49 39.39 42.49C39.64 42.49 39.89 42.39 40.08 42.2L43.37 38.97C43.75 38.59 43.75 37.99 43.37 37.61C42.99 37.24 42.37 37.24 41.99 37.61L39.39 40.17ZM39.39 40.59L42.2 37.82Q42.29 37.73 42.41 37.68Q42.53 37.63 42.68 37.63Q42.83 37.63 42.95 37.68Q43.06 37.73 43.16 37.82Q43.26 37.92 43.31 38.05Q43.36 38.16 43.36 38.29Q43.36 38.42 43.31 38.53Q43.26 38.66 43.16 38.76L39.87 41.99Q39.78 42.08 39.66 42.13Q39.54 42.19 39.39 42.19Q39.25 42.19 39.12 42.13Q39.01 42.08 38.91 41.99L37.01 40.12Q36.91 40.02 36.86 39.9Q36.82 39.79 36.82 39.66Q36.82 39.53 36.86 39.41Q36.91 39.29 37.01 39.19Q37.11 39.1 37.22 39.05Q37.35 39 37.49 39Q37.64 39 37.77 39.05Q37.88 39.1 37.98 39.19L39.39 40.59Z" fill="#FFFFFF" fill-opacity="1.000000" fill-rule="evenodd"/>
	<path id="Vector" d="M15.45 6.36C15.33 4.72 13.98 3.39 12.31 3.27C11.36 3.21 10.46 3.52 9.76 4.16C9.08 4.79 8.69 5.68 8.69 6.6C8.69 7.13 9.12 7.56 9.66 7.56C10.2 7.56 10.64 7.13 10.64 6.6C10.64 6.2 10.8 5.84 11.09 5.57C11.39 5.3 11.77 5.16 12.18 5.19C12.88 5.24 13.45 5.8 13.5 6.5C13.55 7.2 13.08 7.82 12.39 7.97C11.63 8.14 11.1 8.79 11.1 9.56L11.1 10.07C11.1 10.6 11.53 11.03 12.07 11.03C12.61 11.03 13.05 10.6 13.05 10.07L13.05 9.79C14.56 9.35 15.56 7.94 15.45 6.36Z" fill="#CB8734" fill-opacity="1.000000" fill-rule="nonzero"/>
	<path id="Vector" d="M13.05 9.79C14.56 9.35 15.56 7.94 15.45 6.36C15.33 4.72 13.98 3.39 12.31 3.27C11.36 3.21 10.46 3.52 9.76 4.16C9.08 4.79 8.69 5.68 8.69 6.6C8.69 7.13 9.12 7.56 9.66 7.56C10.2 7.56 10.64 7.13 10.64 6.6C10.64 6.2 10.8 5.84 11.09 5.57C11.39 5.3 11.77 5.16 12.18 5.19C12.88 5.24 13.45 5.8 13.5 6.5C13.55 7.2 13.08 7.82 12.39 7.97C11.63 8.14 11.1 8.79 11.1 9.56L11.1 10.07C11.1 10.6 11.53 11.03 12.07 11.03C12.61 11.03 13.05 10.6 13.05 10.07L13.05 9.79ZM12.29 3.57L12.29 3.57Q12.58 3.59 12.86 3.67Q13.12 3.73 13.37 3.85Q13.61 3.96 13.83 4.11Q14.06 4.26 14.25 4.46Q14.49 4.69 14.66 4.95Q14.78 5.13 14.87 5.33Q15 5.59 15.07 5.87Q15.13 6.12 15.15 6.38Q15.17 6.72 15.13 7.04Q15.1 7.23 15.05 7.42Q14.98 7.66 14.88 7.87Q14.77 8.11 14.61 8.33Q14.48 8.52 14.32 8.68Q14.13 8.88 13.9 9.04Q13.75 9.16 13.58 9.25Q13.29 9.41 12.96 9.5L12.75 9.56L12.75 10.07Q12.75 10.2 12.7 10.31Q12.65 10.43 12.55 10.53Q12.46 10.63 12.34 10.68Q12.22 10.73 12.07 10.73Q11.93 10.73 11.8 10.68Q11.69 10.63 11.59 10.53Q11.49 10.43 11.44 10.31Q11.4 10.2 11.4 10.07L11.4 9.56Q11.4 9.32 11.47 9.11Q11.55 8.91 11.69 8.73Q11.82 8.57 11.98 8.47Q12.19 8.33 12.45 8.27Q12.64 8.22 12.82 8.14Q12.92 8.09 13.02 8.03Q13.16 7.94 13.27 7.83Q13.38 7.74 13.46 7.62Q13.56 7.5 13.62 7.36Q13.69 7.23 13.73 7.09Q13.77 6.97 13.79 6.84Q13.81 6.66 13.8 6.47Q13.79 6.32 13.75 6.18Q13.71 6.03 13.64 5.88Q13.59 5.76 13.52 5.65Q13.42 5.51 13.3 5.39Q13.19 5.28 13.06 5.19Q12.94 5.11 12.8 5.04Q12.66 4.98 12.51 4.94Q12.36 4.9 12.2 4.89Q11.97 4.88 11.75 4.92Q11.62 4.94 11.5 4.98Q11.35 5.04 11.21 5.11Q11.04 5.21 10.89 5.35Q10.72 5.5 10.6 5.69Q10.53 5.8 10.48 5.91Q10.42 6.05 10.39 6.19Q10.34 6.39 10.34 6.6Q10.34 6.73 10.29 6.84Q10.24 6.96 10.14 7.06Q10.05 7.16 9.93 7.21Q9.81 7.26 9.66 7.26Q9.52 7.26 9.39 7.21Q9.28 7.16 9.18 7.06Q9.08 6.96 9.03 6.84Q8.99 6.73 8.99 6.6Q8.99 6.32 9.03 6.06Q9.1 5.72 9.24 5.39Q9.37 5.1 9.56 4.84Q9.73 4.59 9.96 4.38Q10.24 4.13 10.57 3.95Q10.79 3.82 11.04 3.74Q11.24 3.67 11.44 3.63Q11.86 3.54 12.29 3.57Z" fill="#FFFFFF" fill-opacity="1.000000" fill-rule="evenodd"/>
	<path id="Vector" d="M12.76 13.07C12.58 12.89 12.33 12.79 12.07 12.79C11.81 12.79 11.56 12.89 11.38 13.07C11.2 13.25 11.1 13.49 11.1 13.75C11.1 14 11.2 14.25 11.38 14.43C11.56 14.6 11.81 14.71 12.07 14.71C12.33 14.71 12.58 14.6 12.76 14.43C12.94 14.25 13.05 14 13.05 13.75C13.05 13.49 12.94 13.25 12.76 13.07Z" fill="#CB8734" fill-opacity="1.000000" fill-rule="nonzero"/>
	<path id="Vector" d="M12.76 13.07C12.58 12.89 12.33 12.79 12.07 12.79C11.81 12.79 11.56 12.89 11.38 13.07C11.2 13.25 11.1 13.49 11.1 13.75C11.1 14 11.2 14.25 11.38 14.43C11.56 14.6 11.81 14.71 12.07 14.71C12.33 14.71 12.58 14.6 12.76 14.43C12.94 14.25 13.05 14 13.05 13.75C13.05 13.49 12.94 13.25 12.76 13.07ZM11.97 13.09Q12.02 13.09 12.07 13.09Q12.12 13.09 12.17 13.09Q12.25 13.1 12.33 13.14Q12.42 13.17 12.49 13.23Q12.52 13.25 12.55 13.28Q12.59 13.32 12.62 13.36Q12.67 13.42 12.7 13.5Q12.73 13.58 12.74 13.66Q12.75 13.7 12.75 13.75Q12.75 13.79 12.74 13.83Q12.73 13.92 12.7 14Q12.67 14.07 12.62 14.13Q12.59 14.17 12.55 14.21Q12.52 14.24 12.49 14.26Q12.42 14.32 12.33 14.36Q12.25 14.39 12.17 14.4Q12.12 14.41 12.07 14.41Q12.02 14.41 11.97 14.4Q11.89 14.39 11.81 14.36Q11.73 14.32 11.67 14.28Q11.63 14.25 11.59 14.21Q11.55 14.17 11.52 14.13Q11.48 14.07 11.45 14Q11.41 13.92 11.4 13.84Q11.4 13.79 11.4 13.75Q11.4 13.7 11.4 13.65Q11.41 13.57 11.45 13.5Q11.48 13.43 11.52 13.37Q11.55 13.32 11.59 13.28Q11.62 13.25 11.66 13.22Q11.73 13.17 11.81 13.14Q11.89 13.11 11.97 13.09Z" fill="#FFFFFF" fill-opacity="1.000000" fill-rule="evenodd"/>
	<path id="Vector" d="M10.6 43.72C10.42 43.54 10.16 43.43 9.91 43.43C9.65 43.43 9.4 43.54 9.22 43.72C9.04 43.9 8.93 44.14 8.93 44.4C8.93 44.65 9.04 44.9 9.22 45.08C9.4 45.25 9.65 45.36 9.91 45.36C10.16 45.36 10.42 45.25 10.6 45.08C10.78 44.9 10.88 44.65 10.88 44.4C10.88 44.14 10.78 43.9 10.6 43.72Z" fill="#CB8734" fill-opacity="1.000000" fill-rule="nonzero"/>
	<path id="Vector" d="M10.6 43.72C10.42 43.54 10.16 43.43 9.91 43.43C9.65 43.43 9.4 43.54 9.22 43.72C9.04 43.9 8.93 44.14 8.93 44.4C8.93 44.65 9.04 44.9 9.22 45.08C9.4 45.25 9.65 45.36 9.91 45.36C10.16 45.36 10.42 45.25 10.6 45.08C10.78 44.9 10.88 44.65 10.88 44.4C10.88 44.14 10.78 43.9 10.6 43.72ZM9.81 43.74Q9.86 43.73 9.91 43.73Q9.96 43.73 10 43.74Q10.09 43.75 10.17 43.79Q10.26 43.82 10.33 43.88Q10.36 43.9 10.39 43.93Q10.43 43.97 10.46 44.01Q10.5 44.07 10.53 44.14Q10.57 44.23 10.58 44.31Q10.58 44.35 10.58 44.4Q10.58 44.44 10.58 44.48Q10.57 44.56 10.53 44.65Q10.5 44.72 10.46 44.78Q10.43 44.82 10.39 44.86Q10.36 44.89 10.33 44.91Q10.26 44.97 10.17 45.01Q10.09 45.04 10 45.05Q9.96 45.06 9.91 45.06Q9.86 45.06 9.81 45.05Q9.73 45.04 9.65 45.01Q9.56 44.97 9.49 44.91Q9.46 44.89 9.43 44.86Q9.39 44.82 9.36 44.78Q9.31 44.72 9.28 44.65Q9.25 44.56 9.24 44.48Q9.23 44.44 9.23 44.4Q9.23 44.35 9.24 44.31Q9.25 44.23 9.28 44.14Q9.31 44.07 9.36 44.01Q9.39 43.97 9.43 43.93Q9.46 43.9 9.49 43.88Q9.56 43.82 9.65 43.79Q9.73 43.75 9.81 43.74Z" fill="#FFFFFF" fill-opacity="1.000000" fill-rule="evenodd"/>
</svg>
