<svg width="24.199951" height="24.199982" viewBox="0 0 24.2 24.2" fill="none" xmlns="http://www.w3.org/2000/svg" xmlns:xlink="http://www.w3.org/1999/xlink">
	<desc>
			Created with Pixso.
	</desc>
	<defs/>
	<path id="Vector" d="M23.75 14.3C23.66 14.3 23.57 14.27 23.51 14.2C23.45 14.14 23.41 14.05 23.41 13.96L23.41 12.94C23.41 12.85 23.45 12.76 23.51 12.7C23.57 12.64 23.66 12.6 23.75 12.6C23.84 12.6 23.93 12.64 23.99 12.7C24.06 12.76 24.09 12.85 24.09 12.94L24.09 13.96C24.09 14.05 24.06 14.14 23.99 14.2C23.93 14.27 23.84 14.3 23.75 14.3Z" fill="#2B2A28" fill-opacity="1.000000" fill-rule="nonzero"/>
	<path id="Vector" d="M23.34 14.13Q23.37 14.21 23.44 14.27Q23.5 14.34 23.58 14.37Q23.66 14.4 23.75 14.4Q23.84 14.4 23.92 14.37Q24 14.34 24.07 14.27Q24.13 14.21 24.16 14.13Q24.19 14.05 24.19 13.96L24.19 12.94Q24.19 12.85 24.16 12.77Q24.13 12.69 24.07 12.63Q24 12.56 23.92 12.53Q23.84 12.5 23.75 12.5Q23.66 12.5 23.58 12.53Q23.5 12.56 23.44 12.63Q23.37 12.69 23.34 12.77Q23.31 12.85 23.31 12.94L23.31 13.96Q23.31 14.05 23.34 14.13ZM23.75 14.3C23.66 14.3 23.57 14.27 23.51 14.2C23.45 14.14 23.41 14.05 23.41 13.96L23.41 12.94C23.41 12.85 23.45 12.76 23.51 12.7C23.57 12.64 23.66 12.6 23.75 12.6C23.84 12.6 23.93 12.64 23.99 12.7C24.06 12.76 24.09 12.85 24.09 12.94L24.09 13.96C24.09 14.05 24.06 14.14 23.99 14.2C23.93 14.27 23.84 14.3 23.75 14.3Z" fill="#2B2A28" fill-opacity="1.000000" fill-rule="evenodd"/>
	<path id="Vector" d="M22.72 24.1L1.47 24.1C1.1 24.1 0.75 23.95 0.5 23.69C0.24 23.44 0.09 23.09 0.09 22.72L0.09 1.47C0.09 1.1 0.24 0.75 0.5 0.5C0.75 0.24 1.1 0.1 1.47 0.1L22.72 0.1C23.09 0.1 23.44 0.24 23.69 0.5C23.95 0.75 24.1 1.1 24.1 1.47L24.1 7.14C24.1 7.24 24.06 7.32 23.99 7.39C23.93 7.45 23.84 7.49 23.75 7.49C23.66 7.49 23.57 7.45 23.51 7.39C23.45 7.32 23.41 7.24 23.41 7.14L23.41 1.47C23.41 1.28 23.34 1.11 23.21 0.98C23.08 0.85 22.91 0.78 22.72 0.78L1.47 0.78C1.28 0.78 1.11 0.85 0.98 0.98C0.85 1.11 0.78 1.28 0.78 1.47L0.78 22.72C0.78 22.91 0.85 23.08 0.98 23.21C1.11 23.34 1.28 23.41 1.47 23.41L22.72 23.41C22.91 23.41 23.08 23.34 23.21 23.21C23.34 23.08 23.41 22.91 23.41 22.72L23.41 16.36C23.41 16.27 23.45 16.18 23.51 16.12C23.57 16.05 23.66 16.02 23.75 16.02C23.84 16.02 23.93 16.05 23.99 16.12C24.06 16.18 24.1 16.27 24.1 16.36L24.1 22.72C24.1 23.09 23.95 23.44 23.69 23.69C23.44 23.95 23.09 24.1 22.72 24.1Z" fill="#2B2A28" fill-opacity="1.000000" fill-rule="nonzero"/>
	<path id="Vector" d="M1.18 24.17Q1.32 24.2 1.47 24.2L22.72 24.2Q22.87 24.2 23.01 24.17Q23.15 24.14 23.29 24.08Q23.42 24.03 23.54 23.95Q23.66 23.87 23.76 23.76Q23.87 23.66 23.95 23.54Q24.03 23.42 24.08 23.29Q24.14 23.15 24.17 23.01Q24.2 22.87 24.2 22.72L24.2 16.36Q24.2 16.27 24.16 16.19Q24.13 16.11 24.07 16.05Q24 15.98 23.92 15.95Q23.84 15.92 23.75 15.92Q23.66 15.92 23.58 15.95Q23.5 15.98 23.44 16.05Q23.37 16.11 23.34 16.19Q23.31 16.27 23.31 16.36L23.31 22.72Q23.31 22.84 23.27 22.95Q23.22 23.05 23.14 23.14Q23.05 23.22 22.95 23.27Q22.84 23.31 22.72 23.31L1.47 23.31Q1.35 23.31 1.24 23.27Q1.14 23.22 1.05 23.14Q0.97 23.05 0.92 22.95Q0.88 22.84 0.88 22.72L0.88 1.47Q0.88 1.35 0.92 1.24Q0.97 1.14 1.05 1.05Q1.14 0.97 1.24 0.92Q1.35 0.88 1.47 0.88L22.72 0.88Q22.84 0.88 22.95 0.92Q23.05 0.97 23.14 1.05Q23.22 1.14 23.27 1.24Q23.31 1.35 23.31 1.47L23.31 7.14Q23.31 7.24 23.34 7.31Q23.37 7.39 23.44 7.46Q23.5 7.52 23.58 7.55Q23.66 7.59 23.75 7.59Q23.84 7.59 23.92 7.55Q24 7.52 24.07 7.46Q24.13 7.39 24.16 7.31Q24.2 7.24 24.2 7.14L24.2 1.47Q24.2 1.32 24.17 1.18Q24.14 1.04 24.08 0.9Q24.03 0.77 23.95 0.65Q23.87 0.53 23.76 0.43Q23.66 0.32 23.54 0.24Q23.42 0.16 23.29 0.11Q23.15 0.05 23.01 0.02Q22.87 0 22.72 0L1.47 0Q1.32 0 1.18 0.02Q1.04 0.05 0.9 0.11Q0.77 0.16 0.65 0.24Q0.53 0.32 0.43 0.43Q0.32 0.53 0.24 0.65Q0.16 0.77 0.11 0.9Q0.05 1.04 0.02 1.18Q0 1.32 0 1.47L0 22.72Q0 22.87 0.02 23.01Q0.05 23.15 0.11 23.29Q0.16 23.42 0.24 23.54Q0.32 23.66 0.43 23.76Q0.53 23.87 0.65 23.95Q0.77 24.03 0.9 24.08Q1.04 24.14 1.18 24.17ZM22.72 24.1L1.47 24.1C1.1 24.1 0.75 23.95 0.5 23.69C0.24 23.44 0.09 23.09 0.09 22.72L0.09 1.47C0.09 1.1 0.24 0.75 0.5 0.5C0.75 0.24 1.1 0.1 1.47 0.1L22.72 0.1C23.09 0.1 23.44 0.24 23.69 0.5C23.95 0.75 24.1 1.1 24.1 1.47L24.1 7.14C24.1 7.24 24.06 7.32 23.99 7.39C23.93 7.45 23.84 7.49 23.75 7.49C23.66 7.49 23.57 7.45 23.51 7.39C23.45 7.32 23.41 7.24 23.41 7.14L23.41 1.47C23.41 1.28 23.34 1.11 23.21 0.98C23.08 0.85 22.91 0.78 22.72 0.78L1.47 0.78C1.28 0.78 1.11 0.85 0.98 0.98C0.85 1.11 0.78 1.28 0.78 1.47L0.78 22.72C0.78 22.91 0.85 23.08 0.98 23.21C1.11 23.34 1.28 23.41 1.47 23.41L22.72 23.41C22.91 23.41 23.08 23.34 23.21 23.21C23.34 23.08 23.41 22.91 23.41 22.72L23.41 16.36C23.41 16.27 23.45 16.18 23.51 16.12C23.57 16.05 23.66 16.02 23.75 16.02C23.84 16.02 23.93 16.05 23.99 16.12C24.06 16.18 24.1 16.27 24.1 16.36L24.1 22.72C24.1 23.09 23.95 23.44 23.69 23.69C23.44 23.95 23.09 24.1 22.72 24.1Z" fill="#2B2A28" fill-opacity="1.000000" fill-rule="evenodd"/>
	<path id="Vector" d="M23.75 10.88C23.66 10.88 23.57 10.85 23.51 10.78C23.45 10.72 23.41 10.63 23.41 10.54L23.41 9.54C23.41 9.45 23.45 9.37 23.51 9.3C23.57 9.24 23.66 9.2 23.75 9.2C23.84 9.2 23.93 9.24 23.99 9.3C24.06 9.37 24.09 9.45 24.09 9.54L24.09 10.54C24.09 10.63 24.06 10.72 23.99 10.78C23.93 10.85 23.84 10.88 23.75 10.88Z" fill="#2B2A28" fill-opacity="1.000000" fill-rule="nonzero"/>
	<path id="Vector" d="M23.34 10.71Q23.37 10.79 23.44 10.86Q23.5 10.92 23.58 10.95Q23.66 10.98 23.75 10.98Q23.84 10.98 23.92 10.95Q24 10.92 24.07 10.86Q24.13 10.79 24.16 10.71Q24.19 10.63 24.19 10.54L24.19 9.54Q24.19 9.45 24.16 9.37Q24.13 9.3 24.07 9.23Q24 9.17 23.92 9.13Q23.84 9.1 23.75 9.1Q23.66 9.1 23.58 9.13Q23.5 9.17 23.44 9.23Q23.37 9.3 23.34 9.37Q23.31 9.45 23.31 9.54L23.31 10.54Q23.31 10.63 23.34 10.71ZM23.75 10.88C23.66 10.88 23.57 10.85 23.51 10.78C23.45 10.72 23.41 10.63 23.41 10.54L23.41 9.54C23.41 9.45 23.45 9.37 23.51 9.3C23.57 9.24 23.66 9.2 23.75 9.2C23.84 9.2 23.93 9.24 23.99 9.3C24.06 9.37 24.09 9.45 24.09 9.54L24.09 10.54C24.09 10.63 24.06 10.72 23.99 10.78C23.93 10.85 23.84 10.88 23.75 10.88Z" fill="#2B2A28" fill-opacity="1.000000" fill-rule="evenodd"/>
	<path id="Vector" d="M13.6 10.93C13.54 10.93 13.47 10.91 13.41 10.87C13.36 10.83 13.31 10.78 13.29 10.72C13.26 10.66 13.25 10.59 13.27 10.52C13.28 10.45 13.31 10.39 13.36 10.34L19.4 4.31C19.46 4.25 19.55 4.21 19.64 4.21C19.73 4.21 19.81 4.25 19.88 4.31C19.94 4.38 19.98 4.46 19.98 4.55C19.98 4.64 19.94 4.73 19.88 4.79L13.85 10.83C13.78 10.89 13.69 10.93 13.6 10.93Z" fill="#2B2A28" fill-opacity="1.000000" fill-rule="nonzero"/>
	<path id="Vector" d="M13.26 10.87Q13.3 10.92 13.36 10.95Q13.41 10.99 13.47 11.01Q13.54 11.03 13.6 11.03Q13.7 11.03 13.77 11Q13.85 10.96 13.92 10.9L19.95 4.86Q20.02 4.8 20.05 4.72Q20.08 4.64 20.08 4.55Q20.08 4.46 20.04 4.38Q20.01 4.31 19.95 4.24Q19.88 4.18 19.81 4.15Q19.73 4.11 19.64 4.11Q19.55 4.11 19.47 4.14Q19.39 4.17 19.32 4.24L13.29 10.27Q13.24 10.32 13.21 10.38Q13.18 10.43 13.17 10.5Q13.16 10.57 13.16 10.63Q13.17 10.69 13.19 10.76Q13.22 10.82 13.26 10.87ZM13.6 10.93C13.54 10.93 13.47 10.91 13.41 10.87C13.36 10.83 13.31 10.78 13.29 10.72C13.26 10.66 13.25 10.59 13.27 10.52C13.28 10.45 13.31 10.39 13.36 10.34L19.4 4.31C19.46 4.25 19.55 4.21 19.64 4.21C19.73 4.21 19.81 4.25 19.88 4.31C19.94 4.38 19.98 4.46 19.98 4.55C19.98 4.64 19.94 4.73 19.88 4.79L13.85 10.83C13.78 10.89 13.69 10.93 13.6 10.93Z" fill="#2B2A28" fill-opacity="1.000000" fill-rule="evenodd"/>
	<path id="Vector" d="M19.64 8.07C19.55 8.07 19.46 8.03 19.4 7.97C19.33 7.91 19.29 7.82 19.29 7.73L19.29 4.89L16.46 4.89C16.37 4.89 16.28 4.86 16.22 4.79C16.16 4.73 16.12 4.64 16.12 4.55C16.12 4.46 16.16 4.37 16.22 4.31C16.28 4.25 16.37 4.21 16.46 4.21L19.64 4.21C19.73 4.21 19.82 4.25 19.88 4.31C19.94 4.37 19.98 4.46 19.98 4.55L19.98 7.73C19.98 7.82 19.94 7.91 19.88 7.97C19.82 8.03 19.73 8.07 19.64 8.07L19.64 8.07Z" fill="#2B2A28" fill-opacity="1.000000" fill-rule="nonzero"/>
	<path id="Vector" d="M19.23 7.9Q19.26 7.98 19.32 8.04Q19.39 8.11 19.47 8.14Q19.55 8.17 19.64 8.17Q19.73 8.17 19.81 8.14Q19.89 8.11 19.95 8.04Q20.02 7.98 20.05 7.9Q20.08 7.82 20.08 7.73L20.08 4.55Q20.08 4.46 20.05 4.38Q20.02 4.3 19.95 4.24Q19.89 4.17 19.81 4.14Q19.73 4.11 19.64 4.11L16.46 4.11Q16.37 4.11 16.29 4.14Q16.21 4.17 16.15 4.24Q16.08 4.3 16.05 4.38Q16.02 4.46 16.02 4.55Q16.02 4.64 16.05 4.72Q16.08 4.8 16.15 4.87Q16.21 4.93 16.29 4.96Q16.37 5 16.46 5L19.2 5L19.2 7.73Q19.2 7.82 19.23 7.9ZM19.29 5L19.29 7.73C19.29 7.82 19.33 7.91 19.4 7.97C19.46 8.03 19.55 8.07 19.64 8.07C19.73 8.07 19.82 8.03 19.88 7.97C19.94 7.91 19.98 7.82 19.98 7.73L19.98 4.55C19.98 4.46 19.94 4.37 19.88 4.31C19.82 4.25 19.73 4.21 19.64 4.21L16.46 4.21C16.37 4.21 16.28 4.25 16.22 4.31C16.16 4.37 16.12 4.46 16.12 4.55C16.12 4.64 16.16 4.73 16.22 4.79C16.28 4.86 16.37 4.89 16.46 4.89L19.29 4.89L19.29 5Z" fill="#2B2A28" fill-opacity="1.000000" fill-rule="evenodd"/>
	<path id="Vector" d="M4.55 19.98C4.48 19.98 4.42 19.96 4.36 19.92C4.31 19.89 4.26 19.83 4.24 19.77C4.21 19.71 4.2 19.64 4.22 19.57C4.23 19.5 4.26 19.44 4.31 19.4L10.34 13.36C10.41 13.3 10.5 13.26 10.59 13.27C10.68 13.27 10.76 13.3 10.82 13.37C10.89 13.43 10.92 13.51 10.93 13.6C10.93 13.69 10.89 13.78 10.83 13.85L4.79 19.88C4.73 19.94 4.64 19.98 4.55 19.98L4.55 19.98Z" fill="#2B2A28" fill-opacity="1.000000" fill-rule="nonzero"/>
	<path id="Vector" d="M4.21 19.92Q4.25 19.97 4.31 20.01Q4.36 20.04 4.42 20.06Q4.48 20.08 4.55 20.08Q4.64 20.08 4.72 20.05Q4.8 20.02 4.87 19.95L10.9 13.92Q10.96 13.85 10.99 13.77Q11.03 13.69 11.03 13.6Q11.02 13.51 10.99 13.44Q10.96 13.36 10.9 13.29Q10.83 13.23 10.75 13.2Q10.68 13.17 10.59 13.17Q10.5 13.16 10.42 13.19Q10.34 13.22 10.27 13.29L4.24 19.32Q4.19 19.37 4.16 19.43Q4.13 19.49 4.12 19.55Q4.1 19.62 4.11 19.68Q4.12 19.75 4.14 19.81Q4.17 19.87 4.21 19.92ZM4.55 19.98C4.48 19.98 4.42 19.96 4.36 19.92C4.31 19.89 4.26 19.83 4.24 19.77C4.21 19.71 4.2 19.64 4.22 19.57C4.23 19.5 4.26 19.44 4.31 19.4L10.34 13.36C10.41 13.3 10.5 13.26 10.59 13.27C10.68 13.27 10.76 13.3 10.82 13.37C10.89 13.43 10.92 13.51 10.93 13.6C10.93 13.69 10.89 13.78 10.83 13.85L4.79 19.88C4.73 19.94 4.64 19.98 4.55 19.98Z" fill="#2B2A28" fill-opacity="1.000000" fill-rule="evenodd"/>
	<path id="Vector" d="M7.73 19.98L4.55 19.98C4.46 19.98 4.37 19.94 4.31 19.88C4.25 19.82 4.21 19.73 4.21 19.64L4.21 16.46C4.21 16.42 4.22 16.37 4.24 16.33C4.25 16.29 4.28 16.25 4.31 16.22C4.34 16.19 4.38 16.16 4.42 16.15C4.46 16.13 4.51 16.12 4.55 16.12C4.6 16.12 4.64 16.13 4.68 16.15C4.72 16.16 4.76 16.19 4.79 16.22C4.83 16.25 4.85 16.29 4.87 16.33C4.89 16.37 4.89 16.42 4.89 16.46L4.89 19.29L7.73 19.29C7.82 19.29 7.91 19.33 7.97 19.4C8.03 19.46 8.07 19.55 8.07 19.64C8.07 19.73 8.03 19.82 7.97 19.88C7.91 19.94 7.82 19.98 7.73 19.98L7.73 19.98Z" fill="#2B2A28" fill-opacity="1.000000" fill-rule="nonzero"/>
	<path id="Vector" d="M4.38 20.05Q4.46 20.08 4.55 20.08L7.73 20.08Q7.82 20.08 7.9 20.05Q7.98 20.02 8.04 19.95Q8.11 19.89 8.14 19.81Q8.17 19.73 8.17 19.64Q8.17 19.55 8.14 19.47Q8.11 19.39 8.04 19.32Q7.98 19.26 7.9 19.23Q7.82 19.2 7.73 19.2L4.99 19.2L4.99 16.46Q4.99 16.42 4.99 16.38Q4.98 16.33 4.96 16.29Q4.94 16.25 4.92 16.22Q4.9 16.18 4.87 16.15Q4.83 16.12 4.8 16.09Q4.76 16.07 4.72 16.05Q4.68 16.04 4.64 16.03Q4.6 16.02 4.55 16.02Q4.51 16.02 4.47 16.03Q4.42 16.04 4.38 16.05Q4.34 16.07 4.31 16.09Q4.27 16.12 4.24 16.15Q4.21 16.18 4.18 16.22Q4.16 16.25 4.14 16.29Q4.13 16.33 4.12 16.38Q4.11 16.42 4.11 16.46L4.11 19.64Q4.11 19.73 4.14 19.81Q4.17 19.89 4.24 19.95Q4.3 20.02 4.38 20.05ZM4.99 19.29L4.89 19.29L4.89 16.46C4.89 16.42 4.89 16.37 4.87 16.33C4.85 16.29 4.83 16.25 4.79 16.22C4.76 16.19 4.72 16.16 4.68 16.15C4.64 16.13 4.6 16.12 4.55 16.12C4.51 16.12 4.46 16.13 4.42 16.15C4.38 16.16 4.34 16.19 4.31 16.22C4.28 16.25 4.25 16.29 4.24 16.33C4.22 16.37 4.21 16.42 4.21 16.46L4.21 19.64C4.21 19.73 4.25 19.82 4.31 19.88C4.37 19.94 4.46 19.98 4.55 19.98L7.73 19.98C7.82 19.98 7.91 19.94 7.97 19.88C8.03 19.82 8.07 19.73 8.07 19.64C8.07 19.55 8.03 19.46 7.97 19.4C7.91 19.33 7.82 19.29 7.73 19.29L4.99 19.29Z" fill="#2B2A28" fill-opacity="1.000000" fill-rule="evenodd"/>
</svg>
