<svg width="62.000000" height="62.000000" viewBox="0 0 62 62" fill="none" xmlns="http://www.w3.org/2000/svg" xmlns:xlink="http://www.w3.org/1999/xlink">
	<desc>
			Created with Pixso.
	</desc>
	<defs/>
	<path id="Vector" d="M41.89 38.62C41.22 38.62 40.68 39.17 40.68 39.83L40.68 48.19C40.68 51.53 37.97 54.25 34.63 54.25L21.55 54.25C20.88 54.25 20.34 54.79 20.34 55.46L20.34 57.86L17.45 54.97C17.26 54.54 16.84 54.25 16.34 54.25L8.47 54.25C5.13 54.25 2.42 51.53 2.42 48.19L2.42 29.54C2.42 26.2 5.13 23.49 8.47 23.49L20.7 23.49C21.37 23.49 21.91 22.95 21.91 22.28C21.91 21.61 21.37 21.07 20.7 21.07L8.47 21.07C3.8 21.07 0 24.87 0 29.54L0 48.19C0 52.86 3.8 56.67 8.47 56.67L15.72 56.67L20.69 61.64C20.92 61.87 21.23 62 21.55 62C21.71 62 21.86 61.96 22.01 61.9C22.46 61.72 22.76 61.27 22.76 60.78L22.76 56.67L34.63 56.67C39.3 56.67 43.1 52.86 43.1 48.19L43.1 39.83C43.1 39.17 42.56 38.62 41.89 38.62Z" fill="#CB8734" fill-opacity="1.000000" fill-rule="nonzero"/>
	<path id="Vector" d="M22.76 56.67L34.63 56.67C39.3 56.67 43.1 52.86 43.1 48.19L43.1 39.83C43.1 39.17 42.56 38.62 41.89 38.62C41.22 38.62 40.68 39.17 40.68 39.83L40.68 48.19C40.68 51.53 37.97 54.25 34.63 54.25L21.55 54.25C20.88 54.25 20.34 54.79 20.34 55.46L20.34 57.58L20.34 57.86L20.14 57.66L17.45 54.97C17.26 54.54 16.84 54.25 16.34 54.25L8.47 54.25C5.13 54.25 2.42 51.53 2.42 48.19L2.42 29.54C2.42 26.2 5.13 23.49 8.47 23.49L20.7 23.49C21.37 23.49 21.91 22.95 21.91 22.28C21.91 21.61 21.37 21.07 20.7 21.07L8.47 21.07C3.8 21.07 0 24.87 0 29.54L0 48.19C0 52.86 3.8 56.67 8.47 56.67L15.72 56.67L20.69 61.64C20.92 61.87 21.23 62 21.55 62C21.71 62 21.86 61.96 22.01 61.9C22.46 61.72 22.76 61.27 22.76 60.78L22.76 56.67L22.76 56.67ZM40.88 48.19L40.88 39.83Q40.88 39.72 40.91 39.61Q40.93 39.52 40.96 39.44Q41 39.36 41.05 39.28Q41.1 39.2 41.18 39.12Q41.25 39.04 41.34 38.99Q41.42 38.94 41.5 38.9Q41.58 38.87 41.67 38.85Q41.78 38.82 41.89 38.82Q42.01 38.82 42.12 38.85Q42.21 38.87 42.29 38.9Q42.37 38.94 42.45 38.99Q42.53 39.04 42.61 39.12Q42.68 39.2 42.74 39.28Q42.79 39.36 42.83 39.44Q42.86 39.52 42.88 39.61Q42.9 39.72 42.9 39.83L42.9 48.19Q42.9 49.1 42.71 49.97Q42.55 50.71 42.25 51.41Q41.96 52.09 41.56 52.71Q41.09 53.42 40.48 54.04Q39.86 54.66 39.15 55.12Q38.53 55.52 37.85 55.82Q37.14 56.11 36.41 56.28Q35.54 56.47 34.63 56.47L22.56 56.47L22.56 60.78Q22.56 60.94 22.52 61.08Q22.48 61.22 22.39 61.35Q22.3 61.47 22.19 61.57Q22.08 61.66 21.94 61.72Q21.84 61.76 21.74 61.78Q21.65 61.8 21.55 61.8Q21.45 61.8 21.35 61.78Q21.26 61.76 21.17 61.72Q21.08 61.68 21 61.63Q20.91 61.57 20.83 61.5L15.8 56.47L8.47 56.47Q7.56 56.47 6.69 56.28Q5.96 56.11 5.25 55.82Q4.57 55.52 3.95 55.12Q3.24 54.66 2.62 54.04Q2.01 53.42 1.54 52.71Q1.14 52.1 0.85 51.41Q0.55 50.71 0.39 49.97Q0.2 49.1 0.2 48.19L0.2 29.54Q0.2 28.63 0.39 27.76Q0.55 27.03 0.85 26.32Q1.14 25.64 1.54 25.02Q2.01 24.31 2.62 23.69Q3.24 23.08 3.95 22.61Q4.57 22.21 5.25 21.92Q5.96 21.62 6.69 21.46Q7.56 21.27 8.47 21.27L20.7 21.27Q20.82 21.27 20.93 21.29Q21.01 21.31 21.1 21.34Q21.18 21.38 21.25 21.43Q21.34 21.49 21.42 21.56Q21.49 21.64 21.55 21.72Q21.6 21.8 21.63 21.88Q21.67 21.96 21.69 22.05Q21.71 22.16 21.71 22.28Q21.71 22.39 21.69 22.5Q21.67 22.59 21.63 22.67Q21.6 22.75 21.55 22.83Q21.49 22.92 21.42 22.99Q21.34 23.07 21.25 23.12Q21.18 23.17 21.1 23.21Q21.01 23.24 20.93 23.26Q20.82 23.29 20.7 23.29L8.47 23.29Q7.79 23.29 7.13 23.43Q6.57 23.55 6.04 23.78Q5.52 24 5.05 24.31Q4.51 24.66 4.05 25.12Q3.59 25.59 3.24 26.12Q2.93 26.59 2.71 27.11Q2.48 27.64 2.36 28.2Q2.22 28.86 2.22 29.54L2.22 48.19Q2.22 48.88 2.36 49.53Q2.48 50.09 2.71 50.62Q2.93 51.14 3.24 51.61Q3.59 52.15 4.05 52.61Q4.51 53.08 5.05 53.43Q5.52 53.73 6.04 53.95Q6.57 54.18 7.13 54.3Q7.79 54.45 8.47 54.45L16.34 54.45Q16.5 54.45 16.64 54.49Q16.78 54.53 16.9 54.61Q17.03 54.7 17.12 54.81Q17.21 54.92 17.27 55.05L17.28 55.09L20.54 58.35L20.54 55.46Q20.54 55.34 20.57 55.23Q20.59 55.14 20.62 55.06Q20.66 54.98 20.71 54.9Q20.76 54.82 20.84 54.74Q20.91 54.67 21 54.61Q21.08 54.56 21.16 54.52Q21.24 54.49 21.33 54.47Q21.44 54.45 21.55 54.45L34.63 54.45Q35.31 54.45 35.97 54.3Q36.53 54.18 37.06 53.95Q37.58 53.73 38.05 53.43Q38.58 53.08 39.05 52.61Q39.51 52.15 39.86 51.61Q40.17 51.14 40.39 50.62Q40.62 50.09 40.74 49.53Q40.88 48.88 40.88 48.19Z" fill="#FFFFFF" fill-opacity="1.000000" fill-rule="evenodd"/>
	<path id="Vector" d="M44.39 0L41.33 0C31.62 0 23.73 7.89 23.73 17.6C23.73 27.3 31.62 35.2 41.33 35.2L44.39 35.2C45.91 35.2 47.41 35 48.86 34.62L53.39 39.15C53.62 39.38 53.93 39.5 54.25 39.5C54.4 39.5 54.56 39.47 54.71 39.41C55.16 39.22 55.46 38.78 55.46 38.29L55.46 31.29C57.37 29.73 58.96 27.77 60.08 25.58C61.35 23.09 62 20.41 62 17.6C62 7.89 54.1 0 44.39 0ZM53.52 29.73C53.21 29.96 53.03 30.31 53.03 30.7L53.03 35.37L50.07 32.41C49.84 32.18 49.53 32.05 49.21 32.05C49.1 32.05 48.98 32.07 48.86 32.11C47.42 32.55 45.92 32.77 44.39 32.77L41.33 32.77C32.96 32.77 26.15 25.97 26.15 17.6C26.15 9.23 32.96 2.42 41.33 2.42L44.39 2.42C52.76 2.42 59.57 9.23 59.57 17.6C59.57 22.41 57.37 26.83 53.52 29.73Z" fill="#CB8734" fill-opacity="1.000000" fill-rule="nonzero"/>
	<path id="Vector" d="M55.46 31.29C57.37 29.73 58.96 27.77 60.08 25.58C61.35 23.09 62 20.41 62 17.6C62 7.89 54.1 0 44.39 0L41.33 0C31.62 0 23.73 7.89 23.73 17.6C23.73 27.3 31.62 35.2 41.33 35.2L44.39 35.2C45.91 35.2 47.41 35 48.86 34.62L53.39 39.15C53.62 39.38 53.93 39.5 54.25 39.5C54.4 39.5 54.56 39.47 54.71 39.41C55.16 39.22 55.46 38.78 55.46 38.29L55.46 31.29ZM38.88 0.37Q40.09 0.19 41.33 0.19L44.39 0.19Q45.63 0.19 46.85 0.37Q47.37 0.44 47.9 0.55Q48.71 0.72 49.49 0.96Q50.34 1.22 51.16 1.56Q51.8 1.83 52.41 2.15Q53.29 2.61 54.12 3.17Q54.74 3.6 55.33 4.07Q56.04 4.65 56.69 5.3Q57.34 5.95 57.91 6.65Q58.39 7.24 58.82 7.87Q59.38 8.71 59.84 9.59Q60.16 10.2 60.43 10.83Q60.78 11.65 61.04 12.51Q61.28 13.29 61.44 14.09Q61.55 14.61 61.62 15.14Q61.79 16.36 61.79 17.6Q61.79 19.82 61.26 21.91Q60.79 23.75 59.9 25.49Q59.73 25.83 59.54 26.17Q58.83 27.42 57.91 28.55Q57.15 29.49 56.26 30.32Q55.81 30.74 55.33 31.13L55.26 31.19L55.26 38.29Q55.26 38.44 55.21 38.59Q55.17 38.73 55.09 38.85Q55 38.98 54.89 39.07Q54.77 39.17 54.63 39.23Q54.54 39.26 54.44 39.28Q54.35 39.3 54.25 39.3Q54.15 39.3 54.05 39.28Q53.95 39.26 53.86 39.23Q53.77 39.19 53.69 39.14Q53.6 39.08 53.53 39.01L48.92 34.4L48.81 34.43Q47.97 34.65 47.12 34.78Q45.78 35 44.39 35L41.33 35Q40.09 35 38.88 34.82Q38.35 34.75 37.83 34.64Q37.02 34.48 36.24 34.24Q35.39 33.98 34.56 33.63Q33.93 33.36 33.32 33.04Q32.44 32.58 31.61 32.02Q30.98 31.6 30.39 31.12Q29.68 30.54 29.03 29.89Q28.38 29.25 27.81 28.54Q27.33 27.95 26.91 27.32Q26.34 26.49 25.88 25.61Q25.57 25 25.3 24.36Q24.95 23.54 24.69 22.7Q24.45 21.91 24.28 21.1Q24.18 20.58 24.1 20.05Q23.93 18.83 23.93 17.6Q23.93 16.36 24.1 15.14Q24.18 14.62 24.28 14.09Q24.45 13.28 24.69 12.5Q24.95 11.65 25.3 10.83Q25.57 10.19 25.89 9.58Q26.34 8.7 26.91 7.87Q27.33 7.24 27.81 6.65Q28.38 5.95 29.03 5.3Q29.68 4.65 30.39 4.07Q30.98 3.6 31.61 3.17Q32.44 2.61 33.32 2.15Q33.93 1.83 34.56 1.56Q35.38 1.22 36.23 0.96Q37.02 0.72 37.83 0.55Q38.35 0.44 38.88 0.37ZM53.23 35.85L53.23 30.7Q53.23 30.58 53.26 30.46Q53.29 30.35 53.34 30.24Q53.39 30.14 53.47 30.05Q53.54 29.96 53.64 29.89Q54.74 29.05 55.67 28.06Q55.97 27.74 56.24 27.41Q56.9 26.62 57.45 25.75Q57.84 25.13 58.17 24.47Q58.51 23.79 58.77 23.09Q59.13 22.15 59.36 21.16Q59.47 20.72 59.54 20.28Q59.77 18.96 59.77 17.6Q59.77 15.9 59.42 14.29Q59.12 12.93 58.56 11.61Q58.32 11.05 58.04 10.51Q57.64 9.73 57.14 9Q56.77 8.44 56.34 7.92Q55.84 7.3 55.26 6.73Q54.69 6.15 54.07 5.65Q53.55 5.22 52.99 4.85Q52.26 4.35 51.48 3.95Q50.94 3.67 50.37 3.43Q49.65 3.12 48.9 2.89Q48.21 2.68 47.49 2.53Q47.02 2.43 46.55 2.37Q45.48 2.22 44.39 2.22L41.33 2.22Q40.24 2.22 39.18 2.37Q38.7 2.43 38.23 2.53Q37.52 2.68 36.82 2.89Q36.07 3.12 35.35 3.43Q34.79 3.67 34.25 3.95Q33.47 4.35 32.74 4.85Q32.18 5.22 31.66 5.65Q31.03 6.15 30.46 6.73Q29.89 7.3 29.38 7.92Q28.96 8.45 28.58 9Q28.09 9.73 27.68 10.51Q27.4 11.05 27.16 11.61Q26.86 12.34 26.62 13.09Q26.41 13.78 26.26 14.5Q26.17 14.97 26.1 15.44Q25.95 16.51 25.95 17.6Q25.95 18.68 26.1 19.75Q26.17 20.22 26.26 20.69Q26.41 21.41 26.63 22.11Q26.86 22.85 27.16 23.58Q27.4 24.14 27.68 24.68Q28.09 25.46 28.58 26.19Q28.96 26.74 29.38 27.26Q29.89 27.89 30.46 28.46Q31.03 29.04 31.66 29.54Q32.18 29.97 32.74 30.34Q33.47 30.84 34.24 31.24Q34.79 31.52 35.35 31.76Q36.07 32.07 36.82 32.3Q37.52 32.51 38.23 32.66Q38.7 32.76 39.18 32.82Q40.24 32.97 41.33 32.97L44.39 32.97Q45.79 32.97 47.13 32.73Q48.04 32.57 48.92 32.3Q49 32.27 49.08 32.26Q49.15 32.25 49.21 32.25Q49.31 32.25 49.41 32.27Q49.51 32.29 49.6 32.33Q49.69 32.37 49.77 32.42Q49.86 32.48 49.93 32.55L53.23 35.85ZM53.52 29.73C53.21 29.96 53.03 30.31 53.03 30.7L53.03 35.37L52.83 35.17L50.07 32.41C49.84 32.18 49.53 32.05 49.21 32.05C49.1 32.05 48.98 32.07 48.86 32.11C47.42 32.55 45.92 32.77 44.39 32.77L41.33 32.77C32.96 32.77 26.15 25.97 26.15 17.6C26.15 9.23 32.96 2.42 41.33 2.42L44.39 2.42C52.76 2.42 59.57 9.23 59.57 17.6C59.57 22.41 57.37 26.83 53.52 29.73Z" fill="#FFFFFF" fill-opacity="1.000000" fill-rule="evenodd"/>
	<path id="Vector" d="M48.32 13.25C48.14 10.71 46.1 8.67 43.56 8.49C42.12 8.39 40.75 8.88 39.7 9.86C38.67 10.82 38.07 12.19 38.07 13.61C38.07 14.27 38.62 14.82 39.29 14.82C39.95 14.82 40.5 14.27 40.5 13.61C40.5 12.85 40.8 12.15 41.36 11.63C41.91 11.11 42.63 10.86 43.4 10.91C44.73 11 45.81 12.08 45.9 13.41C45.99 14.76 45.11 15.95 43.8 16.25C42.73 16.48 41.99 17.41 41.99 18.49L41.99 21.4C41.99 22.07 42.53 22.61 43.2 22.61C43.87 22.61 44.41 22.07 44.41 21.4L44.41 18.59C46.85 18 48.49 15.77 48.32 13.25Z" fill="#CB8734" fill-opacity="1.000000" fill-rule="nonzero"/>
	<path id="Vector" d="M44.41 18.59C46.85 18 48.49 15.77 48.32 13.25C48.14 10.71 46.1 8.67 43.56 8.49C42.12 8.39 40.75 8.88 39.7 9.86C38.67 10.82 38.07 12.19 38.07 13.61C38.07 14.27 38.62 14.82 39.29 14.82C39.95 14.82 40.5 14.27 40.5 13.61C40.5 12.85 40.8 12.15 41.36 11.63C41.91 11.11 42.63 10.86 43.4 10.91C44.73 11 45.81 12.08 45.9 13.41C45.99 14.76 45.11 15.95 43.8 16.25C42.73 16.48 41.99 17.41 41.99 18.49L41.99 21.4C41.99 22.07 42.53 22.61 43.2 22.61C43.87 22.61 44.41 22.07 44.41 21.4L44.41 18.59ZM43.55 8.69L43.55 8.69Q43.99 8.72 44.42 8.83Q44.85 8.94 45.27 9.13Q45.62 9.3 45.94 9.52Q46.34 9.78 46.68 10.12Q47.03 10.47 47.29 10.86Q47.51 11.18 47.67 11.54Q47.87 11.95 47.98 12.39Q48.08 12.81 48.12 13.26Q48.15 13.82 48.07 14.37Q48.02 14.69 47.93 15Q47.81 15.43 47.61 15.82Q47.43 16.19 47.18 16.52Q46.93 16.87 46.62 17.16Q46.32 17.46 45.96 17.69Q45.68 17.89 45.37 18.03Q44.89 18.27 44.37 18.39L44.21 18.43L44.21 21.4Q44.21 21.52 44.19 21.63Q44.17 21.71 44.13 21.79Q44.1 21.88 44.05 21.95Q43.99 22.04 43.92 22.12Q43.84 22.19 43.75 22.25Q43.68 22.3 43.59 22.33Q43.51 22.37 43.43 22.39Q43.32 22.41 43.2 22.41Q43.08 22.41 42.97 22.39Q42.89 22.37 42.81 22.33Q42.72 22.3 42.65 22.25Q42.56 22.19 42.49 22.12Q42.41 22.04 42.35 21.95Q42.3 21.88 42.27 21.79Q42.24 21.71 42.22 21.63Q42.19 21.52 42.19 21.4L42.19 18.49Q42.19 18.26 42.24 18.04Q42.27 17.91 42.31 17.78Q42.37 17.62 42.46 17.47Q42.54 17.31 42.65 17.18Q42.75 17.05 42.88 16.94Q43.01 16.81 43.17 16.71Q43.28 16.64 43.4 16.59Q43.61 16.49 43.84 16.44Q44.15 16.37 44.44 16.24Q44.62 16.15 44.8 16.04Q45.01 15.9 45.19 15.73Q45.38 15.55 45.54 15.34Q45.68 15.15 45.79 14.93Q45.91 14.7 45.99 14.44Q46.04 14.24 46.07 14.05Q46.12 13.73 46.1 13.4Q46.08 13.14 46.02 12.88Q45.95 12.63 45.84 12.39Q45.74 12.17 45.61 11.98Q45.46 11.75 45.25 11.55Q45.05 11.35 44.83 11.2Q44.63 11.07 44.42 10.97Q44.18 10.86 43.92 10.79Q43.67 10.73 43.41 10.71Q43.02 10.68 42.64 10.75Q42.43 10.79 42.23 10.87Q42 10.95 41.8 11.06Q41.49 11.23 41.22 11.48Q40.94 11.74 40.75 12.05Q40.63 12.24 40.54 12.45Q40.44 12.66 40.39 12.88Q40.3 13.23 40.3 13.61Q40.3 13.72 40.27 13.83Q40.25 13.92 40.22 14Q40.18 14.08 40.13 14.16Q40.08 14.25 40 14.32Q39.92 14.4 39.84 14.45Q39.76 14.5 39.68 14.54Q39.6 14.57 39.51 14.59Q39.4 14.62 39.29 14.62Q39.17 14.62 39.06 14.59Q38.97 14.57 38.89 14.54Q38.81 14.5 38.73 14.45Q38.65 14.4 38.57 14.32Q38.5 14.25 38.44 14.16Q38.39 14.08 38.35 14Q38.32 13.92 38.3 13.83Q38.27 13.72 38.27 13.61Q38.27 13.14 38.36 12.69Q38.46 12.16 38.68 11.64Q38.91 11.13 39.23 10.69Q39.5 10.32 39.84 10Q40.3 9.57 40.84 9.28Q41.18 9.09 41.55 8.96Q41.9 8.84 42.25 8.77Q42.88 8.65 43.55 8.69Z" fill="#FFFFFF" fill-opacity="1.000000" fill-rule="evenodd"/>
	<path id="Vector" d="M44.06 25.34C43.83 25.11 43.52 24.98 43.2 24.98C42.88 24.98 42.57 25.11 42.34 25.34C42.12 25.56 41.99 25.87 41.99 26.19C41.99 26.51 42.12 26.82 42.34 27.05C42.57 27.27 42.88 27.4 43.2 27.4C43.52 27.4 43.83 27.27 44.06 27.05C44.28 26.82 44.41 26.51 44.41 26.19C44.41 25.87 44.28 25.56 44.06 25.34Z" fill="#CB8734" fill-opacity="1.000000" fill-rule="nonzero"/>
	<path id="Vector" d="M43.2 24.98C43.52 24.98 43.83 25.11 44.06 25.34C44.28 25.56 44.41 25.87 44.41 26.19C44.41 26.51 44.28 26.82 44.06 27.05C43.83 27.27 43.52 27.4 43.2 27.4C42.88 27.4 42.57 27.27 42.34 27.05C42.12 26.82 41.99 26.51 41.99 26.19C41.99 25.87 42.12 25.56 42.34 25.34C42.57 25.11 42.88 24.98 43.2 24.98ZM43.05 25.19Q43.13 25.18 43.2 25.18Q43.28 25.18 43.35 25.19Q43.47 25.21 43.59 25.26Q43.7 25.31 43.8 25.38Q43.86 25.42 43.92 25.48Q43.97 25.53 44.01 25.59Q44.09 25.69 44.13 25.8Q44.18 25.92 44.2 26.05Q44.21 26.12 44.21 26.19Q44.21 26.27 44.2 26.35Q44.18 26.46 44.13 26.58Q44.09 26.69 44.02 26.78Q43.97 26.85 43.92 26.91Q43.86 26.96 43.81 27Q43.71 27.08 43.59 27.13Q43.48 27.17 43.36 27.19Q43.28 27.2 43.2 27.2Q43.12 27.2 43.04 27.19Q42.93 27.17 42.81 27.13Q42.7 27.08 42.6 27Q42.54 26.96 42.49 26.91Q42.43 26.85 42.39 26.79Q42.32 26.7 42.27 26.58Q42.22 26.46 42.2 26.35Q42.19 26.27 42.19 26.19Q42.19 26.12 42.2 26.04Q42.22 25.92 42.27 25.8Q42.32 25.69 42.39 25.59Q42.43 25.53 42.49 25.48Q42.54 25.42 42.6 25.38Q42.7 25.31 42.81 25.26Q42.93 25.21 43.05 25.19Z" fill="#FFFFFF" fill-opacity="1.000000" fill-rule="evenodd"/>
	<path id="Vector" d="M33.3 37.53L7.75 37.53C7.08 37.53 6.53 38.08 6.53 38.75C6.53 39.41 7.08 39.96 7.75 39.96L33.3 39.96C33.96 39.96 34.51 39.41 34.51 38.75C34.51 38.08 33.96 37.53 33.3 37.53Z" fill="#CB8734" fill-opacity="1.000000" fill-rule="nonzero"/>
	<path id="Vector" d="M7.75 37.53L33.3 37.53C33.96 37.53 34.51 38.08 34.51 38.75C34.51 39.41 33.96 39.96 33.3 39.96L7.75 39.96C7.08 39.96 6.53 39.41 6.53 38.75C6.53 38.08 7.08 37.53 7.75 37.53ZM7.52 37.76Q7.63 37.73 7.75 37.73L33.3 37.73Q33.41 37.73 33.52 37.76Q33.61 37.78 33.69 37.81Q33.77 37.85 33.85 37.9Q33.94 37.96 34.01 38.03Q34.09 38.11 34.14 38.19Q34.19 38.27 34.23 38.35Q34.26 38.43 34.28 38.52Q34.31 38.63 34.31 38.75Q34.31 38.86 34.28 38.97Q34.26 39.06 34.23 39.14Q34.19 39.22 34.14 39.3Q34.09 39.38 34.01 39.46Q33.94 39.54 33.85 39.59Q33.77 39.64 33.69 39.68Q33.61 39.71 33.52 39.73Q33.41 39.76 33.3 39.76L7.75 39.76Q7.63 39.76 7.52 39.73Q7.43 39.71 7.35 39.68Q7.27 39.64 7.19 39.59Q7.11 39.54 7.03 39.46Q6.95 39.38 6.9 39.3Q6.85 39.22 6.81 39.14Q6.78 39.06 6.76 38.97Q6.73 38.86 6.73 38.75Q6.73 38.63 6.76 38.52Q6.78 38.43 6.81 38.35Q6.85 38.27 6.9 38.19Q6.95 38.11 7.03 38.03Q7.11 37.96 7.19 37.9Q7.27 37.85 7.35 37.81Q7.43 37.78 7.52 37.76Z" fill="#FFFFFF" fill-opacity="1.000000" fill-rule="evenodd"/>
	<path id="Vector" d="M34.15 44.67C33.93 44.44 33.61 44.32 33.3 44.32C32.98 44.32 32.66 44.44 32.44 44.67C32.21 44.9 32.08 45.21 32.08 45.53C32.08 45.84 32.21 46.16 32.44 46.38C32.66 46.61 32.98 46.74 33.3 46.74C33.61 46.74 33.93 46.61 34.15 46.38C34.38 46.16 34.51 45.85 34.51 45.53C34.51 45.21 34.38 44.9 34.15 44.67Z" fill="#CB8734" fill-opacity="1.000000" fill-rule="nonzero"/>
	<path id="Vector" d="M34.15 44.67C33.93 44.44 33.61 44.32 33.3 44.32C32.98 44.32 32.66 44.44 32.44 44.67C32.21 44.9 32.08 45.21 32.08 45.53C32.08 45.84 32.21 46.16 32.44 46.38C32.66 46.61 32.98 46.74 33.3 46.74C33.61 46.74 33.93 46.61 34.15 46.38C34.38 46.16 34.51 45.85 34.51 45.53C34.51 45.21 34.38 44.9 34.15 44.67ZM33.15 44.53Q33.22 44.52 33.3 44.52Q33.37 44.52 33.44 44.53Q33.57 44.54 33.68 44.59Q33.8 44.64 33.9 44.71Q33.96 44.76 34.01 44.81Q34.06 44.87 34.11 44.93Q34.18 45.02 34.23 45.14Q34.28 45.26 34.3 45.38Q34.31 45.45 34.31 45.53Q34.31 45.61 34.29 45.69Q34.28 45.8 34.23 45.91Q34.18 46.02 34.12 46.12Q34.07 46.18 34.01 46.24Q33.96 46.29 33.9 46.34Q33.8 46.41 33.68 46.46Q33.57 46.51 33.44 46.53Q33.37 46.54 33.3 46.54Q33.22 46.54 33.15 46.53Q33.03 46.51 32.91 46.46Q32.79 46.41 32.69 46.34Q32.63 46.29 32.58 46.24Q32.53 46.19 32.48 46.13Q32.41 46.03 32.36 45.91Q32.31 45.8 32.3 45.67Q32.29 45.6 32.29 45.53Q32.29 45.45 32.3 45.38Q32.31 45.26 32.36 45.14Q32.41 45.02 32.48 44.93Q32.53 44.87 32.58 44.81Q32.63 44.76 32.69 44.71Q32.79 44.64 32.91 44.59Q33.03 44.54 33.15 44.53Z" fill="#FFFFFF" fill-opacity="1.000000" fill-rule="evenodd"/>
	<path id="Vector" d="M28.53 44.32L7.75 44.32C7.08 44.32 6.53 44.86 6.53 45.53C6.53 46.2 7.08 46.74 7.75 46.74L28.53 46.74C29.2 46.74 29.74 46.2 29.74 45.53C29.74 44.86 29.2 44.32 28.53 44.32Z" fill="#CB8734" fill-opacity="1.000000" fill-rule="nonzero"/>
	<path id="Vector" d="M7.75 44.32L28.53 44.32C29.2 44.32 29.74 44.86 29.74 45.53C29.74 46.2 29.2 46.74 28.53 46.74L7.75 46.74C7.08 46.74 6.53 46.2 6.53 45.53C6.53 44.86 7.08 44.32 7.75 44.32ZM7.52 44.54Q7.63 44.52 7.75 44.52L28.53 44.52Q28.65 44.52 28.76 44.54Q28.84 44.56 28.93 44.59Q29.01 44.63 29.08 44.68Q29.17 44.74 29.25 44.81Q29.32 44.89 29.38 44.97Q29.43 45.05 29.46 45.13Q29.5 45.21 29.52 45.3Q29.54 45.41 29.54 45.53Q29.54 45.64 29.52 45.75Q29.5 45.84 29.46 45.92Q29.43 46 29.38 46.08Q29.32 46.17 29.25 46.24Q29.17 46.32 29.08 46.37Q29.01 46.42 28.93 46.46Q28.84 46.49 28.76 46.51Q28.65 46.54 28.53 46.54L7.75 46.54Q7.63 46.54 7.52 46.51Q7.43 46.49 7.35 46.46Q7.27 46.42 7.19 46.37Q7.11 46.32 7.03 46.24Q6.95 46.17 6.9 46.08Q6.85 46 6.81 45.92Q6.78 45.84 6.76 45.75Q6.73 45.64 6.73 45.53Q6.73 45.41 6.76 45.3Q6.78 45.21 6.81 45.13Q6.85 45.05 6.9 44.97Q6.95 44.89 7.03 44.81Q7.11 44.74 7.19 44.68Q7.27 44.63 7.35 44.59Q7.43 44.56 7.52 44.54Z" fill="#FFFFFF" fill-opacity="1.000000" fill-rule="evenodd"/>
	<path id="Vector" d="M25.42 30.75L7.75 30.75C7.08 30.75 6.53 31.29 6.53 31.96C6.53 32.63 7.08 33.17 7.75 33.17L25.42 33.17C26.09 33.17 26.64 32.63 26.64 31.96C26.64 31.29 26.09 30.75 25.42 30.75Z" fill="#CB8734" fill-opacity="1.000000" fill-rule="nonzero"/>
	<path id="Vector" d="M7.75 30.75L25.42 30.75C26.09 30.75 26.64 31.29 26.64 31.96C26.64 32.63 26.09 33.17 25.42 33.17L7.75 33.17C7.08 33.17 6.53 32.63 6.53 31.96C6.53 31.29 7.08 30.75 7.75 30.75ZM7.52 30.98Q7.63 30.95 7.75 30.95L25.42 30.95Q25.54 30.95 25.65 30.98Q25.74 31 25.82 31.03Q25.9 31.07 25.98 31.12Q26.06 31.17 26.14 31.25Q26.21 31.32 26.27 31.41Q26.32 31.49 26.36 31.57Q26.39 31.65 26.41 31.74Q26.44 31.85 26.44 31.96Q26.44 32.08 26.41 32.19Q26.39 32.28 26.36 32.36Q26.32 32.44 26.27 32.52Q26.21 32.6 26.14 32.68Q26.06 32.75 25.98 32.81Q25.9 32.86 25.82 32.9Q25.74 32.93 25.65 32.95Q25.54 32.97 25.42 32.97L7.75 32.97Q7.63 32.97 7.52 32.95Q7.43 32.93 7.35 32.9Q7.27 32.86 7.19 32.81Q7.11 32.75 7.03 32.68Q6.95 32.6 6.9 32.52Q6.85 32.44 6.81 32.36Q6.78 32.28 6.76 32.19Q6.73 32.08 6.73 31.96Q6.73 31.85 6.76 31.74Q6.78 31.65 6.81 31.57Q6.85 31.49 6.9 31.41Q6.95 31.32 7.03 31.25Q7.11 31.17 7.19 31.12Q7.27 31.07 7.35 31.03Q7.43 31 7.52 30.98Z" fill="#FFFFFF" fill-opacity="1.000000" fill-rule="evenodd"/>
</svg>
