<svg width="62.000000" height="61.997314" viewBox="0 0 62 61.9973" fill="none" xmlns="http://www.w3.org/2000/svg" xmlns:xlink="http://www.w3.org/1999/xlink">
	<desc>
			Created with Pixso.
	</desc>
	<defs/>
	<path id="Vector" d="M56.83 0L13.43 0C12.06 0 10.75 0.54 9.78 1.51C8.81 2.48 8.26 3.79 8.26 5.16L8.26 23.42C8.26 23.69 8.37 23.95 8.56 24.15C8.76 24.34 9.02 24.45 9.29 24.45C9.57 24.45 9.83 24.34 10.03 24.15C10.22 23.95 10.33 23.69 10.33 23.42L10.33 5.16C10.33 4.34 10.65 3.55 11.24 2.97C11.82 2.39 12.61 2.06 13.43 2.06L52.72 2.06C52.04 2.95 51.66 4.04 51.66 5.16L51.66 16.93C51.66 17.21 51.77 17.47 51.96 17.66C52.16 17.86 52.42 17.97 52.69 17.97C52.97 17.97 53.23 17.86 53.42 17.66C53.62 17.47 53.73 17.21 53.73 16.93L53.73 10.33L60.96 10.33C61.23 10.33 61.5 10.22 61.69 10.03C61.88 9.83 61.99 9.57 61.99 9.29L61.99 5.16C61.99 3.79 61.45 2.48 60.48 1.51C59.51 0.54 58.2 0 56.83 0ZM59.93 8.26L53.73 8.26L53.73 5.16C53.73 4.34 54.05 3.55 54.63 2.97C55.22 2.39 56 2.06 56.83 2.06C57.65 2.06 58.44 2.39 59.02 2.97C59.6 3.55 59.93 4.34 59.93 5.16L59.93 8.26Z" fill="#CB8734" fill-opacity="1.000000" fill-rule="nonzero"/>
	<path id="Vector" d="M53.93 10.33L60.96 10.33C61.23 10.33 61.5 10.22 61.69 10.03C61.88 9.83 61.99 9.57 61.99 9.29L61.99 5.16C61.99 3.79 61.45 2.48 60.48 1.51C59.51 0.54 58.2 0 56.83 0L13.43 0C12.06 0 10.75 0.54 9.78 1.51C8.81 2.48 8.26 3.79 8.26 5.16L8.26 23.42C8.26 23.69 8.37 23.95 8.56 24.15C8.76 24.34 9.02 24.45 9.29 24.45C9.57 24.45 9.83 24.34 10.03 24.15C10.22 23.95 10.33 23.69 10.33 23.42L10.33 5.16C10.33 4.34 10.65 3.55 11.24 2.97C11.82 2.39 12.61 2.06 13.43 2.06L52.72 2.06C52.67 2.13 52.62 2.19 52.57 2.26C51.98 3.11 51.66 4.12 51.66 5.16L51.66 16.93C51.66 17.21 51.77 17.47 51.96 17.66C52.16 17.86 52.42 17.97 52.69 17.97C52.97 17.97 53.23 17.86 53.42 17.66C53.62 17.47 53.73 17.21 53.73 16.93L53.73 10.33L53.93 10.33ZM13.43 0.19L13.43 0.19L56.83 0.19Q57.32 0.2 57.79 0.29Q58.27 0.39 58.73 0.57Q59.18 0.76 59.58 1.03Q59.99 1.3 60.34 1.65Q60.69 2 60.95 2.4Q61.22 2.81 61.41 3.26Q61.6 3.72 61.7 4.2Q61.79 4.67 61.79 5.16L61.79 9.29Q61.79 9.38 61.78 9.46Q61.76 9.54 61.73 9.61Q61.7 9.69 61.65 9.76Q61.61 9.83 61.55 9.88Q61.49 9.94 61.42 9.99Q61.35 10.03 61.28 10.06Q61.2 10.1 61.12 10.11Q61.04 10.13 60.96 10.13L53.53 10.13L53.53 16.93Q53.53 17.02 53.51 17.1Q53.49 17.18 53.46 17.25Q53.43 17.33 53.39 17.4Q53.34 17.46 53.28 17.52Q53.22 17.58 53.16 17.63Q53.09 17.67 53.01 17.7Q52.94 17.74 52.86 17.75Q52.78 17.77 52.69 17.77Q52.61 17.77 52.53 17.75Q52.45 17.74 52.37 17.7Q52.3 17.67 52.23 17.63Q52.16 17.58 52.1 17.52Q52.05 17.46 52 17.4Q51.96 17.33 51.92 17.25Q51.89 17.18 51.88 17.1Q51.86 17.02 51.86 16.93L51.86 5.16Q51.86 4.76 51.93 4.36Q51.99 3.97 52.12 3.59Q52.25 3.21 52.44 2.86Q52.63 2.5 52.88 2.18L53.13 1.86L13.43 1.86Q13.1 1.86 12.78 1.92Q12.47 1.99 12.17 2.11Q11.86 2.24 11.59 2.42Q11.33 2.6 11.09 2.83Q10.86 3.06 10.68 3.33Q10.5 3.6 10.38 3.9Q10.25 4.2 10.19 4.52Q10.13 4.83 10.13 5.16L10.13 23.42Q10.13 23.5 10.11 23.58Q10.1 23.66 10.06 23.74Q10.03 23.81 9.99 23.88Q9.94 23.95 9.88 24.01Q9.83 24.06 9.76 24.11Q9.69 24.15 9.61 24.19Q9.54 24.22 9.46 24.23Q9.38 24.25 9.29 24.25Q9.21 24.25 9.13 24.23Q9.05 24.22 8.98 24.19Q8.9 24.15 8.83 24.11Q8.76 24.06 8.71 24.01Q8.65 23.95 8.6 23.88Q8.56 23.81 8.53 23.74Q8.49 23.66 8.48 23.58Q8.46 23.5 8.46 23.42L8.46 5.16Q8.46 4.67 8.56 4.19Q8.65 3.72 8.84 3.26Q9.03 2.81 9.3 2.4Q9.57 2 9.92 1.65Q10.27 1.3 10.67 1.03Q11.07 0.76 11.53 0.57Q11.98 0.39 12.46 0.29Q12.93 0.2 13.43 0.19L13.43 0.19ZM53.53 5.16L53.53 8.46L60.13 8.46L60.13 5.16Q60.13 4.83 60.06 4.52Q60 4.2 59.87 3.9Q59.75 3.6 59.57 3.33Q59.39 3.06 59.16 2.83Q58.93 2.6 58.66 2.42Q58.39 2.24 58.09 2.11Q57.79 1.99 57.47 1.92Q57.15 1.86 56.83 1.86Q56.5 1.86 56.18 1.92Q55.87 1.99 55.56 2.11Q55.26 2.24 54.99 2.42Q54.73 2.6 54.49 2.83Q54.26 3.06 54.08 3.33Q53.9 3.6 53.78 3.9Q53.65 4.2 53.59 4.52Q53.53 4.83 53.53 5.16ZM53.73 8.06L53.73 5.16C53.73 4.34 54.05 3.55 54.63 2.97C55.22 2.39 56 2.06 56.83 2.06C57.65 2.06 58.44 2.39 59.02 2.97C59.6 3.55 59.93 4.34 59.93 5.16L59.93 8.26L53.73 8.26L53.73 8.06Z" fill="#FFFFFF" fill-opacity="1.000000" fill-rule="evenodd"/>
	<path id="Vector" d="M52.69 41.73C52.42 41.73 52.16 41.84 51.96 42.03C51.77 42.23 51.66 42.49 51.66 42.76L51.66 56.83C51.66 57.65 51.33 58.44 50.75 59.02C50.17 59.6 49.38 59.93 48.56 59.93C47.74 59.93 46.95 59.6 46.37 59.02C45.79 58.44 45.46 57.65 45.46 56.83L45.46 54.76C45.46 54.49 45.35 54.22 45.16 54.03C44.96 53.83 44.7 53.73 44.43 53.73L1.03 53.73C0.75 53.73 0.49 53.83 0.3 54.03C0.1 54.22 0 54.49 0 54.76L0 56.83C0 58.2 0.54 59.51 1.51 60.48C2.48 61.45 3.79 61.99 5.16 61.99L48.56 61.99C49.93 61.99 51.24 61.45 52.21 60.48C53.18 59.51 53.72 58.2 53.73 56.83L53.73 42.76C53.73 42.49 53.62 42.23 53.42 42.03C53.23 41.84 52.97 41.73 52.69 41.73ZM5.16 59.93C4.34 59.93 3.55 59.6 2.97 59.02C2.39 58.44 2.06 57.65 2.06 56.83L2.06 55.79L43.39 55.79L43.39 56.83C43.39 57.94 43.75 59.03 44.43 59.93L5.16 59.93Z" fill="#CB8734" fill-opacity="1.000000" fill-rule="nonzero"/>
	<path id="Vector" d="M52.69 41.73C52.42 41.73 52.16 41.84 51.96 42.03C51.77 42.23 51.66 42.49 51.66 42.76L51.66 56.83C51.66 57.65 51.33 58.44 50.75 59.02C50.17 59.6 49.38 59.93 48.56 59.93C47.74 59.93 46.95 59.6 46.37 59.02C45.79 58.44 45.46 57.65 45.46 56.83L45.46 54.76C45.46 54.49 45.35 54.22 45.16 54.03C44.96 53.83 44.7 53.73 44.43 53.73L1.03 53.73C0.75 53.73 0.49 53.83 0.3 54.03C0.1 54.22 0 54.49 0 54.76L0 56.83C0 58.2 0.54 59.51 1.51 60.48C2.48 61.45 3.79 61.99 5.16 61.99L48.56 61.99C49.93 61.99 51.24 61.45 52.21 60.48C53.18 59.51 53.72 58.2 53.73 56.83L53.73 42.76C53.73 42.49 53.62 42.23 53.42 42.03C53.23 41.84 52.97 41.73 52.69 41.73ZM52 42.3Q52.04 42.23 52.1 42.18Q52.16 42.12 52.23 42.07Q52.3 42.03 52.37 42Q52.45 41.96 52.53 41.95Q52.61 41.93 52.69 41.93Q52.78 41.93 52.86 41.95Q52.93 41.96 53.01 42Q53.09 42.03 53.16 42.07Q53.22 42.12 53.28 42.18Q53.34 42.23 53.39 42.3Q53.43 42.37 53.46 42.45Q53.49 42.52 53.51 42.6Q53.53 42.68 53.53 42.76L53.53 56.83Q53.53 57.32 53.43 57.8Q53.34 58.27 53.15 58.73Q52.96 59.18 52.69 59.58Q52.42 59.99 52.07 60.34Q51.72 60.69 51.32 60.95Q50.91 61.22 50.46 61.41Q50 61.6 49.53 61.7Q49.05 61.79 48.56 61.79L5.16 61.79Q4.67 61.79 4.19 61.7Q3.72 61.6 3.26 61.41Q2.81 61.22 2.4 60.95Q2 60.68 1.65 60.34Q1.3 59.99 1.03 59.58Q0.76 59.18 0.57 58.73Q0.38 58.27 0.29 57.79Q0.2 57.32 0.2 56.83L0.2 54.76Q0.2 54.68 0.21 54.6Q0.23 54.52 0.26 54.44Q0.29 54.36 0.34 54.3Q0.38 54.23 0.44 54.17Q0.5 54.11 0.57 54.07Q0.63 54.02 0.71 53.99Q0.79 53.96 0.87 53.94Q0.95 53.93 1.03 53.93L44.43 53.93Q44.51 53.93 44.59 53.94Q44.67 53.96 44.75 53.99Q44.82 54.02 44.89 54.07Q44.96 54.11 45.02 54.17Q45.07 54.23 45.12 54.3Q45.16 54.36 45.2 54.44Q45.23 54.52 45.24 54.6Q45.26 54.68 45.26 54.76L45.26 56.83Q45.26 57.15 45.32 57.47Q45.39 57.79 45.51 58.09Q45.64 58.39 45.82 58.66Q45.99 58.93 46.23 59.16Q46.46 59.39 46.73 59.57Q46.99 59.75 47.3 59.87Q47.6 60 47.92 60.06Q48.23 60.13 48.56 60.13Q48.89 60.13 49.2 60.06Q49.52 60 49.82 59.87Q50.13 59.75 50.39 59.57Q50.66 59.39 50.89 59.16Q51.12 58.93 51.3 58.66Q51.48 58.39 51.61 58.09Q51.73 57.79 51.8 57.47Q51.86 57.15 51.86 56.83L51.86 42.76Q51.86 42.68 51.88 42.6Q51.89 42.52 51.92 42.45Q51.95 42.37 52 42.3ZM2.42 58.66Q2.6 58.93 2.83 59.16Q3.06 59.39 3.33 59.57Q3.6 59.75 3.9 59.87Q4.2 60 4.52 60.06Q4.83 60.13 5.16 60.13L44.83 60.13L44.59 59.81Q44.34 59.48 44.16 59.13Q43.97 58.78 43.85 58.4Q43.72 58.02 43.66 57.63Q43.59 57.23 43.59 56.83L43.59 55.59L1.86 55.59L1.86 56.83Q1.86 57.15 1.92 57.47Q1.99 57.79 2.11 58.09Q2.24 58.39 2.42 58.66ZM44.18 59.93L5.16 59.93C4.34 59.93 3.55 59.6 2.97 59.02C2.39 58.44 2.06 57.65 2.06 56.83L2.06 55.79L2.26 55.79L43.19 55.79L43.39 55.79L43.39 56.83C43.39 57.86 43.7 58.87 44.28 59.73C44.33 59.79 44.38 59.86 44.43 59.93L44.18 59.93Z" fill="#FFFFFF" fill-opacity="1.000000" fill-rule="evenodd"/>
	<path id="Vector" d="M1.03 35.13L20.66 35.13L20.66 47.53L17.56 47.53L17.56 42.36C17.56 41.54 17.23 40.75 16.65 40.17C16.07 39.59 15.28 39.26 14.46 39.26L12.39 39.26C11.57 39.26 10.78 39.59 10.2 40.17C9.62 40.75 9.29 41.54 9.29 42.36L9.29 47.53L6.2 47.53L6.2 38.23C6.2 37.95 6.09 37.69 5.89 37.5C5.7 37.3 5.44 37.19 5.16 37.19C4.89 37.19 4.62 37.3 4.43 37.5C4.24 37.69 4.13 37.95 4.13 38.23L4.13 48.56C4.13 48.83 4.24 49.1 4.43 49.29C4.62 49.48 4.89 49.59 5.16 49.59L21.69 49.59C21.97 49.59 22.23 49.48 22.43 49.29C22.62 49.1 22.73 48.83 22.73 48.56L22.73 35.13L25.83 35.13C26.05 35.13 26.27 35.06 26.44 34.92C26.62 34.79 26.75 34.61 26.82 34.39C26.88 34.18 26.88 33.95 26.8 33.74C26.73 33.54 26.59 33.36 26.4 33.23L14 24.97C13.83 24.85 13.63 24.79 13.43 24.79C13.22 24.79 13.02 24.85 12.85 24.97L0.45 33.23C0.27 33.36 0.13 33.54 0.06 33.74C-0.02 33.95 -0.03 34.18 0.04 34.39C0.1 34.61 0.23 34.79 0.41 34.92C0.59 35.06 0.81 35.13 1.03 35.13ZM11.36 47.53L11.36 42.36C11.36 42.09 11.47 41.82 11.66 41.63C11.86 41.44 12.12 41.33 12.39 41.33L14.46 41.33C14.74 41.33 15 41.44 15.19 41.63C15.39 41.82 15.49 42.09 15.49 42.36L15.49 47.53L11.36 47.53ZM13.43 27.07L22.42 33.06L4.44 33.06L13.43 27.07Z" fill="#CB8734" fill-opacity="1.000000" fill-rule="nonzero"/>
	<path id="Vector" d="M20.66 35.13L1.03 35.13C0.81 35.13 0.59 35.06 0.41 34.92C0.23 34.79 0.1 34.61 0.04 34.39C-0.03 34.18 -0.02 33.95 0.06 33.74C0.13 33.54 0.27 33.36 0.45 33.23L12.85 24.97C13.02 24.85 13.22 24.79 13.43 24.79C13.63 24.79 13.83 24.85 14 24.97L26.4 33.23C26.59 33.36 26.73 33.54 26.8 33.74C26.88 33.95 26.88 34.18 26.82 34.39C26.75 34.61 26.62 34.79 26.44 34.92C26.27 35.06 26.05 35.13 25.83 35.13L22.73 35.13L22.73 48.56C22.73 48.83 22.62 49.1 22.43 49.29C22.23 49.48 21.97 49.59 21.69 49.59L5.16 49.59C4.89 49.59 4.62 49.48 4.43 49.29C4.24 49.1 4.13 48.83 4.13 48.56L4.13 38.23C4.13 37.95 4.24 37.69 4.43 37.5C4.62 37.3 4.89 37.19 5.16 37.19C5.44 37.19 5.7 37.3 5.89 37.5C6.09 37.69 6.2 37.95 6.2 38.23L6.2 47.53L9.29 47.53L9.29 42.36C9.29 41.54 9.62 40.75 10.2 40.17C10.78 39.59 11.57 39.26 12.39 39.26L14.46 39.26C15.28 39.26 16.07 39.59 16.65 40.17C17.23 40.75 17.56 41.54 17.56 42.36L17.56 47.53L20.66 47.53L20.66 35.13ZM20.86 47.73L20.86 34.93L1.03 34.93Q0.89 34.93 0.77 34.89Q0.64 34.84 0.53 34.76Q0.42 34.68 0.35 34.57Q0.27 34.47 0.23 34.34Q0.19 34.2 0.19 34.07Q0.2 33.94 0.24 33.81Q0.29 33.68 0.37 33.58Q0.45 33.48 0.57 33.4L12.97 25.13Q13.07 25.06 13.19 25.03Q13.3 24.99 13.43 24.99Q13.55 24.99 13.67 25.03Q13.79 25.06 13.89 25.13L26.29 33.4Q26.4 33.48 26.49 33.58Q26.57 33.68 26.61 33.81Q26.66 33.94 26.66 34.07Q26.66 34.2 26.63 34.34Q26.59 34.47 26.51 34.57Q26.43 34.68 26.32 34.76Q26.21 34.84 26.09 34.89Q25.97 34.93 25.83 34.93L22.53 34.93L22.53 48.56Q22.53 48.64 22.51 48.72Q22.5 48.8 22.46 48.88Q22.43 48.96 22.39 49.02Q22.34 49.09 22.28 49.15Q22.23 49.21 22.16 49.25Q22.09 49.3 22.01 49.33Q21.94 49.36 21.86 49.38Q21.78 49.39 21.69 49.39L5.16 49.39Q5.08 49.39 5 49.38Q4.92 49.36 4.84 49.33Q4.77 49.3 4.7 49.25Q4.63 49.21 4.57 49.15Q4.51 49.09 4.47 49.02Q4.42 48.96 4.39 48.88Q4.36 48.8 4.34 48.72Q4.33 48.64 4.33 48.56L4.33 38.23Q4.33 38.14 4.34 38.06Q4.36 37.98 4.39 37.91Q4.42 37.83 4.47 37.76Q4.51 37.7 4.57 37.64Q4.63 37.58 4.7 37.53Q4.77 37.49 4.84 37.46Q4.92 37.43 5 37.41Q5.08 37.39 5.16 37.39Q5.24 37.39 5.32 37.41Q5.4 37.43 5.48 37.46Q5.56 37.49 5.62 37.53Q5.69 37.58 5.75 37.64Q5.81 37.7 5.85 37.76Q5.9 37.83 5.93 37.91Q5.96 37.98 5.98 38.06Q6 38.14 6 38.23L6 47.73L9.5 47.73L9.5 42.36Q9.5 42.07 9.55 41.79Q9.61 41.52 9.72 41.25Q9.83 40.98 9.98 40.75Q10.14 40.51 10.34 40.31Q10.55 40.11 10.78 39.95Q11.02 39.79 11.29 39.68Q11.55 39.57 11.83 39.52Q12.11 39.46 12.39 39.46L14.46 39.46Q14.75 39.46 15.03 39.52Q15.3 39.57 15.57 39.68Q15.84 39.79 16.07 39.95Q16.31 40.11 16.51 40.31Q16.72 40.51 16.87 40.75Q17.03 40.98 17.14 41.25Q17.25 41.52 17.31 41.79Q17.36 42.07 17.36 42.36L17.36 47.73L20.86 47.73ZM3.78 33.26L23.08 33.26L13.43 26.83L3.78 33.26ZM22.12 32.86L13.43 27.07L4.44 33.06L22.42 33.06L22.12 32.86ZM11.18 42.12Q11.16 42.24 11.16 42.36L11.16 47.73L15.69 47.73L15.69 42.36Q15.69 42.24 15.67 42.12Q15.65 42 15.6 41.89Q15.55 41.77 15.49 41.67Q15.42 41.57 15.33 41.49Q15.25 41.4 15.15 41.33Q15.05 41.27 14.93 41.22Q14.82 41.17 14.7 41.15Q14.58 41.13 14.46 41.13L12.39 41.13Q12.27 41.13 12.15 41.15Q12.04 41.17 11.92 41.22Q11.81 41.27 11.71 41.33Q11.61 41.4 11.52 41.49Q11.44 41.57 11.37 41.67Q11.3 41.77 11.26 41.89Q11.21 42 11.18 42.12ZM11.36 47.33L11.36 42.36C11.36 42.09 11.47 41.82 11.66 41.63C11.86 41.44 12.12 41.33 12.39 41.33L14.46 41.33C14.74 41.33 15 41.44 15.19 41.63C15.39 41.82 15.49 42.09 15.49 42.36L15.49 47.53L11.36 47.53L11.36 47.33Z" fill="#FFFFFF" fill-opacity="1.000000" fill-rule="evenodd"/>
	<path id="Vector" d="M60.44 15.91C60.09 15.7 59.7 15.57 59.3 15.52C58.89 15.47 58.48 15.49 58.09 15.6C57.7 15.7 57.33 15.89 57 16.13C56.68 16.38 56.41 16.69 56.21 17.04L54.66 19.73C54.42 19.59 54.14 19.56 53.87 19.63C53.61 19.7 53.38 19.87 53.25 20.11L51.69 22.8L50.8 22.28C50.45 22.08 50.06 21.94 49.65 21.89C49.25 21.84 48.84 21.86 48.45 21.97C48.05 22.07 47.68 22.26 47.36 22.51C47.04 22.75 46.77 23.06 46.56 23.42L42.43 30.58C42.29 30.81 42.26 31.09 42.33 31.36C42.4 31.62 42.57 31.85 42.81 31.99C43.05 32.12 43.33 32.16 43.59 32.09C43.86 32.02 44.08 31.85 44.22 31.61L48.35 24.45C48.49 24.21 48.72 24.04 48.98 23.97C49.25 23.9 49.53 23.93 49.77 24.07L50.66 24.59L40.84 41.59C40.84 41.6 40.84 41.62 40.83 41.63C40.78 41.72 40.75 41.82 40.73 41.92C40.73 41.95 40.72 41.97 40.71 42C40.71 42.03 40.71 42.03 40.71 42.04L40.5 45.62C40.47 46.27 40.67 46.9 41.07 47.41L40.44 48.5C40.3 48.74 40.26 49.02 40.33 49.29C40.4 49.55 40.58 49.78 40.81 49.91C41.05 50.05 41.33 50.09 41.6 50.02C41.86 49.95 42.09 49.77 42.23 49.54L42.86 48.45C42.97 48.47 43.09 48.48 43.2 48.49C43.73 48.49 44.25 48.33 44.69 48.04L47.69 46.06C47.72 46.04 47.74 46.02 47.77 45.99C47.8 45.97 47.83 45.94 47.86 45.91C47.9 45.87 47.93 45.83 47.96 45.79C47.98 45.76 48 45.74 48.01 45.72L53.44 36.31C53.58 36.08 53.62 35.79 53.55 35.53C53.48 35.27 53.3 35.04 53.07 34.9C52.83 34.77 52.55 34.73 52.28 34.8C52.02 34.87 51.79 35.04 51.65 35.28L46.74 43.79L44.95 42.76L43.16 41.72L52.46 25.62L56.04 27.68L53.72 31.7C53.58 31.94 53.55 32.22 53.62 32.49C53.69 32.75 53.86 32.98 54.1 33.11C54.34 33.25 54.62 33.29 54.88 33.22C55.15 33.15 55.37 32.97 55.51 32.74L57.82 28.72L58.72 29.24C58.83 29.31 58.96 29.35 59.1 29.37C59.23 29.39 59.37 29.38 59.5 29.34C59.64 29.31 59.76 29.25 59.87 29.17C59.98 29.08 60.07 28.98 60.13 28.86C60.2 28.74 60.25 28.61 60.26 28.48C60.28 28.34 60.27 28.21 60.24 28.08C60.2 27.94 60.14 27.82 60.06 27.71C59.97 27.61 59.87 27.51 59.75 27.45L58.86 26.93L60.41 24.24C60.47 24.13 60.52 24 60.54 23.86C60.55 23.73 60.55 23.59 60.51 23.46C60.48 23.33 60.41 23.21 60.33 23.1C60.25 22.99 60.15 22.9 60.03 22.83L61.58 20.14C61.78 19.79 61.92 19.4 61.97 19C62.02 18.59 61.99 18.18 61.89 17.79C61.78 17.4 61.6 17.03 61.35 16.71C61.1 16.38 60.8 16.11 60.44 15.91ZM43.55 46.32C43.45 46.38 43.33 46.42 43.21 46.42C43.1 46.42 42.98 46.39 42.88 46.33C42.77 46.28 42.69 46.19 42.63 46.08C42.58 45.98 42.55 45.86 42.56 45.74L42.67 43.83L45.15 45.26L43.55 46.32ZM58 18.08C58.13 17.84 58.36 17.67 58.62 17.6C58.89 17.53 59.17 17.56 59.41 17.7C59.65 17.84 59.82 18.06 59.89 18.33C59.96 18.59 59.92 18.87 59.79 19.11L58.24 21.8L57.34 21.28L56.45 20.76L58 18.08ZM53.49 23.83L54.52 22.04L58.1 24.1L57.06 25.89L53.49 23.83Z" fill="#CB8734" fill-opacity="1.000000" fill-rule="nonzero"/>
	<path id="Vector" d="M60.03 22.83L61.58 20.14C61.78 19.79 61.92 19.4 61.97 19C62.02 18.59 61.99 18.18 61.89 17.79C61.78 17.4 61.6 17.03 61.35 16.71C61.1 16.38 60.8 16.11 60.44 15.91C60.09 15.7 59.7 15.57 59.3 15.52C58.89 15.47 58.48 15.49 58.09 15.6C57.7 15.7 57.33 15.89 57 16.13C56.68 16.38 56.41 16.69 56.21 17.04L54.76 19.56L54.66 19.73L54.66 19.73C54.42 19.59 54.14 19.56 53.87 19.63C53.61 19.7 53.38 19.87 53.25 20.11L51.79 22.62L51.69 22.8L51.52 22.7L50.8 22.28C50.45 22.08 50.06 21.94 49.65 21.89C49.25 21.84 48.84 21.86 48.45 21.97C48.05 22.07 47.68 22.26 47.36 22.51C47.04 22.75 46.77 23.06 46.56 23.42L42.43 30.58C42.29 30.81 42.26 31.09 42.33 31.36C42.4 31.62 42.57 31.85 42.81 31.99C43.05 32.12 43.33 32.16 43.59 32.09C43.86 32.02 44.08 31.85 44.22 31.61L48.35 24.45C48.49 24.21 48.72 24.04 48.98 23.97C49.25 23.9 49.53 23.93 49.77 24.07L50.49 24.49L50.66 24.59L50.56 24.76L40.84 41.59C40.84 41.6 40.84 41.62 40.83 41.63C40.78 41.72 40.75 41.82 40.73 41.92C40.73 41.95 40.72 41.97 40.71 42C40.71 42.03 40.71 42.03 40.71 42.04L40.5 45.62C40.47 46.27 40.67 46.9 41.07 47.41L40.44 48.5C40.3 48.74 40.26 49.02 40.33 49.29C40.4 49.55 40.58 49.78 40.81 49.91C41.05 50.05 41.33 50.09 41.6 50.02C41.86 49.95 42.09 49.77 42.23 49.54L42.86 48.45C42.97 48.47 43.09 48.48 43.2 48.49C43.73 48.49 44.25 48.33 44.69 48.04L47.69 46.06C47.72 46.04 47.74 46.02 47.77 45.99C47.8 45.97 47.83 45.94 47.86 45.91C47.9 45.87 47.93 45.83 47.96 45.79C47.98 45.76 48 45.74 48.01 45.72L53.44 36.31C53.58 36.08 53.62 35.79 53.55 35.53C53.48 35.27 53.3 35.04 53.07 34.9C52.83 34.77 52.55 34.73 52.28 34.8C52.02 34.87 51.79 35.04 51.65 35.28L46.84 43.62L46.74 43.79L46.57 43.69L43.34 41.82L43.16 41.72L43.26 41.55L52.36 25.79L52.46 25.62L52.63 25.72L56.04 27.68L55.94 27.86L53.72 31.7C53.58 31.94 53.55 32.22 53.62 32.49C53.69 32.75 53.86 32.98 54.1 33.11C54.34 33.25 54.62 33.29 54.88 33.22C55.15 33.15 55.37 32.97 55.51 32.74L57.72 28.89L57.82 28.72L58 28.82L58.72 29.24C58.83 29.31 58.96 29.35 59.1 29.37C59.23 29.39 59.37 29.38 59.5 29.34C59.64 29.31 59.76 29.25 59.87 29.17C59.98 29.08 60.07 28.98 60.13 28.86C60.2 28.74 60.25 28.61 60.26 28.48C60.28 28.34 60.27 28.21 60.24 28.08C60.2 27.94 60.14 27.82 60.06 27.71C59.97 27.61 59.87 27.51 59.75 27.45L58.86 26.93L60.41 24.24C60.47 24.13 60.52 24 60.54 23.86C60.55 23.73 60.55 23.59 60.51 23.46C60.48 23.33 60.41 23.21 60.33 23.1C60.25 22.99 60.15 22.9 60.03 22.83ZM47.72 45.77Q47.74 45.75 47.75 45.73Q47.77 45.71 47.79 45.68Q47.81 45.66 47.83 45.63Q47.84 45.62 47.84 45.62L47.84 45.62L53.27 36.21Q53.31 36.14 53.34 36.07Q53.36 35.99 53.38 35.91Q53.39 35.82 53.38 35.74Q53.38 35.66 53.35 35.58Q53.33 35.5 53.3 35.43Q53.26 35.36 53.21 35.29Q53.16 35.22 53.1 35.17Q53.04 35.12 52.97 35.08Q52.89 35.03 52.82 35.01Q52.74 34.98 52.66 34.97Q52.58 34.96 52.49 34.97Q52.41 34.97 52.33 34.99Q52.25 35.01 52.18 35.05Q52.11 35.09 52.04 35.14Q51.98 35.19 51.92 35.25Q51.87 35.31 51.83 35.38L46.81 44.06L44.85 42.93L42.89 41.8L52.39 25.34L56.31 27.61L53.89 31.8Q53.85 31.87 53.83 31.95Q53.8 32.03 53.79 32.11Q53.78 32.19 53.78 32.27Q53.79 32.35 53.81 32.43Q53.83 32.51 53.87 32.59Q53.9 32.66 53.95 32.73Q54 32.79 54.07 32.85Q54.13 32.9 54.2 32.94Q54.27 32.98 54.35 33.01Q54.42 33.03 54.51 33.04Q54.59 33.06 54.67 33.05Q54.75 33.05 54.83 33.02Q54.91 33 54.98 32.97Q55.06 32.93 55.12 32.88Q55.19 32.83 55.24 32.77Q55.3 32.71 55.34 32.63L57.75 28.45L58.82 29.06Q58.9 29.11 58.98 29.14Q59.05 29.16 59.13 29.17Q59.21 29.18 59.29 29.18Q59.37 29.17 59.45 29.15Q59.53 29.13 59.61 29.09Q59.68 29.06 59.75 29.01Q59.81 28.96 59.87 28.9Q59.92 28.83 59.96 28.76Q60 28.69 60.03 28.61Q60.06 28.54 60.07 28.45Q60.08 28.37 60.07 28.29Q60.07 28.21 60.04 28.13Q60.02 28.05 59.99 27.97Q59.95 27.9 59.9 27.84Q59.85 27.77 59.79 27.72Q59.72 27.66 59.65 27.62L58.58 27L60.23 24.14Q60.28 24.07 60.3 23.99Q60.33 23.91 60.34 23.84Q60.35 23.75 60.34 23.67Q60.34 23.59 60.32 23.51Q60.3 23.43 60.26 23.36Q60.22 23.28 60.17 23.22Q60.12 23.15 60.06 23.1Q60 23.05 59.93 23L59.76 22.9L61.41 20.04Q61.55 19.79 61.64 19.52Q61.73 19.26 61.77 18.97Q61.81 18.69 61.79 18.4Q61.77 18.12 61.7 17.84Q61.62 17.56 61.5 17.31Q61.37 17.06 61.19 16.83Q61.02 16.6 60.81 16.41Q60.59 16.23 60.34 16.08Q60.09 15.94 59.82 15.84Q59.56 15.75 59.27 15.72Q58.98 15.68 58.7 15.7Q58.42 15.72 58.14 15.79Q57.86 15.87 57.61 15.99Q57.35 16.12 57.13 16.29Q56.9 16.47 56.71 16.68Q56.52 16.89 56.38 17.14L54.73 20L54.56 19.9Q54.48 19.86 54.41 19.84Q54.33 19.81 54.25 19.8Q54.17 19.79 54.08 19.79Q54 19.8 53.92 19.82Q53.84 19.84 53.77 19.88Q53.7 19.91 53.63 19.96Q53.57 20.02 53.51 20.08Q53.46 20.14 53.42 20.21L51.77 23.07L50.7 22.45Q50.45 22.31 50.18 22.22Q49.91 22.13 49.63 22.09Q49.34 22.05 49.06 22.07Q48.78 22.09 48.5 22.16Q48.22 22.24 47.97 22.36Q47.71 22.49 47.48 22.66Q47.25 22.84 47.07 23.05Q46.88 23.27 46.74 23.52L42.6 30.68Q42.56 30.75 42.54 30.82Q42.51 30.9 42.5 30.98Q42.49 31.07 42.49 31.15Q42.5 31.23 42.52 31.31Q42.54 31.39 42.58 31.46Q42.61 31.53 42.66 31.6Q42.71 31.67 42.78 31.72Q42.84 31.77 42.91 31.81Q42.98 31.86 43.06 31.88Q43.13 31.91 43.22 31.92Q43.3 31.93 43.38 31.92Q43.46 31.92 43.54 31.9Q43.62 31.88 43.69 31.84Q43.77 31.8 43.83 31.75Q43.9 31.7 43.95 31.64Q44.01 31.58 44.05 31.51L48.18 24.35Q48.24 24.24 48.32 24.15Q48.4 24.06 48.5 23.99Q48.6 23.91 48.7 23.86Q48.81 23.81 48.93 23.77Q49.05 23.74 49.17 23.74Q49.29 23.73 49.41 23.74Q49.53 23.76 49.65 23.8Q49.76 23.84 49.87 23.9L50.93 24.52L41.03 41.67Q41.02 41.7 41.01 41.72L41.01 41.72L41.01 41.72Q40.98 41.78 40.96 41.84Q40.94 41.89 40.93 41.95Q40.92 41.98 40.91 42.01Q40.91 42.02 40.91 42.02Q40.91 42.03 40.91 42.03Q40.91 42.05 40.9 42.07L40.7 45.63Q40.69 45.84 40.71 46.05Q40.74 46.28 40.81 46.51Q40.88 46.72 40.98 46.91Q41.09 47.11 41.23 47.29L41.31 47.39L40.61 48.6Q40.57 48.67 40.54 48.75Q40.52 48.83 40.5 48.91Q40.49 48.99 40.5 49.07Q40.5 49.16 40.53 49.24Q40.55 49.32 40.58 49.39Q40.62 49.46 40.67 49.53Q40.72 49.59 40.78 49.65Q40.84 49.7 40.91 49.74Q40.99 49.78 41.06 49.81Q41.14 49.84 41.22 49.85Q41.31 49.86 41.39 49.85Q41.47 49.85 41.55 49.82Q41.63 49.8 41.7 49.77Q41.77 49.73 41.84 49.68Q41.91 49.63 41.96 49.57Q42.01 49.51 42.05 49.44L42.76 48.22L42.9 48.25Q42.97 48.26 43.04 48.27Q43.13 48.28 43.21 48.29Q43.58 48.29 43.92 48.19Q44.27 48.08 44.58 47.87L47.57 45.9Q47.59 45.89 47.6 45.88Q47.62 45.86 47.63 45.85L47.64 45.84L47.65 45.83Q47.67 45.82 47.69 45.8Q47.7 45.79 47.72 45.77ZM58.81 17.36Q58.69 17.37 58.57 17.4Q58.45 17.44 58.35 17.49Q58.24 17.54 58.14 17.62Q58.04 17.69 57.97 17.78Q57.89 17.87 57.82 17.98L56.17 20.84L57.24 21.45L58.31 22.07L59.96 19.21Q60.02 19.1 60.06 18.99Q60.1 18.88 60.11 18.76Q60.13 18.63 60.12 18.51Q60.11 18.39 60.08 18.28Q60.05 18.16 60 18.05Q59.94 17.94 59.87 17.84Q59.8 17.75 59.71 17.67Q59.61 17.59 59.51 17.53Q59.4 17.47 59.29 17.43Q59.17 17.39 59.05 17.37Q58.93 17.36 58.81 17.36ZM58 18.08C58.13 17.84 58.36 17.67 58.62 17.6C58.89 17.53 59.17 17.56 59.41 17.7C59.65 17.84 59.82 18.06 59.89 18.33C59.96 18.59 59.92 18.87 59.79 19.11L58.34 21.62L58.24 21.8L58.06 21.7L57.34 21.28L56.62 20.86L56.45 20.76L58 18.08ZM58.37 24.03L54.62 21.86L54.45 21.76L53.21 23.9L57.14 26.17L58.37 24.03ZM54.42 22.21L53.49 23.83L53.66 23.93L56.89 25.79L57.06 25.89L57.16 25.72L58 24.28L58.1 24.1L57.92 24L54.69 22.14L54.52 22.04L54.42 22.21ZM42.99 46.6Q43.1 46.62 43.22 46.62Q43.34 46.62 43.45 46.58Q43.56 46.55 43.66 46.48L45.53 45.25L42.49 43.5L42.36 45.73Q42.35 45.85 42.38 45.96Q42.4 46.07 42.46 46.18Q42.51 46.28 42.59 46.37Q42.67 46.45 42.78 46.51Q42.88 46.57 42.99 46.6ZM43.55 46.32C43.45 46.38 43.33 46.42 43.21 46.42C43.1 46.42 42.98 46.39 42.88 46.33C42.77 46.28 42.69 46.19 42.63 46.08C42.58 45.98 42.55 45.86 42.56 45.74L42.66 44.05L42.67 43.83L42.87 43.94L44.96 45.15L45.15 45.26L44.96 45.38L43.55 46.32Z" fill="#FFFFFF" fill-opacity="1.000000" fill-rule="evenodd"/>
	<path id="Vector" d="M41.33 11.36L41.33 7.23C41.33 6.95 41.22 6.69 41.02 6.5C40.83 6.3 40.57 6.19 40.29 6.19L21.69 6.19C21.42 6.19 21.16 6.3 20.96 6.5C20.77 6.69 20.66 6.95 20.66 7.23L20.66 11.36C20.66 11.64 20.77 11.9 20.96 12.09C21.16 12.29 21.42 12.39 21.69 12.39L40.29 12.39C40.57 12.39 40.83 12.29 41.02 12.09C41.22 11.9 41.33 11.64 41.33 11.36ZM39.26 10.33L22.73 10.33L22.73 8.26L39.26 8.26L39.26 10.33Z" fill="#CB8734" fill-opacity="1.000000" fill-rule="nonzero"/>
	<path id="Vector" d="M41.33 11.36L41.33 7.23C41.33 6.95 41.22 6.69 41.02 6.5C40.83 6.3 40.57 6.19 40.29 6.19L21.69 6.19C21.42 6.19 21.16 6.3 20.96 6.5C20.77 6.69 20.66 6.95 20.66 7.23L20.66 11.36C20.66 11.64 20.77 11.9 20.96 12.09C21.16 12.29 21.42 12.39 21.69 12.39L40.29 12.39C40.57 12.39 40.83 12.29 41.02 12.09C41.22 11.9 41.33 11.64 41.33 11.36ZM41.11 7.07Q41.13 7.15 41.13 7.23L41.13 11.36Q41.13 11.44 41.11 11.52Q41.1 11.6 41.06 11.68Q41.03 11.76 40.99 11.82Q40.94 11.89 40.88 11.95Q40.82 12.01 40.76 12.05Q40.69 12.1 40.61 12.13Q40.54 12.16 40.46 12.18Q40.38 12.19 40.29 12.19L21.69 12.19Q21.61 12.19 21.53 12.18Q21.45 12.16 21.38 12.13Q21.3 12.1 21.23 12.05Q21.16 12.01 21.1 11.95Q21.05 11.89 21 11.82Q20.96 11.76 20.92 11.68Q20.89 11.6 20.88 11.52Q20.86 11.44 20.86 11.36L20.86 7.23Q20.86 7.15 20.88 7.07Q20.89 6.99 20.92 6.91Q20.96 6.83 21 6.77Q21.05 6.7 21.1 6.64Q21.16 6.58 21.23 6.54Q21.3 6.49 21.38 6.46Q21.45 6.43 21.53 6.41Q21.61 6.39 21.69 6.39L40.29 6.39Q40.38 6.39 40.46 6.41Q40.54 6.43 40.61 6.46Q40.69 6.49 40.76 6.54Q40.82 6.58 40.88 6.64Q40.94 6.7 40.99 6.77Q41.03 6.83 41.06 6.91Q41.1 6.99 41.11 7.07ZM22.53 8.06L22.53 10.53L39.46 10.53L39.46 8.06L22.53 8.06ZM22.93 10.33L22.73 10.33L22.73 8.26L22.93 8.26L39.06 8.26L39.26 8.26L39.26 10.33L39.06 10.33L22.93 10.33Z" fill="#FFFFFF" fill-opacity="1.000000" fill-rule="evenodd"/>
	<path id="Vector" d="M21.69 20.06L40.29 20.06C40.57 20.06 40.83 19.95 41.02 19.76C41.22 19.57 41.33 19.3 41.33 19.03C41.33 18.75 41.22 18.49 41.02 18.3C40.83 18.1 40.57 18 40.29 18L21.69 18C21.42 18 21.16 18.1 20.96 18.3C20.77 18.49 20.66 18.75 20.66 19.03C20.66 19.3 20.77 19.57 20.96 19.76C21.16 19.95 21.42 20.06 21.69 20.06Z" fill="#CB8734" fill-opacity="1.000000" fill-rule="nonzero"/>
	<path id="Vector" d="M40.29 20.06L21.69 20.06C21.42 20.06 21.16 19.95 20.96 19.76C20.77 19.57 20.66 19.3 20.66 19.03C20.66 18.75 20.77 18.49 20.96 18.3C21.16 18.1 21.42 18 21.69 18L40.29 18C40.57 18 40.83 18.1 41.02 18.3C41.22 18.49 41.33 18.75 41.33 19.03C41.33 19.3 41.22 19.57 41.02 19.76C40.83 19.95 40.57 20.06 40.29 20.06ZM40.46 19.85Q40.38 19.86 40.29 19.86L21.69 19.86Q21.61 19.86 21.53 19.85Q21.45 19.83 21.38 19.8Q21.3 19.77 21.23 19.72Q21.16 19.68 21.1 19.62Q21.05 19.56 21 19.49Q20.96 19.42 20.92 19.35Q20.89 19.27 20.88 19.19Q20.86 19.11 20.86 19.03Q20.86 18.95 20.88 18.87Q20.89 18.79 20.92 18.71Q20.96 18.63 21 18.57Q21.05 18.5 21.1 18.44Q21.16 18.38 21.23 18.34Q21.3 18.29 21.38 18.26Q21.45 18.23 21.53 18.21Q21.61 18.2 21.69 18.2L40.29 18.2Q40.38 18.2 40.46 18.21Q40.54 18.23 40.61 18.26Q40.69 18.29 40.76 18.34Q40.82 18.38 40.88 18.44Q40.94 18.5 40.99 18.57Q41.03 18.63 41.06 18.71Q41.1 18.79 41.11 18.87Q41.13 18.95 41.13 19.03Q41.13 19.11 41.11 19.19Q41.1 19.27 41.06 19.35Q41.03 19.42 40.99 19.49Q40.94 19.56 40.88 19.62Q40.82 19.68 40.76 19.72Q40.69 19.77 40.61 19.8Q40.54 19.83 40.46 19.85Z" fill="#FFFFFF" fill-opacity="1.000000" fill-rule="evenodd"/>
	<path id="Vector" d="M21.69 26.06L41.33 26.06C41.6 26.06 41.86 25.95 42.06 25.76C42.25 25.57 42.36 25.3 42.36 25.03C42.36 24.75 42.25 24.49 42.06 24.3C41.86 24.1 41.6 24 41.33 24L21.69 24C21.42 24 21.16 24.1 20.96 24.3C20.77 24.49 20.66 24.75 20.66 25.03C20.66 25.3 20.77 25.57 20.96 25.76C21.16 25.95 21.42 26.06 21.69 26.06Z" fill="#CB8734" fill-opacity="1.000000" fill-rule="nonzero"/>
	<path id="Vector" d="M21.69 26.06L41.33 26.06C41.6 26.06 41.86 25.95 42.06 25.76C42.25 25.57 42.36 25.3 42.36 25.03C42.36 24.75 42.25 24.49 42.06 24.3C41.86 24.1 41.6 24 41.33 24L21.69 24C21.42 24 21.16 24.1 20.96 24.3C20.77 24.49 20.66 24.75 20.66 25.03C20.66 25.3 20.77 25.57 20.96 25.76C21.16 25.95 21.42 26.06 21.69 26.06ZM41.49 25.85Q41.41 25.86 41.33 25.86L21.69 25.86Q21.61 25.86 21.53 25.85Q21.45 25.83 21.38 25.8Q21.3 25.77 21.23 25.72Q21.16 25.68 21.1 25.62Q21.05 25.56 21 25.49Q20.96 25.42 20.92 25.35Q20.89 25.27 20.88 25.19Q20.86 25.11 20.86 25.03Q20.86 24.95 20.88 24.87Q20.89 24.79 20.92 24.71Q20.96 24.63 21 24.57Q21.05 24.5 21.1 24.44Q21.16 24.38 21.23 24.34Q21.3 24.29 21.38 24.26Q21.45 24.23 21.53 24.21Q21.61 24.2 21.69 24.2L41.33 24.2Q41.41 24.2 41.49 24.21Q41.57 24.23 41.65 24.26Q41.72 24.29 41.79 24.34Q41.86 24.38 41.92 24.44Q41.97 24.5 42.02 24.57Q42.06 24.63 42.1 24.71Q42.13 24.79 42.14 24.87Q42.16 24.95 42.16 25.03Q42.16 25.11 42.14 25.19Q42.13 25.27 42.1 25.35Q42.06 25.42 42.02 25.49Q41.97 25.56 41.92 25.62Q41.86 25.68 41.79 25.72Q41.72 25.77 41.65 25.8Q41.57 25.83 41.49 25.85Z" fill="#FFFFFF" fill-opacity="1.000000" fill-rule="evenodd"/>
	<path id="Vector" d="M39.26 30.99L29.96 30.99C29.69 30.99 29.42 31.1 29.23 31.3C29.04 31.49 28.93 31.75 28.93 32.03C28.93 32.3 29.04 32.56 29.23 32.76C29.42 32.95 29.69 33.06 29.96 33.06L39.26 33.06C39.53 33.06 39.8 32.95 39.99 32.76C40.18 32.56 40.29 32.3 40.29 32.03C40.29 31.75 40.18 31.49 39.99 31.3C39.8 31.1 39.53 30.99 39.26 30.99Z" fill="#CB8734" fill-opacity="1.000000" fill-rule="nonzero"/>
	<path id="Vector" d="M29.96 30.99L39.26 30.99C39.53 30.99 39.8 31.1 39.99 31.3C40.18 31.49 40.29 31.75 40.29 32.03C40.29 32.3 40.18 32.56 39.99 32.76C39.8 32.95 39.53 33.06 39.26 33.06L29.96 33.06C29.69 33.06 29.42 32.95 29.23 32.76C29.04 32.56 28.93 32.3 28.93 32.03C28.93 31.75 29.04 31.49 29.23 31.3C29.42 31.1 29.69 30.99 29.96 30.99ZM29.8 31.21Q29.88 31.19 29.96 31.19L39.26 31.19Q39.34 31.19 39.42 31.21Q39.5 31.23 39.58 31.26Q39.66 31.29 39.72 31.33Q39.79 31.38 39.85 31.44Q39.91 31.5 39.95 31.56Q40 31.63 40.03 31.71Q40.06 31.78 40.08 31.86Q40.09 31.94 40.09 32.03Q40.09 32.11 40.08 32.19Q40.06 32.27 40.03 32.35Q40 32.42 39.95 32.49Q39.91 32.56 39.85 32.62Q39.79 32.67 39.72 32.72Q39.66 32.77 39.58 32.8Q39.5 32.83 39.42 32.84Q39.34 32.86 39.26 32.86L29.96 32.86Q29.88 32.86 29.8 32.84Q29.72 32.83 29.64 32.8Q29.57 32.77 29.5 32.72Q29.43 32.67 29.37 32.62Q29.31 32.56 29.27 32.49Q29.22 32.42 29.19 32.35Q29.16 32.27 29.14 32.19Q29.13 32.11 29.13 32.03Q29.13 31.94 29.14 31.86Q29.16 31.78 29.19 31.71Q29.22 31.63 29.27 31.56Q29.31 31.5 29.37 31.44Q29.43 31.38 29.5 31.33Q29.57 31.29 29.64 31.26Q29.72 31.23 29.8 31.21Z" fill="#FFFFFF" fill-opacity="1.000000" fill-rule="evenodd"/>
	<path id="Vector" d="M40.29 38.23C40.29 37.95 40.18 37.69 39.99 37.5C39.8 37.3 39.53 37.19 39.26 37.19L25.83 37.19C25.55 37.19 25.29 37.3 25.1 37.5C24.9 37.69 24.79 37.95 24.79 38.23C24.79 38.5 24.9 38.76 25.1 38.96C25.29 39.15 25.55 39.26 25.83 39.26L39.26 39.26C39.53 39.26 39.8 39.15 39.99 38.96C40.18 38.76 40.29 38.5 40.29 38.23Z" fill="#CB8734" fill-opacity="1.000000" fill-rule="nonzero"/>
	<path id="Vector" d="M39.99 37.5C40.18 37.69 40.29 37.95 40.29 38.23C40.29 38.5 40.18 38.76 39.99 38.96C39.8 39.15 39.53 39.26 39.26 39.26L25.83 39.26C25.55 39.26 25.29 39.15 25.1 38.96C24.9 38.76 24.79 38.5 24.79 38.23C24.79 37.95 24.9 37.69 25.1 37.5C25.29 37.3 25.55 37.19 25.83 37.19L39.26 37.19C39.53 37.19 39.8 37.3 39.99 37.5ZM39.72 37.53Q39.79 37.58 39.85 37.64Q39.91 37.7 39.95 37.76Q40 37.83 40.03 37.91Q40.06 37.98 40.08 38.06Q40.09 38.14 40.09 38.23Q40.09 38.31 40.08 38.39Q40.06 38.47 40.03 38.55Q40 38.62 39.95 38.69Q39.91 38.76 39.85 38.82Q39.79 38.87 39.72 38.92Q39.66 38.97 39.58 39Q39.5 39.03 39.42 39.04Q39.34 39.06 39.26 39.06L25.83 39.06Q25.74 39.06 25.66 39.04Q25.59 39.03 25.51 39Q25.43 38.97 25.36 38.92Q25.3 38.87 25.24 38.82Q25.18 38.76 25.13 38.69Q25.09 38.62 25.06 38.55Q25.03 38.47 25.01 38.39Q24.99 38.31 24.99 38.23Q24.99 38.14 25.01 38.06Q25.03 37.98 25.06 37.91Q25.09 37.83 25.13 37.76Q25.18 37.7 25.24 37.64Q25.3 37.58 25.36 37.53Q25.43 37.49 25.51 37.46Q25.59 37.43 25.66 37.41Q25.74 37.39 25.83 37.39L39.26 37.39Q39.34 37.39 39.42 37.41Q39.5 37.43 39.58 37.46Q39.66 37.49 39.72 37.53Z" fill="#FFFFFF" fill-opacity="1.000000" fill-rule="evenodd"/>
	<path id="Vector" d="M27.89 44C27.62 44 27.36 44.1 27.16 44.3C26.97 44.49 26.86 44.75 26.86 45.03C26.86 45.3 26.97 45.57 27.16 45.76C27.36 45.95 27.62 46.06 27.89 46.06L35.13 46.06C35.4 46.06 35.66 45.95 35.86 45.76C36.05 45.57 36.16 45.3 36.16 45.03C36.16 44.75 36.05 44.49 35.86 44.3C35.66 44.1 35.4 44 35.13 44L27.89 44Z" fill="#CB8734" fill-opacity="1.000000" fill-rule="nonzero"/>
	<path id="Vector" d="M27.89 44C27.62 44 27.36 44.1 27.16 44.3C26.97 44.49 26.86 44.75 26.86 45.03C26.86 45.3 26.97 45.57 27.16 45.76C27.36 45.95 27.62 46.06 27.89 46.06L35.13 46.06C35.4 46.06 35.66 45.95 35.86 45.76C36.05 45.57 36.16 45.3 36.16 45.03C36.16 44.75 36.05 44.49 35.86 44.3C35.66 44.1 35.4 44 35.13 44L27.89 44ZM27.2 44.57Q27.25 44.5 27.3 44.44Q27.36 44.38 27.43 44.34Q27.5 44.29 27.58 44.26Q27.65 44.23 27.73 44.21Q27.81 44.2 27.89 44.2L35.13 44.2Q35.21 44.2 35.29 44.21Q35.37 44.23 35.45 44.26Q35.52 44.29 35.59 44.34Q35.66 44.38 35.72 44.44Q35.77 44.5 35.82 44.57Q35.87 44.63 35.9 44.71Q35.93 44.79 35.94 44.87Q35.96 44.95 35.96 45.03Q35.96 45.11 35.94 45.19Q35.93 45.27 35.9 45.35Q35.87 45.42 35.82 45.49Q35.77 45.56 35.72 45.62Q35.66 45.68 35.59 45.72Q35.52 45.77 35.45 45.8Q35.37 45.83 35.29 45.85Q35.21 45.86 35.13 45.86L27.89 45.86Q27.81 45.86 27.73 45.85Q27.65 45.83 27.58 45.8Q27.5 45.77 27.43 45.72Q27.36 45.68 27.3 45.62Q27.25 45.56 27.2 45.49Q27.16 45.42 27.12 45.35Q27.09 45.27 27.08 45.19Q27.06 45.11 27.06 45.03Q27.06 44.95 27.08 44.87Q27.09 44.79 27.12 44.71Q27.16 44.63 27.2 44.57Z" fill="#FFFFFF" fill-opacity="1.000000" fill-rule="evenodd"/>
</svg>
