<svg width="24.199951" height="24.199982" viewBox="0 0 24.2 24.2" fill="none" xmlns="http://www.w3.org/2000/svg" xmlns:xlink="http://www.w3.org/1999/xlink">
	<desc>
			Created with Pixso.
	</desc>
	<defs/>
	<path id="Vector" d="M23.75 14.3C23.66 14.3 23.57 14.27 23.51 14.2C23.45 14.14 23.41 14.05 23.41 13.96L23.41 12.94C23.41 12.85 23.45 12.76 23.51 12.7C23.57 12.64 23.66 12.6 23.75 12.6C23.84 12.6 23.93 12.64 23.99 12.7C24.06 12.76 24.09 12.85 24.09 12.94L24.09 13.96C24.09 14.05 24.06 14.14 23.99 14.2C23.93 14.27 23.84 14.3 23.75 14.3Z" fill="#2B2A28" fill-opacity="1.000000" fill-rule="nonzero"/>
	<path id="Vector" d="M23.34 14.13Q23.37 14.21 23.44 14.27Q23.5 14.34 23.58 14.37Q23.66 14.4 23.75 14.4Q23.84 14.4 23.92 14.37Q24 14.34 24.07 14.27Q24.13 14.21 24.16 14.13Q24.19 14.05 24.19 13.96L24.19 12.94Q24.19 12.85 24.16 12.77Q24.13 12.69 24.07 12.63Q24 12.56 23.92 12.53Q23.84 12.5 23.75 12.5Q23.66 12.5 23.58 12.53Q23.5 12.56 23.44 12.63Q23.37 12.69 23.34 12.77Q23.31 12.85 23.31 12.94L23.31 13.96Q23.31 14.05 23.34 14.13ZM23.75 14.3C23.66 14.3 23.57 14.27 23.51 14.2C23.45 14.14 23.41 14.05 23.41 13.96L23.41 12.94C23.41 12.85 23.45 12.76 23.51 12.7C23.57 12.64 23.66 12.6 23.75 12.6C23.84 12.6 23.93 12.64 23.99 12.7C24.06 12.76 24.09 12.85 24.09 12.94L24.09 13.96C24.09 14.05 24.06 14.14 23.99 14.2C23.93 14.27 23.84 14.3 23.75 14.3Z" fill="#2B2A28" fill-opacity="1.000000" fill-rule="evenodd"/>
	<path id="Vector" d="M22.72 24.1L1.47 24.1C1.1 24.1 0.75 23.95 0.5 23.69C0.24 23.44 0.09 23.09 0.09 22.72L0.09 1.47C0.09 1.1 0.24 0.75 0.5 0.5C0.75 0.24 1.1 0.1 1.47 0.1L22.72 0.1C23.09 0.1 23.44 0.24 23.69 0.5C23.95 0.75 24.1 1.1 24.1 1.47L24.1 7.14C24.1 7.24 24.06 7.32 23.99 7.39C23.93 7.45 23.84 7.49 23.75 7.49C23.66 7.49 23.57 7.45 23.51 7.39C23.45 7.32 23.41 7.24 23.41 7.14L23.41 1.47C23.41 1.28 23.34 1.11 23.21 0.98C23.08 0.85 22.91 0.78 22.72 0.78L1.47 0.78C1.28 0.78 1.11 0.85 0.98 0.98C0.85 1.11 0.78 1.28 0.78 1.47L0.78 22.72C0.78 22.91 0.85 23.08 0.98 23.21C1.11 23.34 1.28 23.41 1.47 23.41L22.72 23.41C22.91 23.41 23.08 23.34 23.21 23.21C23.34 23.08 23.41 22.91 23.41 22.72L23.41 16.36C23.41 16.27 23.45 16.18 23.51 16.12C23.57 16.05 23.66 16.02 23.75 16.02C23.84 16.02 23.93 16.05 23.99 16.12C24.06 16.18 24.1 16.27 24.1 16.36L24.1 22.72C24.1 23.09 23.95 23.44 23.69 23.69C23.44 23.95 23.09 24.1 22.72 24.1Z" fill="#2B2A28" fill-opacity="1.000000" fill-rule="nonzero"/>
	<path id="Vector" d="M1.18 24.17Q1.32 24.2 1.47 24.2L22.72 24.2Q22.87 24.2 23.01 24.17Q23.15 24.14 23.29 24.08Q23.42 24.03 23.54 23.95Q23.66 23.87 23.76 23.76Q23.87 23.66 23.95 23.54Q24.03 23.42 24.08 23.29Q24.14 23.15 24.17 23.01Q24.2 22.87 24.2 22.72L24.2 16.36Q24.2 16.27 24.16 16.19Q24.13 16.11 24.07 16.05Q24 15.98 23.92 15.95Q23.84 15.92 23.75 15.92Q23.66 15.92 23.58 15.95Q23.5 15.98 23.44 16.05Q23.37 16.11 23.34 16.19Q23.31 16.27 23.31 16.36L23.31 22.72Q23.31 22.84 23.27 22.95Q23.22 23.05 23.14 23.14Q23.05 23.22 22.95 23.27Q22.84 23.31 22.72 23.31L1.47 23.31Q1.35 23.31 1.24 23.27Q1.14 23.22 1.05 23.14Q0.97 23.05 0.92 22.95Q0.88 22.84 0.88 22.72L0.88 1.47Q0.88 1.35 0.92 1.24Q0.97 1.14 1.05 1.05Q1.14 0.97 1.24 0.92Q1.35 0.88 1.47 0.88L22.72 0.88Q22.84 0.88 22.95 0.92Q23.05 0.97 23.14 1.05Q23.22 1.14 23.27 1.24Q23.31 1.35 23.31 1.47L23.31 7.14Q23.31 7.24 23.34 7.31Q23.37 7.39 23.44 7.46Q23.5 7.52 23.58 7.55Q23.66 7.59 23.75 7.59Q23.84 7.59 23.92 7.55Q24 7.52 24.07 7.46Q24.13 7.39 24.16 7.31Q24.2 7.24 24.2 7.14L24.2 1.47Q24.2 1.32 24.17 1.18Q24.14 1.04 24.08 0.9Q24.03 0.77 23.95 0.65Q23.87 0.53 23.76 0.43Q23.66 0.32 23.54 0.24Q23.42 0.16 23.29 0.11Q23.15 0.05 23.01 0.02Q22.87 0 22.72 0L1.47 0Q1.32 0 1.18 0.02Q1.04 0.05 0.9 0.11Q0.77 0.16 0.65 0.24Q0.53 0.32 0.43 0.43Q0.32 0.53 0.24 0.65Q0.16 0.77 0.11 0.9Q0.05 1.04 0.02 1.18Q0 1.32 0 1.47L0 22.72Q0 22.87 0.02 23.01Q0.05 23.15 0.11 23.29Q0.16 23.42 0.24 23.54Q0.32 23.66 0.43 23.76Q0.53 23.87 0.65 23.95Q0.77 24.03 0.9 24.08Q1.04 24.14 1.18 24.17ZM22.72 24.1L1.47 24.1C1.1 24.1 0.75 23.95 0.5 23.69C0.24 23.44 0.09 23.09 0.09 22.72L0.09 1.47C0.09 1.1 0.24 0.75 0.5 0.5C0.75 0.24 1.1 0.1 1.47 0.1L22.72 0.1C23.09 0.1 23.44 0.24 23.69 0.5C23.95 0.75 24.1 1.1 24.1 1.47L24.1 7.14C24.1 7.24 24.06 7.32 23.99 7.39C23.93 7.45 23.84 7.49 23.75 7.49C23.66 7.49 23.57 7.45 23.51 7.39C23.45 7.32 23.41 7.24 23.41 7.14L23.41 1.47C23.41 1.28 23.34 1.11 23.21 0.98C23.08 0.85 22.91 0.78 22.72 0.78L1.47 0.78C1.28 0.78 1.11 0.85 0.98 0.98C0.85 1.11 0.78 1.28 0.78 1.47L0.78 22.72C0.78 22.91 0.85 23.08 0.98 23.21C1.11 23.34 1.28 23.41 1.47 23.41L22.72 23.41C22.91 23.41 23.08 23.34 23.21 23.21C23.34 23.08 23.41 22.91 23.41 22.72L23.41 16.36C23.41 16.27 23.45 16.18 23.51 16.12C23.57 16.05 23.66 16.02 23.75 16.02C23.84 16.02 23.93 16.05 23.99 16.12C24.06 16.18 24.1 16.27 24.1 16.36L24.1 22.72C24.1 23.09 23.95 23.44 23.69 23.69C23.44 23.95 23.09 24.1 22.72 24.1Z" fill="#2B2A28" fill-opacity="1.000000" fill-rule="evenodd"/>
	<path id="Vector" d="M23.75 10.88C23.66 10.88 23.57 10.85 23.51 10.78C23.45 10.72 23.41 10.63 23.41 10.54L23.41 9.54C23.41 9.45 23.45 9.37 23.51 9.3C23.57 9.24 23.66 9.2 23.75 9.2C23.84 9.2 23.93 9.24 23.99 9.3C24.06 9.37 24.09 9.45 24.09 9.54L24.09 10.54C24.09 10.63 24.06 10.72 23.99 10.78C23.93 10.85 23.84 10.88 23.75 10.88Z" fill="#2B2A28" fill-opacity="1.000000" fill-rule="nonzero"/>
	<path id="Vector" d="M23.34 10.71Q23.37 10.79 23.44 10.86Q23.5 10.92 23.58 10.95Q23.66 10.98 23.75 10.98Q23.84 10.98 23.92 10.95Q24 10.92 24.07 10.86Q24.13 10.79 24.16 10.71Q24.19 10.63 24.19 10.54L24.19 9.54Q24.19 9.45 24.16 9.37Q24.13 9.3 24.07 9.23Q24 9.17 23.92 9.13Q23.84 9.1 23.75 9.1Q23.66 9.1 23.58 9.13Q23.5 9.17 23.44 9.23Q23.37 9.3 23.34 9.37Q23.31 9.45 23.31 9.54L23.31 10.54Q23.31 10.63 23.34 10.71ZM23.75 10.88C23.66 10.88 23.57 10.85 23.51 10.78C23.45 10.72 23.41 10.63 23.41 10.54L23.41 9.54C23.41 9.45 23.45 9.37 23.51 9.3C23.57 9.24 23.66 9.2 23.75 9.2C23.84 9.2 23.93 9.24 23.99 9.3C24.06 9.37 24.09 9.45 24.09 9.54L24.09 10.54C24.09 10.63 24.06 10.72 23.99 10.78C23.93 10.85 23.84 10.88 23.75 10.88Z" fill="#2B2A28" fill-opacity="1.000000" fill-rule="evenodd"/>
	<mask id="mask_163_3840" fill="white">
		<path id="Union" d="M20.0974 7.1734C20.1884 7.1734 20.2756 7.1373 20.3398 7.073C20.4042 7.0087 20.4403 6.92148 20.4403 6.83057C20.4403 6.73962 20.4042 6.6524 20.3398 6.5881L18.0942 4.34244C18.0298 4.27814 17.9427 4.242 17.8517 4.242C17.7608 4.242 17.6736 4.27814 17.6093 4.34244L15.3636 6.5881C15.2993 6.6524 15.2632 6.73962 15.2632 6.83057C15.2632 6.92148 15.2993 7.0087 15.3636 7.073C15.4279 7.1373 15.5151 7.1734 15.606 7.1734C15.697 7.1734 15.7842 7.1373 15.8484 7.073L17.5089 5.41254L17.5089 13.1187C17.5089 13.1865 17.5291 13.2528 17.5667 13.3092C17.6044 13.3655 17.6579 13.4095 17.7206 13.4354C17.7832 13.4614 17.8521 13.4682 17.9186 13.455C17.9851 13.4417 18.0462 13.4091 18.0942 13.3611C18.1584 13.2968 18.1945 13.2097 18.1945 13.1187L18.1945 5.41254L19.855 7.073C19.9193 7.1373 20.0065 7.1734 20.0974 7.1734Z" clip-rule="evenodd" fill="" fill-opacity="1.000000" fill-rule="evenodd"/>
	</mask>
	<path id="Union" d="M20.0974 7.1734C20.1884 7.1734 20.2756 7.1373 20.3398 7.073C20.4042 7.0087 20.4403 6.92148 20.4403 6.83057C20.4403 6.73962 20.4042 6.6524 20.3398 6.5881L18.0942 4.34244C18.0298 4.27814 17.9427 4.242 17.8517 4.242C17.7608 4.242 17.6736 4.27814 17.6093 4.34244L15.3636 6.5881C15.2993 6.6524 15.2632 6.73962 15.2632 6.83057C15.2632 6.92148 15.2993 7.0087 15.3636 7.073C15.4279 7.1373 15.5151 7.1734 15.606 7.1734C15.697 7.1734 15.7842 7.1373 15.8484 7.073L17.5089 5.41254L17.5089 13.1187C17.5089 13.1865 17.5291 13.2528 17.5667 13.3092C17.6044 13.3655 17.6579 13.4095 17.7206 13.4354C17.7832 13.4614 17.8521 13.4682 17.9186 13.455C17.9851 13.4417 18.0462 13.4091 18.0942 13.3611C18.1584 13.2968 18.1945 13.2097 18.1945 13.1187L18.1945 5.41254L19.855 7.073C19.9193 7.1373 20.0065 7.1734 20.0974 7.1734Z" clip-rule="evenodd" fill="#2B2A28" fill-opacity="1.000000" fill-rule="evenodd" mask="url(#mask_163_3840)"/>
	<path id="Union" d="M19.9275 7.241Q20.0057 7.27341 20.0974 7.27341Q20.1892 7.27341 20.2676 7.24092Q20.3458 7.2085 20.4106 7.14371Q20.4755 7.0788 20.5079 7.00046Q20.5403 6.92221 20.5403 6.83057Q20.5403 6.73885 20.5079 6.66056Q20.4754 6.58226 20.4106 6.5174L18.1649 4.27173Q18.1 4.20682 18.0216 4.17439Q17.9434 4.142 17.8517 4.142Q17.76 4.142 17.6816 4.17446Q17.6034 4.2069 17.5386 4.27173L15.2929 6.5174Q15.2281 6.58226 15.1956 6.66056Q15.1632 6.73885 15.1632 6.83057Q15.1632 6.92221 15.1956 7.00046Q15.228 7.0788 15.2929 7.14371Q15.3578 7.20857 15.4361 7.241Q15.5143 7.27341 15.606 7.27341Q15.6978 7.27341 15.7762 7.24092Q15.8544 7.2085 15.9192 7.14371L17.4089 5.65396L17.4089 13.1187Q17.4089 13.1859 17.4276 13.2474Q17.4463 13.3089 17.4836 13.3647Q17.5209 13.4206 17.5706 13.4614Q17.6203 13.5021 17.6823 13.5278Q17.7444 13.5535 17.8085 13.5598Q17.8723 13.5661 17.9381 13.553Q18.0041 13.5399 18.0609 13.5095Q18.1175 13.4793 18.1649 13.4319Q18.2298 13.3669 18.2622 13.2885Q18.2946 13.2103 18.2946 13.1187L18.2946 5.65396L19.7843 7.14371Q19.8492 7.20857 19.9275 7.241ZM18.1945 5.55392L18.1945 5.41254L19.855 7.073C19.9193 7.1373 20.0065 7.1734 20.0974 7.1734C20.1884 7.1734 20.2756 7.1373 20.3398 7.073C20.4042 7.0087 20.4403 6.92148 20.4403 6.83057C20.4403 6.73962 20.4042 6.6524 20.3398 6.5881L18.0942 4.34244C18.0298 4.27814 17.9427 4.242 17.8517 4.242C17.7608 4.242 17.6736 4.27814 17.6093 4.34244L15.3636 6.5881C15.2993 6.6524 15.2632 6.73962 15.2632 6.83057C15.2632 6.92148 15.2993 7.0087 15.3636 7.073C15.4279 7.1373 15.5151 7.1734 15.606 7.1734C15.697 7.1734 15.7842 7.1373 15.8484 7.073L17.5089 5.41254L17.5089 13.1187C17.5089 13.1865 17.5291 13.2528 17.5667 13.3092C17.6044 13.3655 17.6579 13.4095 17.7206 13.4354C17.7832 13.4614 17.8521 13.4682 17.9186 13.455C17.9851 13.4417 18.0462 13.4091 18.0942 13.3611C18.1584 13.2968 18.1945 13.2097 18.1945 13.1187L18.1945 5.55392Z" clip-rule="evenodd" fill="#2B2A28" fill-opacity="1.000000" fill-rule="evenodd"/>
	<mask id="mask_163_3843" fill="white">
		<path id="Union" d="M4.06573 18.0912C4.01782 18.0432 3.98517 17.9821 3.97198 17.9156C3.96759 17.8935 3.96539 17.8711 3.96539 17.8488L3.96539 17.8466C3.96552 17.8276 3.96722 17.8087 3.97046 17.7901C3.97186 17.7819 3.97357 17.7737 3.97565 17.7656C3.97974 17.7493 3.98499 17.7332 3.99146 17.7176C3.99542 17.7081 3.99976 17.6988 4.00452 17.6898C4.02063 17.6589 4.04132 17.6308 4.0658 17.6064L6.31146 15.3607C6.34332 15.3288 6.3811 15.3036 6.42273 15.2863C6.46429 15.2691 6.50891 15.2602 6.55396 15.2602C6.59894 15.2602 6.64355 15.2691 6.68512 15.2863C6.72675 15.3036 6.76453 15.3288 6.79639 15.3607C6.82819 15.3925 6.85345 15.4303 6.87067 15.4719C6.88794 15.5135 6.89679 15.5581 6.89679 15.6031C6.89679 15.6481 6.88794 15.6927 6.87067 15.7343C6.85345 15.7759 6.82819 15.8137 6.79639 15.8455L5.13599 17.5059L12.842 17.5059C12.9318 17.5075 13.0175 17.5443 13.0805 17.6084C13.1436 17.6725 13.1788 17.7588 13.1788 17.8487C13.1788 17.9386 13.1436 18.0249 13.0805 18.0891C13.0175 18.1532 12.9318 18.19 12.842 18.1915L5.13586 18.1915L6.79639 19.8521C6.86066 19.9164 6.89679 20.0035 6.89679 20.0945C6.89679 20.1854 6.86066 20.2726 6.79639 20.3369C6.73206 20.4012 6.64484 20.4373 6.55396 20.4373C6.46301 20.4373 6.37579 20.4012 6.31146 20.3369L4.0658 18.0912L4.06573 18.0912Z" clip-rule="evenodd" fill="" fill-opacity="1.000000" fill-rule="evenodd"/>
	</mask>
	<path id="Union" d="M4.06573 18.0912C4.01782 18.0432 3.98517 17.9821 3.97198 17.9156C3.96759 17.8935 3.96539 17.8711 3.96539 17.8488L3.96539 17.8466C3.96552 17.8276 3.96722 17.8087 3.97046 17.7901C3.97186 17.7819 3.97357 17.7737 3.97565 17.7656C3.97974 17.7493 3.98499 17.7332 3.99146 17.7176C3.99542 17.7081 3.99976 17.6988 4.00452 17.6898C4.02063 17.6589 4.04132 17.6308 4.0658 17.6064L6.31146 15.3607C6.34332 15.3288 6.3811 15.3036 6.42273 15.2863C6.46429 15.2691 6.50891 15.2602 6.55396 15.2602C6.59894 15.2602 6.64355 15.2691 6.68512 15.2863C6.72675 15.3036 6.76453 15.3288 6.79639 15.3607C6.82819 15.3925 6.85345 15.4303 6.87067 15.4719C6.88794 15.5135 6.89679 15.5581 6.89679 15.6031C6.89679 15.6481 6.88794 15.6927 6.87067 15.7343C6.85345 15.7759 6.82819 15.8137 6.79639 15.8455L5.13599 17.5059L12.842 17.5059C12.9318 17.5075 13.0175 17.5443 13.0805 17.6084C13.1436 17.6725 13.1788 17.7588 13.1788 17.8487C13.1788 17.9386 13.1436 18.0249 13.0805 18.0891C13.0175 18.1532 12.9318 18.19 12.842 18.1915L5.13586 18.1915L6.79639 19.8521C6.86066 19.9164 6.89679 20.0035 6.89679 20.0945C6.89679 20.1854 6.86066 20.2726 6.79639 20.3369C6.73206 20.4012 6.64484 20.4373 6.55396 20.4373C6.46301 20.4373 6.37579 20.4012 6.31146 20.3369L4.0658 18.0912L4.06573 18.0912Z" clip-rule="evenodd" fill="#2B2A28" fill-opacity="1.000000" fill-rule="evenodd" mask="url(#mask_163_3843)"/>
	<path id="Union" d="M3.91736 18.0578Q3.94747 18.1142 3.99455 18.1614L3.99512 18.1619L6.24078 20.4076Q6.30557 20.4724 6.38378 20.5048Q6.46214 20.5373 6.55396 20.5373Q6.64564 20.5373 6.7239 20.5049Q6.8022 20.4725 6.86707 20.4076Q6.93189 20.3428 6.96432 20.2645Q6.99677 20.1862 6.99677 20.0945Q6.99677 20.0027 6.96432 19.9244Q6.93189 19.8462 6.86707 19.7813L5.37731 18.2915L12.8437 18.2915Q12.9343 18.2899 13.0113 18.2569Q13.0883 18.2238 13.1519 18.1591Q13.2154 18.0945 13.2471 18.0168Q13.2789 17.9393 13.2789 17.8487Q13.2789 17.7581 13.2471 17.6805Q13.2154 17.6029 13.1519 17.5383Q13.0904 17.4758 13.0159 17.4428Q12.9364 17.4076 12.842 17.4059L5.37738 17.4059L6.86707 15.9162Q6.89845 15.8849 6.92257 15.8487Q6.94635 15.813 6.96307 15.7726Q6.97988 15.732 6.9883 15.6897Q6.99677 15.6472 6.99677 15.6031Q6.99677 15.5591 6.98838 15.5169Q6.97996 15.4744 6.96307 15.4336Q6.94628 15.393 6.92237 15.3572Q6.89832 15.3212 6.86707 15.2899Q6.83623 15.2591 6.80069 15.2353Q6.76448 15.211 6.72339 15.1939Q6.68279 15.1771 6.64053 15.1687Q6.59808 15.1602 6.55396 15.1602Q6.5094 15.1602 6.46657 15.1689Q6.42469 15.1773 6.38446 15.1939Q6.344 15.2107 6.30825 15.2345Q6.27211 15.2586 6.24078 15.2899L3.99512 17.5356Q3.97098 17.5598 3.95104 17.587Q3.93144 17.6137 3.91589 17.6434Q3.91093 17.6528 3.90644 17.6625Q3.9026 17.6708 3.89911 17.6793Q3.8922 17.6959 3.88669 17.713Q3.88218 17.727 3.8786 17.7413Q3.87569 17.7531 3.87339 17.7649Q3.8726 17.7689 3.87189 17.773Q3.87066 17.7801 3.86966 17.7872Q3.86556 17.8164 3.86542 17.8462L3.86536 17.8488Q3.86536 17.87 3.86739 17.8911Q3.86952 17.9132 3.8739 17.9351Q3.88701 18.0011 3.91736 18.0578ZM5.27737 17.5059L5.13599 17.5059L6.79639 15.8455C6.82819 15.8137 6.85345 15.7759 6.87067 15.7343C6.88794 15.6927 6.89679 15.6481 6.89679 15.6031C6.89679 15.5581 6.88794 15.5135 6.87067 15.4719C6.85345 15.4303 6.82819 15.3925 6.79639 15.3607C6.76453 15.3288 6.72675 15.3036 6.68512 15.2863C6.64355 15.2691 6.59894 15.2602 6.55396 15.2602C6.50891 15.2602 6.46429 15.2691 6.42273 15.2863C6.3811 15.3036 6.34332 15.3288 6.31146 15.3607L4.0658 17.6064C4.04132 17.6308 4.02063 17.6589 4.00452 17.6898C3.99976 17.6988 3.99542 17.7081 3.99146 17.7176C3.98499 17.7332 3.97974 17.7493 3.97565 17.7656C3.97357 17.7737 3.97186 17.7819 3.97046 17.7901C3.96722 17.8087 3.96552 17.8276 3.96539 17.8466L3.96539 17.8488C3.96539 17.8711 3.96759 17.8935 3.97198 17.9156C3.98517 17.9821 4.01782 18.0432 4.06573 18.0912L4.0658 18.0912L6.31146 20.3369C6.37579 20.4012 6.46301 20.4373 6.55396 20.4373C6.64484 20.4373 6.73206 20.4012 6.79639 20.3369C6.86066 20.2726 6.89679 20.1854 6.89679 20.0945C6.89679 20.0035 6.86066 19.9164 6.79639 19.8521L5.13586 18.1915L12.842 18.1915C12.9318 18.19 13.0175 18.1532 13.0805 18.0891C13.1436 18.0249 13.1788 17.9386 13.1788 17.8487C13.1788 17.7588 13.1436 17.6725 13.0805 17.6084C13.0175 17.5443 12.9318 17.5075 12.842 17.5059L5.27737 17.5059Z" clip-rule="evenodd" fill="#2B2A28" fill-opacity="1.000000" fill-rule="evenodd"/>
</svg>
