<svg width="58.591797" height="62.000000" viewBox="0 0 58.5918 62" fill="none" xmlns="http://www.w3.org/2000/svg" xmlns:xlink="http://www.w3.org/1999/xlink">
	<desc>
			Created with Pixso.
	</desc>
	<defs/>
	<path id="Vector" d="M3.36 62L31.09 62C31.33 62 31.56 61.9 31.73 61.73L36.24 57.23L44.71 58.3L46.18 61.13C46.46 61.67 47.22 61.8 47.66 61.32L50.55 58.13C50.71 57.95 50.79 57.72 50.78 57.48L50.63 54.22C51.52 53.58 52.13 52.55 52.27 51.46L53.39 42.81C54.96 43.56 56.89 42.52 57.11 40.77L58.55 29.61C58.81 27.61 57.6 25.63 55.69 24.96C56.04 22.8 54.73 20.63 52.53 20.17L54.03 8.24C54.25 6.44 52.91 4.72 51.11 4.5L15.31 0.02C13.47 -0.21 11.79 1.1 11.56 2.93C11.56 2.95 11.55 2.97 11.55 2.99L10.95 7.83L3.36 7.83C1.5 7.83 0 9.33 0 11.18L0 46.24C0.03 47.43 1.76 47.46 1.81 46.24L1.81 11.18C1.81 10.33 2.5 9.64 3.36 9.64L39.43 9.64C40.28 9.64 40.98 10.33 40.98 11.18L40.98 49.41L33.54 49.41C31.69 49.41 30.18 50.92 30.18 52.77L30.18 60.18L3.36 60.18C2.5 60.18 1.81 59.49 1.81 58.64L1.81 51.08C1.81 50.58 1.4 50.17 0.9 50.17C0.4 50.17 0 50.58 0 51.08L0 58.64C0 60.49 1.5 62 3.36 62ZM48.95 57.19L47.19 59.13L45.98 56.81L46.65 54.67C47.34 54.96 48.1 55.06 48.84 54.95L48.95 57.19ZM56.25 27.51C56.66 28.05 56.84 28.71 56.75 29.38L55.31 40.54C55.18 41.56 53.57 41.32 53.71 40.33L54.08 37.39C54.23 36.23 52.43 36 52.28 37.16L50.47 51.22C50.32 52.44 49.17 53.32 47.96 53.16C46.75 53.01 45.86 51.86 46.02 50.65L48.68 30.01L53.13 30.58L52.9 32.38C52.75 33.55 54.55 33.78 54.7 32.61L55.45 26.84C55.75 27 56.03 27.23 56.25 27.51ZM53.92 24.43C53.74 25.88 53.55 27.33 53.36 28.78L48.91 28.21L49.47 23.85C49.55 23.26 49.85 22.73 50.33 22.36C50.8 22 51.39 21.84 51.99 21.91C53.21 22.07 54.08 23.2 53.92 24.43ZM39.43 7.83L12.78 7.83L13.36 3.17C13.36 3.16 13.36 3.14 13.37 3.12C13.49 2.3 14.25 1.72 15.09 1.82L50.88 6.3C51.71 6.4 52.33 7.18 52.22 8.02L50.7 20.2C50.17 20.34 49.66 20.58 49.22 20.92C48.36 21.59 47.81 22.54 47.67 23.62L47 28.87L47 28.87L44.22 50.42C44.08 51.51 44.41 52.66 45.11 53.51L44.21 56.41L37.87 55.61L42.53 50.97C42.69 50.78 42.79 50.57 42.79 50.32L42.79 11.18C42.79 9.33 41.29 7.83 39.43 7.83ZM33.54 51.23L39.69 51.23L32 58.9L32 52.77C32 51.92 32.69 51.23 33.54 51.23Z" fill="#CB8734" fill-opacity="1.000000" fill-rule="nonzero"/>
	<path id="Vector" d="M30.08 60.18L3.36 60.18C2.5 60.18 1.81 59.49 1.81 58.64L1.81 51.08C1.81 50.58 1.4 50.17 0.9 50.17C0.4 50.17 0 50.58 0 51.08L0 58.64C0 60.49 1.5 62 3.36 62L31.09 62C31.33 62 31.56 61.9 31.73 61.73L36.24 57.23L44.71 58.3L46.18 61.13C46.46 61.67 47.22 61.8 47.66 61.32L50.55 58.13C50.71 57.95 50.79 57.72 50.78 57.48L50.63 54.22C51.52 53.58 52.13 52.55 52.27 51.46L53.37 42.92L53.39 42.81C53.42 42.83 53.45 42.84 53.48 42.85C55.04 43.51 56.89 42.48 57.11 40.77L58.55 29.61C58.81 27.61 57.6 25.63 55.69 24.96C56.04 22.8 54.73 20.63 52.53 20.17L54.03 8.24C54.25 6.44 52.91 4.72 51.11 4.5L15.31 0.02C13.47 -0.21 11.79 1.1 11.56 2.93C11.56 2.95 11.55 2.97 11.55 2.99L10.95 7.83L3.36 7.83C1.5 7.83 0 9.33 0 11.18L0 46.24C0.03 47.43 1.76 47.46 1.81 46.24L1.81 11.18C1.81 10.33 2.5 9.64 3.36 9.64L39.43 9.64C40.28 9.64 40.98 10.33 40.98 11.18L40.98 49.41L33.54 49.41C31.69 49.41 30.18 50.92 30.18 52.77L30.18 60.18L30.08 60.18ZM13.26 3.16L12.68 7.81L12.66 7.93L39.43 7.93Q39.79 7.93 40.14 8Q40.42 8.07 40.7 8.18Q40.97 8.3 41.22 8.46Q41.5 8.64 41.74 8.88Q41.98 9.13 42.17 9.41Q42.32 9.65 42.44 9.92Q42.55 10.19 42.62 10.48Q42.69 10.82 42.69 11.18L42.69 50.32Q42.69 50.37 42.69 50.42Q42.65 50.67 42.45 50.9L37.66 55.68L44.28 56.52L45.22 53.49L45.19 53.45Q45.02 53.25 44.89 53.04Q44.6 52.57 44.45 52.03Q44.29 51.47 44.29 50.92Q44.29 50.67 44.32 50.43L47.1 28.89L47.1 28.88L47.1 28.88L47.77 23.63Q47.83 23.17 47.99 22.74Q48.1 22.44 48.26 22.17Q48.42 21.89 48.62 21.65Q48.91 21.29 49.28 21Q49.64 20.73 50.04 20.54Q50.37 20.39 50.72 20.3L50.79 20.28L52.32 8.03Q52.34 7.88 52.33 7.72Q52.32 7.55 52.27 7.38Q52.23 7.26 52.18 7.14Q52.1 6.97 51.98 6.82Q51.87 6.68 51.74 6.57Q51.63 6.48 51.51 6.41Q51.35 6.32 51.19 6.27Q51.04 6.22 50.89 6.2L15.1 1.72Q14.92 1.7 14.74 1.72Q14.6 1.73 14.46 1.77Q14.31 1.81 14.18 1.87Q14.03 1.94 13.9 2.05Q13.76 2.15 13.65 2.28Q13.56 2.38 13.48 2.51Q13.4 2.64 13.35 2.78Q13.29 2.94 13.27 3.11L13.27 3.11L13.27 3.12Q13.26 3.14 13.26 3.16ZM47 28.87L47.67 23.62C47.81 22.54 48.36 21.59 49.22 20.92C49.66 20.58 50.17 20.34 50.7 20.2L52.22 8.02C52.33 7.18 51.71 6.4 50.88 6.3L15.09 1.82C14.25 1.72 13.49 2.3 13.37 3.12C13.36 3.14 13.36 3.16 13.36 3.17L12.79 7.73L12.78 7.83L39.43 7.83C41.29 7.83 42.79 9.33 42.79 11.18L42.79 50.32C42.79 50.57 42.69 50.78 42.53 50.97L37.96 55.52L37.87 55.61L38 55.62L44.21 56.41L45.11 53.51C44.41 52.66 44.08 51.51 44.22 50.42L47 28.87L47 28.87ZM48.8 28.29L53.35 28.88L53.45 28.89L54.02 24.44Q54.06 24.18 54.03 23.93Q54.02 23.72 53.96 23.51Q53.9 23.31 53.81 23.12Q53.7 22.9 53.55 22.71Q53.4 22.51 53.22 22.36Q53.06 22.22 52.88 22.11Q52.69 22 52.49 21.93Q52.25 21.85 52 21.81Q51.73 21.78 51.46 21.81Q51.27 21.82 51.09 21.87Q50.9 21.93 50.73 22Q50.48 22.12 50.27 22.28Q50.05 22.45 49.88 22.66Q49.76 22.81 49.67 22.97Q49.57 23.14 49.5 23.31Q49.41 23.57 49.37 23.84L48.8 28.29ZM53.92 24.43C53.74 25.84 53.56 27.26 53.38 28.68L53.36 28.78L53.26 28.77L49.01 28.22L48.91 28.21L48.93 28.11L49.47 23.85C49.55 23.26 49.85 22.73 50.33 22.36C50.8 22 51.39 21.84 51.99 21.91C53.21 22.07 54.08 23.2 53.92 24.43ZM55.41 40.55L56.85 29.39Q56.89 29.09 56.86 28.79Q56.84 28.58 56.78 28.37Q56.73 28.16 56.64 27.97Q56.51 27.7 56.32 27.45Q56.16 27.25 55.97 27.08Q55.75 26.89 55.49 26.75L55.36 26.68L54.6 32.6Q54.57 32.85 54.44 33.01Q54.37 33.09 54.28 33.15Q54.21 33.2 54.12 33.23Q53.93 33.3 53.7 33.27Q53.47 33.24 53.3 33.12Q53.23 33.07 53.17 33.01Q53.1 32.93 53.05 32.83Q52.97 32.64 53 32.4L53.24 30.49L48.59 29.9L45.92 50.64Q45.89 50.86 45.91 51.07Q45.92 51.32 45.99 51.56Q46.04 51.75 46.13 51.92Q46.24 52.16 46.4 52.36Q46.56 52.57 46.76 52.74Q46.9 52.86 47.07 52.96Q47.29 53.09 47.52 53.17Q47.73 53.23 47.95 53.26Q48.17 53.29 48.38 53.28Q48.63 53.26 48.87 53.19Q49.06 53.14 49.23 53.06Q49.46 52.95 49.67 52.79Q49.88 52.63 50.05 52.43Q50.17 52.28 50.27 52.11Q50.4 51.9 50.48 51.66Q50.54 51.46 50.57 51.24L52.38 37.17Q52.41 36.93 52.55 36.77Q52.61 36.69 52.7 36.63Q52.78 36.58 52.86 36.55Q53.05 36.47 53.28 36.5Q53.52 36.53 53.68 36.65Q53.75 36.7 53.81 36.77Q53.89 36.85 53.93 36.95Q54.02 37.14 53.99 37.38L53.61 40.32Q53.57 40.55 53.65 40.75Q53.7 40.88 53.81 40.99Q53.87 41.07 53.95 41.12Q54.14 41.25 54.39 41.29Q54.65 41.32 54.87 41.25Q54.96 41.21 55.04 41.16Q55.16 41.08 55.25 40.97Q55.38 40.8 55.41 40.55ZM56.25 27.51C56.66 28.05 56.84 28.71 56.75 29.38L55.31 40.54C55.18 41.56 53.57 41.32 53.71 40.33L54.08 37.39C54.23 36.23 52.43 36 52.28 37.16L50.47 51.22C50.32 52.44 49.17 53.32 47.96 53.16C46.75 53.01 45.86 51.86 46.02 50.65L48.67 30.11L48.68 30.01L48.78 30.02L53.03 30.57L53.13 30.58L53.12 30.68L52.9 32.38C52.75 33.55 54.55 33.78 54.7 32.61L55.43 26.94L55.45 26.84C55.48 26.85 55.51 26.87 55.54 26.89C55.81 27.05 56.05 27.26 56.25 27.51ZM31.9 59.14L39.76 51.3L39.93 51.13L33.54 51.13Q33.36 51.13 33.19 51.17Q33.04 51.2 32.9 51.26Q32.76 51.32 32.64 51.4Q32.5 51.49 32.38 51.61Q32.25 51.74 32.16 51.88Q32.08 52 32.03 52.13Q31.96 52.27 31.93 52.42Q31.9 52.59 31.9 52.77L31.9 59.14ZM39.55 51.23L33.54 51.23C32.69 51.23 32 51.92 32 52.77L32 58.9L32.1 58.8L39.59 51.33L39.69 51.23L39.55 51.23ZM45.88 56.82L47.1 59.18L47.17 59.31L49.05 57.23L48.94 54.84L48.83 54.85Q48.57 54.89 48.32 54.9Q48.03 54.9 47.74 54.86Q47.43 54.82 47.12 54.74Q46.9 54.67 46.69 54.58L46.59 54.54L45.88 56.82ZM47.26 59.05L47.19 59.13L47.14 59.04L45.98 56.81L46.62 54.77L46.65 54.67C46.68 54.68 46.71 54.7 46.74 54.71C47.38 54.96 48.07 55.05 48.74 54.97C48.78 54.96 48.81 54.96 48.84 54.95L48.85 55.05L48.95 57.19L47.26 59.05ZM1.71 46.24L1.71 11.18Q1.71 11 1.75 10.83Q1.78 10.69 1.84 10.54Q1.9 10.41 1.98 10.29Q2.07 10.15 2.19 10.02Q2.31 9.9 2.45 9.81Q2.58 9.73 2.72 9.67Q2.86 9.61 3 9.58Q3.18 9.54 3.36 9.54L39.43 9.54Q39.61 9.54 39.79 9.58Q39.93 9.61 40.07 9.67Q40.21 9.73 40.34 9.81Q40.48 9.9 40.59 10.02Q40.72 10.15 40.81 10.29Q40.89 10.41 40.95 10.54Q41.01 10.69 41.04 10.83Q41.08 11 41.08 11.18L41.08 49.52L33.54 49.52Q33.18 49.52 32.84 49.59Q32.55 49.65 32.27 49.77Q32 49.89 31.76 50.05Q31.48 50.23 31.24 50.47Q30.99 50.71 30.81 51Q30.65 51.24 30.54 51.5Q30.42 51.78 30.35 52.07Q30.28 52.41 30.28 52.77L30.28 60.28L3.36 60.28Q3.17 60.28 3 60.24Q2.86 60.21 2.72 60.15Q2.58 60.09 2.45 60.01Q2.31 59.92 2.19 59.8Q2.07 59.67 1.98 59.53Q1.9 59.41 1.84 59.28Q1.78 59.14 1.75 58.99Q1.71 58.82 1.71 58.64L1.71 51.08Q1.71 50.91 1.65 50.77Q1.59 50.63 1.47 50.51Q1.36 50.39 1.21 50.33Q1.07 50.27 0.9 50.27Q0.74 50.27 0.59 50.33Q0.45 50.39 0.33 50.51Q0.21 50.63 0.15 50.77Q0.1 50.91 0.1 51.08L0.1 58.64Q0.1 59 0.17 59.34Q0.23 59.63 0.35 59.91Q0.46 60.17 0.62 60.41Q0.81 60.7 1.05 60.94Q1.29 61.18 1.57 61.36Q1.82 61.52 2.09 61.64Q2.36 61.76 2.65 61.82Q3 61.89 3.36 61.89L31.09 61.89Q31.15 61.89 31.2 61.89Q31.3 61.87 31.4 61.83Q31.46 61.8 31.53 61.76Q31.6 61.72 31.66 61.66L36.21 57.13L44.78 58.21L46.27 61.09Q46.31 61.17 46.38 61.24Q46.44 61.32 46.53 61.38Q46.6 61.43 46.68 61.46Q46.77 61.5 46.88 61.51Q46.99 61.53 47.1 61.51Q47.18 61.5 47.25 61.48Q47.32 61.45 47.39 61.42Q47.5 61.35 47.59 61.26L50.47 58.06Q50.58 57.94 50.64 57.79Q50.69 57.65 50.68 57.48L50.53 54.17L50.57 54.14Q50.78 53.99 50.96 53.81Q51.36 53.44 51.65 52.96Q51.94 52.45 52.08 51.91Q52.14 51.68 52.17 51.44L53.31 42.66L53.43 42.72Q53.7 42.85 53.98 42.91Q54.28 42.97 54.6 42.95Q54.84 42.94 55.06 42.89Q55.4 42.81 55.71 42.64Q56.03 42.46 56.28 42.22Q56.44 42.06 56.58 41.87Q56.76 41.62 56.87 41.35Q56.98 41.07 57.02 40.76L58.45 29.6Q58.49 29.32 58.49 29.04Q58.48 28.6 58.38 28.16Q58.32 27.87 58.21 27.59Q58.07 27.2 57.85 26.84Q57.62 26.47 57.33 26.15Q57.13 25.95 56.91 25.77Q56.57 25.48 56.18 25.28Q55.92 25.15 55.65 25.06L55.57 25.03L55.59 24.94Q55.65 24.55 55.64 24.15Q55.64 23.77 55.56 23.38Q55.46 22.93 55.28 22.52Q55.15 22.24 54.98 21.98Q54.71 21.55 54.35 21.22Q54.16 21.04 53.95 20.89Q53.67 20.69 53.37 20.55Q52.96 20.36 52.51 20.26L52.42 20.25L53.93 8.23Q53.96 7.97 53.95 7.71Q53.93 7.33 53.82 6.96Q53.75 6.72 53.65 6.51Q53.49 6.15 53.25 5.84Q53.01 5.54 52.72 5.3Q52.52 5.14 52.3 5.01Q51.97 4.81 51.6 4.71Q51.36 4.63 51.09 4.6L15.3 0.12Q14.94 0.08 14.59 0.11Q14.3 0.14 14.01 0.22Q13.72 0.3 13.46 0.43Q13.16 0.57 12.89 0.78Q12.62 0.99 12.4 1.25Q12.21 1.47 12.07 1.72Q11.92 1.98 11.82 2.26Q11.7 2.59 11.66 2.94Q11.65 2.97 11.65 2.99L11.65 3L11.04 7.93L3.36 7.93Q3 7.93 2.65 8Q2.36 8.07 2.09 8.18Q1.81 8.3 1.57 8.46Q1.29 8.64 1.05 8.88Q0.81 9.13 0.62 9.41Q0.46 9.65 0.35 9.92Q0.23 10.19 0.17 10.48Q0.1 10.82 0.1 11.18L0.1 46.24L0.1 46.24Q0.1 46.51 0.23 46.7Q0.28 46.78 0.35 46.84Q0.44 46.92 0.54 46.97Q0.7 47.04 0.9 47.04Q1.1 47.05 1.27 46.97Q1.36 46.92 1.45 46.85Q1.51 46.79 1.56 46.72Q1.7 46.53 1.71 46.24Z" fill="#FFFFFF" fill-opacity="1.000000" fill-rule="evenodd"/>
	<path id="Vector" d="M37.39 20.03L37.39 13.87C37.39 13.37 36.99 12.96 36.49 12.96L6.18 12.96C5.68 12.96 5.27 13.37 5.27 13.87L5.27 20.03C5.27 20.53 5.68 20.94 6.18 20.94L36.49 20.94C36.99 20.94 37.39 20.53 37.39 20.03ZM35.58 19.12L7.09 19.12L7.09 14.78L35.58 14.78L35.58 19.12Z" fill="#CB8734" fill-opacity="1.000000" fill-rule="nonzero"/>
	<path id="Vector" d="M37.39 20.03L37.39 13.87C37.39 13.37 36.99 12.96 36.49 12.96L6.18 12.96C5.68 12.96 5.27 13.37 5.27 13.87L5.27 20.03C5.27 20.53 5.68 20.94 6.18 20.94L36.49 20.94C36.99 20.94 37.39 20.53 37.39 20.03ZM37.24 13.56Q37.29 13.7 37.29 13.87L37.29 20.03Q37.29 20.19 37.24 20.34Q37.18 20.48 37.06 20.6Q36.94 20.72 36.8 20.78Q36.65 20.84 36.49 20.84L6.18 20.84Q6.01 20.84 5.87 20.78Q5.73 20.72 5.61 20.6Q5.49 20.48 5.43 20.34Q5.37 20.19 5.37 20.03L5.37 13.87Q5.37 13.7 5.43 13.56Q5.49 13.42 5.61 13.3Q5.73 13.18 5.87 13.12Q6.01 13.06 6.18 13.06L36.49 13.06Q36.65 13.06 36.8 13.12Q36.94 13.18 37.06 13.3Q37.18 13.42 37.24 13.56ZM6.99 14.68L6.99 19.22L35.68 19.22L35.68 14.68L6.99 14.68ZM7.09 19.02L7.09 14.78L35.58 14.78L35.58 14.88L35.58 19.12L7.09 19.12L7.09 19.02Z" fill="#FFFFFF" fill-opacity="1.000000" fill-rule="evenodd"/>
	<path id="Vector" d="M35.63 25.56L7.16 25.56C5.96 25.6 5.96 27.34 7.16 27.38L35.63 27.38C36.83 27.34 36.83 25.6 35.63 25.56Z" fill="#CB8734" fill-opacity="1.000000" fill-rule="nonzero"/>
	<path id="Vector" d="M7.16 25.56L35.63 25.56C36.83 25.6 36.83 27.34 35.63 27.38L7.16 27.38C5.96 27.34 5.96 25.6 7.16 25.56ZM7.16 25.66Q6.89 25.67 6.69 25.8Q6.62 25.85 6.56 25.92Q6.48 26.01 6.44 26.1Q6.36 26.27 6.36 26.47Q6.36 26.67 6.44 26.83Q6.48 26.93 6.56 27.02Q6.62 27.08 6.69 27.14Q6.89 27.27 7.16 27.28L35.63 27.28Q35.9 27.27 36.1 27.13Q36.17 27.08 36.23 27.02Q36.3 26.93 36.35 26.83Q36.43 26.67 36.43 26.47Q36.43 26.27 36.35 26.1Q36.3 26.01 36.23 25.92Q36.17 25.85 36.09 25.8Q35.9 25.67 35.63 25.66L7.16 25.66Z" fill="#FFFFFF" fill-opacity="1.000000" fill-rule="evenodd"/>
	<path id="Vector" d="M35.63 31.74L16.87 31.74C15.67 31.78 15.67 33.51 16.87 33.55L35.63 33.55C36.83 33.51 36.83 31.78 35.63 31.74Z" fill="#CB8734" fill-opacity="1.000000" fill-rule="nonzero"/>
	<path id="Vector" d="M16.87 31.74L35.63 31.74C36.83 31.78 36.83 33.51 35.63 33.55L16.87 33.55C15.67 33.51 15.67 31.78 16.87 31.74ZM16.87 31.84Q16.6 31.85 16.4 31.98Q16.33 32.03 16.27 32.1Q16.19 32.18 16.15 32.28Q16.07 32.44 16.07 32.64Q16.07 32.85 16.15 33.01Q16.19 33.11 16.27 33.19Q16.33 33.26 16.4 33.31Q16.6 33.44 16.87 33.45L35.63 33.45Q35.9 33.44 36.1 33.31Q36.17 33.26 36.23 33.19Q36.3 33.11 36.35 33.01Q36.43 32.84 36.43 32.64Q36.43 32.44 36.35 32.28Q36.3 32.18 36.23 32.1Q36.17 32.03 36.09 31.98Q35.9 31.85 35.63 31.84L16.87 31.84Z" fill="#FFFFFF" fill-opacity="1.000000" fill-rule="evenodd"/>
	<path id="Vector" d="M36.54 38.82C36.54 38.32 36.13 37.91 35.63 37.91L16.87 37.91C15.67 37.95 15.67 39.69 16.87 39.73L35.63 39.73C36.13 39.73 36.54 39.32 36.54 38.82Z" fill="#CB8734" fill-opacity="1.000000" fill-rule="nonzero"/>
	<path id="Vector" d="M35.63 37.91C36.13 37.91 36.54 38.32 36.54 38.82C36.54 39.32 36.13 39.73 35.63 39.73L16.87 39.73C15.67 39.69 15.67 37.95 16.87 37.91L35.63 37.91ZM16.87 38.01L35.63 38.01Q35.8 38.01 35.94 38.07Q36.08 38.13 36.2 38.25Q36.32 38.37 36.38 38.51Q36.44 38.65 36.44 38.82Q36.44 38.99 36.38 39.13Q36.32 39.27 36.2 39.39Q36.08 39.51 35.94 39.57Q35.8 39.63 35.63 39.63L16.87 39.63Q16.6 39.62 16.4 39.48Q16.33 39.43 16.27 39.36Q16.19 39.28 16.15 39.18Q16.07 39.02 16.07 38.82Q16.07 38.62 16.15 38.45Q16.19 38.36 16.27 38.27Q16.33 38.2 16.4 38.15Q16.6 38.02 16.87 38.01Z" fill="#FFFFFF" fill-opacity="1.000000" fill-rule="evenodd"/>
	<path id="Vector" d="M9.21 39.58C8.35 39.58 8.08 39.54 7.42 39.1C7 38.83 6.44 38.94 6.16 39.36C5.88 39.78 6 40.35 6.42 40.62C7.14 41.09 7.67 41.29 8.31 41.36C8.13 43.19 10.39 43.07 10.12 41.27C11.45 40.89 12.3 39.74 12.49 38.61C12.74 37.11 11.93 35.75 10.48 35.23C9.74 34.97 7.89 34.58 8.1 33.49C8.16 33.18 8.36 32.81 8.76 32.69C9.33 32.52 9.96 32.63 10.38 32.94C10.38 32.94 10.99 33.79 11.79 33.05C12.53 32.36 11.62 31.61 11.62 31.61C11.34 31.35 10.81 31.02 10.12 30.87C10.28 29.12 8.08 29.21 8.31 30.93C7.29 31.22 6.51 32.12 6.32 33.15C6.13 34.13 6.45 35.08 7.14 35.63C7.72 36.08 8.5 36.46 9.87 36.94C10.77 37.26 10.75 38 10.7 38.3C10.59 38.91 10.08 39.57 9.21 39.58Z" fill="#CB8734" fill-opacity="1.000000" fill-rule="nonzero"/>
	<path id="Vector" d="M8.31 30.93C7.29 31.22 6.51 32.12 6.32 33.15C6.13 34.13 6.45 35.08 7.14 35.63C7.72 36.08 8.5 36.46 9.87 36.94C10.77 37.26 10.75 38 10.7 38.3C10.59 38.91 10.08 39.57 9.21 39.58C8.35 39.58 8.08 39.54 7.42 39.1C7 38.83 6.44 38.94 6.16 39.36C5.88 39.78 6 40.35 6.42 40.62C7.14 41.09 7.67 41.29 8.31 41.36C8.13 43.19 10.39 43.07 10.12 41.27C11.45 40.89 12.3 39.74 12.49 38.61C12.74 37.11 11.93 35.75 10.48 35.23C10.37 35.19 10.25 35.16 10.11 35.11C9.26 34.85 7.92 34.43 8.1 33.49C8.16 33.18 8.36 32.81 8.76 32.69C9.33 32.52 9.96 32.63 10.38 32.94C10.38 32.94 10.99 33.79 11.79 33.05C12.53 32.36 11.62 31.61 11.62 31.61C11.34 31.35 10.81 31.02 10.12 30.87C10.28 29.12 8.08 29.21 8.31 30.93ZM7.36 39.19L7.36 39.19Q7.62 39.36 7.81 39.45Q8.02 39.55 8.21 39.6Q8.41 39.65 8.65 39.67Q8.85 39.68 9.21 39.68Q9.59 39.67 9.9 39.53Q10.12 39.42 10.31 39.24Q10.36 39.19 10.41 39.14Q10.54 38.99 10.63 38.81Q10.73 38.61 10.78 38.41Q10.79 38.37 10.8 38.32Q10.85 37.99 10.77 37.69Q10.75 37.64 10.73 37.59Q10.68 37.46 10.61 37.35Q10.37 37.02 9.9 36.85Q8.88 36.49 8.25 36.18Q7.63 35.88 7.21 35.55Q7.04 35.42 6.91 35.26Q6.64 34.94 6.5 34.52Q6.44 34.36 6.41 34.2Q6.31 33.7 6.42 33.17Q6.48 32.85 6.6 32.56Q6.78 32.17 7.08 31.83Q7.42 31.44 7.85 31.22Q8.08 31.1 8.34 31.03L8.42 31.01L8.41 30.92Q8.34 30.4 8.56 30.07Q8.58 30.04 8.6 30.01Q8.67 29.92 8.76 29.85Q8.81 29.81 8.87 29.78Q8.95 29.74 9.04 29.72Q9.12 29.7 9.2 29.7Q9.29 29.7 9.38 29.72Q9.45 29.73 9.52 29.76Q9.58 29.79 9.64 29.82Q9.73 29.88 9.8 29.97Q9.82 29.99 9.83 30.01Q10.07 30.33 10.03 30.86L10.02 30.95L10.1 30.97Q10.45 31.05 10.78 31.19Q10.88 31.24 10.98 31.29Q11.32 31.47 11.55 31.68L11.55 31.69L11.56 31.69L11.56 31.69Q11.61 31.73 11.68 31.81Q11.82 31.96 11.89 32.12Q12.01 32.34 11.98 32.55Q11.94 32.77 11.73 32.97Q11.42 33.25 11.12 33.25Q10.98 33.25 10.83 33.18Q10.69 33.11 10.56 32.99Q10.5 32.93 10.47 32.88L10.46 32.87L10.44 32.86Q10.39 32.82 10.33 32.79Q10.02 32.6 9.64 32.54Q9.37 32.49 9.1 32.52Q8.92 32.54 8.73 32.6Q8.62 32.63 8.52 32.69Q8.35 32.79 8.22 32.96Q8.17 33.04 8.12 33.12Q8.04 33.29 8 33.47Q7.97 33.67 8 33.84Q8.1 34.29 8.67 34.64Q8.95 34.81 9.38 34.97Q9.62 35.06 10.08 35.21Q10.34 35.29 10.44 35.33Q10.94 35.5 11.33 35.81Q11.35 35.83 11.38 35.84Q11.65 36.06 11.85 36.33Q11.95 36.46 12.04 36.6Q12.15 36.78 12.23 36.98Q12.33 37.25 12.39 37.54Q12.4 37.6 12.41 37.67Q12.47 38.12 12.39 38.59Q12.32 39.01 12.13 39.41Q12.03 39.62 11.9 39.82Q11.79 40 11.65 40.16Q11.43 40.43 11.15 40.64Q11.06 40.71 10.97 40.77Q10.76 40.91 10.54 41.01Q10.33 41.11 10.1 41.17L10.01 41.19L10.03 41.28Q10.11 41.84 9.88 42.2Q9.86 42.22 9.85 42.24Q9.77 42.35 9.67 42.42Q9.62 42.46 9.57 42.48Q9.49 42.53 9.39 42.55Q9.32 42.57 9.24 42.58Q9.15 42.58 9.06 42.56Q8.98 42.55 8.91 42.52Q8.86 42.49 8.81 42.46Q8.71 42.4 8.63 42.31Q8.62 42.29 8.61 42.28Q8.35 41.95 8.41 41.37L8.42 41.27L8.32 41.26Q7.84 41.2 7.43 41.05Q6.99 40.88 6.47 40.54Q6.33 40.45 6.25 40.32Q6.16 40.19 6.13 40.03Q6.09 39.86 6.12 39.71Q6.15 39.56 6.24 39.42Q6.33 39.28 6.46 39.19Q6.59 39.11 6.75 39.07Q6.92 39.04 7.07 39.07Q7.22 39.1 7.36 39.19Z" fill="#FFFFFF" fill-opacity="1.000000" fill-rule="evenodd"/>
</svg>
