<svg width="62.000000" height="62.000000" viewBox="0 0 62 62" fill="none" xmlns="http://www.w3.org/2000/svg" xmlns:xlink="http://www.w3.org/1999/xlink">
	<desc>
			Created with Pixso.
	</desc>
	<defs/>
	<path id="Vector" d="M61 52L59 52L59 17.5C58.99 16.57 58.62 15.68 57.97 15.02C57.31 14.37 56.42 14 55.5 14L45 14L45 12C45 11.8 44.94 11.62 44.84 11.46C44.73 11.3 44.59 11.17 44.41 11.09L31.41 5.09C31.28 5.03 31.14 4.99 31 4.99C30.85 4.99 30.71 5.03 30.58 5.09L25 7.66L25 5C25 4.73 24.89 4.48 24.7 4.29C24.51 4.1 24.26 4 24 4C23.73 4 23.48 4.1 23.29 4.29C23.1 4.48 23 4.73 23 5L23 8.59L17.58 11.09C17.4 11.17 17.26 11.3 17.15 11.46C17.05 11.62 17 11.8 17 12L17 14L6.5 14C5.57 14 4.68 14.37 4.02 15.02C3.37 15.68 3 16.57 3 17.5L3 52L1 52C0.73 52 0.48 52.1 0.29 52.29C0.1 52.48 0 52.73 0 53L0 58.5C0 59.42 0.37 60.31 1.02 60.97C1.68 61.62 2.57 61.99 3.5 62L58.5 62C59.42 61.99 60.31 61.62 60.97 60.97C61.62 60.31 61.99 59.42 62 58.5L62 53C62 52.73 61.89 52.48 61.7 52.29C61.51 52.1 61.26 52 61 52ZM23 10.79L23 11C23 11.26 23.1 11.51 23.29 11.7C23.48 11.89 23.73 12 24 12C24.26 12 24.51 11.89 24.7 11.7C24.89 11.51 25 11.26 25 11L25 9.87L31 7.1L41.61 12L31 16.89L20.38 12L23 10.79ZM43 13.56L43 25.36L32 30.43L32 18.63L43 13.56ZM19 13.56L30 18.63L30 30.43L19 25.36L19 13.56ZM17.58 26.9L30.58 32.9C30.71 32.96 30.85 33 31 33C31.14 33 31.28 32.96 31.41 32.9L44.41 26.9C44.59 26.82 44.73 26.7 44.84 26.53C44.94 26.37 45 26.19 45 26L45 19L54 19L54 49L8 49L8 19L17 19L17 26C17 26.19 17.05 26.37 17.15 26.53C17.26 26.7 17.4 26.82 17.58 26.9ZM5 17.5C5 17.1 5.15 16.72 5.43 16.43C5.72 16.15 6.1 16 6.5 16L17 16L17 17L7 17C6.73 17 6.48 17.1 6.29 17.29C6.1 17.48 6 17.73 6 18L6 50C6 50.26 6.1 50.51 6.29 50.7C6.48 50.89 6.73 51 7 51L55 51C55.26 51 55.51 50.89 55.7 50.7C55.89 50.51 56 50.26 56 50L56 18C56 17.73 55.89 17.48 55.7 17.29C55.51 17.1 55.26 17 55 17L45 17L45 16L55.5 16C55.89 16 56.27 16.15 56.56 16.43C56.84 16.72 56.99 17.1 57 17.5L57 52L5 52L5 17.5ZM34.71 54L34.21 56L27.78 56L27.28 54L34.71 54ZM60 58.5C59.99 58.89 59.84 59.27 59.56 59.56C59.27 59.84 58.89 59.99 58.5 60L3.5 60C3.1 59.99 2.72 59.84 2.43 59.56C2.15 59.27 2 58.89 2 58.5L2 54L25.21 54L26.02 57.24C26.08 57.45 26.2 57.65 26.38 57.78C26.56 57.92 26.77 58 27 58L35 58C35.22 58 35.43 57.92 35.61 57.78C35.79 57.65 35.91 57.45 35.97 57.24L36.78 54L60 54L60 58.5Z" fill="#CB8734" fill-opacity="1.000000" fill-rule="nonzero"/>
	<path id="Vector" d="M59 51.7L59 17.5C58.99 16.57 58.62 15.68 57.97 15.02C57.31 14.37 56.42 14 55.5 14L45 14L45 12C45 11.8 44.94 11.62 44.84 11.46C44.73 11.3 44.59 11.17 44.41 11.09L31.41 5.09C31.28 5.03 31.14 4.99 31 4.99C30.85 4.99 30.71 5.03 30.58 5.09L25.29 7.52L25 7.66L25 5C25 4.73 24.89 4.48 24.7 4.29C24.51 4.1 24.26 4 24 4C23.73 4 23.48 4.1 23.29 4.29C23.1 4.48 23 4.73 23 5L23 8.59L17.58 11.09C17.4 11.17 17.26 11.3 17.15 11.46C17.05 11.62 17 11.8 17 12L17 14L6.5 14C5.57 14 4.68 14.37 4.02 15.02C3.37 15.68 3 16.57 3 17.5L3 52L1 52C0.73 52 0.48 52.1 0.29 52.29C0.1 52.48 0 52.73 0 53L0 58.5C0 59.42 0.37 60.31 1.02 60.97C1.68 61.62 2.57 61.99 3.5 62L58.5 62C59.42 61.99 60.31 61.62 60.97 60.97C61.62 60.31 61.99 59.42 62 58.5L62 53C62 52.73 61.89 52.48 61.7 52.29C61.51 52.1 61.26 52 61 52L59 52L59 51.7ZM58.7 17.5L58.7 52.3L61 52.3Q61.14 52.3 61.26 52.35Q61.39 52.4 61.49 52.5Q61.59 52.6 61.64 52.73Q61.7 52.85 61.7 53L61.7 58.49Q61.69 58.81 61.63 59.12Q61.57 59.43 61.45 59.72Q61.33 60.01 61.16 60.27Q60.98 60.53 60.76 60.76Q60.53 60.98 60.27 61.15Q60.01 61.33 59.72 61.45Q59.42 61.57 59.12 61.63Q58.81 61.69 58.5 61.7L3.5 61.7Q3.18 61.69 2.87 61.63Q2.56 61.57 2.27 61.45Q1.98 61.33 1.72 61.15Q1.46 60.98 1.23 60.76Q1.01 60.53 0.83 60.27Q0.66 60.01 0.54 59.72Q0.42 59.42 0.36 59.11Q0.3 58.81 0.29 58.5L0.29 53Q0.29 52.85 0.35 52.73Q0.4 52.6 0.5 52.5Q0.6 52.4 0.73 52.35Q0.85 52.3 1 52.3L3.29 52.3L3.29 17.5Q3.3 17.18 3.36 16.87Q3.42 16.57 3.54 16.27Q3.66 15.98 3.83 15.72Q4.01 15.46 4.23 15.23Q4.46 15.01 4.72 14.83Q4.98 14.66 5.27 14.54Q5.57 14.42 5.88 14.36Q6.18 14.3 6.5 14.3L17.29 14.3L17.29 11.99Q17.29 11.89 17.32 11.8Q17.35 11.7 17.41 11.62Q17.46 11.53 17.53 11.47Q17.61 11.4 17.7 11.36L23.29 8.78L23.29 5Q23.29 4.85 23.35 4.73Q23.4 4.6 23.5 4.5Q23.6 4.4 23.73 4.35Q23.85 4.3 24 4.3Q24.14 4.3 24.26 4.35Q24.39 4.4 24.49 4.5Q24.59 4.6 24.64 4.73Q24.7 4.85 24.7 5L24.7 8.13L30.7 5.36Q30.77 5.33 30.85 5.31Q30.92 5.29 31 5.29Q31.07 5.29 31.13 5.31Q31.21 5.32 31.29 5.36L44.29 11.36Q44.38 11.4 44.46 11.47Q44.53 11.53 44.58 11.62Q44.64 11.7 44.67 11.8Q44.7 11.89 44.7 12L44.7 14.3L55.49 14.3Q55.81 14.3 56.12 14.36Q56.42 14.42 56.72 14.54Q57.01 14.66 57.27 14.84Q57.53 15.01 57.76 15.23Q57.98 15.46 58.16 15.72Q58.33 15.98 58.45 16.27Q58.57 16.57 58.63 16.87Q58.69 17.18 58.7 17.5ZM23.35 11.26Q23.29 11.14 23.29 11L23.29 10.32L19.67 12L31 17.22L42.32 12L31 6.77L24.7 9.67L24.7 11Q24.7 11.14 24.64 11.26Q24.59 11.39 24.49 11.49Q24.39 11.59 24.26 11.64Q24.14 11.7 24 11.7Q23.85 11.7 23.73 11.64Q23.6 11.59 23.5 11.49Q23.4 11.39 23.35 11.26ZM23 11.12C23.03 11.34 23.13 11.54 23.29 11.7C23.48 11.89 23.73 12 24 12C24.26 12 24.51 11.89 24.7 11.7C24.89 11.51 25 11.26 25 11L25 9.87L31 7.1L41.25 11.83L41.61 12L41.25 12.16L31 16.89L20.74 12.16L20.38 12L20.74 11.83L22.7 10.93L23 10.79L23 11C23 11.04 23 11.08 23 11.12ZM30.29 30.9L30.29 18.44L18.7 13.09L18.7 25.55L30.29 30.9ZM31.7 30.9L43.12 25.63L43.29 25.55L43.29 13.09L31.7 18.44L31.7 30.9ZM30 18.63L19.29 13.7L19 13.56L19 25.36L29.7 30.29L30 30.43L30 18.63ZM43 25.36L32.29 30.29L32 30.43L32 18.63L42.7 13.7L43 13.56L43 25.36ZM5.5 16Q5.35 16.1 5.22 16.22Q5.1 16.35 5 16.5Q4.9 16.64 4.83 16.81Q4.76 16.97 4.73 17.14Q4.7 17.31 4.7 17.5L4.7 52.3L57.29 52.3L57.29 17.49Q57.29 17.32 57.26 17.14Q57.23 16.97 57.16 16.81Q57.09 16.64 56.99 16.5Q56.89 16.35 56.77 16.22Q56.64 16.1 56.5 16Q56.35 15.9 56.18 15.83Q56.02 15.76 55.85 15.73Q55.68 15.7 55.5 15.7L44.7 15.7L44.7 17.29L55 17.29Q55.14 17.29 55.26 17.35Q55.39 17.4 55.49 17.5Q55.59 17.6 55.64 17.73Q55.7 17.85 55.7 18L55.7 50Q55.7 50.14 55.64 50.26Q55.59 50.39 55.49 50.49Q55.39 50.59 55.26 50.64Q55.14 50.7 55 50.7L7 50.7Q6.85 50.7 6.73 50.64Q6.6 50.59 6.5 50.49Q6.4 50.39 6.35 50.26Q6.29 50.14 6.29 50L6.29 18Q6.29 17.85 6.35 17.73Q6.4 17.6 6.5 17.5Q6.6 17.4 6.73 17.35Q6.85 17.29 7 17.29L17.29 17.29L17.29 15.7L6.49 15.7Q6.32 15.7 6.14 15.73Q5.97 15.76 5.81 15.83Q5.64 15.9 5.5 16ZM5 51.7L5 17.5C5 17.1 5.15 16.72 5.43 16.43C5.72 16.15 6.1 16 6.5 16L17 16L17 17L7 17C6.73 17 6.48 17.1 6.29 17.29C6.1 17.48 6 17.73 6 18L6 50C6 50.26 6.1 50.51 6.29 50.7C6.48 50.89 6.73 51 7 51L55 51C55.26 51 55.51 50.89 55.7 50.7C55.89 50.51 56 50.26 56 50L56 18C56 17.73 55.89 17.48 55.7 17.29C55.51 17.1 55.26 17 55 17L45 17L45 16L55.5 16C55.89 16 56.27 16.15 56.56 16.43C56.84 16.72 56.99 17.1 57 17.5L57 52L5 52L5 51.7ZM30.85 32.68Q30.77 32.66 30.7 32.63L30.7 32.63L17.7 26.63Q17.61 26.59 17.53 26.52Q17.46 26.46 17.41 26.37Q17.35 26.29 17.32 26.19Q17.29 26.1 17.29 26L17.29 18.7L7.7 18.7L7.7 49.3L54.29 49.3L54.29 18.7L44.7 18.7L44.7 26Q44.7 26.1 44.67 26.19Q44.64 26.29 44.58 26.37Q44.53 26.46 44.46 26.52Q44.38 26.59 44.29 26.63L31.29 32.63Q31.22 32.66 31.14 32.68Q31.07 32.7 31 32.7Q30.92 32.7 30.85 32.68ZM17 19.29L17 26C17 26.19 17.05 26.37 17.15 26.53C17.26 26.7 17.4 26.82 17.58 26.9L30.58 32.9C30.71 32.96 30.85 33 31 33C31.14 33 31.28 32.96 31.41 32.9L44.41 26.9C44.59 26.82 44.73 26.7 44.84 26.53C44.94 26.37 45 26.19 45 26L45 19L54 19L54 49L8 49L8 19L17 19L17 19.29ZM59.5 59.99Q59.64 59.89 59.77 59.77Q59.89 59.64 59.99 59.5Q60.09 59.35 60.16 59.18Q60.23 59.02 60.26 58.85Q60.29 58.68 60.29 58.5L60.29 53.7L36.54 53.7L35.67 57.16Q35.64 57.28 35.58 57.38Q35.52 57.47 35.43 57.55Q35.33 57.62 35.22 57.66Q35.12 57.7 35 57.7L27 57.7Q26.87 57.7 26.77 57.66Q26.66 57.62 26.56 57.55Q26.47 57.47 26.41 57.38Q26.35 57.28 26.32 57.16L25.45 53.7L1.7 53.7L1.7 58.5Q1.7 58.67 1.73 58.85Q1.76 59.02 1.83 59.18Q1.9 59.35 2 59.5Q2.1 59.64 2.22 59.77Q2.35 59.89 2.5 59.99Q2.64 60.09 2.81 60.16Q2.97 60.23 3.14 60.26Q3.31 60.29 3.5 60.3L58.5 60.3Q58.67 60.29 58.85 60.26Q59.02 60.23 59.18 60.16Q59.35 60.09 59.5 59.99ZM27.54 56.3L34.45 56.3L35.1 53.7L26.89 53.7L27.54 56.3ZM34.21 56L27.78 56L27.35 54.3L27.28 54L34.71 54L34.64 54.3L34.21 56ZM60 54.3L60 58.5C59.99 58.89 59.84 59.27 59.56 59.56C59.27 59.84 58.89 59.99 58.5 60L3.5 60C3.1 59.99 2.72 59.84 2.43 59.56C2.15 59.27 2 58.89 2 58.5L2 54L25.21 54L26.02 57.24C26.08 57.45 26.2 57.65 26.38 57.78C26.56 57.92 26.77 58 27 58L35 58C35.22 58 35.43 57.92 35.61 57.78C35.79 57.65 35.91 57.45 35.97 57.24L36.78 54L60 54L60 54.3Z" fill="#FFFFFF" fill-opacity="1.000000" fill-rule="evenodd"/>
	<path id="Vector" d="M17.64 41.06C17.45 41.13 17.29 41.26 17.17 41.43C17.06 41.6 17 41.79 17 42C17 42.2 17.06 42.39 17.17 42.56C17.29 42.73 17.45 42.86 17.64 42.93L30.64 47.93C30.87 48.02 31.12 48.02 31.35 47.93L44.35 42.93C44.54 42.86 44.71 42.73 44.82 42.56C44.93 42.39 45 42.2 45 42C45 41.79 44.93 41.6 44.82 41.43C44.71 41.26 44.54 41.13 44.35 41.06L31.35 36.06C31.12 35.97 30.87 35.97 30.64 36.06L27 37.46L27 35C27 34.73 26.89 34.48 26.7 34.29C26.51 34.1 26.26 34 26 34C25.73 34 25.48 34.1 25.29 34.29C25.1 34.48 25 34.73 25 35L25 38.23L17.64 41.06ZM31 38.07L41.21 42L31 45.92L20.78 42L25 40.37L25 41C25 41.26 25.1 41.51 25.29 41.7C25.48 41.89 25.73 42 26 42C26.26 42 26.51 41.89 26.7 41.7C26.89 41.51 27 41.26 27 41L27 39.6L31 38.07Z" fill="#CB8734" fill-opacity="1.000000" fill-rule="nonzero"/>
	<path id="Vector" d="M25 38.23L17.64 41.06C17.45 41.13 17.29 41.26 17.17 41.43C17.06 41.6 17 41.79 17 42C17 42.2 17.06 42.39 17.17 42.56C17.29 42.73 17.45 42.86 17.64 42.93L30.64 47.93C30.87 48.02 31.12 48.02 31.35 47.93L44.35 42.93C44.54 42.86 44.71 42.73 44.82 42.56C44.93 42.39 45 42.2 45 42C45 41.79 44.93 41.6 44.82 41.43C44.71 41.26 44.54 41.13 44.35 41.06L31.35 36.06C31.12 35.97 30.87 35.97 30.64 36.06L27.3 37.35L27 37.46L27 35C27 34.73 26.89 34.48 26.7 34.29C26.51 34.1 26.26 34 26 34C25.73 34 25.48 34.1 25.29 34.29C25.1 34.48 25 34.73 25 35L25 38.23ZM17.33 41.79Q17.36 41.69 17.42 41.6Q17.48 41.51 17.56 41.45Q17.64 41.38 17.74 41.34L25.3 38.44L25.3 35Q25.3 34.85 25.35 34.73Q25.4 34.6 25.5 34.5Q25.6 34.4 25.73 34.35Q25.85 34.3 26 34.3Q26.14 34.3 26.26 34.35Q26.39 34.4 26.49 34.5Q26.59 34.6 26.64 34.73Q26.7 34.85 26.7 35L26.7 37.9L30.74 36.34Q30.87 36.29 31 36.29Q31.12 36.29 31.25 36.34L44.25 41.34Q44.35 41.38 44.43 41.45Q44.51 41.51 44.57 41.6Q44.63 41.69 44.66 41.79Q44.7 41.89 44.7 42Q44.7 42.1 44.66 42.2Q44.63 42.3 44.57 42.39Q44.51 42.48 44.43 42.55Q44.35 42.61 44.25 42.65L31.25 47.65Q31.12 47.7 31 47.7Q30.87 47.7 30.74 47.65L17.74 42.65Q17.64 42.61 17.56 42.55Q17.48 42.48 17.42 42.39Q17.36 42.3 17.33 42.2Q17.29 42.1 17.29 42Q17.29 41.89 17.33 41.79ZM31 46.25L41.32 42.28L42.05 42L31 37.75L26.7 39.4L26.7 41Q26.7 41.14 26.64 41.26Q26.59 41.39 26.49 41.49Q26.39 41.59 26.26 41.64Q26.14 41.7 26 41.7Q25.85 41.7 25.73 41.64Q25.6 41.59 25.5 41.49Q25.4 41.39 25.35 41.26Q25.3 41.14 25.3 41L25.3 39.94L19.95 42L31 46.25ZM40.79 41.83L31 38.07L27 39.6L27 41C27 41.26 26.89 41.51 26.7 41.7C26.51 41.89 26.26 42 26 42C25.73 42 25.48 41.89 25.29 41.7C25.1 41.51 25 41.26 25 41L25 40.37L24.7 40.49L21.2 41.83L20.78 42L21.2 42.16L31 45.92L40.79 42.16L41.21 42L40.79 41.83Z" fill="#FFFFFF" fill-opacity="1.000000" fill-rule="evenodd"/>
	<path id="Vector" d="M44 36C44.26 36 44.51 35.89 44.7 35.7C44.89 35.51 45 35.26 45 35L45 30C45 29.73 44.89 29.48 44.7 29.29C44.51 29.1 44.26 29 44 29C43.73 29 43.48 29.1 43.29 29.29C43.1 29.48 43 29.73 43 30L43 35C43 35.26 43.1 35.51 43.29 35.7C43.48 35.89 43.73 36 44 36Z" fill="#CB8734" fill-opacity="1.000000" fill-rule="nonzero"/>
	<path id="Vector" d="M44 36C44.26 36 44.51 35.89 44.7 35.7C44.89 35.51 45 35.26 45 35L45 30C45 29.73 44.89 29.48 44.7 29.29C44.51 29.1 44.26 29 44 29C43.73 29 43.48 29.1 43.29 29.29C43.1 29.48 43 29.73 43 30L43 35C43 35.26 43.1 35.51 43.29 35.7C43.48 35.89 43.73 36 44 36ZM44.64 35.26Q44.59 35.39 44.49 35.49Q44.39 35.59 44.26 35.64Q44.14 35.7 44 35.7Q43.85 35.7 43.73 35.64Q43.6 35.59 43.5 35.49Q43.4 35.39 43.35 35.26Q43.29 35.14 43.29 35L43.29 30Q43.29 29.85 43.35 29.73Q43.4 29.6 43.5 29.5Q43.6 29.4 43.73 29.35Q43.85 29.3 44 29.3Q44.14 29.3 44.26 29.35Q44.39 29.4 44.49 29.5Q44.59 29.6 44.64 29.73Q44.7 29.85 44.7 30L44.7 35Q44.7 35.14 44.64 35.26Z" fill="#FFFFFF" fill-opacity="1.000000" fill-rule="evenodd"/>
	<path id="Vector" d="M39 36C39.26 36 39.51 35.89 39.7 35.7C39.89 35.51 40 35.26 40 35L40 32C40 31.73 39.89 31.48 39.7 31.29C39.51 31.1 39.26 31 39 31C38.73 31 38.48 31.1 38.29 31.29C38.1 31.48 38 31.73 38 32L38 35C38 35.26 38.1 35.51 38.29 35.7C38.48 35.89 38.73 36 39 36Z" fill="#CB8734" fill-opacity="1.000000" fill-rule="nonzero"/>
	<path id="Vector" d="M39 36C39.26 36 39.51 35.89 39.7 35.7C39.89 35.51 40 35.26 40 35L40 32C40 31.73 39.89 31.48 39.7 31.29C39.51 31.1 39.26 31 39 31C38.73 31 38.48 31.1 38.29 31.29C38.1 31.48 38 31.73 38 32L38 35C38 35.26 38.1 35.51 38.29 35.7C38.48 35.89 38.73 36 39 36ZM39.64 35.26Q39.59 35.39 39.49 35.49Q39.39 35.59 39.26 35.64Q39.14 35.7 39 35.7Q38.85 35.7 38.73 35.64Q38.6 35.59 38.5 35.49Q38.4 35.39 38.35 35.26Q38.29 35.14 38.29 35L38.29 32Q38.29 31.85 38.35 31.73Q38.4 31.6 38.5 31.5Q38.6 31.4 38.73 31.35Q38.85 31.3 39 31.3Q39.14 31.3 39.26 31.35Q39.39 31.4 39.49 31.5Q39.59 31.6 39.64 31.73Q39.7 31.85 39.7 32L39.7 35Q39.7 35.14 39.64 35.26Z" fill="#FFFFFF" fill-opacity="1.000000" fill-rule="evenodd"/>
	<path id="Vector" d="M17 38C17 38.26 17.1 38.51 17.29 38.7C17.48 38.89 17.73 39 18 39C18.26 39 18.51 38.89 18.7 38.7C18.89 38.51 19 38.26 19 38L19 33C19 32.73 18.89 32.48 18.7 32.29C18.51 32.1 18.26 32 18 32C17.73 32 17.48 32.1 17.29 32.29C17.1 32.48 17 32.73 17 33L17 38Z" fill="#CB8734" fill-opacity="1.000000" fill-rule="nonzero"/>
	<path id="Vector" d="M17 38C17 38.26 17.1 38.51 17.29 38.7C17.48 38.89 17.73 39 18 39C18.26 39 18.51 38.89 18.7 38.7C18.89 38.51 19 38.26 19 38L19 33C19 32.73 18.89 32.48 18.7 32.29C18.51 32.1 18.26 32 18 32C17.73 32 17.48 32.1 17.29 32.29C17.1 32.48 17 32.73 17 33L17 38ZM17.73 38.64Q17.6 38.59 17.5 38.49Q17.4 38.39 17.35 38.26Q17.29 38.14 17.29 38L17.29 33Q17.29 32.85 17.35 32.73Q17.4 32.6 17.5 32.5Q17.6 32.4 17.73 32.35Q17.85 32.3 18 32.3Q18.14 32.3 18.26 32.35Q18.39 32.4 18.49 32.5Q18.59 32.6 18.64 32.73Q18.7 32.85 18.7 33L18.7 38Q18.7 38.14 18.64 38.26Q18.59 38.39 18.49 38.49Q18.39 38.59 18.26 38.64Q18.14 38.7 18 38.7Q17.85 38.7 17.73 38.64Z" fill="#FFFFFF" fill-opacity="1.000000" fill-rule="evenodd"/>
	<path id="Vector" d="M31 4C31.26 4 31.51 3.89 31.7 3.7C31.89 3.51 32 3.26 32 3L32 1C32 0.73 31.89 0.48 31.7 0.29C31.51 0.1 31.26 0 31 0C30.73 0 30.48 0.1 30.29 0.29C30.1 0.48 30 0.73 30 1L30 3C30 3.26 30.1 3.51 30.29 3.7C30.48 3.89 30.73 4 31 4Z" fill="#CB8734" fill-opacity="1.000000" fill-rule="nonzero"/>
	<path id="Vector" d="M31 4C31.26 4 31.51 3.89 31.7 3.7C31.89 3.51 32 3.26 32 3L32 1C32 0.73 31.89 0.48 31.7 0.29C31.51 0.1 31.26 0 31 0C30.73 0 30.48 0.1 30.29 0.29C30.1 0.48 30 0.73 30 1L30 3C30 3.26 30.1 3.51 30.29 3.7C30.48 3.89 30.73 4 31 4ZM31.64 3.26Q31.59 3.39 31.49 3.49Q31.39 3.59 31.26 3.64Q31.14 3.69 31 3.69Q30.85 3.69 30.73 3.64Q30.6 3.59 30.5 3.49Q30.4 3.39 30.35 3.26Q30.29 3.14 30.29 3L30.29 1Q30.29 0.85 30.35 0.73Q30.4 0.6 30.5 0.5Q30.6 0.4 30.73 0.35Q30.85 0.3 31 0.3Q31.14 0.3 31.26 0.35Q31.39 0.4 31.49 0.5Q31.59 0.6 31.64 0.73Q31.7 0.85 31.7 1L31.7 3Q31.7 3.14 31.64 3.26Z" fill="#FFFFFF" fill-opacity="1.000000" fill-rule="evenodd"/>
	<path id="Vector" d="M44 8C44.26 8 44.51 7.89 44.7 7.7C44.89 7.51 45 7.26 45 7L45 5C45 4.73 44.89 4.48 44.7 4.29C44.51 4.1 44.26 4 44 4C43.73 4 43.48 4.1 43.29 4.29C43.1 4.48 43 4.73 43 5L43 7C43 7.26 43.1 7.51 43.29 7.7C43.48 7.89 43.73 8 44 8Z" fill="#CB8734" fill-opacity="1.000000" fill-rule="nonzero"/>
	<path id="Vector" d="M44 8C44.26 8 44.51 7.89 44.7 7.7C44.89 7.51 45 7.26 45 7L45 5C45 4.73 44.89 4.48 44.7 4.29C44.51 4.1 44.26 4 44 4C43.73 4 43.48 4.1 43.29 4.29C43.1 4.48 43 4.73 43 5L43 7C43 7.26 43.1 7.51 43.29 7.7C43.48 7.89 43.73 8 44 8ZM44.64 7.26Q44.59 7.39 44.49 7.49Q44.39 7.59 44.26 7.64Q44.14 7.69 44 7.69Q43.85 7.69 43.73 7.64Q43.6 7.59 43.5 7.49Q43.4 7.39 43.35 7.26Q43.29 7.14 43.29 7L43.29 5Q43.29 4.85 43.35 4.73Q43.4 4.6 43.5 4.5Q43.6 4.4 43.73 4.35Q43.85 4.3 44 4.3Q44.14 4.3 44.26 4.35Q44.39 4.4 44.49 4.5Q44.59 4.6 44.64 4.73Q44.7 4.85 44.7 5L44.7 7Q44.7 7.14 44.64 7.26Z" fill="#FFFFFF" fill-opacity="1.000000" fill-rule="evenodd"/>
</svg>
