<svg width="60.778809" height="62.000000" viewBox="0 0 60.7788 62" fill="none" xmlns="http://www.w3.org/2000/svg" xmlns:xlink="http://www.w3.org/1999/xlink">
	<desc>
			Created with Pixso.
	</desc>
	<defs/>
	<path id="Vector" d="M15.2 19.98L6.74 19.98C6.19 19.98 5.68 20.21 5.32 20.57C4.95 20.94 4.72 21.45 4.72 22L4.72 45.5C4.72 46 4.32 46.41 3.82 46.41C3.31 46.41 2.91 46 2.91 45.5L2.91 22C2.91 20.94 3.34 19.99 4.03 19.29C4.73 18.6 5.69 18.16 6.74 18.16L15.2 18.16L15.2 13.34C15.2 12.84 15.6 12.43 16.1 12.43C16.61 12.43 17.01 12.84 17.01 13.34L17.01 41.49L44.39 41.49C44.39 29.15 44.39 16.81 44.39 4.47L41.64 2.1L38.59 4.75C38.24 5.05 37.73 5.04 37.39 4.73L34.35 2.1L31.29 4.75C30.94 5.05 30.43 5.04 30.1 4.73L27.05 2.1L23.99 4.75C23.65 5.05 23.13 5.04 22.8 4.73L19.75 2.1L17.01 4.47L17.01 9.22C17.01 9.72 16.61 10.13 16.1 10.13C15.6 10.13 15.19 9.72 15.19 9.22L15.19 4.06C15.19 3.81 15.3 3.55 15.51 3.38L19.15 0.22C19.48 -0.07 20 -0.08 20.34 0.21L23.4 2.86L26.45 0.22C26.78 -0.07 27.29 -0.08 27.64 0.21L30.7 2.86L33.75 0.22C34.08 -0.07 34.59 -0.08 34.94 0.21L37.99 2.86L41.04 0.22C41.38 -0.07 41.89 -0.08 42.24 0.21L45.83 3.33C46.05 3.5 46.2 3.76 46.2 4.06L46.2 18.16L54.03 18.16C55.08 18.16 56.04 18.6 56.74 19.29C57.43 19.98 57.86 20.94 57.86 22L57.86 52.82L58.12 52.82C58.67 52.82 59.13 52.92 59.52 53.09C59.92 53.28 60.23 53.54 60.45 53.88C60.66 54.22 60.77 54.61 60.77 55.04C60.77 55.48 60.66 55.96 60.43 56.47L58.95 59.71C58.63 60.4 58.26 60.95 57.74 61.35C57.19 61.77 56.54 62 55.7 62L5.07 62C4.23 62 3.58 61.77 3.03 61.35C2.51 60.95 2.14 60.4 1.82 59.71L0.34 56.47C0.11 55.96 0 55.48 0 55.05C0 54.61 0.1 54.22 0.32 53.88C0.53 53.54 0.85 53.28 1.25 53.09C1.64 52.92 2.1 52.82 2.64 52.82L2.91 52.82L2.91 49.61C2.91 49.11 3.31 48.7 3.82 48.7C4.32 48.7 4.72 49.11 4.72 49.61L4.72 52.82L22.31 52.82C22.81 52.82 23.22 53.22 23.22 53.73C23.22 54.17 23.4 54.57 23.69 54.86C23.98 55.15 24.38 55.34 24.82 55.34L35.95 55.34C36.39 55.34 36.79 55.15 37.08 54.86C37.37 54.57 37.55 54.17 37.55 53.73C37.55 53.22 37.96 52.82 38.46 52.82L56.05 52.82L56.05 22C56.05 21.45 55.82 20.94 55.45 20.57C55.09 20.21 54.58 19.98 54.03 19.98L46.2 19.98L46.2 21.72L54.03 21.72C54.53 21.72 54.93 22.12 54.93 22.63L54.93 26.74C54.93 27.24 54.53 27.65 54.03 27.65C53.53 27.65 53.12 27.24 53.12 26.74L53.12 23.54L46.2 23.54L46.2 37.91L47.75 37.91C48.49 37.91 49.15 38.22 49.64 38.7C50.12 39.18 50.41 39.85 50.41 40.58L50.41 44.21C50.41 44.94 50.12 45.61 49.64 46.09C49.15 46.57 48.49 46.87 47.75 46.87L13.65 46.87C12.91 46.87 12.25 46.57 11.77 46.09C11.28 45.61 10.98 44.94 10.98 44.21L10.98 40.58C10.98 39.85 11.28 39.18 11.77 38.7C12.25 38.22 12.91 37.91 13.65 37.91L15.2 37.91L15.2 23.54L8.28 23.54L8.28 49.26L53.12 49.26L53.12 30.86C53.12 30.35 53.53 29.95 54.03 29.95C54.53 29.95 54.93 30.35 54.93 30.86L54.93 50.17C54.93 50.67 54.53 51.08 54.03 51.08L7.37 51.08C6.87 51.08 6.46 50.67 6.46 50.17L6.46 22.63C6.46 22.12 6.87 21.72 7.37 21.72L15.2 21.72L15.2 19.98ZM21.24 32.42C20.74 32.42 20.33 32.01 20.33 31.51C20.33 31.01 20.74 30.6 21.24 30.6L40.16 30.6C40.66 30.6 41.07 31.01 41.07 31.51C41.07 32.01 40.66 32.42 40.16 32.42L21.24 32.42ZM21.24 39.44C20.74 39.44 20.33 39.03 20.33 38.53C20.33 38.03 20.74 37.62 21.24 37.62L36.06 37.62C36.56 37.62 36.97 38.03 36.97 38.53C36.97 39.03 36.56 39.44 36.06 39.44L21.24 39.44ZM21.24 35.93C20.74 35.93 20.33 35.52 20.33 35.02C20.33 34.52 20.74 34.11 21.24 34.11L40.16 34.11C40.66 34.11 41.07 34.52 41.07 35.02C41.07 35.52 40.66 35.93 40.16 35.93L21.24 35.93ZM34.34 10.74C34.71 11.07 34.74 11.64 34.41 12.02C34.07 12.39 33.5 12.42 33.13 12.08C33.12 12.08 32.53 11.54 31.51 11.36L31.51 16.8C31.85 16.93 32.2 17.06 32.58 17.19C34.14 17.74 35.08 18.79 35.49 20.01C35.75 20.78 35.8 21.62 35.64 22.42C35.49 23.21 35.15 23.98 34.64 24.64C33.91 25.58 32.85 26.3 31.51 26.54L31.51 27.94C31.51 28.44 31.11 28.85 30.6 28.85C30.1 28.85 29.69 28.44 29.69 27.94L29.69 26.6C29.18 26.58 28.74 26.53 28.29 26.42C27.58 26.25 26.92 25.94 26.07 25.39C25.65 25.11 25.54 24.55 25.81 24.13C26.09 23.71 26.65 23.59 27.07 23.86C27.73 24.3 28.23 24.54 28.73 24.66C29.02 24.74 29.33 24.77 29.69 24.79L29.69 18.02C28.89 17.67 28.09 17.25 27.4 16.71C26.85 16.28 26.47 15.7 26.28 15.05C26.09 14.41 26.06 13.71 26.2 13.03C26.33 12.36 26.62 11.7 27.06 11.14C27.55 10.51 28.23 10.01 29.09 9.75C29.29 9.69 29.5 9.64 29.69 9.6L29.69 8.33C29.69 7.83 30.1 7.42 30.6 7.42C31.1 7.42 31.51 7.83 31.51 8.33L31.51 9.53C33.27 9.75 34.34 10.73 34.34 10.74ZM29.69 11.46C29.66 11.47 29.63 11.48 29.6 11.49C29.13 11.63 28.76 11.91 28.49 12.26C28.23 12.58 28.06 12.97 27.98 13.38C27.9 13.78 27.91 14.17 28.02 14.53C28.11 14.83 28.27 15.1 28.51 15.29C28.83 15.54 29.23 15.78 29.69 16.01L29.69 11.46ZM31.51 18.74L31.51 24.68C32.22 24.48 32.8 24.06 33.21 23.54C33.54 23.1 33.77 22.6 33.86 22.09C33.96 21.58 33.93 21.06 33.77 20.59C33.39 19.46 32.53 19.11 31.51 18.74ZM46.2 39.73L46.2 42.39C46.2 42.9 45.79 43.3 45.29 43.3L16.1 43.3C15.6 43.3 15.2 42.9 15.2 42.39L15.2 39.73L13.65 39.73C13.41 39.73 13.2 39.83 13.05 39.98C12.89 40.14 12.8 40.35 12.8 40.58L12.8 44.21C12.8 44.44 12.89 44.65 13.05 44.81C13.2 44.96 13.41 45.06 13.65 45.06L47.75 45.06C47.98 45.06 48.2 44.96 48.35 44.81C48.5 44.65 48.6 44.44 48.6 44.21L48.6 40.58C48.6 40.35 48.5 40.14 48.35 39.98C48.2 39.83 47.98 39.73 47.75 39.73L46.2 39.73ZM5.07 60.18L55.7 60.18C56.11 60.18 56.41 60.09 56.63 59.92C56.89 59.72 57.1 59.39 57.3 58.95L58.78 55.71C58.87 55.53 59.04 55.04 58.92 54.85C58.8 54.66 58.32 54.64 58.12 54.64L39.25 54.64C39.09 55.22 38.78 55.73 38.36 56.15C37.74 56.77 36.89 57.15 35.95 57.15L24.82 57.15C23.88 57.15 23.02 56.77 22.4 56.15C21.99 55.73 21.68 55.21 21.52 54.64L2.64 54.64C2.45 54.64 1.97 54.66 1.85 54.85C1.73 55.04 1.9 55.53 1.99 55.71L3.47 58.95C3.66 59.39 3.88 59.72 4.13 59.92C4.35 60.09 4.66 60.18 5.07 60.18Z" fill="#CB8734" fill-opacity="1.000000" fill-rule="nonzero"/>
	<path id="Vector" d="M15 18.16L6.74 18.16C5.69 18.16 4.73 18.6 4.03 19.29C3.34 19.99 2.91 20.94 2.91 22L2.91 45.5C2.91 46 3.31 46.41 3.82 46.41C4.32 46.41 4.72 46 4.72 45.5L4.72 22C4.72 21.45 4.95 20.94 5.32 20.57C5.68 20.21 6.19 19.98 6.74 19.98L15.2 19.98L15.2 21.72L7.37 21.72C6.87 21.72 6.46 22.12 6.46 22.63L6.46 50.17C6.46 50.67 6.87 51.08 7.37 51.08L54.03 51.08C54.53 51.08 54.93 50.67 54.93 50.17L54.93 30.86C54.93 30.35 54.53 29.95 54.03 29.95C53.53 29.95 53.12 30.35 53.12 30.86L53.12 49.26L8.28 49.26L8.28 23.54L15.2 23.54L15.2 37.91L13.65 37.91C12.91 37.91 12.25 38.22 11.77 38.7C11.28 39.18 10.98 39.85 10.98 40.58L10.98 44.21C10.98 44.94 11.28 45.61 11.77 46.09C12.25 46.57 12.91 46.87 13.65 46.87L47.75 46.87C48.49 46.87 49.15 46.57 49.64 46.09C50.12 45.61 50.41 44.94 50.41 44.21L50.41 40.58C50.41 39.85 50.12 39.18 49.64 38.7C49.15 38.22 48.49 37.91 47.75 37.91L46.2 37.91L46.2 23.54L53.12 23.54L53.12 26.74C53.12 27.24 53.53 27.65 54.03 27.65C54.53 27.65 54.93 27.24 54.93 26.74L54.93 22.63C54.93 22.12 54.53 21.72 54.03 21.72L46.2 21.72L46.2 19.98L54.03 19.98C54.58 19.98 55.09 20.21 55.45 20.57C55.82 20.94 56.05 21.45 56.05 22L56.05 52.82L38.46 52.82C37.96 52.82 37.55 53.22 37.55 53.73C37.55 54.17 37.37 54.57 37.08 54.86C36.79 55.15 36.39 55.34 35.95 55.34L24.82 55.34C24.38 55.34 23.98 55.15 23.69 54.86C23.4 54.57 23.22 54.17 23.22 53.73C23.22 53.22 22.81 52.82 22.31 52.82L4.72 52.82L4.72 49.61C4.72 49.11 4.32 48.7 3.82 48.7C3.31 48.7 2.91 49.11 2.91 49.61L2.91 52.82L2.64 52.82C2.1 52.82 1.64 52.92 1.25 53.09C0.85 53.28 0.53 53.54 0.32 53.88C0.1 54.22 0 54.61 0 55.05C0 55.48 0.11 55.96 0.34 56.47L1.82 59.71C2.14 60.4 2.51 60.95 3.03 61.35C3.58 61.77 4.23 62 5.07 62L55.7 62C56.54 62 57.19 61.77 57.74 61.35C58.26 60.95 58.63 60.4 58.95 59.71L60.43 56.47C60.66 55.96 60.77 55.48 60.77 55.04C60.77 54.61 60.66 54.22 60.45 53.88C60.23 53.54 59.92 53.28 59.52 53.09C59.13 52.92 58.67 52.82 58.12 52.82L57.86 52.82L57.86 22C57.86 20.94 57.43 19.98 56.74 19.29C56.04 18.6 55.08 18.16 54.03 18.16L46.2 18.16L46.2 4.06C46.2 3.76 46.05 3.5 45.83 3.33L42.24 0.21C41.89 -0.08 41.38 -0.07 41.04 0.22L37.99 2.86L34.94 0.21C34.59 -0.08 34.08 -0.07 33.75 0.22L30.7 2.86L27.64 0.21C27.29 -0.08 26.78 -0.07 26.45 0.22L23.4 2.86L20.34 0.21C20 -0.08 19.48 -0.07 19.15 0.22L15.51 3.38C15.3 3.55 15.19 3.81 15.19 4.06L15.19 9.22C15.19 9.72 15.6 10.13 16.1 10.13C16.61 10.13 17.01 9.72 17.01 9.22L17.01 4.47L19.75 2.1L22.8 4.73C23.13 5.04 23.65 5.05 23.99 4.75L27.05 2.1L30.1 4.73C30.43 5.04 30.94 5.05 31.29 4.75L34.35 2.1L37.39 4.73C37.73 5.04 38.24 5.05 38.59 4.75L41.64 2.1L44.39 4.47L44.39 41.49L17.01 41.49L17.01 13.34C17.01 12.84 16.61 12.43 16.1 12.43C15.6 12.43 15.2 12.84 15.2 13.34L15.2 18.16L15 18.16ZM15.39 19.78L6.74 19.78Q6.53 19.78 6.33 19.82Q6.1 19.86 5.88 19.96Q5.71 20.03 5.56 20.12Q5.35 20.26 5.18 20.43Q5 20.61 4.87 20.81Q4.77 20.97 4.7 21.14Q4.61 21.34 4.57 21.55Q4.52 21.77 4.52 22L4.52 45.5Q4.52 45.64 4.47 45.77Q4.42 45.9 4.31 46Q4.21 46.1 4.08 46.16Q3.96 46.21 3.82 46.21Q3.67 46.21 3.54 46.15Q3.42 46.1 3.31 46Q3.21 45.9 3.16 45.77Q3.11 45.65 3.11 45.5L3.11 22Q3.11 21.62 3.18 21.26Q3.25 20.92 3.39 20.59Q3.51 20.31 3.67 20.06Q3.89 19.72 4.17 19.43Q4.43 19.17 4.74 18.97Q5.02 18.78 5.33 18.65Q5.66 18.51 6.01 18.44Q6.37 18.36 6.74 18.36L15.39 18.36L15.39 13.34Q15.39 13.19 15.45 13.07Q15.5 12.94 15.6 12.84Q15.71 12.73 15.84 12.68Q15.96 12.63 16.1 12.63Q16.25 12.63 16.37 12.68Q16.5 12.73 16.61 12.84Q16.71 12.94 16.76 13.07Q16.81 13.19 16.81 13.34L16.81 41.68L44.59 41.68L44.59 4.38L41.64 1.83L38.46 4.59Q38.35 4.68 38.23 4.73Q38.12 4.77 37.99 4.77Q37.85 4.76 37.74 4.72Q37.62 4.67 37.53 4.59L37.53 4.58L34.35 1.83L31.16 4.59Q31.06 4.68 30.94 4.73Q30.82 4.77 30.69 4.77Q30.55 4.76 30.43 4.72Q30.32 4.67 30.23 4.59L30.23 4.58L27.05 1.83L23.86 4.59Q23.76 4.68 23.64 4.72Q23.53 4.77 23.39 4.77Q23.25 4.76 23.14 4.72Q23.03 4.67 22.93 4.59L22.93 4.58L19.75 1.83L16.81 4.38L16.81 9.22Q16.81 9.36 16.76 9.49Q16.71 9.62 16.61 9.72Q16.5 9.83 16.37 9.88Q16.25 9.93 16.1 9.93Q15.96 9.93 15.84 9.88Q15.71 9.83 15.6 9.72Q15.5 9.62 15.45 9.49Q15.39 9.36 15.39 9.22L15.39 4.06Q15.39 4 15.41 3.94Q15.42 3.85 15.46 3.77Q15.49 3.71 15.53 3.65Q15.58 3.58 15.64 3.53L19.28 0.38Q19.38 0.29 19.49 0.24Q19.61 0.2 19.74 0.19Q19.88 0.19 20 0.24Q20.12 0.28 20.21 0.37L23.4 3.13L26.58 0.38Q26.68 0.29 26.79 0.24Q26.91 0.2 27.04 0.19Q27.18 0.19 27.3 0.24Q27.41 0.28 27.51 0.37L30.7 3.13L33.88 0.38Q33.97 0.29 34.09 0.24Q34.2 0.2 34.34 0.19Q34.48 0.19 34.6 0.24Q34.71 0.28 34.81 0.37L37.99 3.13L41.17 0.38Q41.27 0.29 41.39 0.24Q41.5 0.2 41.64 0.19Q41.77 0.19 41.88 0.23Q42 0.28 42.11 0.37L45.71 3.49L45.71 3.49Q45.79 3.55 45.84 3.62Q45.89 3.67 45.92 3.74Q45.96 3.81 45.98 3.88Q46 3.97 46 4.06L46 18.36L54.03 18.36Q54.4 18.36 54.76 18.44Q55.11 18.51 55.44 18.65Q55.75 18.78 56.03 18.97Q56.33 19.17 56.6 19.43Q56.86 19.7 57.06 20Q57.25 20.28 57.38 20.59Q57.52 20.92 57.59 21.26Q57.66 21.62 57.66 22L57.66 53.02L58.12 53.02Q58.88 53.02 59.44 53.27Q59.86 53.47 60.13 53.79Q60.22 53.89 60.28 53.99Q60.36 54.12 60.42 54.26Q60.57 54.62 60.57 55.04Q60.57 55.66 60.25 56.38L58.77 59.62Q58.53 60.15 58.26 60.52Q57.97 60.92 57.62 61.19Q57.37 61.38 57.09 61.51Q56.93 61.59 56.77 61.64Q56.29 61.8 55.7 61.8L5.07 61.8Q4.48 61.8 4 61.64Q3.84 61.59 3.69 61.52Q3.4 61.39 3.15 61.19Q2.8 60.92 2.51 60.52Q2.24 60.15 2 59.62L0.52 56.38Q0.2 55.67 0.2 55.05Q0.2 54.62 0.35 54.25Q0.41 54.12 0.49 53.99Q0.55 53.89 0.62 53.8Q0.9 53.47 1.33 53.27Q1.89 53.02 2.64 53.02L3.11 53.02L3.11 49.61Q3.11 49.47 3.16 49.34Q3.21 49.22 3.31 49.11Q3.42 49.01 3.54 48.96Q3.67 48.9 3.82 48.9Q3.96 48.9 4.08 48.95Q4.21 49.01 4.31 49.11Q4.42 49.22 4.47 49.34Q4.52 49.47 4.52 49.61L4.52 53.02L22.31 53.02Q22.45 53.02 22.58 53.07Q22.71 53.12 22.81 53.23Q22.91 53.33 22.97 53.46Q23.02 53.58 23.02 53.73Q23.02 53.91 23.05 54.09Q23.09 54.26 23.16 54.43Q23.22 54.57 23.3 54.7Q23.41 54.86 23.55 55Q23.69 55.14 23.85 55.25Q23.98 55.33 24.12 55.39Q24.3 55.47 24.48 55.5Q24.65 55.54 24.82 55.54L35.95 55.54Q36.12 55.54 36.29 55.5Q36.47 55.47 36.65 55.39Q36.79 55.33 36.92 55.25Q37.08 55.14 37.22 55Q37.36 54.86 37.47 54.7Q37.55 54.57 37.61 54.43Q37.68 54.27 37.71 54.1Q37.75 53.91 37.75 53.73Q37.75 53.58 37.8 53.46Q37.85 53.33 37.96 53.23Q38.06 53.12 38.19 53.07Q38.31 53.02 38.46 53.02L56.25 53.02L56.25 22Q56.25 21.77 56.2 21.55Q56.16 21.34 56.07 21.14Q56 20.96 55.9 20.8Q55.77 20.6 55.6 20.43Q55.41 20.25 55.2 20.12Q55.05 20.03 54.89 19.96Q54.67 19.86 54.44 19.82Q54.24 19.78 54.03 19.78L46 19.78L46 21.92L54.03 21.92Q54.18 21.92 54.3 21.97Q54.43 22.02 54.53 22.13Q54.63 22.23 54.68 22.35Q54.74 22.48 54.74 22.63L54.74 26.74Q54.74 26.89 54.68 27.01Q54.63 27.14 54.53 27.24Q54.42 27.35 54.3 27.4Q54.17 27.45 54.03 27.45Q53.89 27.45 53.76 27.4Q53.63 27.35 53.53 27.24Q53.42 27.14 53.37 27.01Q53.32 26.89 53.32 26.74L53.32 23.34L46 23.34L46 38.11L47.75 38.11Q48 38.11 48.25 38.17Q48.48 38.21 48.71 38.31Q48.9 38.39 49.07 38.5Q49.3 38.64 49.49 38.84Q49.67 39.02 49.81 39.23Q49.93 39.42 50.02 39.62Q50.12 39.85 50.16 40.08Q50.21 40.32 50.21 40.58L50.21 44.21Q50.21 44.47 50.16 44.73Q50.11 44.95 50.02 45.17Q49.94 45.36 49.82 45.54Q49.68 45.76 49.49 45.95Q49.31 46.13 49.1 46.27Q48.92 46.39 48.71 46.48Q48.5 46.57 48.28 46.61Q48.02 46.67 47.75 46.67L13.65 46.67Q13.37 46.67 13.11 46.61Q12.9 46.56 12.69 46.48Q12.48 46.39 12.29 46.26Q12.08 46.13 11.91 45.95Q11.72 45.76 11.57 45.54Q11.46 45.36 11.38 45.17Q11.29 44.96 11.24 44.74Q11.18 44.48 11.18 44.21L11.18 40.58Q11.18 40.32 11.24 40.07Q11.29 39.84 11.38 39.62Q11.46 39.43 11.58 39.25Q11.72 39.03 11.91 38.84Q12.09 38.65 12.31 38.51Q12.49 38.4 12.69 38.31Q12.91 38.22 13.14 38.17Q13.39 38.11 13.65 38.11L15.39 38.11L15.39 23.34L8.08 23.34L8.08 49.46L53.32 49.46L53.32 30.86Q53.32 30.71 53.37 30.58Q53.42 30.46 53.53 30.35Q53.63 30.25 53.76 30.2Q53.88 30.15 54.03 30.15Q54.18 30.15 54.3 30.2Q54.43 30.25 54.53 30.35Q54.63 30.46 54.68 30.58Q54.74 30.71 54.74 30.86L54.74 50.17Q54.74 50.32 54.68 50.45Q54.63 50.57 54.53 50.67Q54.43 50.78 54.3 50.83Q54.18 50.88 54.03 50.88L7.37 50.88Q7.22 50.88 7.09 50.83Q6.97 50.78 6.87 50.67Q6.77 50.57 6.72 50.45Q6.66 50.32 6.66 50.17L6.66 22.63Q6.66 22.48 6.72 22.35Q6.77 22.23 6.87 22.13Q6.97 22.02 7.09 21.97Q7.22 21.92 7.37 21.92L15.39 21.92L15.39 19.78ZM31.71 11.4C32.61 11.61 33.12 12.08 33.13 12.08C33.5 12.42 34.07 12.39 34.41 12.02C34.74 11.64 34.71 11.07 34.34 10.74C34.34 10.73 33.27 9.75 31.51 9.53L31.51 8.33C31.51 7.83 31.1 7.42 30.6 7.42C30.1 7.42 29.69 7.83 29.69 8.33L29.69 9.6C29.5 9.64 29.29 9.69 29.09 9.75C28.23 10.01 27.55 10.51 27.06 11.14C26.62 11.7 26.33 12.36 26.2 13.03C26.06 13.71 26.09 14.41 26.28 15.05C26.47 15.7 26.85 16.28 27.4 16.71C28.09 17.25 28.89 17.67 29.69 18.02L29.69 24.79C29.63 24.79 29.56 24.78 29.49 24.78C29.22 24.76 28.97 24.72 28.73 24.66C28.23 24.54 27.73 24.3 27.07 23.86C26.65 23.59 26.09 23.71 25.81 24.13C25.54 24.55 25.65 25.11 26.07 25.39C26.92 25.94 27.58 26.25 28.29 26.42C28.74 26.53 29.18 26.58 29.69 26.6L29.69 27.94C29.69 28.44 30.1 28.85 30.6 28.85C31.11 28.85 31.51 28.44 31.51 27.94L31.51 26.54C32.85 26.3 33.91 25.58 34.64 24.64C35.15 23.98 35.49 23.21 35.64 22.42C35.8 21.62 35.75 20.78 35.49 20.01C35.08 18.79 34.14 17.74 32.58 17.19C32.2 17.06 31.85 16.93 31.51 16.8L31.51 11.36C31.58 11.37 31.65 11.38 31.71 11.4ZM33.26 11.94Q33.37 12.03 33.5 12.08Q33.62 12.12 33.77 12.12Q33.92 12.11 34.04 12.05Q34.16 11.99 34.26 11.88Q34.36 11.77 34.4 11.65Q34.45 11.52 34.44 11.37Q34.43 11.23 34.37 11.11Q34.31 10.98 34.21 10.88L34.2 10.88L34.2 10.87Q34.16 10.84 34.02 10.74Q33.78 10.55 33.48 10.39Q32.96 10.09 32.4 9.92Q31.96 9.79 31.49 9.73L31.31 9.71L31.31 8.33Q31.31 8.18 31.26 8.06Q31.21 7.93 31.1 7.83Q31 7.73 30.88 7.68Q30.75 7.62 30.6 7.62Q30.46 7.62 30.33 7.67Q30.21 7.73 30.1 7.83Q30 7.93 29.95 8.06Q29.89 8.18 29.89 8.33L29.89 9.76L29.73 9.8Q29.46 9.85 29.14 9.94Q28.74 10.06 28.37 10.27Q28.21 10.36 28.05 10.47Q27.95 10.54 27.84 10.62Q27.5 10.9 27.22 11.26Q26.99 11.55 26.83 11.86Q26.52 12.42 26.39 13.07Q26.3 13.53 26.31 14Q26.31 14.02 26.32 14.05Q26.33 14.54 26.47 14.99Q26.67 15.64 27.07 16.12Q27.27 16.36 27.52 16.56Q27.99 16.92 28.6 17.26Q29.11 17.54 29.78 17.84L29.89 17.89L29.89 25L29.68 24.99Q29.1 24.96 28.68 24.86Q28.29 24.76 27.87 24.56Q27.47 24.37 26.96 24.03Q26.84 23.95 26.71 23.93Q26.57 23.9 26.43 23.93Q26.28 23.96 26.17 24.04Q26.06 24.12 25.98 24.24Q25.9 24.36 25.87 24.49Q25.85 24.63 25.88 24.77Q25.91 24.92 25.99 25.03Q26.06 25.14 26.18 25.22Q26.8 25.62 27.32 25.86Q27.82 26.1 28.34 26.23Q28.93 26.37 29.7 26.4L29.89 26.41L29.89 27.94Q29.89 28.09 29.95 28.21Q30 28.34 30.1 28.44Q30.2 28.54 30.33 28.59Q30.45 28.65 30.6 28.65Q30.75 28.65 30.88 28.59Q31 28.54 31.1 28.44Q31.21 28.34 31.26 28.21Q31.31 28.09 31.31 27.94L31.31 26.37L31.48 26.34Q32.07 26.23 32.6 26Q32.91 25.86 33.2 25.68Q33.44 25.53 33.67 25.35Q34.12 24.99 34.49 24.52Q34.62 24.34 34.74 24.15Q34.94 23.84 35.1 23.5Q35.26 23.14 35.36 22.77Q35.41 22.58 35.45 22.38Q35.53 21.94 35.53 21.5Q35.53 21.36 35.52 21.22Q35.49 20.7 35.35 20.23Q35.33 20.15 35.3 20.07Q35.13 19.57 34.85 19.14Q34.62 18.8 34.32 18.49Q33.6 17.77 32.51 17.38Q31.92 17.17 31.44 16.99L31.31 16.94L31.31 11.12L31.55 11.16Q32 11.24 32.41 11.42Q32.61 11.51 32.8 11.61Q32.98 11.72 33.14 11.83Q33.22 11.9 33.26 11.94ZM29.55 11.29L29.54 11.3Q29.16 11.41 28.85 11.63Q28.56 11.84 28.33 12.13Q28.2 12.29 28.1 12.47Q27.87 12.87 27.78 13.34Q27.65 13.98 27.81 14.54Q27.82 14.57 27.82 14.59Q27.97 15.05 28.27 15.34Q28.33 15.4 28.39 15.44Q28.87 15.83 29.61 16.19L29.89 16.34L29.89 11.21L29.65 11.27Q29.63 11.27 29.6 11.28Q29.57 11.29 29.56 11.29L29.55 11.29ZM29.69 11.46C29.66 11.47 29.63 11.48 29.6 11.49C29.57 11.5 29.53 11.51 29.49 11.52C29.07 11.67 28.74 11.93 28.49 12.26C28.23 12.58 28.06 12.97 27.98 13.38C27.9 13.78 27.91 14.17 28.02 14.53C28.11 14.83 28.27 15.1 28.51 15.29C28.79 15.5 29.11 15.71 29.49 15.91C29.56 15.95 29.63 15.98 29.69 16.01L29.69 11.46ZM31.31 18.45L31.31 24.95L31.56 24.87Q31.89 24.78 32.19 24.64Q32.39 24.53 32.59 24.4Q32.75 24.28 32.9 24.15Q33.16 23.93 33.37 23.66Q33.69 23.24 33.87 22.77Q34 22.46 34.06 22.12Q34.18 21.47 34.06 20.87Q34.02 20.7 33.96 20.53Q33.79 20.03 33.48 19.66Q33.27 19.41 33 19.22Q32.71 19.02 32.32 18.84Q32.05 18.72 31.58 18.55L31.31 18.45ZM31.71 24.62C31.64 24.64 31.58 24.66 31.51 24.68L31.51 18.74C31.58 18.76 31.64 18.79 31.71 18.81C32.64 19.16 33.41 19.54 33.77 20.59C33.93 21.06 33.96 21.58 33.86 22.09C33.77 22.6 33.54 23.1 33.21 23.54C32.84 24.01 32.33 24.4 31.71 24.62ZM21.24 32.42C20.74 32.42 20.33 32.01 20.33 31.51C20.33 31.01 20.74 30.6 21.24 30.6L40.16 30.6C40.66 30.6 41.07 31.01 41.07 31.51C41.07 32.01 40.66 32.42 40.16 32.42L21.24 32.42ZM20.59 31.78Q20.53 31.66 20.53 31.51Q20.53 31.36 20.59 31.23Q20.64 31.11 20.74 31.01Q20.84 30.9 20.97 30.85Q21.09 30.8 21.24 30.8L40.16 30.8Q40.31 30.8 40.43 30.85Q40.56 30.9 40.66 31.01Q40.76 31.11 40.81 31.23Q40.87 31.36 40.87 31.51Q40.87 31.65 40.82 31.78Q40.76 31.9 40.66 32.01Q40.56 32.11 40.43 32.16Q40.31 32.22 40.16 32.22L21.24 32.22Q21.09 32.22 20.97 32.16Q20.84 32.11 20.74 32.01Q20.64 31.91 20.59 31.78ZM21.24 35.93C20.74 35.93 20.33 35.52 20.33 35.02C20.33 34.52 20.74 34.11 21.24 34.11L40.16 34.11C40.66 34.11 41.07 34.52 41.07 35.02C41.07 35.52 40.66 35.93 40.16 35.93L21.24 35.93ZM20.59 35.3Q20.53 35.17 20.53 35.02Q20.53 34.87 20.59 34.74Q20.64 34.62 20.74 34.52Q20.84 34.42 20.97 34.36Q21.09 34.31 21.24 34.31L40.16 34.31Q40.31 34.31 40.43 34.36Q40.56 34.42 40.66 34.52Q40.76 34.62 40.81 34.75Q40.87 34.87 40.87 35.02Q40.87 35.17 40.82 35.29Q40.76 35.42 40.66 35.52Q40.56 35.62 40.43 35.68Q40.3 35.73 40.16 35.73L21.24 35.73Q21.09 35.73 20.97 35.67Q20.84 35.62 20.74 35.52Q20.64 35.42 20.59 35.3ZM21.24 39.44C20.74 39.44 20.33 39.03 20.33 38.53C20.33 38.03 20.74 37.62 21.24 37.62L36.06 37.62C36.56 37.62 36.97 38.03 36.97 38.53C36.97 39.03 36.56 39.44 36.06 39.44L21.24 39.44ZM20.59 38.81Q20.53 38.68 20.53 38.53Q20.53 38.38 20.59 38.25Q20.64 38.13 20.74 38.03Q20.84 37.93 20.97 37.88Q21.09 37.82 21.24 37.82L36.06 37.82Q36.21 37.82 36.34 37.88Q36.46 37.93 36.56 38.03Q36.66 38.13 36.71 38.25Q36.77 38.38 36.77 38.53Q36.77 38.68 36.72 38.81Q36.66 38.93 36.56 39.03Q36.46 39.13 36.34 39.19Q36.21 39.24 36.06 39.24L21.24 39.24Q21.09 39.24 20.97 39.19Q20.84 39.13 20.74 39.03Q20.64 38.93 20.59 38.81ZM46 39.53L46 42.39Q46 42.54 45.95 42.66Q45.9 42.79 45.79 42.89Q45.69 43 45.57 43.05Q45.44 43.1 45.29 43.1L16.1 43.1Q15.96 43.1 15.83 43.05Q15.71 43 15.6 42.89Q15.5 42.79 15.45 42.66Q15.39 42.54 15.39 42.39L15.39 39.53L13.65 39.53Q13.54 39.53 13.43 39.55Q13.33 39.57 13.24 39.61Q13.17 39.64 13.11 39.68Q13 39.75 12.91 39.84Q12.83 39.92 12.77 40.01Q12.72 40.09 12.68 40.17Q12.64 40.28 12.62 40.39Q12.6 40.48 12.6 40.58L12.6 44.21Q12.6 44.31 12.62 44.42Q12.64 44.52 12.68 44.62Q12.72 44.7 12.77 44.78Q12.83 44.87 12.91 44.95Q13.01 45.05 13.14 45.12Q13.19 45.15 13.24 45.17Q13.34 45.21 13.44 45.23Q13.54 45.26 13.65 45.26L47.75 45.26Q47.86 45.26 47.96 45.23Q48.06 45.21 48.16 45.17Q48.26 45.13 48.35 45.07Q48.42 45.02 48.49 44.95Q48.57 44.87 48.63 44.78Q48.68 44.7 48.72 44.62Q48.76 44.52 48.78 44.42Q48.8 44.31 48.8 44.21L48.8 40.58Q48.8 40.48 48.78 40.39Q48.76 40.28 48.71 40.17Q48.68 40.09 48.63 40.01Q48.57 39.92 48.49 39.84Q48.43 39.78 48.36 39.73Q48.27 39.66 48.16 39.61Q48.07 39.57 47.97 39.55Q47.86 39.53 47.75 39.53L46 39.53ZM46.2 39.93L46.2 42.39C46.2 42.9 45.79 43.3 45.29 43.3L16.1 43.3C15.6 43.3 15.2 42.9 15.2 42.39L15.2 39.73L13.65 39.73C13.41 39.73 13.2 39.83 13.05 39.98C12.89 40.14 12.8 40.35 12.8 40.58L12.8 44.21C12.8 44.44 12.89 44.65 13.05 44.81C13.2 44.96 13.41 45.06 13.65 45.06L47.75 45.06C47.98 45.06 48.2 44.96 48.35 44.81C48.5 44.65 48.6 44.44 48.6 44.21L48.6 40.58C48.6 40.35 48.5 40.14 48.35 39.98C48.2 39.83 47.98 39.73 47.75 39.73L46.2 39.73L46.2 39.93ZM5.07 60.38L55.7 60.38Q56.37 60.38 56.76 60.07Q57.15 59.77 57.49 59.04L58.96 55.8Q59.06 55.58 59.12 55.33Q59.21 54.94 59.09 54.74Q58.96 54.54 58.58 54.47Q58.37 54.44 58.12 54.44L39.1 54.44L39.06 54.58Q38.94 54.99 38.73 55.35Q38.52 55.7 38.22 56Q37.99 56.24 37.71 56.42Q37.47 56.58 37.2 56.7Q36.91 56.82 36.62 56.88Q36.29 56.95 35.95 56.95L24.82 56.95Q24.49 56.95 24.16 56.88Q23.86 56.82 23.57 56.7Q23.3 56.58 23.06 56.42Q22.78 56.24 22.54 56Q22.25 55.71 22.05 55.37Q21.83 55 21.71 54.58L21.67 54.44L2.64 54.44Q2.39 54.44 2.18 54.47Q1.81 54.54 1.68 54.74Q1.56 54.94 1.65 55.33Q1.7 55.58 1.81 55.8L3.28 59.04Q3.62 59.77 4.01 60.07Q4.4 60.38 5.07 60.38ZM5.07 60.18L55.7 60.18C56.11 60.18 56.41 60.09 56.63 59.92C56.89 59.72 57.1 59.39 57.3 58.95L58.78 55.71C58.87 55.53 59.04 55.04 58.92 54.85C58.8 54.66 58.32 54.64 58.12 54.64L39.25 54.64C39.09 55.22 38.78 55.73 38.36 56.15C37.74 56.77 36.89 57.15 35.95 57.15L24.82 57.15C23.88 57.15 23.02 56.77 22.4 56.15C21.99 55.73 21.68 55.21 21.52 54.64L2.64 54.64C2.45 54.64 1.97 54.66 1.85 54.85C1.73 55.04 1.9 55.53 1.99 55.71L3.47 58.95C3.66 59.39 3.88 59.72 4.13 59.92C4.35 60.09 4.66 60.18 5.07 60.18Z" fill="#FFFFFF" fill-opacity="1.000000" fill-rule="evenodd"/>
</svg>
