<svg width="55.548340" height="62.200195" viewBox="0 0 55.5483 62.2002" fill="none" xmlns="http://www.w3.org/2000/svg" xmlns:xlink="http://www.w3.org/1999/xlink">
	<desc>
			Created with Pixso.
	</desc>
	<defs/>
	<path id="Vector" d="M54.54 29.89L54.54 20.57C54.54 20.07 54.13 19.66 53.63 19.66C53.13 19.66 52.72 20.07 52.72 20.57L52.72 28.32C51.52 27.72 50.09 27.62 48.79 28.1L48.79 23.35C48.79 18.98 45.23 15.42 40.86 15.42L14.68 15.42C10.31 15.42 6.75 18.98 6.75 23.35L6.75 28.1C5.42 27.61 3.99 27.73 2.82 28.32L2.82 5.88L52.72 5.88L52.72 16.33C52.72 16.83 53.13 17.24 53.63 17.24C54.13 17.24 54.54 16.83 54.54 16.33C54.54 13.51 54.54 5.6 54.54 2.58C54.54 1.21 53.42 0.1 52.05 0.1L3.49 0.1C2.12 0.1 1 1.21 1 2.58L1 29.89C-0.21 31.6 -0.21 33.88 1 35.59L1 45.03C1 46.4 2.12 47.52 3.49 47.52L4.74 47.52C4.81 47.6 4.88 47.68 4.95 47.75L4.95 49.98C3.85 50.13 3 51.07 3 52.22L3 53.73C3 54.9 3.88 55.86 5.02 55.97L5.02 59.54C5.02 60.95 6.16 62.1 7.58 62.1L14.88 62.1C16.29 62.1 17.44 60.95 17.44 59.54L17.44 55.99L21.22 55.99C21.61 56.33 22.12 56.53 22.68 56.53L25.65 56.53C26.15 56.53 26.56 56.13 26.56 55.62C26.56 55.12 26.15 54.72 25.65 54.72L22.68 54.72C22.43 54.72 22.24 54.5 22.24 54.28L22.24 51.67C22.24 51.44 22.44 51.23 22.68 51.23L32.8 51.23C33.06 51.23 33.21 51.37 33.28 51.55C33.28 51.57 33.3 51.6 33.3 51.67L33.3 54.28C33.3 54.5 33.11 54.72 32.86 54.72L29.89 54.72C29.39 54.72 28.98 55.12 28.98 55.62C28.98 56.13 29.39 56.53 29.89 56.53L32.86 56.53C33.42 56.53 33.93 56.33 34.32 55.99L38.1 55.99L38.1 59.54C38.1 60.95 39.25 62.1 40.66 62.1L47.96 62.1C49.38 62.1 50.52 60.95 50.52 59.54L50.52 55.97C51.66 55.86 52.54 54.9 52.54 53.73L52.54 52.22C52.54 51.07 51.69 50.13 50.58 49.98L50.58 47.75C50.66 47.68 50.73 47.6 50.8 47.52L52.05 47.52C53.42 47.52 54.54 46.4 54.54 45.03L54.54 35.59C55.11 34.78 55.44 33.8 55.44 32.74C55.44 31.68 55.11 30.7 54.54 29.89ZM50.23 35.85C49.93 35.13 49.44 34.47 48.79 33.96L48.79 30.13C50.89 28.75 53.63 30.29 53.63 32.74C53.63 34.58 52.05 36.01 50.23 35.85ZM35.05 45.83L20.49 45.83C19.15 45.83 18.07 46.92 18.07 48.25L18.07 49.96L6.77 49.96L6.77 48.41C16.94 48.41 12.41 48.41 13.89 48.41C15.22 48.41 16.31 47.33 16.31 45.99L16.31 44.82C16.31 43.49 15.22 42.41 13.89 42.41C12.56 42.41 8.28 42.41 6.77 42.41L6.77 37.63C6.77 36.04 8.07 34.8 9.6 34.8L45.93 34.8C47.49 34.8 48.77 36.06 48.77 37.63L48.77 42.41C47.37 42.41 43.34 42.41 41.65 42.41C40.31 42.41 39.23 43.49 39.23 44.82L39.23 45.99C39.23 47.33 40.31 48.41 41.65 48.41C42.55 48.41 46.84 48.41 48.77 48.41L48.77 49.96L37.47 49.96L37.47 48.25C37.47 46.92 36.39 45.83 35.05 45.83ZM1.91 32.74C1.91 30.28 4.65 28.75 6.75 30.13L6.75 33.96C6.09 34.47 5.6 35.14 5.31 35.85C3.48 36.01 1.91 34.56 1.91 32.74ZM9.93 44.22L13.89 44.22C14.22 44.22 14.49 44.5 14.49 44.82L14.49 45.99C14.49 46.32 14.22 46.59 13.89 46.59L9.93 46.59C9.98 46.4 10.01 46.2 10.01 45.99L10.01 44.82C10.01 44.61 9.98 44.41 9.93 44.22ZM8.19 44.82L8.19 45.99C8.19 46.32 7.92 46.59 7.59 46.59L6.61 46.59C6.28 46.59 6.01 46.32 6.01 45.99L6.01 44.82C6.01 44.5 6.28 44.22 6.61 44.22L7.59 44.22C7.92 44.22 8.19 44.5 8.19 44.82ZM43.83 32.98L42.48 32.98C42.35 28.74 38.87 25.33 34.6 25.33C30.33 25.33 26.84 28.74 26.71 32.98L11.71 32.98L11.71 23.35C11.71 21.71 13.04 20.38 14.68 20.38L40.86 20.38C42.5 20.38 43.83 21.71 43.83 23.35L43.83 32.98L43.83 32.98ZM31.66 32.98C31.78 31.47 33.05 30.27 34.6 30.27C36.14 30.27 37.41 31.47 37.53 32.98L31.66 32.98ZM34.6 28.45C32.05 28.45 29.96 30.46 29.84 32.98L28.53 32.98C28.65 29.74 31.33 27.14 34.6 27.14C37.87 27.14 40.54 29.74 40.66 32.98L39.35 32.98C39.23 30.46 37.14 28.45 34.6 28.45ZM45.61 46.59L41.65 46.59C41.32 46.59 41.05 46.32 41.05 45.99L41.05 44.82C41.05 44.5 41.32 44.22 41.65 44.22L45.61 44.22C45.56 44.41 45.53 44.61 45.53 44.82L45.53 45.99C45.53 46.2 45.56 46.4 45.61 46.59ZM47.35 45.99L47.35 44.82C47.35 44.5 47.62 44.22 47.95 44.22L48.93 44.22C49.21 44.22 49.46 44.43 49.52 44.72C49.52 44.75 49.53 44.79 49.53 44.82L49.53 45.99C49.53 46.32 49.25 46.59 48.93 46.59L47.95 46.59C47.62 46.59 47.35 46.32 47.35 45.99ZM8.57 23.35C8.57 19.98 11.31 17.24 14.68 17.24L40.86 17.24C44.23 17.24 46.97 19.98 46.97 23.35L46.97 33.1C46.88 33.08 46.7 33.04 46.52 33.02C46.14 32.97 45.94 32.98 45.65 32.98L45.65 23.35C45.65 20.71 43.5 18.56 40.86 18.56L14.68 18.56C12.04 18.56 9.89 20.71 9.89 23.35L9.89 32.98C9.51 32.99 9.14 32.97 8.57 33.1C8.57 31.19 8.57 25.17 8.57 23.35ZM2.82 2.58C2.82 2.21 3.12 1.91 3.49 1.91L52.05 1.91C52.42 1.91 52.72 2.21 52.72 2.58L52.72 4.06L2.82 4.06L2.82 2.58ZM2.82 45.03L2.82 37.16C3.48 37.49 4.23 37.67 4.95 37.68L4.95 43.07C4.95 43.07 4.95 43.07 4.95 43.07C4.48 43.52 4.19 44.14 4.19 44.82L4.19 45.7L3.49 45.7C3.12 45.7 2.82 45.4 2.82 45.03ZM4.81 53.73L4.81 52.22C4.81 51.98 5.01 51.78 5.25 51.78C7.56 51.78 18.93 51.78 20.42 51.78L20.42 54.17C16.62 54.17 8.45 54.17 5.25 54.17C5.01 54.17 4.81 53.97 4.81 53.73ZM15.63 59.54C15.63 59.95 15.29 60.28 14.88 60.28L7.58 60.28C7.17 60.28 6.83 59.95 6.83 59.54L6.83 55.99L15.63 55.99L15.63 59.54L15.63 59.54ZM22.62 49.42C22.08 49.42 21.56 49.61 21.16 49.96L19.89 49.96L19.89 48.25C19.89 47.92 20.16 47.65 20.49 47.65L35.05 47.65C35.38 47.65 35.65 47.92 35.65 48.25L35.65 49.96L34.32 49.96C33.6 49.34 32.83 49.42 32.8 49.42C31.54 49.42 23.9 49.42 22.62 49.42ZM48.71 59.54C48.71 59.95 48.37 60.28 47.96 60.28L40.66 60.28C40.25 60.28 39.91 59.95 39.91 59.54L39.91 55.99L48.71 55.99L48.71 59.54L48.71 59.54ZM50.73 52.22L50.73 53.73C50.73 53.97 50.52 54.17 50.29 54.17C47.21 54.17 38.36 54.17 35.11 54.17L35.11 51.78L50.29 51.78C50.52 51.78 50.73 51.98 50.73 52.22ZM52.72 45.03C52.72 45.4 52.42 45.7 52.05 45.7L51.35 45.7L51.35 44.82C51.35 44.13 51.05 43.51 50.59 43.07C50.59 43.07 50.59 43.07 50.58 43.07L50.58 37.68C51.3 37.67 52.05 37.49 52.72 37.16L52.72 45.03Z" fill="#CB8734" fill-opacity="1.000000" fill-rule="nonzero"/>
	<path id="Vector" d="M54.44 20.57Q54.44 20.23 54.2 20Q53.96 19.76 53.63 19.76Q53.29 19.76 53.06 20Q52.82 20.23 52.82 20.57L52.82 28.48L52.68 28.41Q51.79 27.96 50.79 27.91Q49.77 27.85 48.82 28.2L48.69 28.25L48.69 23.35Q48.69 21.76 48.07 20.3Q47.48 18.9 46.39 17.82Q45.31 16.73 43.9 16.14Q42.45 15.52 40.86 15.52L14.68 15.52Q13.09 15.52 11.64 16.14Q10.23 16.73 9.15 17.82Q8.06 18.9 7.47 20.3Q6.85 21.76 6.85 23.35L6.85 28.25L6.72 28.2Q5.76 27.84 4.73 27.91Q3.74 27.97 2.86 28.41L2.72 28.48L2.72 5.78L52.82 5.78L52.82 16.33Q52.82 16.66 53.06 16.9Q53.29 17.14 53.63 17.14Q53.96 17.14 54.2 16.9Q54.44 16.66 54.44 16.33L54.44 9.37L54.44 2.58Q54.44 2.1 54.25 1.65Q54.07 1.23 53.74 0.9Q53.41 0.56 52.98 0.38Q52.53 0.2 52.05 0.2L3.49 0.2Q3 0.2 2.56 0.38Q2.13 0.56 1.8 0.9Q1.47 1.23 1.29 1.65Q1.1 2.1 1.1 2.58L1.1 29.92L1.08 29.95Q0.64 30.57 0.42 31.29Q0.2 32 0.2 32.74Q0.2 33.48 0.42 34.19Q0.64 34.91 1.08 35.53L1.1 35.56L1.1 45.03Q1.1 45.52 1.29 45.96Q1.47 46.39 1.8 46.72Q2.13 47.05 2.56 47.23Q3 47.42 3.49 47.42L4.79 47.42L4.82 47.46Q4.9 47.56 5.02 47.68L5.06 47.71L5.06 50.07L4.97 50.08Q4.58 50.13 4.23 50.32Q3.89 50.5 3.64 50.79Q3.38 51.08 3.24 51.44Q3.1 51.81 3.1 52.22L3.1 53.73Q3.1 54.14 3.25 54.52Q3.39 54.89 3.66 55.18Q3.92 55.47 4.27 55.65Q4.63 55.83 5.03 55.88L5.12 55.88L5.12 59.54Q5.12 60.04 5.31 60.49Q5.5 60.93 5.84 61.27Q6.18 61.61 6.62 61.8Q7.08 62 7.58 62L14.88 62Q15.38 62 15.84 61.8Q16.28 61.61 16.62 61.27Q16.96 60.93 17.15 60.49Q17.34 60.04 17.34 59.54L17.34 55.89L21.25 55.89L21.28 55.91Q21.57 56.16 21.92 56.29Q22.29 56.43 22.68 56.43L25.65 56.43Q25.99 56.43 26.22 56.2Q26.46 55.96 26.46 55.62Q26.46 55.29 26.22 55.05Q25.99 54.82 25.65 54.82L22.68 54.82Q22.46 54.82 22.3 54.65Q22.14 54.49 22.14 54.28L22.14 51.67Q22.14 51.46 22.3 51.29Q22.46 51.13 22.68 51.13L32.8 51.13Q33.02 51.13 33.17 51.24Q33.3 51.34 33.37 51.51L33.37 51.52L33.37 51.52Q33.37 51.52 33.38 51.53Q33.4 51.6 33.4 51.67L33.4 54.28Q33.4 54.49 33.24 54.65Q33.08 54.82 32.86 54.82L29.89 54.82Q29.55 54.82 29.32 55.05Q29.08 55.29 29.08 55.62Q29.08 55.96 29.32 56.2Q29.55 56.43 29.89 56.43L32.86 56.43Q33.25 56.43 33.62 56.29Q33.97 56.16 34.26 55.91L34.29 55.89L38.2 55.89L38.2 59.54Q38.2 60.04 38.39 60.49Q38.58 60.93 38.92 61.27Q39.26 61.61 39.7 61.8Q40.16 62 40.66 62L47.96 62Q48.46 62 48.92 61.8Q49.36 61.61 49.7 61.27Q50.04 60.93 50.23 60.49Q50.42 60.04 50.42 59.54L50.42 55.88L50.51 55.88Q50.91 55.83 51.27 55.65Q51.62 55.47 51.88 55.18Q52.15 54.89 52.29 54.52Q52.44 54.14 52.44 53.73L52.44 52.22Q52.44 51.81 52.3 51.44Q52.16 51.08 51.9 50.79Q51.65 50.5 51.31 50.32Q50.96 50.13 50.57 50.08L50.48 50.07L50.48 47.71L50.52 47.68Q50.64 47.56 50.72 47.46L50.75 47.42L52.05 47.42Q52.53 47.42 52.98 47.23Q53.41 47.05 53.74 46.72Q54.07 46.39 54.25 45.96Q54.44 45.52 54.44 45.03L54.44 35.56L54.46 35.53Q54.88 34.93 55.11 34.23Q55.34 33.5 55.34 32.74Q55.34 31.97 55.11 31.25Q54.88 30.55 54.46 29.95L54.44 29.92L54.44 20.57ZM54.64 20.57L54.64 29.89L54.54 29.89L54.62 29.83Q55.06 30.46 55.3 31.19Q55.54 31.94 55.54 32.74Q55.54 33.54 55.3 34.29Q55.06 35.02 54.62 35.65L54.54 35.59L54.64 35.59L54.64 45.03Q54.64 45.56 54.43 46.04Q54.24 46.5 53.88 46.86Q53.52 47.22 53.06 47.42Q52.58 47.62 52.05 47.62L50.8 47.62L50.8 47.52L50.88 47.58Q50.78 47.7 50.65 47.82L50.58 47.75L50.68 47.75L50.68 49.98L50.58 49.98L50.6 49.88Q51.02 49.94 51.4 50.14Q51.77 50.34 52.05 50.66Q52.33 50.98 52.48 51.37Q52.64 51.78 52.64 52.22L52.64 53.73Q52.64 54.18 52.48 54.59Q52.32 54.99 52.03 55.31Q51.74 55.63 51.36 55.83Q50.97 56.03 50.53 56.07L50.52 55.97L50.62 55.97L50.62 59.54Q50.62 60.08 50.41 60.57Q50.21 61.05 49.84 61.42Q49.48 61.78 49 61.99Q48.5 62.2 47.96 62.2L40.66 62.2Q40.12 62.2 39.62 61.99Q39.14 61.78 38.78 61.42Q38.41 61.05 38.21 60.57Q38 60.08 38 59.54L38 55.99L38.1 55.99L38.1 56.09L34.32 56.09L34.32 55.99L34.39 56.06Q34.07 56.33 33.69 56.48Q33.29 56.63 32.86 56.63L29.89 56.63Q29.68 56.63 29.5 56.55Q29.32 56.48 29.18 56.34Q29.04 56.2 28.96 56.02Q28.88 55.83 28.88 55.62Q28.88 55.42 28.96 55.23Q29.04 55.05 29.18 54.91Q29.32 54.77 29.5 54.69Q29.68 54.62 29.89 54.62L32.86 54.62Q33 54.62 33.1 54.51Q33.2 54.41 33.2 54.28L33.2 51.67Q33.2 51.63 33.18 51.59Q33.18 51.58 33.18 51.58L33.28 51.55L33.18 51.59Q33.08 51.33 32.8 51.33L22.68 51.33Q22.54 51.33 22.44 51.44Q22.34 51.54 22.34 51.67L22.34 54.28Q22.34 54.41 22.44 54.51Q22.54 54.62 22.68 54.62L25.65 54.62Q25.86 54.62 26.04 54.69Q26.22 54.77 26.36 54.91Q26.5 55.05 26.58 55.23Q26.66 55.42 26.66 55.62Q26.66 55.83 26.58 56.02Q26.5 56.2 26.36 56.34Q26.22 56.48 26.04 56.55Q25.86 56.63 25.65 56.63L22.68 56.63Q22.25 56.63 21.85 56.48Q21.47 56.33 21.15 56.06L21.22 55.99L21.22 56.09L17.44 56.09L17.44 55.99L17.54 55.99L17.54 59.54Q17.54 60.08 17.33 60.57Q17.13 61.05 16.76 61.42Q16.39 61.78 15.92 61.99Q15.42 62.2 14.88 62.2L7.58 62.2Q7.04 62.2 6.54 61.99Q6.06 61.78 5.7 61.42Q5.33 61.05 5.12 60.57Q4.92 60.08 4.92 59.54L4.92 55.97L5.02 55.97L5.01 56.07Q4.57 56.03 4.18 55.83Q3.8 55.63 3.51 55.31Q3.22 54.99 3.06 54.59Q2.9 54.18 2.9 53.73L2.9 52.22Q2.9 51.78 3.05 51.37Q3.21 50.98 3.49 50.66Q3.77 50.34 4.14 50.14Q4.52 49.94 4.94 49.88L4.95 49.98L4.86 49.98L4.86 47.75L4.95 47.75L4.89 47.82Q4.76 47.7 4.66 47.58L4.74 47.52L4.74 47.62L3.49 47.62Q2.96 47.62 2.48 47.42Q2.02 47.22 1.66 46.86Q1.3 46.5 1.11 46.04Q0.9 45.56 0.9 45.03L0.9 35.59L1 35.59L0.92 35.65Q0.46 35 0.23 34.25Q0 33.51 0 32.74Q0 31.97 0.23 31.23Q0.46 30.48 0.92 29.83L1 29.89L0.9 29.89L0.9 2.58Q0.9 2.06 1.11 1.58Q1.3 1.11 1.66 0.75Q2.02 0.4 2.48 0.2Q2.96 0 3.49 0L52.05 0Q52.58 0 53.06 0.2Q53.52 0.4 53.88 0.75Q54.24 1.11 54.43 1.58Q54.64 2.06 54.64 2.58L54.64 9.37L54.64 16.33Q54.64 16.53 54.56 16.72Q54.48 16.9 54.34 17.04Q54.2 17.18 54.02 17.26Q53.83 17.34 53.63 17.34Q53.42 17.34 53.24 17.26Q53.06 17.18 52.92 17.04Q52.78 16.9 52.7 16.72Q52.62 16.53 52.62 16.33L52.62 5.88L52.72 5.88L52.72 5.98L2.82 5.98L2.82 5.88L2.92 5.88L2.92 28.32L2.82 28.32L2.77 28.23Q3.69 27.77 4.72 27.71Q5.79 27.64 6.79 28.01L6.75 28.1L6.65 28.1L6.65 23.35Q6.65 21.72 7.29 20.23Q7.89 18.79 9.01 17.67Q10.12 16.56 11.56 15.95Q13.05 15.32 14.68 15.32L40.86 15.32Q42.49 15.32 43.98 15.95Q45.42 16.56 46.53 17.67Q47.64 18.79 48.25 20.23Q48.89 21.72 48.89 23.35L48.89 28.1L48.79 28.1L48.75 28.01Q49.74 27.64 50.8 27.71Q51.84 27.77 52.77 28.23L52.72 28.32L52.62 28.32L52.62 20.57Q52.62 20.36 52.7 20.17Q52.78 19.99 52.92 19.85Q53.06 19.72 53.24 19.64Q53.42 19.56 53.63 19.56Q53.83 19.56 54.02 19.64Q54.2 19.72 54.34 19.85Q54.48 19.99 54.56 20.17Q54.64 20.36 54.64 20.57ZM48.69 33.96L48.69 30.08L48.73 30.05Q49.52 29.53 50.43 29.51Q51.28 29.49 52.04 29.91Q52.8 30.32 53.25 31.05Q53.73 31.82 53.73 32.74Q53.73 33.44 53.44 34.06Q53.17 34.67 52.68 35.12Q52.19 35.57 51.56 35.79Q50.91 36.01 50.22 35.95L50.16 35.95L50.14 35.89Q49.92 35.35 49.56 34.89Q49.2 34.4 48.72 34.04L48.69 34.01L48.69 33.96ZM48.89 33.96L48.79 33.96L48.85 33.88Q49.34 34.26 49.72 34.77Q50.09 35.25 50.32 35.81L50.23 35.85L50.24 35.75Q50.89 35.81 51.5 35.6Q52.08 35.39 52.54 34.97Q53.01 34.55 53.26 33.98Q53.53 33.39 53.53 32.74Q53.53 31.87 53.08 31.15Q52.66 30.47 51.95 30.08Q51.23 29.69 50.43 29.71Q49.58 29.73 48.84 30.21L48.79 30.13L48.89 30.13L48.89 33.96ZM20.49 45.93Q20.02 45.93 19.59 46.11Q19.17 46.29 18.85 46.61Q18.53 46.93 18.35 47.35Q18.17 47.78 18.17 48.25L18.17 50.06L6.67 50.06L6.67 48.31L13.67 48.31L13.67 48.41L13.67 48.51L13.61 48.51L13.55 48.51Q13.53 48.51 13.52 48.5Q13.5 48.49 13.48 48.48Q13.47 48.47 13.46 48.45Q13.46 48.43 13.46 48.41Q13.46 48.39 13.46 48.37Q13.47 48.35 13.48 48.34Q13.5 48.32 13.52 48.32Q13.53 48.31 13.55 48.31L13.89 48.31Q14.36 48.31 14.79 48.13Q15.21 47.95 15.53 47.63Q15.85 47.31 16.03 46.89Q16.21 46.46 16.21 45.99L16.21 44.82Q16.21 44.35 16.03 43.92Q15.85 43.51 15.53 43.19Q15.21 42.86 14.79 42.69Q14.36 42.51 13.89 42.51L10.27 42.51L6.67 42.51L6.67 37.63Q6.67 37.03 6.91 36.48Q7.13 35.95 7.54 35.55Q7.95 35.15 8.47 34.92Q9.02 34.7 9.6 34.7L45.93 34.7Q46.53 34.7 47.07 34.93Q47.6 35.15 48 35.56Q48.41 35.96 48.64 36.49Q48.87 37.03 48.87 37.63L48.87 42.51L45.07 42.51L41.65 42.51Q41.18 42.51 40.75 42.69Q40.33 42.86 40.01 43.19Q39.69 43.51 39.51 43.92Q39.33 44.35 39.33 44.82L39.33 45.99Q39.33 46.46 39.51 46.89Q39.69 47.31 40.01 47.63Q40.33 47.95 40.75 48.13Q41.18 48.31 41.65 48.31L45.59 48.31L48.87 48.31L48.87 50.06L37.37 50.06L37.37 48.25Q37.37 47.78 37.19 47.35Q37.01 46.93 36.69 46.61Q36.37 46.29 35.95 46.11Q35.52 45.93 35.05 45.93L20.49 45.93ZM20.49 45.73L35.05 45.73Q35.56 45.73 36.03 45.93Q36.48 46.12 36.83 46.47Q37.18 46.82 37.37 47.27Q37.57 47.74 37.57 48.25L37.57 49.96L37.47 49.96L37.47 49.86L48.77 49.86L48.77 49.96L48.67 49.96L48.67 48.41L48.77 48.41L48.77 48.51L45.59 48.51L41.65 48.51Q41.14 48.51 40.67 48.31Q40.22 48.12 39.87 47.77Q39.52 47.42 39.33 46.97Q39.13 46.5 39.13 45.99L39.13 44.82Q39.13 44.31 39.33 43.84Q39.52 43.39 39.87 43.04Q40.22 42.7 40.67 42.5Q41.14 42.31 41.65 42.31L45.07 42.31L48.77 42.31L48.77 42.41L48.67 42.41L48.67 37.63Q48.67 37.07 48.45 36.57Q48.24 36.08 47.86 35.7Q47.48 35.32 46.99 35.11Q46.49 34.9 45.93 34.9L9.6 34.9Q9.06 34.9 8.55 35.11Q8.06 35.31 7.68 35.69Q7.3 36.07 7.09 36.56Q6.87 37.07 6.87 37.63L6.87 42.41L6.77 42.41L6.77 42.31L10.27 42.31L13.89 42.31Q14.4 42.31 14.87 42.5Q15.32 42.7 15.67 43.04Q16.02 43.39 16.21 43.84Q16.41 44.31 16.41 44.82L16.41 45.99Q16.41 46.5 16.21 46.97Q16.02 47.42 15.67 47.77Q15.32 48.12 14.87 48.31Q14.4 48.51 13.89 48.51L13.55 48.51L13.55 48.41L13.55 48.31L13.61 48.31L13.67 48.31Q13.69 48.31 13.71 48.32Q13.73 48.32 13.74 48.34Q13.76 48.35 13.76 48.37Q13.77 48.39 13.77 48.41Q13.77 48.43 13.76 48.45Q13.76 48.47 13.74 48.48Q13.73 48.49 13.71 48.5Q13.69 48.51 13.67 48.51L6.77 48.51L6.77 48.41L6.87 48.41L6.87 49.96L6.77 49.96L6.77 49.86L18.07 49.86L18.07 49.96L17.97 49.96L17.97 48.25Q17.97 47.74 18.17 47.27Q18.36 46.82 18.71 46.47Q19.06 46.12 19.51 45.93Q19.97 45.73 20.49 45.73ZM6.85 30.13L6.85 34.01L6.81 34.04Q6.34 34.4 5.97 34.89Q5.62 35.35 5.4 35.89L5.38 35.95L5.32 35.95Q4.62 36.01 3.97 35.78Q3.35 35.56 2.86 35.11Q2.37 34.66 2.09 34.06Q1.81 33.43 1.81 32.74Q1.81 31.82 2.29 31.05Q2.74 30.32 3.5 29.91Q4.26 29.49 5.11 29.51Q6.02 29.53 6.81 30.05L6.85 30.08L6.85 30.13ZM6.65 30.13L6.75 30.13L6.7 30.21Q5.96 29.73 5.11 29.71Q4.31 29.69 3.59 30.08Q2.88 30.47 2.46 31.15Q2.01 31.87 2.01 32.74Q2.01 33.39 2.28 33.98Q2.53 34.54 2.99 34.97Q3.45 35.39 4.04 35.6Q4.65 35.81 5.3 35.75L5.31 35.85L5.22 35.81Q5.45 35.25 5.81 34.77Q6.2 34.26 6.69 33.88L6.75 33.96L6.65 33.96L6.65 30.13ZM13.89 44.12Q14.18 44.12 14.38 44.33Q14.59 44.54 14.59 44.82L14.59 45.99Q14.59 46.28 14.38 46.49Q14.18 46.69 13.89 46.69L9.8 46.69L9.83 46.57Q9.91 46.27 9.91 45.99L9.91 44.82Q9.91 44.54 9.83 44.25L9.8 44.12L13.89 44.12ZM13.89 44.32L9.93 44.32L9.93 44.22L10.03 44.2Q10.11 44.52 10.11 44.82L10.11 45.99Q10.11 46.3 10.03 46.62L9.93 46.59L9.93 46.49L13.89 46.49Q14.09 46.49 14.24 46.34Q14.39 46.2 14.39 45.99L14.39 44.82Q14.39 44.62 14.24 44.47Q14.09 44.32 13.89 44.32ZM8.29 45.99Q8.29 46.28 8.08 46.49Q7.88 46.69 7.59 46.69L6.61 46.69Q6.32 46.69 6.12 46.48Q5.91 46.28 5.91 45.99L5.91 44.82Q5.91 44.54 6.12 44.33Q6.32 44.12 6.61 44.12L7.59 44.12Q7.88 44.12 8.08 44.33Q8.29 44.54 8.29 44.82L8.29 45.99ZM8.09 45.99L8.09 44.82Q8.09 44.62 7.94 44.47Q7.79 44.32 7.59 44.32L6.61 44.32Q6.41 44.32 6.26 44.47Q6.11 44.62 6.11 44.82L6.11 45.99Q6.11 46.19 6.26 46.34Q6.41 46.49 6.61 46.49L7.59 46.49Q7.8 46.49 7.94 46.34Q8.09 46.2 8.09 45.99ZM42.38 32.98Q42.33 31.44 41.7 30.04Q41.09 28.68 40.02 27.64Q38.95 26.59 37.57 26.02Q36.15 25.43 34.6 25.43Q33.04 25.43 31.62 26.02Q30.24 26.59 29.17 27.64Q28.1 28.68 27.49 30.04Q26.86 31.44 26.81 32.98L26.81 33.08L11.61 33.08L11.61 23.35Q11.61 22.72 11.85 22.15Q12.08 21.6 12.51 21.18Q12.93 20.75 13.48 20.52Q14.06 20.28 14.68 20.28L40.86 20.28Q41.48 20.28 42.05 20.52Q42.6 20.75 43.03 21.18Q43.45 21.6 43.69 22.15Q43.93 22.72 43.93 23.35L43.93 33.08L43.83 33.08L42.38 33.08L42.38 32.98ZM42.58 32.98L42.48 32.98L42.48 32.88L43.83 32.88L43.83 32.88L43.83 32.98L43.73 32.98L43.73 23.35Q43.73 22.76 43.5 22.23Q43.29 21.72 42.89 21.32Q42.49 20.92 41.98 20.7Q41.44 20.48 40.86 20.48L14.68 20.48Q14.1 20.48 13.56 20.7Q13.05 20.92 12.65 21.32Q12.25 21.72 12.04 22.23Q11.81 22.76 11.81 23.35L11.81 32.98L11.71 32.98L11.71 32.88L26.71 32.88L26.71 32.98L26.61 32.98Q26.66 31.39 27.31 29.95Q27.93 28.56 29.03 27.49Q30.13 26.42 31.54 25.83Q33 25.23 34.6 25.23Q36.19 25.23 37.65 25.83Q39.06 26.42 40.16 27.49Q41.26 28.56 41.89 29.95Q42.53 31.39 42.58 32.98ZM34.6 30.17Q35.18 30.17 35.73 30.39Q36.25 30.6 36.66 30.99Q37.08 31.37 37.33 31.87Q37.58 32.39 37.63 32.97L37.64 33.08L31.55 33.08L31.56 32.97Q31.61 32.39 31.86 31.87Q32.11 31.37 32.53 30.99Q32.94 30.6 33.47 30.39Q34.01 30.17 34.6 30.17ZM34.6 30.37Q34.05 30.37 33.54 30.57Q33.05 30.77 32.66 31.13Q32.28 31.49 32.04 31.96Q31.8 32.45 31.76 32.99L31.66 32.98L31.66 32.88L37.53 32.88L37.53 32.98L37.43 32.99Q37.39 32.45 37.15 31.96Q36.92 31.49 36.53 31.13Q36.14 30.77 35.65 30.57Q35.15 30.37 34.6 30.37ZM29.84 33.08L28.42 33.08L28.43 32.98Q28.48 31.76 28.98 30.66Q29.47 29.59 30.31 28.78Q31.16 27.96 32.25 27.51Q33.37 27.04 34.6 27.04Q35.82 27.04 36.94 27.51Q38.03 27.96 38.88 28.78Q39.73 29.59 40.21 30.66Q40.72 31.76 40.76 32.98L40.77 33.08L39.26 33.08L39.25 32.99Q39.21 32.08 38.82 31.25Q38.45 30.46 37.81 29.85Q37.17 29.23 36.36 28.9Q35.51 28.55 34.6 28.55Q33.68 28.55 32.83 28.9Q32.02 29.23 31.38 29.85Q30.74 30.46 30.37 31.25Q29.98 32.08 29.94 32.99L29.94 33.08L29.84 33.08ZM29.84 32.88L29.84 32.98L29.74 32.98Q29.79 32.03 30.19 31.17Q30.57 30.34 31.24 29.7Q31.91 29.06 32.76 28.72Q33.64 28.35 34.6 28.35Q35.55 28.35 36.43 28.72Q37.28 29.06 37.95 29.7Q38.62 30.34 39 31.17Q39.4 32.03 39.45 32.98L39.35 32.98L39.35 32.88L40.66 32.88L40.66 32.98L40.56 32.98Q40.52 31.81 40.03 30.74Q39.56 29.71 38.74 28.92Q37.92 28.13 36.87 27.69Q35.78 27.24 34.6 27.24Q33.41 27.24 32.32 27.69Q31.27 28.13 30.45 28.92Q29.63 29.71 29.16 30.74Q28.67 31.81 28.63 32.98L28.53 32.98L28.53 32.88L29.84 32.88ZM41.65 46.69Q41.36 46.69 41.15 46.49Q40.95 46.28 40.95 45.99L40.95 44.82Q40.95 44.54 41.15 44.33Q41.36 44.12 41.65 44.12L45.74 44.12L45.71 44.25Q45.63 44.54 45.63 44.82L45.63 45.99Q45.63 46.28 45.71 46.57L45.74 46.69L41.65 46.69ZM41.65 46.49L45.61 46.49L45.61 46.59L45.51 46.62Q45.43 46.3 45.43 45.99L45.43 44.82Q45.43 44.52 45.51 44.2L45.61 44.22L45.61 44.32L41.65 44.32Q41.44 44.32 41.3 44.47Q41.15 44.62 41.15 44.82L41.15 45.99Q41.15 46.2 41.3 46.34Q41.44 46.49 41.65 46.49ZM47.25 44.82Q47.25 44.54 47.45 44.33Q47.66 44.12 47.95 44.12L48.93 44.12Q49.18 44.12 49.37 44.28Q49.57 44.45 49.62 44.7Q49.63 44.77 49.63 44.82L49.63 45.99Q49.63 46.28 49.42 46.49Q49.21 46.69 48.93 46.69L47.95 46.69Q47.66 46.69 47.45 46.49Q47.25 46.28 47.25 45.99L47.25 44.82ZM47.45 44.82L47.45 45.99Q47.45 46.2 47.6 46.34Q47.74 46.49 47.95 46.49L48.93 46.49Q49.13 46.49 49.28 46.34Q49.43 46.19 49.43 45.99L49.43 44.82Q49.43 44.78 49.42 44.73Q49.39 44.56 49.24 44.44Q49.1 44.32 48.93 44.32L47.95 44.32Q47.74 44.32 47.6 44.47Q47.45 44.62 47.45 44.82ZM14.68 17.14L40.86 17.14Q42.12 17.14 43.27 17.63Q44.39 18.1 45.25 18.96Q46.11 19.82 46.58 20.93Q47.07 22.08 47.07 23.35L47.07 33.22L46.95 33.19Q46.74 33.15 46.5 33.12Q46.2 33.08 45.8 33.08Q45.7 33.08 45.64 33.08L45.55 33.08L45.55 23.35Q45.55 22.39 45.18 21.52Q44.82 20.68 44.17 20.03Q43.52 19.39 42.68 19.03Q41.81 18.66 40.86 18.66L14.68 18.66Q13.73 18.66 12.86 19.03Q12.02 19.39 11.37 20.03Q10.72 20.68 10.36 21.52Q9.99 22.39 9.99 23.35L9.99 33.08L9.89 33.08Q9.83 33.08 9.71 33.08Q9.39 33.09 9.21 33.1Q8.91 33.12 8.59 33.19L8.47 33.22L8.47 28.25L8.47 23.35Q8.47 22.08 8.96 20.93Q9.43 19.82 10.29 18.96Q11.15 18.1 12.26 17.63Q13.42 17.14 14.68 17.14ZM14.68 17.34Q13.46 17.34 12.34 17.81Q11.26 18.27 10.43 19.1Q9.6 19.93 9.14 21.01Q8.67 22.13 8.67 23.35L8.67 28.25L8.67 33.1L8.57 33.1L8.55 33Q8.87 32.92 9.19 32.9Q9.38 32.89 9.71 32.88Q9.83 32.88 9.89 32.88L9.89 32.98L9.79 32.98L9.79 23.35Q9.79 22.35 10.18 21.45Q10.55 20.57 11.23 19.89Q11.9 19.22 12.78 18.85Q13.69 18.46 14.68 18.46L40.86 18.46Q41.85 18.46 42.76 18.85Q43.64 19.22 44.31 19.89Q44.99 20.57 45.36 21.45Q45.75 22.35 45.75 23.35L45.75 32.98L45.65 32.98L45.65 32.88Q45.7 32.88 45.8 32.88Q46.21 32.88 46.53 32.92Q46.78 32.95 46.99 33L46.97 33.1L46.87 33.1L46.87 23.35Q46.87 22.13 46.4 21.01Q45.94 19.93 45.11 19.1Q44.27 18.27 43.2 17.81Q42.08 17.34 40.86 17.34L14.68 17.34ZM3.49 1.81L52.05 1.81Q52.37 1.81 52.59 2.04Q52.82 2.26 52.82 2.58L52.82 4.16L2.72 4.16L2.72 2.58Q2.72 2.26 2.94 2.04Q3.17 1.81 3.49 1.81ZM3.49 2.01Q3.25 2.01 3.09 2.18Q2.92 2.35 2.92 2.58L2.92 4.06L2.82 4.06L2.82 3.96L52.72 3.96L52.72 4.06L52.62 4.06L52.62 2.58Q52.62 2.35 52.45 2.18Q52.29 2.01 52.05 2.01L3.49 2.01ZM2.86 37.07Q3.35 37.31 3.89 37.44Q4.42 37.57 4.96 37.58L5.06 37.58L5.06 43.11L5.02 43.14Q5.03 43.14 5.03 43.14Q5.02 43.14 5.02 43.14Q4.68 43.47 4.49 43.9Q4.29 44.34 4.29 44.82L4.29 45.8L3.49 45.8Q3.17 45.8 2.94 45.58Q2.72 45.35 2.72 45.03L2.72 37L2.86 37.07ZM2.77 37.25L2.82 37.16L2.92 37.16L2.92 45.03Q2.92 45.27 3.09 45.44Q3.25 45.6 3.49 45.6L4.19 45.6L4.19 45.7L4.09 45.7L4.09 44.82Q4.09 44.3 4.3 43.82Q4.51 43.35 4.88 43Q4.88 43 4.88 43Q4.88 43 4.89 42.99L4.95 43.07L4.86 43.07L4.86 37.68L4.95 37.68L4.95 37.78Q4.4 37.77 3.84 37.64Q3.28 37.5 2.77 37.25ZM4.71 52.22Q4.71 52 4.87 51.84Q5.03 51.68 5.25 51.68L12.72 51.68L20.52 51.68L20.52 54.27L13.18 54.27L5.25 54.27Q5.03 54.27 4.87 54.11Q4.71 53.95 4.71 53.73L4.71 52.22ZM4.91 52.22L4.91 53.73Q4.91 53.87 5.01 53.97Q5.12 54.07 5.25 54.07L13.18 54.07L20.42 54.07L20.42 54.17L20.33 54.17L20.33 51.78L20.42 51.78L20.42 51.88L12.72 51.88L5.25 51.88Q5.12 51.88 5.01 51.98Q4.91 52.08 4.91 52.22ZM14.88 60.38L7.58 60.38Q7.4 60.38 7.25 60.31Q7.1 60.25 6.98 60.13Q6.86 60.01 6.8 59.86Q6.73 59.71 6.73 59.54L6.73 55.89L15.73 55.89L15.73 59.54L15.63 59.54L15.63 59.44L15.73 59.44L15.73 59.54Q15.73 59.71 15.66 59.86Q15.6 60.01 15.48 60.13Q15.36 60.25 15.21 60.31Q15.05 60.38 14.88 60.38ZM14.88 60.18Q15.15 60.18 15.34 59.99Q15.53 59.8 15.53 59.54L15.63 59.54L15.63 59.64L15.53 59.64L15.53 55.99L15.63 55.99L15.63 56.09L6.83 56.09L6.83 55.99L6.93 55.99L6.93 59.54Q6.93 59.8 7.12 59.99Q7.31 60.18 7.58 60.18L14.88 60.18ZM21.16 50.06L19.79 50.06L19.79 48.25Q19.79 47.96 19.99 47.76Q20.2 47.55 20.49 47.55L35.05 47.55Q35.34 47.55 35.55 47.76Q35.75 47.96 35.75 48.25L35.75 50.06L34.29 50.06L34.26 50.04Q33.86 49.7 33.37 49.58Q33.11 49.51 32.83 49.52Q32.79 49.52 32.78 49.51L32.8 49.42L32.8 49.52L27.71 49.52L22.62 49.52Q22.24 49.52 21.87 49.65Q21.51 49.79 21.22 50.04L21.19 50.06L21.16 50.06ZM21.16 49.86L21.16 49.96L21.09 49.88Q21.41 49.61 21.8 49.46Q22.2 49.32 22.62 49.32L27.71 49.32L32.81 49.32L32.82 49.32Q32.81 49.32 32.81 49.32Q32.81 49.32 32.81 49.32Q32.81 49.32 32.83 49.32Q33.13 49.31 33.41 49.38Q33.96 49.51 34.39 49.88L34.32 49.96L34.32 49.86L35.65 49.86L35.65 49.96L35.55 49.96L35.55 48.25Q35.55 48.05 35.4 47.9Q35.26 47.75 35.05 47.75L20.49 47.75Q20.28 47.75 20.14 47.9Q19.99 48.05 19.99 48.25L19.99 49.96L19.89 49.96L19.89 49.86L21.16 49.86ZM47.96 60.38L40.66 60.38Q40.48 60.38 40.33 60.31Q40.18 60.25 40.06 60.13Q39.94 60.01 39.88 59.86Q39.81 59.71 39.81 59.54L39.81 55.89L48.81 55.89L48.81 59.54L48.71 59.54L48.71 59.44L48.81 59.44L48.81 59.54Q48.81 59.71 48.74 59.86Q48.68 60.01 48.56 60.13Q48.44 60.25 48.29 60.31Q48.14 60.38 47.96 60.38ZM47.96 60.18Q48.23 60.18 48.42 59.99Q48.61 59.8 48.61 59.54L48.71 59.54L48.71 59.64L48.61 59.64L48.61 55.99L48.71 55.99L48.71 56.09L39.91 56.09L39.91 55.99L40.01 55.99L40.01 59.54Q40.01 59.8 40.2 59.99Q40.39 60.18 40.66 60.18L47.96 60.18ZM50.83 53.73Q50.83 53.95 50.67 54.11Q50.51 54.27 50.29 54.27L42.63 54.27L35.01 54.27L35.01 51.68L50.29 51.68Q50.51 51.68 50.67 51.84Q50.83 52 50.83 52.22L50.83 53.73ZM50.63 53.73L50.63 52.22Q50.63 52.08 50.52 51.98Q50.42 51.88 50.29 51.88L35.11 51.88L35.11 51.78L35.21 51.78L35.21 54.17L35.11 54.17L35.11 54.07L42.63 54.07L50.29 54.07Q50.42 54.07 50.52 53.97Q50.63 53.87 50.63 53.73ZM52.05 45.8L51.25 45.8L51.25 44.82Q51.25 44.34 51.05 43.89Q50.86 43.47 50.52 43.14L50.52 43.14L50.52 43.14Q50.52 43.14 50.51 43.14Q50.52 43.14 50.52 43.14L50.48 43.11L50.48 37.58L50.58 37.58Q51.12 37.57 51.65 37.44Q52.19 37.31 52.68 37.07L52.82 37L52.82 45.03Q52.82 45.35 52.59 45.58Q52.37 45.8 52.05 45.8ZM52.05 45.6Q52.29 45.6 52.45 45.44Q52.62 45.27 52.62 45.03L52.62 37.16L52.72 37.16L52.77 37.25Q52.26 37.5 51.69 37.64Q51.14 37.77 50.59 37.78L50.58 37.68L50.68 37.68L50.68 43.07L50.58 43.07L50.65 42.99Q50.65 42.99 50.66 43Q50.66 43 50.66 43L50.59 43.07L50.66 43Q51.03 43.35 51.23 43.81Q51.45 44.29 51.45 44.82L51.45 45.7L51.35 45.7L51.35 45.6L52.05 45.6Z" fill="#FFFFFF" fill-opacity="1.000000" fill-rule="evenodd"/>
</svg>
